<svg width="115" height="37" viewBox="0 0 115 37" fill="none" xmlns="http://www.w3.org/2000/svg">
<path d="M14.4976 11.6297C14.8857 11.781 15.2811 11.9107 15.6546 12.1053C17.0898 12.8475 17.9172 14.0291 18.2467 15.5639C18.5982 17.2212 18.4664 18.8136 17.5218 20.2763C16.6138 21.6957 15.2299 22.4595 13.6409 22.8991C12.6597 23.1729 11.6492 23.2882 10.6313 23.2882C7.24101 23.2954 3.84337 23.2882 0.453046 23.2954C0.189436 23.2954 0.116211 23.2377 0.116211 22.9711C0.123533 16.0251 0.123533 9.07179 0.116211 2.12574C0.116211 1.90237 0.130856 1.80149 0.416434 1.80149C3.93856 1.8087 7.46069 1.78708 10.9828 1.82311C12.3302 1.83752 13.6702 2.02486 14.9004 2.64453C16.4015 3.40831 17.1484 4.66206 17.3241 6.28328C17.4193 7.16956 17.3827 8.04862 17.0898 8.89166C16.687 10.0373 15.8596 10.8155 14.8125 11.392C14.7026 11.4568 14.5562 11.4712 14.4976 11.6297ZM4.89781 16.6519C4.89781 17.567 4.89781 18.4821 4.89781 19.3972C4.89781 19.5629 4.9271 19.6494 5.12481 19.6422C7.02866 19.6062 8.93983 19.7215 10.8437 19.5701C11.7297 19.4981 12.5572 19.2243 13.1283 18.4893C13.6262 17.848 13.6629 17.0915 13.6043 16.3349C13.5237 15.2036 12.9819 14.375 11.8542 13.9715C11.3856 13.8058 10.8949 13.7049 10.397 13.7049C8.65426 13.6905 6.90418 13.7049 5.16142 13.6977C4.94907 13.6977 4.88316 13.7481 4.88316 13.9643C4.90513 14.865 4.89781 15.7585 4.89781 16.6519ZM7.63643 10.5057C8.42726 10.5057 9.21809 10.5417 10.0089 10.4985C11.3709 10.4264 12.6231 9.8716 12.7182 8.18552C12.7842 6.94619 12.3228 6.05271 11.0414 5.65641C10.5947 5.51951 10.1334 5.46186 9.67208 5.46186C8.17829 5.44745 6.67718 5.46186 5.18339 5.45466C4.95639 5.45466 4.89049 5.5123 4.89049 5.73567C4.89781 7.24161 4.89781 8.74034 4.89049 10.2463C4.89049 10.4624 4.95639 10.5129 5.16874 10.5057C5.98886 10.4985 6.81631 10.5057 7.63643 10.5057ZM95.5798 12.5376C95.5798 9.06459 95.5798 5.59156 95.5798 2.11133C95.5798 1.90957 95.5798 1.79429 95.858 1.79429C99.0653 1.8087 102.28 1.75826 105.487 1.82311C107.955 1.87355 110.195 2.62291 111.997 4.36663C113.19 5.51951 113.937 6.92457 114.399 8.48815C114.713 9.54015 114.845 10.621 114.889 11.7234C114.977 13.8346 114.743 15.9026 113.879 17.8552C112.583 20.8095 110.283 22.5388 107.069 23.108C106.329 23.2377 105.59 23.2882 104.843 23.2882C101.884 23.2882 98.9188 23.281 95.9605 23.2954C95.6164 23.2954 95.5651 23.1945 95.5651 22.8919C95.5798 19.4404 95.5798 15.989 95.5798 12.5376ZM100.361 12.5448C100.361 14.7065 100.369 16.8681 100.354 19.0369C100.354 19.2675 100.405 19.3396 100.654 19.3396C102.031 19.3252 103.408 19.3396 104.784 19.3324C105.524 19.3252 106.241 19.1883 106.93 18.9072C108.482 18.2587 109.353 17.041 109.785 15.4991C110.298 13.6833 110.217 11.8387 109.807 10.0157C109.522 8.73314 108.936 7.6235 107.83 6.8309C106.82 6.11035 105.656 5.81493 104.425 5.78611C103.166 5.75008 101.914 5.7789 100.654 5.76449C100.413 5.76449 100.354 5.82214 100.354 6.05992C100.361 8.21435 100.361 10.3832 100.361 12.5448ZM72.3015 23.2882C73.6635 19.7359 75.0108 16.234 76.3655 12.725C77.7275 9.18708 79.0895 5.6492 80.4441 2.11133C80.532 1.88075 80.6418 1.79429 80.9054 1.79429C82.348 1.8087 83.7905 1.8087 85.233 1.79429C85.4234 1.79429 85.5113 1.85193 85.5772 2.02486C88.2353 9.02136 90.8933 16.0179 93.5587 23.0071C93.588 23.0864 93.61 23.1657 93.6539 23.2809C93.4562 23.2809 93.2805 23.2809 93.1047 23.2809C91.7135 23.2809 90.3295 23.2737 88.9382 23.2882C88.7479 23.2882 88.66 23.2377 88.6014 23.0504C88.1254 21.6381 87.6348 20.2258 87.1589 18.8136C87.0783 18.5758 86.9831 18.4821 86.7122 18.4893C84.1933 18.5037 81.6816 18.5037 79.1627 18.4893C78.9211 18.4893 78.8185 18.547 78.7307 18.7847C78.2327 20.2114 77.7055 21.6309 77.1929 23.0576C77.1417 23.1945 77.1051 23.2954 76.9147 23.2882C75.3916 23.2882 73.8612 23.2882 72.3015 23.2882ZM85.7749 14.9875C84.845 12.3359 83.9296 9.72029 82.985 7.01824C82.9118 7.18397 82.8752 7.25602 82.8459 7.32807C82.5896 8.03421 82.3407 8.74034 82.0844 9.44648C81.4473 11.2118 80.8103 12.9699 80.1805 14.7353C80.1439 14.8434 80.0048 14.9947 80.2977 14.9875C82.1063 14.9803 83.915 14.9875 85.7749 14.9875ZM26.4553 2.14015C26.4553 1.89516 26.426 1.79429 26.1331 1.80149C24.7345 1.82311 23.3359 1.8159 21.9373 1.80149C21.7249 1.80149 21.6664 1.85914 21.6664 2.06809C21.6737 9.05738 21.6737 16.0467 21.6664 23.0432C21.6664 23.2593 21.7396 23.3026 21.9373 23.3026C23.3286 23.2954 24.7125 23.2882 26.1038 23.3026C26.3967 23.3026 26.4553 23.2305 26.4553 22.9567C26.448 19.4909 26.448 16.0323 26.448 12.5664C26.4553 9.08621 26.448 5.61318 26.4553 2.14015Z" fill="#1E1E1C"/>
<path d="M85.4678 31.2066C86.2221 30.1258 87.6573 30.1186 88.2211 31.2859C88.514 30.8391 88.8948 30.5221 89.444 30.4212C90.2934 30.2627 91.0549 30.8463 91.1794 31.7758C91.3112 32.7846 91.216 33.8006 91.2453 34.8093C91.2526 34.9462 91.1867 34.9606 91.0696 34.9678C90.4398 35.0183 90.4471 35.0183 90.4398 34.3914C90.4325 33.6276 90.4764 32.8566 90.4105 32.0929C90.3519 31.4516 89.9492 31.0193 89.4147 31.0481C88.8582 31.0769 88.3895 31.5741 88.3895 32.1649C88.3822 33.008 88.3822 33.851 88.3968 34.694C88.4042 34.9174 88.3383 35.0039 88.1113 34.9678C88.038 34.9534 87.9575 34.9534 87.8843 34.9678C87.6573 35.0039 87.5914 34.9174 87.5987 34.694C87.6133 33.9159 87.606 33.1377 87.5987 32.3595C87.5987 32.1721 87.5767 31.9776 87.5328 31.7902C87.3351 31.0337 86.515 30.8103 85.9438 31.3507C85.6655 31.6173 85.5264 31.9416 85.5264 32.3162C85.5264 33.1016 85.5191 33.8942 85.5337 34.6796C85.5337 34.8886 85.4971 35.0039 85.2555 34.9606C85.2042 34.9534 85.1456 34.9534 85.0944 34.9606C84.8234 35.0039 84.7356 34.9174 84.7356 34.6292C84.7502 33.3178 84.7283 32.0064 84.7209 30.695C84.7209 30.5509 84.7576 30.5221 84.8967 30.5149C85.3653 30.4933 85.3653 30.4861 85.4312 30.9472C85.4312 31.0193 85.4459 31.0913 85.4678 31.2066ZM2.84797 31.5381C3.51432 31.1922 3.7999 30.7238 3.71935 30.0177C3.64612 29.3764 3.21409 29.0306 2.62829 28.8576C1.80085 28.6126 0.958762 28.7135 0.123996 28.8072C-0.0297766 28.8216 0.0141584 28.9441 0.0141584 29.0233C0.0141584 30.9328 0.0141584 32.835 0.00683594 34.7445C0.00683594 34.8886 0.036126 34.9678 0.189899 34.9751C1.11986 35.0111 2.04982 35.1192 2.94316 34.7517C3.75596 34.4202 4.17334 33.5556 3.91706 32.7342C3.74132 32.1577 3.30196 31.8407 2.68687 31.6317C2.77474 31.5741 2.81136 31.5525 2.84797 31.5381ZM0.790344 32.1721C0.790344 32.0785 0.768377 31.9776 0.929472 31.9848C1.36882 31.9992 1.8155 31.9416 2.24752 32.0785C2.84065 32.2658 3.15551 32.6837 3.12622 33.2602C3.10426 33.815 2.73813 34.2113 2.12304 34.3482C1.77156 34.4274 1.41276 34.4346 1.05395 34.413C0.863569 34.3986 0.761054 34.3482 0.783022 34.132C0.804989 33.815 0.790344 33.4907 0.790344 33.1737C0.790344 32.835 0.790344 32.5036 0.790344 32.1721ZM0.790344 29.5926C0.775699 29.3908 0.870892 29.3188 1.03931 29.3188C1.37615 29.3188 1.70566 29.2755 2.04249 29.3548C2.67223 29.5133 2.96513 29.8304 2.93584 30.378C2.90655 30.8607 2.48184 31.2787 1.93998 31.3435C1.57385 31.3867 1.11986 31.5236 0.870892 31.3291C0.643894 31.149 0.834279 30.6878 0.797667 30.414C0.790344 30.1042 0.812312 29.8448 0.790344 29.5926ZM57.818 31.4084C57.4226 32.1361 57.3567 32.8999 57.635 33.6781C57.9425 34.5211 58.6455 34.9751 59.5608 34.939C60.0953 34.9174 60.5054 34.6652 60.8862 34.1969C60.8862 34.8958 60.9521 35.5515 60.3882 35.9694C59.6413 36.5242 58.8578 36.2792 58.0743 35.955C58.045 36.0415 58.0304 36.1423 57.9791 36.2144C57.7961 36.5098 57.9718 36.6179 58.2208 36.7044C58.5356 36.8196 58.8725 36.8845 59.202 36.8917C60.4249 36.9133 61.5525 36.517 61.6331 34.9102C61.699 33.5844 61.677 32.2514 61.699 30.9184C61.7063 30.5005 61.7063 30.5149 61.2889 30.4933C61.0399 30.4788 60.9594 30.5581 60.9887 30.7887C61.0033 30.8751 60.9887 30.9688 60.9887 31.1562C60.0001 29.9096 58.3745 30.3852 57.818 31.4084ZM60.5127 33.9807C59.9489 34.5355 59.0189 34.4491 58.5796 33.7934C58.1768 33.1881 58.2061 32.1145 58.6382 31.5308C58.953 31.1057 59.5169 30.9256 60.0148 31.0841C60.542 31.2498 60.8569 31.675 60.8569 32.2298C60.8569 32.3811 60.8569 32.5252 60.8569 32.6765C60.8715 33.1449 60.8935 33.606 60.5127 33.9807ZM94.2402 30.9688C94.2256 30.5077 94.2256 30.5077 93.7496 30.5149C93.7276 30.5149 93.7057 30.5149 93.6837 30.5149C93.5446 30.5005 93.5006 30.5437 93.5006 30.6878C93.5153 32.5396 93.5153 34.3914 93.5226 36.2432C93.5226 36.798 93.5226 36.7908 94.0791 36.798C94.2768 36.798 94.3427 36.7548 94.3354 36.553C94.3208 36.1351 94.3281 35.7244 94.3281 35.3065C94.3281 35.0183 94.3281 34.7301 94.3281 34.3842C95.3386 35.5083 96.8543 35.0687 97.3889 34.2329C97.8575 33.4979 97.9307 32.7053 97.7111 31.8767C97.5207 31.1778 97.1033 30.6518 96.3711 30.4716C95.6022 30.2771 94.9432 30.4716 94.4233 31.0841C94.394 31.1201 94.35 31.149 94.2549 31.2282C94.2402 31.0913 94.2402 31.0337 94.2402 30.9688ZM94.7747 31.3867C95.4484 30.7527 96.4809 30.9904 96.8397 31.8551C97.0887 32.4459 97.074 33.0584 96.8251 33.6493C96.5834 34.2473 96.0123 34.5355 95.3532 34.4274C94.7894 34.3338 94.3574 33.8222 94.3207 33.2097C94.3134 33.0728 94.3207 32.9359 94.3207 32.727C94.2841 32.2658 94.3647 31.7614 94.7747 31.3867ZM30.9151 28.9225C30.9151 28.4109 30.9151 28.4253 30.3879 28.4037C30.1243 28.3965 30.0731 28.4757 30.0731 28.7207C30.0804 30.6158 30.0804 32.518 30.0804 34.413C30.0804 34.9678 30.0804 34.9534 30.6369 34.9678C30.8639 34.9751 30.9298 34.9174 30.9225 34.6868C30.9078 33.8582 30.9151 33.0224 30.9151 32.1937C30.9151 31.502 31.5669 30.9616 32.2625 31.0841C32.7897 31.1706 33.1119 31.5885 33.1265 32.2298C33.1412 32.9647 33.1265 33.6997 33.1265 34.4346C33.1265 34.9823 33.1265 34.9751 33.6977 34.9678C33.8734 34.9678 33.9393 34.9246 33.9393 34.7373C33.932 33.887 33.9393 33.0296 33.932 32.1793C33.9247 31.6605 33.8002 31.1634 33.3902 30.7959C32.6725 30.1546 31.6181 30.3059 30.9078 31.1922C30.9151 30.3852 30.9151 29.6502 30.9151 28.9225ZM10.0826 34.8742C10.976 35.2417 11.818 35.1192 12.5503 34.4923C13.2386 33.9014 13.4583 32.6909 13.0848 31.7254C12.7773 30.9256 12.0377 30.4212 11.1663 30.4068C9.77506 30.378 8.8451 31.3075 8.83046 32.727C8.83046 33.7645 9.24784 34.5283 10.0826 34.8742ZM10.0021 31.5236C10.5293 30.8031 11.5764 30.8175 12.089 31.5453C12.5283 32.1793 12.543 33.2025 12.1256 33.8438C11.5471 34.7301 10.4048 34.6868 9.89222 33.7573C9.70916 33.4331 9.63593 33.0872 9.63593 32.6837C9.6579 32.2946 9.73845 31.8839 10.0021 31.5236ZM76.6955 29.1891C76.8126 28.9513 76.7028 28.8576 76.4831 28.7928C75.868 28.6198 75.2383 28.5838 74.6232 28.6991C73.1001 28.9873 72.2068 29.8952 72.0091 31.4156C71.8773 32.4099 72.053 33.3682 72.7779 34.1464C73.7518 35.1984 75.4433 35.2128 76.6076 34.8237C76.6735 34.8021 76.7687 34.7877 76.7394 34.6796C76.6955 34.5139 76.6881 34.3266 76.5929 34.2041C76.5124 34.096 76.366 34.2545 76.2488 34.2689C76.1536 34.2833 76.0584 34.3122 75.9632 34.3266C75.0406 34.4635 74.1692 34.413 73.4736 33.6997C72.8731 33.08 72.7852 32.309 72.8438 31.502C72.9171 30.4428 73.5834 29.6142 74.55 29.3764C75.2383 29.2107 75.9193 29.2611 76.5856 29.5349C76.6149 29.4341 76.6369 29.3044 76.6955 29.1891ZM43.3854 34.903C44.2641 35.2561 45.3039 35.0687 45.9116 34.3914C46.6073 33.6204 46.6805 32.7125 46.351 31.7686C46.0581 30.9256 45.3039 30.414 44.4105 30.4068C43.0046 30.3924 42.0966 31.3219 42.0966 32.7846C42.1039 33.7934 42.5726 34.5715 43.3854 34.903ZM45.3478 33.9086C44.7913 34.6796 43.7735 34.6652 43.2316 33.8798C42.8069 33.2602 42.7996 32.2082 43.2243 31.5813C43.7881 30.7455 44.9597 30.8031 45.4503 31.6966C45.6261 32.0208 45.7066 32.3667 45.6993 32.6477C45.692 33.1593 45.5968 33.5628 45.3478 33.9086ZM81.6089 30.6518C80.3787 30.0249 78.6286 30.5653 78.343 32.2298C78.1673 33.2746 78.5114 34.2761 79.2803 34.7301C80.0345 35.184 80.818 35.184 81.5869 34.7949C82.4217 34.3626 82.7073 33.6132 82.7292 32.9359C82.7292 31.783 82.3192 31.0193 81.6089 30.6518ZM81.5649 33.8798C81.0304 34.6652 79.9979 34.6796 79.4561 33.9086C78.9947 33.253 79.0021 32.1433 79.478 31.5092C79.9906 30.8175 81.0524 30.8247 81.5503 31.5308C81.7993 31.8911 81.9091 32.2946 81.8798 32.727C81.9018 33.1521 81.7993 33.534 81.5649 33.8798ZM53.0731 30.4572C52.1065 30.659 51.3889 31.5236 51.3596 32.6117C51.3303 33.5195 51.5939 34.3194 52.458 34.7949C53.8126 35.5371 55.841 34.7589 55.7824 32.727C55.8556 31.1922 54.6254 30.133 53.0731 30.4572ZM52.5019 31.5885C53.0438 30.7671 54.2007 30.7959 54.6913 31.6461C55.0575 32.2874 55.0721 32.9647 54.7865 33.6348C54.5522 34.1897 54.0177 34.5211 53.4978 34.4851C52.9266 34.4418 52.436 33.9951 52.2676 33.3754C52.209 33.1593 52.1797 32.9359 52.1944 32.7486C52.187 32.3018 52.2749 31.9271 52.5019 31.5885ZM102.91 34.9606C102.932 34.9606 102.954 34.9606 102.976 34.9606C103.064 34.9606 103.078 34.9174 103.071 34.8381C102.961 33.9447 103.056 33.0512 103.013 32.1577C102.983 31.5453 102.866 30.9544 102.258 30.6302C101.475 30.2195 100.684 30.3636 99.9298 30.7238C99.6808 30.8463 99.9078 31.0409 99.9444 31.1922C99.9957 31.3939 100.12 31.2354 100.186 31.1994C100.464 31.0625 100.757 31.0048 101.057 30.976C101.702 30.9112 102.097 31.2498 102.192 31.8767C102.222 32.0929 102.156 32.1145 101.965 32.1289C101.35 32.1577 100.735 32.2226 100.186 32.5396C99.5856 32.8927 99.322 33.534 99.5124 34.1752C99.6735 34.7373 100.201 35.0687 100.896 35.0615C101.446 35.0543 101.878 34.8093 102.251 34.413C102.376 35.0039 102.376 35.0039 102.91 34.9606ZM101.138 34.4851C100.743 34.5067 100.464 34.341 100.333 34.0239C100.201 33.6925 100.289 33.2674 100.552 33.0584C101.014 32.6981 101.57 32.6837 102.127 32.6909C102.214 32.6909 102.229 32.7486 102.229 32.8206C102.229 32.9359 102.229 33.0584 102.229 33.1737C102.31 33.9951 101.716 34.4563 101.138 34.4851ZM22.2966 32.8855C22.9483 32.8855 22.9483 32.8855 22.919 32.2442C22.8604 30.7887 21.4325 29.9529 20.1218 30.6085C19.4188 30.9616 19.0746 31.5741 18.9721 32.3162C18.8477 33.2169 18.9648 34.0816 19.7923 34.6508C20.6563 35.2489 21.6156 35.1408 22.5455 34.8237C22.8165 34.7301 22.5528 34.5139 22.5602 34.3554C22.5675 34.2185 22.4503 34.2545 22.3478 34.2905C21.9377 34.4418 21.4984 34.4418 21.0664 34.4274C20.3414 34.4058 19.741 33.815 19.7117 33.0944C19.7044 32.9359 19.7337 32.8711 19.9167 32.8783C20.3707 32.8927 20.8247 32.8855 21.2787 32.8855C21.6229 32.8855 21.9597 32.8855 22.2966 32.8855ZM19.9241 32.309C19.8362 32.309 19.7044 32.3451 19.7337 32.1793C19.8728 31.5236 20.3048 30.9472 21.0444 30.9688C21.6741 30.9904 22.1721 31.5381 22.1355 32.1505C22.1281 32.3162 22.0476 32.309 21.9304 32.309C21.6082 32.309 21.2787 32.309 20.9565 32.309C20.6197 32.309 20.2682 32.3162 19.9241 32.309ZM112.276 34.1969C112.561 34.8093 112.4 35.2417 111.997 35.6812C111.77 35.9334 111.507 36.1279 111.199 36.272C110.796 36.4522 111.148 36.6827 111.17 36.8773C111.199 37.1079 111.375 36.971 111.492 36.9277C112.232 36.6395 112.678 36.0631 113.022 35.4002C113.498 34.4851 113.828 33.5123 114.209 32.554C114.472 31.8911 114.729 31.221 115 30.5293C114.86 30.5293 114.765 30.5293 114.67 30.5293C114.15 30.5293 114.15 30.5293 113.982 31.0048C113.638 32.0136 113.293 33.0224 112.942 34.0455C112.913 33.9879 112.876 33.9447 112.861 33.8942C112.598 32.9863 112.224 32.1217 111.902 31.2426C111.631 30.4933 111.624 30.5005 110.752 30.5509C111.265 31.7686 111.726 33.0008 112.276 34.1969ZM63.5076 30.7455C64.0275 32.0064 64.5401 33.2746 65.0527 34.5427C65.1186 34.7012 65.1698 34.8526 65.082 35.0255C64.8403 35.5155 64.5181 35.955 64.0056 36.1712C63.676 36.3153 63.6687 36.4666 63.7712 36.7548C63.8445 36.9638 63.9104 37.0142 64.13 36.9277C64.8696 36.6323 65.3236 36.0775 65.6604 35.4074C66.3634 34.0239 66.8394 32.5468 67.4105 31.1129C67.6668 30.4789 67.6595 30.4933 66.9639 30.5077C66.7808 30.5149 66.7515 30.6085 66.7149 30.7238C66.4147 31.5957 66.1218 32.4676 65.8215 33.3394C65.7483 33.5556 65.6824 33.7717 65.6019 34.0311C65.5506 33.9591 65.5286 33.9375 65.5213 33.9159C65.1918 32.8422 64.7451 31.8119 64.3717 30.7527C64.3058 30.5653 64.2106 30.5005 64.0202 30.5149C63.8298 30.5293 63.6321 30.5149 63.4417 30.5149C63.4417 30.6158 63.4857 30.6734 63.5076 30.7455ZM106.007 31.149C106.007 31.0265 106 30.904 106.007 30.7815C106.022 30.5725 105.934 30.4861 105.722 30.5149C105.634 30.5293 105.546 30.5221 105.466 30.5149C105.297 30.4933 105.283 30.5653 105.283 30.7166C105.297 31.9488 105.29 33.1881 105.297 34.4202C105.297 34.9751 105.297 34.9606 105.854 34.9678C106.059 34.9678 106.11 34.9174 106.11 34.7157C106.095 33.9735 106.103 33.2241 106.11 32.482C106.11 32.3307 106.125 32.1865 106.147 32.0352C106.234 31.4948 106.718 31.0769 107.26 31.0553C107.823 31.0337 108.168 31.3363 108.314 31.956C108.351 32.1145 108.358 32.273 108.358 32.4315C108.358 33.0944 108.358 33.7501 108.358 34.413C108.358 35.0039 108.358 34.9967 108.98 34.9606C109.112 34.9534 109.171 34.9246 109.171 34.7805C109.156 33.815 109.178 32.8422 109.134 31.8767C109.09 30.9688 108.343 30.3347 107.443 30.3996C106.879 30.4428 106.418 30.695 106.095 31.1706C106.066 31.1634 106.037 31.1562 106.007 31.149ZM36.9635 30.9976C36.9123 30.3564 36.9635 30.5437 36.4143 30.5077C36.2386 30.4933 36.2313 30.5725 36.2313 30.7094C36.2459 31.9416 36.2533 33.1809 36.2533 34.413C36.2533 34.9606 36.2533 34.9534 36.8171 34.9534C37.0294 34.9534 37.0661 34.8886 37.0661 34.7012C37.0514 34.1825 37.0587 33.6565 37.0661 33.1377C37.0734 32.7558 37.0221 32.3739 37.1027 31.992C37.2125 31.4588 37.6811 31.0697 38.223 31.0553C38.7209 31.0337 39.1164 31.3219 39.2408 31.8191C39.2848 31.9992 39.3141 32.1937 39.3141 32.3883C39.3214 33.0584 39.3141 33.7285 39.3141 34.3986C39.3141 35.0255 39.3141 35.0255 39.9511 34.9606C40.0829 34.9462 40.1122 34.903 40.1122 34.7877C40.1049 33.8294 40.1342 32.8711 40.0902 31.9127C40.061 31.1273 39.5704 30.5869 38.8161 30.4356C38.0692 30.2915 37.4908 30.5869 36.9928 31.2282C36.9782 31.0985 36.9709 31.0481 36.9635 30.9976ZM27.9935 34.867C28.3083 34.7517 28.052 34.5211 28.0374 34.3482C28.0228 34.1176 27.8543 34.2833 27.7738 34.3049C27.4077 34.4274 27.0342 34.4779 26.6608 34.3914C25.6869 34.1752 25.1889 33.2097 25.4965 32.1721C25.7821 31.2138 26.6974 30.8031 27.7811 31.1634C27.8983 31.1994 28.0301 31.2642 28.0374 31.0769C28.0374 30.9112 28.3303 30.695 28.0081 30.5797C26.4924 30.0321 24.5958 30.7815 24.6031 32.7774C24.5958 34.7949 26.4045 35.4362 27.9935 34.867ZM15.4939 34.0888C15.5525 34.4274 15.6843 34.7229 15.9992 34.8958C16.4019 35.1192 16.8413 35.1048 17.2587 34.9751C17.4857 34.903 17.3612 34.6724 17.3539 34.5067C17.3465 34.2977 17.2221 34.377 17.1122 34.3986C16.585 34.4707 16.336 34.2977 16.2775 33.7789C16.1896 32.9863 16.2701 32.1865 16.2335 31.3867C16.2262 31.1345 16.3141 31.0697 16.5484 31.0985C16.7388 31.1201 16.9365 31.0841 17.1342 31.1057C17.3905 31.1345 17.4564 31.0481 17.4564 30.7959C17.4564 30.5437 17.3758 30.4861 17.1415 30.5077C16.9145 30.5293 16.6875 30.5005 16.4605 30.5149C16.2921 30.5221 16.2262 30.4644 16.2335 30.2987C16.2408 30.0465 16.2262 29.7871 16.2408 29.5349C16.2555 29.3116 16.2408 29.2035 15.9479 29.2972C15.4427 29.4557 15.4427 29.4341 15.4427 29.9601C15.4427 30.0321 15.428 30.1114 15.4427 30.1834C15.4939 30.4644 15.3768 30.5725 15.0985 30.5221C14.8422 30.4789 14.7397 30.5509 14.7544 30.8319C14.769 31.0481 14.8129 31.149 15.0399 31.1057C15.3841 31.0409 15.4793 31.1922 15.45 31.5164C15.4207 31.8335 15.4427 32.1577 15.4427 32.5468C15.45 33.008 15.4061 33.5556 15.4939 34.0888ZM49.3386 28.6703C49.3386 28.4613 49.28 28.3821 49.0676 28.4109C49.0017 28.4181 48.9358 28.4181 48.8699 28.4109C48.5917 28.3604 48.5185 28.4613 48.5185 28.7495C48.5331 30.6446 48.5258 32.5396 48.5258 34.4346C48.5258 34.9678 48.5258 34.9606 49.0676 34.9678C49.28 34.9751 49.3386 34.9174 49.3386 34.7084C49.3239 33.6997 49.3313 32.6837 49.3313 31.675C49.3386 30.6662 49.3312 29.6718 49.3386 28.6703ZM6.00397 34.4563C6.00397 34.9606 6.00397 34.9462 6.53851 34.9678C6.80945 34.9823 6.84606 34.8814 6.84606 34.6436C6.83874 33.4547 6.83874 32.2586 6.83874 31.0697C6.83874 30.5077 6.83874 30.5221 6.26026 30.5077C6.03326 30.5077 5.99665 30.5869 6.00397 30.7815C6.01129 31.43 6.01129 32.0785 6.01129 32.727C6.00397 33.3034 6.00397 33.8798 6.00397 34.4563ZM6.41403 28.7351C6.12113 28.7423 5.90878 28.9513 5.9161 29.2395C5.9161 29.5277 6.10649 29.7151 6.39939 29.7151C6.72158 29.7151 6.91196 29.5421 6.91196 29.2395C6.90464 28.9369 6.70693 28.7351 6.41403 28.7351Z" fill="#1E1E1C"/>
<path d="M38.0698 22.4388C36.5028 21.9056 35.0969 21.1202 33.918 19.9601C33.9326 19.7727 33.9839 19.5854 33.9839 19.3908C33.9765 14.1669 33.9766 8.94294 33.9766 3.71899C34.5038 3.23622 35.1335 2.90477 35.7779 2.61655C36.7518 2.16982 37.7843 1.93924 38.8607 1.86719C38.89 2.8039 38.7948 3.74061 38.9192 4.67011C37.9307 5.25375 37.0227 5.92386 36.3417 6.85336C35.4703 8.03506 34.9212 9.36086 34.782 10.8092C34.7088 11.6234 34.7601 12.452 34.8992 13.2806C35.0603 14.239 35.3825 15.118 35.9317 15.9178C36.5394 16.8041 37.2717 17.5823 38.0918 18.2812C38.0772 19.6647 38.0772 21.0553 38.0698 22.4388Z" fill="#349A5A"/>
<path d="M33.9764 3.72656C33.9764 8.95052 33.9764 14.1745 33.9837 19.3984C33.9837 19.593 33.9325 19.7731 33.9178 19.9677C32.9 19.0814 32.1312 18.0078 31.5746 16.7973C29.9271 13.2233 29.9783 9.67106 31.8309 6.17642C32.3069 5.28294 32.9659 4.50475 33.6982 3.79141C33.8007 3.79862 33.8886 3.7698 33.9764 3.72656Z" fill="#36A555"/>
<path d="M57.2397 16.8885C57.4447 16.9894 57.5326 17.1984 57.6717 17.3569C58.7481 18.6034 60.1394 19.2447 61.7723 19.4537C64.6793 19.8284 67.2568 19.0646 69.5122 17.2488C69.7319 17.0759 69.9369 16.8885 70.1419 16.694C70.2737 16.5715 70.325 16.5787 70.4202 16.7372C70.9474 17.6019 71.4819 18.4593 72.0165 19.324C72.0677 19.4104 72.1702 19.5041 72.0091 19.5834C72.0018 19.5978 71.9945 19.6122 71.9799 19.6194L71.9725 19.641H71.9506C71.914 19.6698 71.8847 19.6987 71.8481 19.7275C71.8481 19.7275 71.8627 19.7203 71.8554 19.7203C71.5259 19.7779 71.2842 20.0085 71.006 20.1598C69.6952 20.8587 68.3113 21.3559 66.8175 21.4784C66.0706 21.5433 65.3091 21.5649 64.5548 21.4424C64.3205 21.4064 64.0935 21.3703 63.8592 21.3271C63.0537 21.1686 62.3068 20.8587 61.5599 20.5417C61.0108 20.2175 60.4689 19.8932 59.9563 19.5329C59.7806 19.4104 59.6268 19.4393 59.4877 19.6266C59.2021 20.0229 58.8726 20.3976 58.609 20.8083C58.3307 21.2478 57.9207 21.6009 57.7229 22.0909C56.6392 21.6081 55.6653 20.9668 54.7939 20.167C54.8013 20.0085 54.9038 19.8932 54.9917 19.7779C55.5042 19.0862 56.0168 18.3945 56.5367 17.71C56.7637 17.4289 56.9101 17.0831 57.2397 16.8885Z" fill="#36AB57"/>
<path d="M52.6707 5.7514C52.7806 5.78743 52.8318 5.69376 52.8904 5.62891C52.949 5.65052 53.0149 5.65773 53.0735 5.68655C54.084 6.14049 55.0945 6.59444 56.105 7.04838C56.2881 7.12764 56.5077 7.14926 56.6395 7.32939C56.0684 8.36698 55.673 9.455 55.5046 10.6295C55.4679 10.9033 55.4313 11.1843 55.402 11.4653C55.2776 11.6022 55.2995 11.7824 55.2629 11.9409C55.0066 13.101 54.6918 14.2394 54.1499 15.3058C54.0986 15.2914 54.0474 15.2842 53.9961 15.2626C52.9856 14.8087 51.9824 14.3403 50.9573 13.908C50.6131 13.7639 50.3056 13.5117 49.9102 13.5117C49.9687 13.0433 50.0273 12.575 50.0859 12.1066C50.1738 12.0706 50.1664 11.9985 50.1884 11.9265C50.6497 10.0386 51.3014 8.21566 52.2753 6.50797C52.4145 6.26299 52.6341 6.05403 52.6707 5.7514Z" fill="#60B451"/>
<path d="M55.7607 2.73077C56.2514 2.248 56.8664 1.92376 57.4596 1.5851C58.8728 0.792501 60.3666 0.208859 61.9922 0.0575449C64.9798 -0.216262 67.7257 0.410612 70.1421 2.22639C70.9916 2.86767 71.7018 3.63145 72.3462 4.46728C72.4707 4.6258 72.478 4.73388 72.3096 4.8852C71.6433 5.49046 70.9916 6.11013 70.3472 6.74421C70.1861 6.90273 70.1202 6.8739 70.0323 6.69377C69.9444 6.49201 69.7467 6.35511 69.6881 6.13174C69.4904 5.59133 69.1243 5.15901 68.7362 4.7483C67.755 3.6963 66.6054 2.86767 65.258 2.30565C63.4347 1.54187 61.5602 1.27527 59.6051 1.54907C58.9973 1.5851 58.4115 1.70039 57.8477 1.93096C57.3424 2.01022 56.8957 2.21918 56.4417 2.43534C56.266 2.52181 56.039 2.53622 55.9584 2.75959C55.8999 2.75238 55.834 2.73797 55.7607 2.73077Z" fill="#36AB57"/>
<path d="M33.976 3.72337C33.8881 3.77381 33.7929 3.80263 33.6904 3.78102C34.4593 2.98842 35.3526 2.33992 36.3265 1.81393C38.2231 0.783547 40.266 0.300781 42.4189 0.300781C44.5277 0.307987 46.5341 0.776341 48.4014 1.77069C48.5039 1.82834 48.621 1.86436 48.6869 1.96524C48.6796 2.15979 48.5405 2.28228 48.4306 2.42639C47.9693 3.03165 47.5666 3.67293 47.0467 4.24216C46.7391 4.09085 46.5195 3.80263 46.2046 3.65852C46.1021 3.58647 45.9996 3.50721 45.8897 3.44236C44.4618 2.60653 42.9095 2.13097 41.2619 1.93642C41.0788 1.92201 40.9104 1.86436 40.72 1.86436C40.0976 1.87878 39.4752 1.81393 38.8528 1.87157C37.7837 1.94362 36.7512 2.1742 35.77 2.62094C35.133 2.90916 34.5032 3.2334 33.976 3.72337Z" fill="#4DAF52"/>
<path d="M49.9106 13.5039C50.3133 13.5039 50.6135 13.7561 50.9577 13.9002C51.9828 14.3325 52.986 14.8009 53.9965 15.2548C54.0478 15.2764 54.099 15.2837 54.1503 15.2981C54.1137 15.3989 54.0771 15.4998 54.0331 15.5935C53.667 16.3645 53.1837 17.0706 52.7151 17.7839C52.6565 17.8488 52.5906 17.9136 52.532 17.9857C52.4295 18.0794 52.3197 18.1658 52.2245 18.2595C51.873 18.6054 51.5289 18.9584 51.0968 19.2034C51.0236 19.1602 50.9577 19.1025 50.8845 19.0665C50.2987 18.7999 49.7129 18.5261 49.1197 18.2667C48.5999 18.0361 48.0726 17.8128 47.5527 17.5894C47.6626 17.4741 47.7724 17.3588 47.8896 17.2435C48.6584 16.4942 49.2516 15.6439 49.5591 14.6135C49.6616 14.2461 49.7861 13.8786 49.9106 13.5039Z" fill="#59B252"/>
<path d="M52.6709 5.75166C52.6417 6.05429 52.4147 6.25605 52.2755 6.50103C51.3016 8.20152 50.6573 10.0245 50.1886 11.9195C50.174 11.9916 50.174 12.0708 50.0861 12.0997C50.0788 11.7538 50.0788 11.4152 50.0715 11.0693C50.0788 11.0621 50.0934 11.0549 50.0934 11.0549C50.0861 11.0405 50.0788 11.0333 50.0715 11.0189C50.0202 10.6442 49.9689 10.2695 49.9177 9.8948C49.9177 9.74348 49.9177 9.59938 49.8884 9.45527C49.6614 8.3096 49.3026 7.22158 48.6875 6.21281C48.7827 6.21281 48.812 6.14076 48.8559 6.08312C49.244 5.56432 49.6468 5.05274 50.0275 4.51953C50.2838 4.16646 50.5914 3.84942 50.7671 3.45312C51.5213 4.13044 52.2096 4.85098 52.6709 5.75166Z" fill="#368F43"/>
<path d="M59.6201 1.54923C61.5752 1.26822 63.4571 1.54203 65.2731 2.3058C66.6204 2.86783 67.7628 3.69646 68.7513 4.74845C69.1321 5.15916 69.5055 5.59149 69.7032 6.1319C69.3078 5.72839 68.927 5.31048 68.4584 4.97182C67.2429 4.10717 65.8516 3.77572 64.3944 3.63881C64.1674 3.6172 63.9404 3.60999 63.7134 3.58838C63.6109 3.3506 63.3619 3.32177 63.1642 3.23531C62.0805 2.73813 60.9821 2.26257 59.8911 1.7726C59.7885 1.72937 59.6348 1.71496 59.6201 1.54923Z" fill="#326C59"/>
<path d="M38.0693 22.4388C38.0767 21.0553 38.084 19.6647 38.0913 18.2812C38.2524 18.4542 38.4794 18.5406 38.6625 18.6775C38.7869 18.8289 38.97 18.9009 39.1238 19.009C39.7315 19.4485 40.4272 19.7295 41.0716 20.097C40.9031 20.1763 40.9398 20.3204 40.9398 20.4573C40.9398 21.358 40.9398 22.2587 40.9398 23.1593C39.9512 23.0368 38.992 22.8135 38.0693 22.4388Z" fill="#33905D"/>
<path d="M51.0965 19.2099C51.5285 18.9577 51.8727 18.6047 52.2242 18.266C52.3267 18.1723 52.4292 18.0787 52.5317 17.9922C52.0924 18.7992 51.448 19.4405 50.767 20.0457C49.1927 21.4436 47.3767 22.4307 45.3117 22.9423C44.9529 23.0288 44.5868 23.1297 44.206 23.1369C44.1841 23.0792 44.1401 23.0144 44.1401 22.9567C44.1328 22.3515 44.1328 21.7462 44.1328 21.141C44.1328 21.0473 44.1767 20.9825 44.2646 20.9392C45.8975 20.9897 47.5231 20.9392 49.0682 20.3196C49.7858 20.0169 50.4888 19.6999 51.0965 19.2099Z" fill="#326C59"/>
<path d="M44.2648 20.9257C44.1769 20.9689 44.133 21.0338 44.133 21.1274C44.133 21.7327 44.133 22.3379 44.1403 22.9432C44.1403 23.0008 44.1842 23.0657 44.2062 23.1233C43.1225 23.3323 42.0314 23.3035 40.9477 23.1522C40.9477 22.2515 40.9477 21.3508 40.9477 20.4501C40.9477 20.3132 40.9111 20.1691 41.0795 20.0898C41.1454 20.1043 41.2113 20.1043 41.2699 20.1259C41.885 20.3925 42.522 20.5654 43.1737 20.7095C43.5325 20.796 43.9133 20.796 44.2648 20.9257Z" fill="#30855E"/>
<path d="M56.6319 7.32979C56.5001 7.14965 56.2805 7.13524 56.0974 7.04878C55.0869 6.59483 54.0764 6.14089 53.0659 5.68695C53.0073 5.65812 52.9414 5.65092 52.8828 5.6293C53.2856 5.00963 53.7469 4.4404 54.318 3.96484C55.2187 4.36114 56.1267 4.75024 57.0127 5.17536C57.3203 5.32667 57.6937 5.37711 57.928 5.66533C57.4594 6.19133 57.0054 6.73174 56.6319 7.32979Z" fill="#59B252"/>
<path d="M57.2403 16.8901C56.9108 17.0846 56.7644 17.4305 56.552 17.7115C56.0321 18.396 55.5195 19.0877 55.007 19.7795C54.9191 19.8947 54.8166 20.01 54.8092 20.1686C54.2454 19.7867 53.85 19.2463 53.4326 18.7275C54.099 17.8196 54.758 16.9045 55.4463 16.0038C55.666 15.7156 55.8051 15.3697 56.1346 15.168C56.4934 15.7372 56.8669 16.3136 57.2403 16.8901Z" fill="#349A5A"/>
<path d="M50.7672 3.45186C50.5915 3.85536 50.2766 4.1724 50.0276 4.51827C49.6469 5.04426 49.2441 5.56306 48.856 6.08185C48.8121 6.13949 48.7755 6.21155 48.6876 6.21155C48.6363 6.13229 48.5851 6.05303 48.5412 5.96656C48.1457 5.30366 47.5819 4.78487 47.0547 4.23005C47.5673 3.66082 47.97 3.01953 48.4386 2.41427C48.5485 2.27016 48.6876 2.14767 48.6949 1.95312C49.4711 2.34942 50.1521 2.85381 50.7672 3.45186Z" fill="#36A555"/>
<path d="M61.5675 20.543C62.3144 20.8528 63.0686 21.1626 63.8667 21.3284C64.0937 21.3716 64.3281 21.4076 64.5624 21.4436C64.5258 21.6526 64.372 21.7895 64.2622 21.9624C63.9766 22.3948 63.5885 22.7478 63.3908 23.2378C62.9734 23.3603 62.556 23.2522 62.1386 23.2378C61.3698 23.2018 60.6155 23.0937 59.876 22.8703C59.9272 22.5461 60.1908 22.3443 60.3666 22.1066C60.762 21.5733 61.1062 21.0113 61.5675 20.543Z" fill="#30855E"/>
<path d="M63.3906 23.2311C63.5883 22.7483 63.9837 22.3881 64.262 21.9557C64.3718 21.79 64.5256 21.6459 64.5622 21.4369C65.3164 21.5594 66.078 21.5378 66.8249 21.473C68.3187 21.3505 69.7026 20.8533 71.0134 20.1544C71.2916 20.0031 71.5333 19.7725 71.8628 19.7148C71.5479 20.14 71.1085 20.4354 70.6912 20.738C68.6043 22.2368 66.2757 23.087 63.6835 23.2311C63.5883 23.2455 63.4858 23.2383 63.3906 23.2311Z" fill="#326C59"/>
<path d="M56.1198 15.1684C55.7976 15.3702 55.6512 15.7161 55.4315 16.0043C54.7505 16.905 54.0915 17.8201 53.4178 18.7279C53.1249 18.4613 52.9931 18.0722 52.7148 17.7912C53.1835 17.0779 53.6594 16.3718 54.0329 15.6008C54.0768 15.5071 54.1134 15.4062 54.1501 15.3054C54.6919 14.2389 55.0068 13.1005 55.2631 11.9404C55.2997 11.7819 55.2777 11.6017 55.4022 11.4648C55.3802 12.5313 55.512 13.5688 55.8562 14.5848C55.9221 14.7794 56.0319 14.9739 56.1198 15.1684Z" fill="#33905D"/>
<path d="M57.9352 5.6709C57.7009 5.38268 57.3274 5.33224 57.0199 5.18093C56.1339 4.75581 55.2259 4.37392 54.3252 3.97041C54.6767 3.58852 55.0208 3.21384 55.4821 2.95444C55.5334 2.94724 55.5627 2.92562 55.5773 2.87518L55.5627 2.88239C55.6066 2.88239 55.6359 2.85357 55.6359 2.81034L55.6286 2.81754C55.6945 2.83195 55.7531 2.82475 55.7604 2.74549V2.73828C55.8263 2.74549 55.8995 2.7599 55.9654 2.7671C56.8222 3.23546 57.7448 3.56691 58.6162 3.99203C58.953 4.15776 59.3558 4.2154 59.6194 4.52523C59.0262 4.84948 58.4697 5.24578 57.9352 5.6709Z" fill="#4DAF52"/>
<path d="M61.5675 20.5428C61.0988 21.0112 60.762 21.5732 60.3666 22.0992C60.1835 22.337 59.9272 22.5387 59.876 22.863C59.1217 22.7116 58.4041 22.4523 57.7305 22.092C57.9282 21.602 58.3382 21.2489 58.6165 20.8094C58.8801 20.3987 59.2096 20.024 59.4952 19.6277C59.6343 19.4404 59.7881 19.4043 59.9638 19.534C60.4837 19.9015 61.0256 20.2258 61.5675 20.5428Z" fill="#349A5A"/>
<path d="M59.6276 4.51645C59.364 4.20661 58.9612 4.14897 58.6244 3.98324C57.753 3.55812 56.8304 3.22667 55.9736 2.75831C56.0542 2.54215 56.2885 2.52053 56.4569 2.43407C56.9036 2.21791 57.3576 2.00174 57.8628 1.92969C57.8702 2.05218 57.9727 2.081 58.0532 2.12423C58.91 2.50612 59.7667 2.88801 60.6161 3.27711C60.9603 3.43563 61.3483 3.52209 61.6339 3.7959C61.0628 3.98324 60.477 4.10573 59.9351 4.37234C59.8399 4.42277 59.7301 4.47321 59.6276 4.51645Z" fill="#33905D"/>
<path d="M61.6412 3.79888C61.3556 3.52508 60.9675 3.43861 60.6234 3.28009C59.774 2.88379 58.9099 2.50911 58.0605 2.12722C57.9726 2.09119 57.8701 2.05516 57.8701 1.93267C58.434 1.7021 59.0198 1.58681 59.6275 1.55078C59.6422 1.71651 59.7959 1.73092 59.9058 1.78136C60.9968 2.27133 62.0879 2.74689 63.1789 3.24406C63.3766 3.33053 63.6256 3.35935 63.7281 3.59713C63.0178 3.60434 62.3295 3.70521 61.6412 3.79888Z" fill="#30855E"/>
<path d="M71.8555 19.7271C71.8921 19.6983 71.9214 19.6694 71.958 19.6406C71.9507 19.7055 71.914 19.7271 71.8555 19.7271Z" fill="#326C59"/>
<path d="M55.7685 2.73606C55.7539 2.81532 55.7026 2.82253 55.6367 2.80812C55.6514 2.74327 55.7026 2.72886 55.7685 2.73606Z" fill="#36AB57"/>
<path d="M55.5708 2.875C55.5561 2.92544 55.5195 2.94705 55.4756 2.95426C55.4976 2.90382 55.5268 2.875 55.5708 2.875Z" fill="#36AB57"/>
<path d="M55.6367 2.80859C55.6294 2.85183 55.6074 2.87344 55.5635 2.88065C55.5854 2.85183 55.6147 2.83021 55.6367 2.80859Z" fill="#36AB57"/>
<path d="M71.9805 19.622C71.9951 19.6148 72.0024 19.6076 72.0098 19.5859C72.0317 19.6292 72.0098 19.6292 71.9805 19.622Z" fill="#326C59"/>
<path d="M41.2767 3.94654C40.4492 4.04742 39.6584 4.27799 38.9188 4.66708C38.787 3.73758 38.8895 2.80087 38.8602 1.86416C39.4826 1.80652 40.1051 1.87137 40.7275 1.85696C40.9179 1.84975 41.0863 1.9146 41.2693 1.92901C41.2693 2.60632 41.2767 3.27643 41.2767 3.94654Z" fill="#33905D"/>
<path d="M41.2769 3.94721C41.2769 3.27711 41.2695 2.607 41.2695 1.92969C42.9171 2.12423 44.4695 2.59979 45.8974 3.43563C46.0072 3.50048 46.1097 3.57974 46.2122 3.65179C45.9852 4.01206 46.117 4.41557 46.0804 4.79746C45.1871 4.34351 44.2498 4.04089 43.2539 3.94001C42.5949 3.87516 41.9359 3.88957 41.2769 3.94721Z" fill="#30855E"/>
<path d="M46.0803 4.80582C46.1096 4.42393 45.9778 4.02043 46.2121 3.66016C46.527 3.80427 46.7467 4.08528 47.0542 4.2438C47.5814 4.79862 48.1453 5.31741 48.5407 5.98031C48.5919 6.05957 48.6432 6.14604 48.6871 6.2253C49.2949 7.23406 49.6537 8.32208 49.888 9.46775C49.9173 9.61907 49.9173 9.76318 49.9173 9.90728C49.6024 8.74 49.1265 7.64477 48.3357 6.70806C47.6986 5.93708 46.9371 5.32462 46.0803 4.80582Z" fill="#326C59"/>
<path d="M38.6631 18.6746C38.7949 18.6169 38.8901 18.725 38.9926 18.761C41.6507 19.7914 44.2355 19.741 46.7032 18.2206C47.0034 18.0333 47.267 17.8027 47.5526 17.5938C48.0725 17.8171 48.5997 18.0405 49.1196 18.2711C49.7128 18.5305 50.2986 18.8043 50.8844 19.0709C50.9576 19.1069 51.0235 19.1645 51.0967 19.2078C50.4889 19.6977 49.786 20.0148 49.0684 20.303C47.5233 20.9227 45.8977 20.9731 44.2648 20.9227C43.9133 20.793 43.5326 20.7858 43.1738 20.7065C42.522 20.5624 41.8777 20.3895 41.2699 20.1229C41.2113 20.1012 41.1454 20.1012 41.0795 20.0868C40.4278 19.7266 39.7322 19.4383 39.1317 18.9988C38.9706 18.8979 38.7876 18.8259 38.6631 18.6746Z" fill="#4DAF52"/>
<path d="M50.0715 11.0739C50.0569 11.0595 50.0569 11.0378 50.0715 11.0234C50.0789 11.0378 50.0862 11.0451 50.0935 11.0595C50.0935 11.0595 50.0789 11.0667 50.0715 11.0739Z" fill="#60B451"/>
</svg>
