<svg width="151" height="36" viewBox="0 0 151 36" fill="none" xmlns="http://www.w3.org/2000/svg">
<path d="M29.8294 32.1712C29.4494 32.1786 29.4567 31.9131 29.442 31.6475C29.3032 30.8141 28.5723 30.2757 28.3749 29.4717C28.6892 29.1767 28.4115 28.8743 28.3018 28.6604C27.2639 26.7723 26.3649 24.8104 25.4512 22.8559C25.0492 21.993 24.8446 21.0415 24.2672 20.245C22.0598 17.1915 20.3202 13.8356 18.3175 10.6494C17.3965 9.18902 16.6291 7.61803 15.4669 6.31994C15.4669 6.06179 15.35 5.87741 15.1088 5.77415C15.1015 5.62664 15.0722 5.49388 14.926 5.41275C14.926 5.1546 14.8091 4.97021 14.5679 4.86696C14.4144 4.60144 14.3486 4.27691 14.027 4.14415C14.027 3.87864 13.9101 3.70162 13.6689 3.60574C13.6104 3.54674 13.5519 3.48773 13.4861 3.42135C13.4861 3.18533 13.3619 3.06733 13.128 3.05995C12.5359 2.72805 12.609 1.81348 11.8708 1.61435C11.3738 1.2972 11.2934 0.803036 11.3299 0.264622C11.3738 0.242495 11.425 0.220369 11.4761 0.198242V0.205618C11.7977 0.906294 12.5359 1.18656 12.9818 1.76186C13.1645 2.32977 13.7712 2.55104 14.027 3.05995C14.0197 3.32547 14.0124 3.59836 14.3925 3.59836C14.5094 3.71637 14.6264 3.83438 14.7506 3.95977C14.7433 4.16628 14.7287 4.38017 14.8822 4.54981C15.7958 5.56026 16.3733 6.88048 17.6158 7.58853C17.6231 7.64016 17.6231 7.69916 17.6231 7.75079C17.762 8.09007 17.8497 8.47359 18.3175 8.5031C18.3248 8.76124 18.3248 9.01938 18.6756 9.04151C18.6683 9.42504 18.7634 9.72744 19.2165 9.76431C19.2823 10.3986 19.6112 10.8559 20.1229 11.2025C20.5176 11.9327 20.7368 12.8252 21.7309 13.0169C21.7528 13.3267 21.8917 13.5996 22.0963 13.8209C23.3316 15.178 24.1941 16.7932 25.2247 18.2904C25.6998 18.9764 26.321 19.6549 26.5038 20.4293C26.9131 22.1626 27.6367 23.7557 28.258 25.4005C28.6234 26.374 29.0327 27.3402 29.6175 28.2032C29.6175 28.3212 29.6248 28.4465 29.6248 28.5646C29.654 28.8448 29.5005 29.221 29.9683 29.2874C29.9756 29.5455 29.9683 29.811 30.3265 29.8405C30.4288 29.8405 30.5238 29.8332 30.6261 29.8332C30.3703 30.615 30.0999 31.3894 29.8294 32.1712Z" fill="#DEE2E3"/>
<path d="M13.4933 3.43635C13.5517 3.49535 13.6102 3.55436 13.676 3.62074C13.676 3.88626 13.676 4.1444 14.0341 4.15915C14.3557 4.29191 14.4215 4.61644 14.575 4.88196C14.575 5.14747 14.5677 5.40562 14.9332 5.42775C15.0793 5.50888 15.1086 5.64164 15.1159 5.78915C15.1159 6.05467 15.1086 6.31281 15.474 6.33494C15.4448 6.71846 15.6348 7.02086 15.8249 7.33063C16.3511 8.16407 17.009 8.95325 17.3598 9.85307C18.9459 13.9244 21.2775 17.59 23.4556 21.3368C24.7494 23.5568 25.9554 25.8137 27.2345 28.0411C27.5342 28.5722 27.7169 29.2286 28.3747 29.4794C28.5721 30.2833 29.303 30.8217 29.4418 31.6552C28.8864 31.5298 28.6671 31.0356 28.3747 30.6447C26.4451 28.0264 24.5374 25.3786 22.9148 22.5537C20.5685 18.4677 17.9957 14.507 16.3219 10.0375C15.6714 8.28945 14.5604 6.74059 13.4933 5.19173C12.7623 4.12965 12.3092 2.86843 11.8779 1.63672C12.6162 1.83586 12.5431 2.7578 13.1351 3.08232C13.1424 3.30359 13.2594 3.42897 13.4933 3.43635Z" fill="#F2F2F3"/>
<path d="M25.1509 0.00683594C25.7503 0.00683594 26.3423 0.00683594 26.9416 0.00683594C27.0732 0.74439 27.7237 0.855023 28.25 1.06154C28.9297 1.32706 29.5583 1.64421 29.9384 2.29325C30.3404 2.97918 30.6474 3.73148 31.1006 4.37315C31.6414 5.13283 31.8022 6.15066 32.6647 6.68907C32.6867 6.91034 32.7817 7.05785 33.0302 7.03572C32.6136 8.25269 33.4907 9.13038 33.878 10.1187C34.6528 12.0511 35.698 13.9097 35.5226 16.0855C35.4568 16.9558 35.4349 17.8851 34.8355 18.6301C34.6674 17.9073 34.5578 17.1992 34.6163 16.4322C34.7113 15.2078 34.7186 13.9835 34.1119 12.8255C32.8036 10.3326 32.0288 7.61102 30.7643 5.08858C30.1211 3.80524 29.266 3.13406 27.8991 3.08244C27.4167 3.06768 27.0294 2.9128 26.7004 2.57352C26.43 2.29325 26.1376 2.04986 25.7868 1.8581C25.2167 1.5557 24.9462 1.68846 24.9536 2.34488C24.0399 1.93185 23.0239 1.9171 22.0811 1.62208C22.0811 1.02466 22.41 0.648508 22.9582 0.567377C23.4479 0.500997 23.9741 0.493621 24.4565 0.604255C25.0705 0.74439 25.1436 0.456744 25.1509 0.00683594Z" fill="#07585C"/>
<path d="M6.90738 19.5C8.72736 22.642 10.5473 25.784 12.3673 28.9333C12.4258 29.0292 12.4185 29.162 12.4404 29.28C11.7607 29.5012 11.863 29.9733 12.0165 30.5117C12.3015 31.5295 12.9082 32.4957 12.5939 33.6242C12.477 33.6242 12.36 33.6242 12.2431 33.6315C11.6803 33.2996 10.9347 33.4103 10.445 32.9014C10.4816 32.3039 10.2038 31.8024 10.0065 31.2714C9.53868 30.0175 8.98318 28.8006 8.80776 27.4361C8.50078 25.0833 8.15725 22.7379 6.92931 20.6285C6.78313 20.3851 6.43229 19.8835 6.90738 19.5Z" fill="#116A6E"/>
<path d="M6.90748 19.5009C6.43238 19.8845 6.78322 20.3786 6.9294 20.6294C8.15734 22.7388 8.50087 25.0842 8.80786 27.437C8.98328 28.8015 9.53877 30.0185 10.0066 31.2723C10.2039 31.8033 10.4817 32.3049 10.4451 32.9023C10.2624 32.9687 10.0797 33.0277 9.89692 33.094V33.1014C9.80921 32.3196 9.1587 32.0393 8.63975 31.6484L8.64706 31.6558C8.58858 31.5894 8.53742 31.5231 8.47895 31.4641C8.45702 31.4272 8.44971 31.3903 8.45702 31.3534C8.39855 31.2649 8.34007 31.1838 8.2816 31.0953L8.27429 31.0141C8.27429 30.7339 8.34738 30.4167 7.91614 30.3946L7.92345 30.402C7.93076 30.2176 7.87959 30.0701 7.67494 30.0332C7.43374 29.7972 7.26563 29.5169 7.19984 29.185C7.20715 29.0154 7.20715 28.8531 7.01711 28.7646V28.772C7.03173 28.4991 7.04635 28.2262 6.65166 28.2262L6.65896 28.2336C6.66627 28.0787 6.63704 27.9312 6.47624 27.8648V27.8722C6.49085 27.5993 6.50547 27.3264 6.11809 27.3264H6.1254C6.1254 27.1715 6.11078 27.024 5.94267 26.9576L5.94998 26.965C5.8915 26.8986 5.83303 26.8322 5.77456 26.7658C5.75263 26.7363 5.75263 26.6995 5.75994 26.67C5.70877 26.4634 5.65761 26.2569 5.60645 26.0504C6.30812 25.8365 6.81246 24.8334 6.6078 23.9779C6.43969 23.2551 6.26427 22.5544 6.48354 21.8021C6.71744 21.0055 6.51278 20.2606 6.14001 19.5304C5.86227 18.9846 5.56259 18.402 5.90612 17.7529C6.2058 18.3503 6.70282 18.8445 6.90748 19.5009Z" fill="#127075"/>
<path d="M29.8291 32.1719C30.0995 31.3901 30.37 30.6157 30.6404 29.8339C30.6623 29.6569 30.6916 29.4725 30.7135 29.2955C30.962 29.1406 31.0205 28.8751 31.1009 28.6243C31.1886 28.4178 31.269 28.2187 31.3567 28.0121C31.3933 27.8941 31.4298 27.7835 31.4737 27.6655C31.7149 27.2746 31.8757 26.8468 31.9707 26.3969C32.4458 25.8142 32.3581 24.9734 32.8697 24.4055C33.3229 24.4424 33.586 24.1916 33.776 23.8081C34.1927 22.9525 34.6531 22.1191 35.0405 21.2488C35.691 19.7884 36.8313 18.6378 37.4452 17.1627C37.6061 16.7866 37.6645 16.4694 37.5549 16.0564C37.0432 13.9986 35.618 12.4424 34.7043 10.6132C34.2073 9.61755 33.2644 8.80624 33.4179 7.53027C35.0552 10.1707 36.5755 12.8702 38.03 15.6139C38.5124 16.5211 38.2639 17.5315 37.8546 18.2764C35.3329 22.8714 32.7016 27.4074 30.0995 31.9581C30.0484 32.0613 29.9241 32.1056 29.8291 32.1719Z" fill="#0F4145"/>
<path d="M1.29401 14.7806C1.4475 14.4929 1.60099 14.2053 1.76179 13.9177C1.98838 13.8586 2.03223 13.689 2.01762 13.4899C2.003 13.453 2.01031 13.4161 2.03954 13.394C2.09071 13.3276 2.14918 13.2612 2.20034 13.1948L2.18573 13.2096C2.37576 13.1506 2.36846 12.9883 2.37576 12.8334L2.36846 12.8408C2.75584 12.8334 2.74122 12.5606 2.73391 12.2877L2.7266 12.3024C2.91664 12.2434 2.91664 12.0811 2.91664 11.9263C3.31134 11.5059 3.33326 10.8642 3.80105 10.488C4.1592 10.3626 4.21036 10.0824 4.16651 9.75785H4.1592C5.46023 8.56301 6.4689 7.19854 6.68086 5.36203C6.66624 5.31777 6.68086 5.2809 6.7101 5.25139C6.76126 5.17764 6.81243 5.10388 6.8709 5.03013C7.5872 3.72466 8.31081 2.42656 9.0271 1.12109C9.1075 1.15797 9.18791 1.19485 9.26831 1.23173C8.48623 3.17149 7.70414 5.11863 6.92206 7.0584C6.65163 7.16166 6.7101 7.39768 6.70279 7.61157L6.7101 7.59682C6.52006 7.6927 6.52737 7.86234 6.53468 8.03197C6.55661 8.06885 6.5493 8.10573 6.52006 8.13523C6.34464 8.20899 6.35926 8.36387 6.34464 8.51876L6.35926 8.50401C5.5918 9.12355 5.50409 10.1119 5.08015 10.9232C4.24691 12.4942 3.40636 14.0578 2.85817 15.7837C2.5658 16.6982 2.27344 17.6718 1.59368 18.4241C1.24284 18.2397 1.00164 17.9816 1.00895 17.5538C1.08935 16.6171 1.19168 15.6952 1.29401 14.7806Z" fill="#64A9B2"/>
<path d="M33.4173 7.53738C33.2638 8.81335 34.2067 9.62466 34.7037 10.6204C35.6174 12.4495 37.05 14.0057 37.5543 16.0635C37.6566 16.4839 37.5982 16.7937 37.4447 17.1698C36.8234 18.6449 35.6832 19.8029 35.04 21.2559C34.6526 22.1262 34.1994 22.9596 33.7755 23.8152C33.5854 24.1987 33.3223 24.4495 32.8691 24.4126C32.8838 24.2946 32.8911 24.1766 32.9057 24.0586C33.4393 22.79 33.9728 21.5288 34.4991 20.2602C34.7622 20.2233 34.8426 20.0684 34.7841 19.825C34.7549 19.6185 34.733 19.412 34.7037 19.1981C34.8426 19.235 35.0546 19.4268 35.0984 19.1612C35.1277 18.9473 34.8572 19.0063 34.7037 18.9695C34.6964 18.8515 34.6891 18.7408 34.6818 18.6228L34.7549 18.6302H34.828C35.4273 17.8853 35.4493 16.9559 35.5151 16.0856C35.6832 13.9098 34.638 12.0512 33.8705 10.1188C33.4758 9.1305 32.606 8.26019 33.0226 7.03585C33.0226 6.97684 33.0226 6.92522 33.0299 6.86621C33.2419 7.0506 33.3662 7.27187 33.4173 7.53738Z" fill="#014A50"/>
<path d="M5.92058 17.7301C5.57705 18.3718 5.87672 18.9618 6.15447 19.5076C6.52724 20.2452 6.72458 20.9827 6.498 21.7793C6.27873 22.5316 6.46145 23.2323 6.62226 23.9551C6.8196 24.8106 6.32258 25.8137 5.6209 26.0276C5.54781 26.035 5.48203 26.035 5.41624 26.0423H5.42355C5.43086 25.8875 5.42355 25.7326 5.24082 25.6736V25.6809C5.23351 25.2753 5.22621 24.8696 4.69995 24.7737H4.70726C4.71456 24.6189 4.69995 24.4713 4.52453 24.405L4.53183 24.4123C4.46605 24.3386 4.40758 24.2648 4.3418 24.1911L4.34911 24.1321C4.34911 23.9772 4.34911 23.8297 4.35642 23.6748C4.95577 23.4978 4.70726 23.0847 4.60493 22.7307C4.29794 21.6096 4.22485 20.5181 4.65609 19.397C5.09464 18.2611 5.30661 17.1032 4.34911 16.078C4.36372 15.6871 4.37103 15.2962 4.38565 14.9053C4.88998 15.8567 5.40163 16.7934 5.92058 17.7301Z" fill="#21797F"/>
<path d="M10.9858 35.7782C10.7446 35.7782 10.5034 35.7856 10.2695 35.7856C9.45083 35.3947 8.41293 35.5053 7.83551 34.517C7.55776 34.0376 7.25077 33.5582 6.97303 33.0788C5.14573 29.9294 3.31844 26.7801 1.54963 23.5938C0.804092 22.2515 0.774855 20.828 1.54232 19.4414C1.71043 19.7586 1.88585 20.0757 2.05396 20.3928C1.8493 21.005 1.42537 21.6319 1.79814 22.281C2.55098 23.6012 3.07724 25.0247 3.75699 26.367C4.67795 28.2035 5.74509 29.9663 6.82684 31.7143C7.39696 32.6436 7.76242 33.7131 8.71992 34.3916C9.47276 34.9227 10.3352 35.1365 11.1685 35.4537C11.1027 35.5643 11.0442 35.675 10.9858 35.7782Z" fill="#C9D5D5"/>
<path d="M4.34237 24.1397L4.33506 24.1987C4.34967 24.3167 4.40084 24.3979 4.52509 24.42L4.51778 24.4126C4.50317 24.5749 4.53971 24.7076 4.70051 24.7814H4.69321C4.77361 25.1428 4.90517 25.4747 5.23408 25.6886V25.6812C5.22677 25.8435 5.26332 25.9762 5.41681 26.05H5.4095C5.43143 26.3081 5.5703 26.4999 5.76765 26.6622C5.75303 26.699 5.76034 26.7285 5.78227 26.758C5.84074 26.8244 5.89922 26.8908 5.95769 26.9572L5.95038 26.9498C5.95038 27.1047 5.98693 27.2374 6.13311 27.3186H6.1258C6.16966 27.5546 6.24275 27.7611 6.48395 27.8644V27.857C6.47664 28.0119 6.50588 28.152 6.66668 28.2258L6.65937 28.2184C6.68861 28.4618 6.77632 28.6683 7.01752 28.7642V28.7568C6.99559 28.9338 7.04676 29.074 7.20025 29.1772C7.26603 29.5091 7.42683 29.7968 7.67534 30.0254C7.75574 30.1508 7.84345 30.2688 7.92386 30.3942L7.91655 30.3868C7.93116 30.6597 8.09197 30.8367 8.2747 31.0063L8.282 31.0875C8.34048 31.176 8.39895 31.2571 8.45742 31.3456C8.45012 31.3899 8.45743 31.4268 8.47935 31.4563C8.53783 31.5226 8.58899 31.589 8.64746 31.648L8.64015 31.6406C8.88136 32.2823 9.22489 32.8355 9.89733 33.0936V33.0862C10.1166 33.4108 10.5186 33.4181 10.7964 33.6468C10.8256 33.8459 10.9572 33.9197 11.1326 34.0082C11.9512 34.4065 12.8283 34.5909 13.6835 34.8711C13.5373 34.9596 13.4934 35.0924 13.4934 35.2473C13.3765 35.2694 13.2595 35.2915 13.1426 35.3137C12.916 34.9301 12.5506 35.1293 12.2436 35.0998C12.0389 34.7752 11.6881 34.8416 11.4323 34.9006C10.7525 35.0555 10.2993 34.7605 9.91926 34.259C8.95445 32.9977 7.93847 31.766 7.03214 30.4679C6.367 29.5239 5.81151 28.4913 5.24139 27.4808C4.29851 25.8213 3.67723 23.9922 2.65395 22.3696C2.4566 22.0598 2.17154 21.6984 2.58086 21.3223C2.63202 21.3223 2.69049 21.3296 2.74166 21.337L2.73435 21.3296C2.8586 21.8238 3.12904 22.2295 3.45796 22.5982L3.45065 22.5909C3.47988 22.8343 3.55298 23.0481 3.81611 23.1366C3.80149 23.2989 3.82341 23.439 3.99883 23.5054L3.99153 23.498C3.97691 23.7931 4.14502 23.9775 4.34237 24.1397Z" fill="#9CA3A5"/>
<path d="M1.53522 19.4413C0.767753 20.8279 0.79699 22.2514 1.54252 23.5937C3.31134 26.7799 5.14594 29.9293 6.96592 33.0786C7.24367 33.5654 7.55066 34.0448 7.8284 34.5169C8.40583 35.5052 9.44373 35.3946 10.2624 35.7855C8.49354 36.3681 7.55066 35.6527 7.00247 34.421C6.48352 33.2483 5.70875 32.201 5.12401 31.0577C3.61102 28.1075 2.06148 25.1721 0.19033 22.4284C-0.116655 21.9785 -0.0216362 21.4327 0.234185 20.968C0.577715 20.3411 0.965101 19.7289 1.33056 19.1094C1.40365 19.2274 1.46943 19.3306 1.53522 19.4413Z" fill="#DEE2E3"/>
<path d="M25.1514 0.00683594C25.1441 0.456744 25.071 0.74439 24.4716 0.604254C23.9965 0.493621 23.463 0.500997 22.9732 0.567377C22.4177 0.641132 22.0961 1.02466 22.0961 1.62208C20.2323 1.34918 18.3685 1.05416 16.5046 0.81077C15.0209 0.61163 13.559 0.213351 12.046 0.213351C11.9876 0.205975 11.9364 0.1986 11.8779 0.191224C11.8779 0.13222 11.8852 0.0805913 11.8852 0.021587C16.3073 0.0142115 20.7293 0.0142115 25.1514 0.00683594Z" fill="#014A50"/>
<path d="M15.2983 31.5518C19.406 32.2008 23.5065 32.8499 27.6142 33.4989C27.6142 33.5358 27.6215 33.5653 27.6215 33.6022C26.9272 33.6464 26.2255 33.6907 25.5311 33.7349C25.5457 33.6907 25.5384 33.6464 25.5092 33.6022C24.2959 33.2113 22.9656 33.7423 21.7815 33.1154C20.0054 33.698 18.1708 33.3588 16.3654 33.4473C16.3947 33.1523 16.2996 32.9384 16.0146 32.8204C15.4518 32.5843 15.2617 32.1271 15.2983 31.5518Z" fill="#07585C"/>
<path d="M4.37898 14.9202C4.36437 15.3111 4.35706 15.702 4.34244 16.0929C3.67 16.6903 3.60421 17.5238 3.45072 18.3277C3.31185 19.0505 3.2753 19.8692 2.18624 19.7143C1.85001 19.3455 1.66728 18.903 1.57227 18.4162C2.25202 17.6639 2.55169 16.6903 2.83675 15.7757C3.37763 14.0499 4.22549 12.4863 5.05874 10.9153C5.48267 10.1113 5.57038 9.11564 6.33784 8.49609C5.6654 10.3031 5.00026 12.1101 4.32782 13.9245C3.78694 14.2343 3.77963 14.5367 4.34975 14.8243C4.38629 14.8464 4.40091 14.8833 4.37898 14.9202Z" fill="#568C8F"/>
<path d="M116.771 32.0313C116.771 31.7584 116.735 31.4855 116.778 31.22C116.859 30.7922 116.413 29.7301 117.582 30.4603C118.299 29.9957 118.978 30.121 119.658 30.5709C119.731 30.6152 119.951 30.4087 120.111 30.3349C121.12 29.8629 121.939 30.3276 121.99 31.4265C122.019 32.1198 121.997 32.8131 121.997 33.499C121.997 33.7424 121.924 33.9121 121.646 33.9121C121.369 33.9121 121.295 33.7424 121.288 33.5064C121.288 32.8721 121.288 32.2452 121.281 31.6109C121.274 31.1905 121.186 30.7922 120.689 30.7553C120.184 30.7185 119.899 31.0725 119.841 31.515C119.761 32.0756 119.797 32.6508 119.775 33.2261C119.768 33.5138 119.848 33.8899 119.402 33.9121C118.942 33.9342 119.015 33.5507 119.008 33.263C119 32.7246 119.015 32.1788 118.993 31.6404C118.978 31.2495 118.964 30.807 118.438 30.7553C117.926 30.7037 117.634 31.0651 117.56 31.4855C117.465 32.0756 117.502 32.6804 117.473 33.2778C117.458 33.5654 117.56 33.9416 117.078 33.9121C116.661 33.8826 116.778 33.5359 116.764 33.2925C116.764 32.8721 116.771 32.4517 116.771 32.0313Z" fill="#63B9AE"/>
<path d="M13.683 34.8781C12.8278 34.5978 11.9434 34.4134 11.1321 34.0151C10.9567 33.9266 10.8324 33.8529 10.7959 33.6537C11.2783 33.6464 11.7607 33.639 12.2431 33.6316C12.3601 33.6316 12.477 33.6316 12.594 33.6242C13.0764 33.6169 13.5588 33.6169 14.0412 33.6095C17.8639 33.6021 21.6792 33.6021 25.5019 33.5947C25.5312 33.6316 25.5385 33.6759 25.5239 33.7275C24.7856 34.0668 24.0036 34.0373 23.2215 34.0299C21.2261 34.17 19.2307 34.288 17.2353 34.4798C16.9575 34.5093 16.4678 34.3102 16.3582 34.8559C16.2412 34.8633 16.117 34.8781 16 34.8854C15.6857 34.5609 15.2837 34.7674 14.9256 34.7158C14.5674 34.4798 14.2239 34.3175 14.0339 34.9002C13.9827 34.9149 13.9315 34.9223 13.8731 34.9297C13.8146 34.9149 13.7488 34.9002 13.683 34.8781Z" fill="#8A9396"/>
<path d="M14.0409 33.6175C13.5584 33.6249 13.076 33.6249 12.5936 33.6323C12.9079 32.4964 12.3013 31.5376 12.0162 30.5198C11.8627 29.974 11.7604 29.5094 12.4401 29.2881C12.8641 29.5536 12.9591 30.0625 13.2588 30.4239C13.7997 31.073 14.4867 31.4196 15.2907 31.5598C15.2542 32.1424 15.4442 32.5923 16.007 32.8283C16.2921 32.9464 16.3871 33.1602 16.3579 33.4553C15.5904 33.5511 14.7937 33.2561 14.0409 33.6175Z" fill="#0D6365"/>
<path d="M106.517 30.4754C108.293 29.7821 109.046 30.2984 109.053 32.1054C109.053 32.5553 109.053 33.0052 109.053 33.4552C109.053 33.728 108.987 33.9346 108.659 33.9198C108.366 33.9051 108.344 33.6985 108.344 33.4773C108.337 32.8799 108.366 32.2751 108.315 31.6776C108.278 31.213 108.132 30.7483 107.548 30.7557C106.992 30.7557 106.641 31.1097 106.575 31.6334C106.502 32.2234 106.524 32.8356 106.517 33.433C106.51 33.6912 106.488 33.9272 106.152 33.9272C105.83 33.9272 105.757 33.7207 105.757 33.4478C105.757 31.9432 105.757 30.4386 105.757 28.9413C105.757 28.6684 105.837 28.4619 106.152 28.4619C106.488 28.4619 106.517 28.6979 106.517 28.9561C106.517 29.4281 106.517 29.9075 106.517 30.4754Z" fill="#63B9AE"/>
<path d="M135.11 15.149C137.259 12.8331 140.87 12.2578 142.814 15.4071C144.034 13.6591 145.664 12.9363 147.755 13.3494C149.465 13.6813 150.598 14.7655 150.81 16.5356C151.146 19.294 150.905 22.0746 150.963 24.8404C150.971 25.1281 150.868 25.3051 150.547 25.283C150.488 25.2756 150.43 25.283 150.364 25.283C148.149 25.401 148.149 25.401 148.149 23.1441C148.149 21.551 148.157 19.9505 148.149 18.3573C148.142 16.6241 147.455 15.6948 146.11 15.5768C144.765 15.4588 143.515 16.5282 143.296 18.055C143.033 19.8841 143.208 21.7206 143.187 23.5571C143.157 25.283 143.179 25.224 141.454 25.3051C140.548 25.3494 140.38 25.047 140.409 24.2062C140.475 22.3696 140.438 20.5331 140.424 18.6966C140.424 18.3057 140.372 17.9148 140.307 17.5313C140.168 16.6536 139.824 15.9308 138.874 15.6653C137.917 15.3998 137.098 15.6948 136.411 16.3438C135.695 17.015 135.417 17.9001 135.41 18.8663C135.395 20.7323 135.38 22.6057 135.417 24.4717C135.424 25.0617 135.322 25.3051 134.657 25.2977C132.574 25.2756 132.574 25.3051 132.574 23.181C132.574 20.2307 132.596 17.2731 132.559 14.3229C132.552 13.6813 132.727 13.4379 133.348 13.5411C133.436 13.5559 133.531 13.5559 133.619 13.5411C134.474 13.3862 134.986 13.6665 135.008 14.6106C135.022 14.7728 135.073 14.9204 135.11 15.149ZM61.0973 8.87241C61.1119 8.48888 60.9073 8.35612 60.6003 8.23811C54.9722 6.09183 47.8896 8.42988 47.1295 15.621C46.7859 18.8663 47.5315 21.8829 50.3674 23.83C53.8393 26.2197 57.6327 25.8656 61.4335 24.6561C61.8867 24.5085 61.8867 24.184 61.8867 23.8005C61.8794 22.0525 61.8794 20.3045 61.8794 18.5639C61.8794 16.4323 61.8794 16.4545 59.8036 16.4545C59.2334 16.4545 59.0288 16.5872 59.0434 17.1994C59.0873 18.763 59.0288 20.334 59.0726 21.8976C59.0873 22.4286 58.8826 22.6647 58.4221 22.7827C57.1284 23.1146 55.8201 23.181 54.5263 22.8786C51.8293 22.2443 50.3894 20.3045 50.1774 17.1404C49.9435 13.6444 51.8073 10.9597 55.038 10.2738C57.0772 9.8386 59.0653 10.1558 61.09 11.1736C61.09 10.3033 61.068 9.58784 61.0973 8.87241ZM96.4444 23.3285C94.851 23.2252 93.4842 22.2443 93.1114 20.9019C92.9287 20.2455 92.9579 19.8767 93.8423 19.8988C96.2324 19.9578 98.6225 19.921 101.005 19.921C101.356 19.921 101.714 20.0168 101.7 19.4194C101.612 15.7464 99.58 13.0617 95.8377 13.1871C93.1041 13.283 90.8383 15.2154 90.2828 18.0328C89.698 20.9978 91.0575 23.8669 93.5865 24.9363C95.3261 25.6739 97.1315 25.6886 98.9295 25.2092C101.108 24.6339 101.232 24.4274 101.071 21.9566C99.5947 22.9154 98.1109 23.4391 96.4444 23.3285ZM93.6596 18.0845C93.1699 18.1066 93.0164 17.9738 93.1626 17.4723C93.5061 16.2922 94.8364 15.2818 96.1374 15.2449C97.3069 15.2154 98.4179 16.0267 98.8857 17.1994C99.1269 17.8116 99.1196 18.1435 98.3155 18.0845C97.57 18.0255 96.8245 18.0697 96.0789 18.0697C95.2676 18.0771 94.4636 18.055 93.6596 18.0845ZM70.0583 23.3285C68.3991 23.2621 67.142 22.318 66.6742 20.865C66.4549 20.1939 66.5134 19.8915 67.332 19.9062C69.7221 19.9505 72.1122 19.921 74.5023 19.921C74.8312 19.921 75.204 20.0537 75.2186 19.4416C75.2698 16.1226 73.3621 13.047 69.4151 13.1871C66.7473 13.283 64.4156 15.2006 63.8967 17.8558C63.2754 21.0347 64.5399 23.8226 67.142 24.9363C69.0643 25.755 71.0378 25.696 72.9966 25.0765C74.6266 24.5602 74.6485 24.4717 74.6412 22.7458C74.6412 22.5393 74.6412 22.3254 74.6412 22.0304C72.368 23.181 71.6225 23.3948 70.0583 23.3285ZM67.1127 18.0697C66.2356 18.0623 66.7473 17.4649 66.8496 17.1994C67.3101 15.9529 68.8085 15.1047 70.0802 15.2891C71.4836 15.4956 72.4046 16.4987 72.58 18.0771C70.7527 18.0771 68.9327 18.0918 67.1127 18.0697ZM79.7357 14.972C79.7064 14.8908 79.6699 14.795 79.6772 14.7138C79.7137 13.755 79.2825 13.3567 78.3396 13.5559C78.2519 13.5706 78.1569 13.5706 78.0692 13.5559C77.499 13.46 77.3163 13.6739 77.3236 14.2787C77.3529 17.2879 77.3382 20.2971 77.3382 23.3063C77.3382 25.3051 77.3383 25.2756 79.341 25.3051C80.0061 25.3125 80.2108 25.1502 80.1888 24.4569C80.145 22.5024 80.145 20.5405 80.1888 18.586C80.2327 16.7421 81.5191 15.4883 83.2367 15.5251C84.7424 15.5546 85.5245 16.5725 85.5318 18.5417C85.5391 20.0758 85.5318 21.61 85.5318 23.1441C85.5318 25.3862 85.5318 25.3641 87.7319 25.2977C88.2362 25.283 88.3093 25.0986 88.3093 24.6634C88.2874 22.259 88.3385 19.8472 88.2728 17.4428C88.1924 14.4999 86.0142 12.8183 83.1344 13.3125C81.8188 13.5411 80.7809 14.2197 79.8745 15.1564C79.8014 15.0679 79.7503 15.0236 79.7357 14.972ZM129.014 25.3272C129.613 25.2314 129.811 25.1281 129.803 24.5012C129.774 21.1601 129.767 17.8189 129.811 14.4778C129.818 13.7181 129.628 13.5264 128.882 13.5485C126.989 13.6001 127.019 13.5632 126.982 15.4588C126.946 17.2879 127.187 19.1392 126.821 20.9535C126.529 22.4286 125.264 23.417 123.963 23.2842C122.611 23.1441 121.815 22.1262 121.8 20.4594C121.785 18.8663 121.793 17.2658 121.793 15.6727C121.793 13.4747 121.793 13.4895 119.563 13.5559C119.11 13.5706 118.949 13.6739 118.957 14.1607C118.979 16.4766 118.927 18.7999 118.979 21.1158C119.044 23.9996 120.872 25.6518 123.73 25.4895C125.096 25.4084 126.229 24.8036 127.267 23.6235C127.348 24.8552 127.735 25.5411 129.014 25.3272ZM106.202 14.2197C106.188 13.6518 105.924 13.4895 105.413 13.5485C105.179 13.578 104.93 13.5854 104.696 13.5485C104.104 13.46 103.951 13.696 103.958 14.2861C103.987 17.2658 103.973 20.2529 103.973 23.2326C103.973 25.3346 103.973 25.3125 106.1 25.2977C106.67 25.2977 106.801 25.1207 106.787 24.5823C106.758 22.8933 106.758 21.2043 106.78 19.5227C106.809 17.6198 107.715 16.2701 109.206 15.8128C109.93 15.5915 110.617 15.8202 111.399 15.9308C111.399 15.3629 111.333 14.8171 111.414 14.2934C111.552 13.3862 111.041 13.224 110.339 13.2166C108.673 13.1945 107.437 13.9542 106.443 15.5178C106.334 14.972 106.209 14.5958 106.202 14.2197ZM113.372 23.2695C113.372 25.3199 113.372 25.2904 115.419 25.3051C116.055 25.3125 116.223 25.1207 116.216 24.4938C116.186 21.5731 116.201 18.6597 116.201 15.739C116.201 13.4747 116.201 13.4895 113.957 13.5411C113.482 13.5485 113.358 13.6813 113.365 14.1459C113.394 15.8939 113.372 17.6345 113.372 19.3826C113.372 20.6806 113.372 21.9714 113.372 23.2695ZM116.391 9.80173C116.377 8.95354 115.624 8.19386 114.776 8.17911C113.877 8.17173 113.16 8.93141 113.182 9.86811C113.204 10.7827 113.869 11.417 114.798 11.4022C115.682 11.3948 116.398 10.6647 116.391 9.80173Z" fill="black"/>
<path d="M101.868 31.3976C101.868 30.7412 101.89 30.0774 101.861 29.421C101.839 28.949 102.029 28.7646 102.49 28.8014C102.965 28.8457 103.44 28.8457 103.908 28.9268C104.697 29.0743 105.07 29.6201 105.07 30.4019C105.07 31.1764 104.529 31.8402 103.732 31.8033C102.68 31.759 102.49 32.2311 102.599 33.1309C102.629 33.4038 102.804 33.8832 102.285 33.9053C101.686 33.9348 101.905 33.4185 101.89 33.1088C101.846 32.5408 101.868 31.9656 101.868 31.3976ZM102.607 30.3503C102.702 30.6453 102.314 31.287 103.126 31.2428C103.696 31.2132 104.229 31.1026 104.222 30.3503C104.215 29.6718 103.725 29.5464 103.191 29.48C102.504 29.3915 102.592 29.8635 102.607 30.3503Z" fill="#63B9AE"/>
<path d="M112.993 32.445C112.993 32.7179 112.993 32.9834 112.993 33.2563C113 33.7357 112.978 34.2004 112.328 33.7652C112.043 33.5734 111.889 33.8242 111.685 33.8832C111.085 34.0528 110.559 33.9717 110.12 33.5218C109.821 33.212 109.777 32.8359 109.945 32.4376C110.194 31.8623 110.676 31.6927 111.239 31.6411C111.297 31.6337 111.37 31.6558 111.414 31.6337C111.67 31.4862 112.255 31.9361 112.211 31.2944C112.174 30.7781 111.685 30.7191 111.239 30.7412C111.21 30.7412 111.18 30.756 111.151 30.7486C110.881 30.6822 110.442 31.2059 110.362 30.697C110.281 30.1659 110.866 30.2249 111.224 30.1954C112.649 30.0701 112.986 30.5126 112.993 32.445ZM112.262 32.4745C112.269 32.0688 111.933 32.1647 111.692 32.1721C111.246 32.1868 110.742 32.1573 110.661 32.7769C110.61 33.2047 110.917 33.3817 111.275 33.3743C111.802 33.3522 112.182 33.094 112.262 32.4745Z" fill="#63B9AE"/>
<path d="M132.04 33.9715C130.688 33.9715 129.913 33.1528 129.972 31.9653C130.03 30.7115 130.827 30.0329 132.033 30.1878C132.486 30.2468 132.808 30.4755 133.034 30.8516C133.254 31.2204 133.429 31.6629 133.224 32.0465C133.056 32.371 132.625 32.1718 132.318 32.2013C132.084 32.2235 131.836 32.1718 131.609 32.2161C131.331 32.2677 130.864 31.9801 130.82 32.4742C130.783 32.8873 131.134 33.1675 131.536 33.2855C131.887 33.3888 132.245 33.3445 132.589 33.2339C132.771 33.1749 133.005 33.0126 133.064 33.374C133.1 33.6174 132.991 33.7797 132.749 33.8387C132.45 33.883 132.165 33.942 132.04 33.9715ZM131.711 31.7146C131.894 31.4343 132.464 31.9727 132.486 31.3605C132.501 30.9917 132.15 30.7484 131.733 30.741C131.251 30.7336 130.827 30.9696 130.849 31.4269C130.864 31.8916 131.382 31.5302 131.711 31.7146Z" fill="#63B9AE"/>
<path d="M125.93 32.4223C125.93 32.6657 125.938 32.9017 125.93 33.1451C125.916 33.6171 126.076 34.2735 125.214 33.7204C125.09 33.6392 124.783 33.8384 124.563 33.9047C123.752 34.126 122.985 33.7425 122.875 33.0492C122.751 32.2821 123.226 31.7511 124.132 31.6478C124.278 31.6331 124.432 31.6552 124.578 31.6257C124.805 31.5741 125.185 31.788 125.192 31.3454C125.199 30.9472 124.9 30.7628 124.541 30.748C124.278 30.7406 124.015 30.807 123.759 30.8586C123.584 30.8955 123.387 30.9914 123.299 30.7775C123.197 30.5268 123.379 30.4161 123.584 30.3129C124.805 29.6933 125.916 30.3497 125.938 31.6995C125.938 31.9429 125.93 32.1789 125.93 32.4223ZM124.593 32.1641C124.147 32.1936 123.657 32.2231 123.621 32.8205C123.599 33.2409 123.971 33.3737 124.3 33.359C124.783 33.3368 125.155 33.1008 125.207 32.5624C125.258 32.0756 124.885 32.1862 124.593 32.1641Z" fill="#63B9AE"/>
<path d="M148.88 32.422C148.88 32.6654 148.888 32.9015 148.88 33.1449C148.866 33.6169 149.027 34.2733 148.164 33.7201C148.04 33.639 147.733 33.8455 147.514 33.9045C146.702 34.1258 145.935 33.7423 145.825 33.049C145.701 32.2819 146.176 31.7509 147.082 31.6476C147.229 31.6329 147.382 31.6624 147.528 31.6255C147.755 31.5739 148.128 31.7878 148.142 31.3452C148.157 30.9912 147.894 30.8142 147.579 30.7552C147.28 30.7036 146.987 30.7404 146.702 30.8584C146.541 30.9248 146.337 31.0059 146.242 30.7773C146.139 30.5265 146.322 30.4159 146.527 30.3126C147.747 29.7005 148.858 30.3495 148.88 31.6992C148.888 31.9426 148.88 32.1787 148.88 32.422ZM147.572 32.1639C147.119 32.186 146.629 32.2082 146.571 32.8056C146.527 33.226 146.9 33.3735 147.229 33.3661C147.704 33.3587 148.091 33.1375 148.157 32.5917C148.215 32.1049 147.864 32.1713 147.572 32.1639Z" fill="#63B9AE"/>
<path d="M137.391 32.1126C137.391 32.3855 137.413 32.6584 137.384 32.9239C137.333 33.4107 137.661 34.3547 136.543 33.6614C136.441 33.595 136.178 33.8089 135.98 33.8753C135.008 34.1851 134.226 33.6688 134.168 32.651C134.131 31.9946 134.153 31.3308 134.153 30.667C134.153 30.4014 134.19 30.1802 134.533 30.2097C134.818 30.2318 134.855 30.4236 134.855 30.6448C134.862 31.2423 134.855 31.847 134.869 32.4445C134.877 32.8575 134.986 33.2336 135.476 33.3074C135.98 33.3812 136.338 33.1673 136.543 32.6879C136.784 32.1052 136.631 31.5004 136.689 30.903C136.711 30.6448 136.528 30.2318 137.011 30.2097C137.574 30.1876 137.362 30.6522 137.384 30.9325C137.42 31.3308 137.391 31.7217 137.391 32.1126Z" fill="#63B9AE"/>
<path d="M139.868 33.9709C139.262 33.9193 138.823 33.6759 138.779 33.0047C138.75 32.5253 138.75 32.0385 138.743 31.5591C138.743 31.1682 138.801 30.7478 138.209 30.733C137.975 30.7256 137.924 30.3716 138.012 30.3569C138.589 30.2462 138.706 29.7889 138.933 29.3612C139.043 29.162 139.518 29.0293 139.488 29.5898C139.459 30.0692 139.649 30.2462 140.11 30.2094C140.263 30.1946 140.409 30.2462 140.431 30.438C140.453 30.674 140.314 30.7773 140.11 30.7551C139.452 30.6888 139.43 31.1387 139.51 31.5665C139.635 32.2229 139.006 33.2481 140.322 33.3735C140.461 33.3882 140.468 33.5652 140.439 33.6759C140.365 33.9783 140.102 33.9488 139.868 33.9709Z" fill="#63B9AE"/>
<path d="M32.6655 6.68916C31.8103 6.15074 31.6495 5.13292 31.1013 4.37324C30.6408 3.73157 30.3411 2.97926 29.9391 2.29334C29.5591 1.64429 28.9305 1.32714 28.2507 1.06162C27.7172 0.855106 27.0666 0.744473 26.9424 0.0069195C28.3238 -0.081587 29.3983 0.493705 30.0999 1.65904C31.0867 3.29641 31.993 4.98541 32.9359 6.65965C32.8482 6.66703 32.7605 6.68178 32.6655 6.68916Z" fill="#014A50"/>
<path d="M144.583 30.18C144.642 30.18 144.707 30.1727 144.759 30.18C145 30.2243 145.38 30.1063 145.351 30.5193C145.329 30.8881 145 30.7332 144.781 30.7406C143.889 30.7848 143.501 31.1462 143.472 31.9797C143.436 32.8721 143.86 33.3073 144.751 33.3294C144.985 33.3368 145.358 33.1081 145.395 33.5359C145.431 33.9563 145.029 33.9416 144.744 33.9637C143.633 34.0596 142.719 33.2188 142.668 32.0829C142.632 30.9692 143.428 30.1653 144.583 30.18Z" fill="#63B9AE"/>
<path d="M128.868 30.7479C127.983 30.7332 127.523 31.1905 127.523 32.0608C127.53 32.8942 127.954 33.3073 128.795 33.3294C129.029 33.3368 129.416 33.1007 129.445 33.5211C129.474 33.9932 129.029 33.9489 128.722 33.9637C127.596 34.0153 126.741 33.1524 126.748 31.9944C126.763 30.8291 127.596 30.0915 128.809 30.18C129.058 30.1948 129.416 30.121 129.431 30.5119C129.445 31.0282 129.065 30.7111 128.868 30.7479Z" fill="#63B9AE"/>
<path d="M150.679 31.198C150.679 31.9503 150.679 32.6952 150.679 33.4475C150.679 33.713 150.628 33.9343 150.291 33.9122C150.014 33.8974 149.97 33.6983 149.97 33.4696C149.97 31.9355 149.97 30.4088 149.97 28.8747C149.97 28.6387 150.036 28.4616 150.313 28.4543C150.657 28.4469 150.679 28.6829 150.679 28.9411C150.679 29.7007 150.686 30.4457 150.679 31.198Z" fill="#63B9AE"/>
<path d="M114.082 32.0388C114.082 31.7364 114.038 31.434 114.089 31.1464C114.162 30.7333 113.731 29.7155 114.886 30.4236C115.061 30.5268 115.427 30.1138 115.778 30.1728C115.96 30.2023 116.143 30.2244 116.15 30.4604C116.158 30.6301 116.07 30.7407 115.887 30.7555C114.864 30.8513 114.798 31.5963 114.791 32.3855C114.791 32.7469 114.784 33.1009 114.791 33.4623C114.791 33.7352 114.725 33.9417 114.396 33.9196C114.111 33.9048 114.082 33.6983 114.082 33.477C114.082 32.9976 114.082 32.5182 114.082 32.0388Z" fill="#63B9AE"/>
<path d="M16.3584 34.8563C16.468 34.3179 16.9578 34.5097 17.2355 34.4802C19.2236 34.2958 21.2263 34.1778 23.2217 34.0303C22.6224 34.4138 21.9207 34.3843 21.2628 34.4802C20.2469 34.6277 19.2163 34.6646 18.1857 34.7457C17.8422 34.7531 17.4255 34.4949 17.2355 35.026C16.9431 35.0038 16.585 35.262 16.3584 34.8563Z" fill="#B1B6B7"/>
<path d="M141.879 32.0831C141.879 32.5625 141.879 33.0493 141.879 33.5287C141.879 33.7205 141.835 33.8975 141.601 33.9049C141.367 33.9122 141.185 33.8237 141.177 33.5508C141.17 32.5551 141.17 31.5594 141.17 30.5711C141.17 30.313 141.294 30.1876 141.557 30.2023C141.85 30.2171 141.879 30.4162 141.879 30.6375C141.879 31.1243 141.879 31.6037 141.879 32.0831Z" fill="#63B9AE"/>
<path d="M6.66619 5.35449C6.46154 7.191 5.44556 8.55548 4.14453 9.75031C4.90468 8.23833 5.74524 6.7706 6.66619 5.35449Z" fill="#669699"/>
<path d="M1.29385 14.7803C1.19153 15.7022 1.0892 16.6242 0.986869 17.5387C0.884541 17.5387 0.782212 17.5461 0.679884 17.5461C0.402136 16.5135 0.621411 15.599 1.29385 14.7803Z" fill="#4C8589"/>
<path d="M0.679688 17.5455C0.782016 17.5455 0.884344 17.5381 0.986672 17.5381C0.979363 17.9659 1.22057 18.224 1.57141 18.4084C1.66642 18.8952 1.84915 19.3377 2.18538 19.7139C2.18538 19.9573 2.18538 20.2007 2.18538 20.444C2.14152 20.4145 2.09767 20.3924 2.03919 20.3924C1.87108 20.0753 1.69566 19.7581 1.52755 19.441C1.46177 19.3303 1.38868 19.2271 1.32289 19.1165C1.14747 18.578 0.74547 18.1355 0.679688 17.5455Z" fill="#0D6365"/>
<path d="M12.243 35.1147C12.55 35.1442 12.9154 34.9451 13.142 35.3286C12.7766 35.8449 12.2357 35.7859 11.7021 35.7859C11.6948 35.6827 11.6875 35.5794 11.6875 35.4761C11.8775 35.3508 12.0603 35.2327 12.243 35.1147Z" fill="#C9D5D5"/>
<path d="M13.8735 34.9377C13.9247 34.9303 13.9831 34.923 14.0343 34.9082C14.334 34.9156 14.6263 34.9156 14.926 34.923C15.1014 35.0115 15.2695 35.1 15.445 35.1885C14.9406 35.6458 14.3924 35.454 13.8516 35.3065C13.8589 35.1811 13.8662 35.0557 13.8735 34.9377Z" fill="#C9D5D5"/>
<path d="M141.893 29.0443C141.901 29.2877 141.798 29.4279 141.535 29.4352C141.221 29.4426 141.141 29.2656 141.148 28.9927C141.155 28.7493 141.243 28.6092 141.506 28.6018C141.82 28.5944 141.915 28.7641 141.893 29.0443Z" fill="#63B9AE"/>
<path d="M15.4447 35.1887C15.2693 35.1002 15.1012 35.0117 14.9258 34.9231C14.9258 34.8568 14.9258 34.7904 14.9258 34.724C15.2839 34.7756 15.6859 34.5691 16.0002 34.8936C15.9637 35.2624 15.7079 35.2329 15.4447 35.1887Z" fill="#B1B6B7"/>
<path d="M4.34948 14.8246C3.77936 14.537 3.78667 14.2346 4.32755 13.9248C4.33486 14.2272 4.34217 14.5222 4.34948 14.8246Z" fill="#4C8589"/>
<path d="M11.6875 35.4689C11.6948 35.5721 11.7021 35.6754 11.7021 35.7786C11.4609 35.8745 11.2197 36.14 10.9785 35.7786C11.037 35.668 11.0955 35.5574 11.1612 35.4541C11.3367 35.4615 11.5121 35.4689 11.6875 35.4689Z" fill="#DEE2E3"/>
<path d="M17.2422 35.0329C17.4322 34.5018 17.8488 34.76 18.1924 34.7526C17.995 35.2542 17.5857 35.0329 17.2422 35.0329Z" fill="#C9D5D5"/>
<path d="M2.72679 12.2803C2.7414 12.5532 2.74871 12.8261 2.36133 12.8334C2.44173 12.6195 2.50751 12.3983 2.72679 12.2803Z" fill="#568C8F"/>
<path d="M4.1594 9.75C4.19595 10.0745 4.14479 10.3548 3.79395 10.4802C3.82318 10.1925 3.94013 9.94176 4.1594 9.75Z" fill="#669699"/>
<path d="M13.8732 34.9374C13.8659 35.0628 13.8513 35.1808 13.844 35.3061C13.7271 35.2914 13.6101 35.2766 13.4932 35.2619C13.4932 35.0996 13.537 34.9669 13.6832 34.8857C13.749 34.9005 13.8148 34.9152 13.8732 34.9374Z" fill="#B1B6B7"/>
<path d="M32.665 6.68922C32.7527 6.67447 32.8405 6.66709 32.9282 6.65234C32.9647 6.7261 33.0013 6.79248 33.0378 6.86623C33.0305 6.92524 33.0305 6.97687 33.0305 7.03587C32.782 7.058 32.687 6.91049 32.665 6.68922Z" fill="#0F4145"/>
<path d="M6.68137 7.60395C6.68868 7.39743 6.6302 7.15404 6.90064 7.05078C6.85679 7.24992 6.8641 7.46381 6.68137 7.60395Z" fill="#568C8F"/>
<path d="M6.51298 8.03184C6.50567 7.8622 6.50567 7.68519 6.6884 7.59668C6.68109 7.75894 6.67378 7.9212 6.51298 8.03184Z" fill="#568C8F"/>
<path d="M6.33008 8.51048C6.33739 8.36297 6.33008 8.20071 6.5055 8.12695C6.5055 8.28921 6.45433 8.42197 6.33008 8.51048Z" fill="#568C8F"/>
<path d="M11.4829 0.213788C11.4317 0.235915 11.3879 0.258041 11.3367 0.280168C11.3002 0.213788 11.2709 0.147408 11.2344 0.0810283C11.3294 0.0589017 11.4244 0.0367751 11.5194 0.0146484C11.5121 0.0810283 11.4975 0.147408 11.4829 0.213788Z" fill="#457D81"/>
<path d="M2.90977 11.918C2.90246 12.0729 2.90977 12.2351 2.71973 12.2941C2.72704 12.1319 2.74896 11.9917 2.90977 11.918Z" fill="#568C8F"/>
<path d="M2.37559 12.8252C2.36828 12.9801 2.37559 13.1423 2.18555 13.2013C2.24402 13.076 2.3098 12.9506 2.37559 12.8252Z" fill="#568C8F"/>
<path d="M2.0107 13.4824C2.02532 13.6816 1.98147 13.8512 1.75488 13.9102C1.84259 13.7701 1.92299 13.6299 2.0107 13.4824Z" fill="#568C8F"/>
<path d="M11.4834 0.213788C11.498 0.147408 11.5126 0.0810283 11.5273 0.0146484C11.6442 0.0146484 11.7685 0.0146484 11.8854 0.0146484C11.8854 0.0736527 11.8854 0.125281 11.8781 0.184286C11.7465 0.191661 11.615 0.206412 11.4834 0.213788Z" fill="#37676D"/>
<path d="M6.85611 5.02246C6.80495 5.09622 6.75379 5.16997 6.69531 5.24373C6.74648 5.16997 6.80495 5.09622 6.85611 5.02246Z" fill="#669699"/>
<path d="M2.19303 13.1797C2.14186 13.2461 2.08339 13.3124 2.03223 13.3788C2.0907 13.3198 2.14186 13.2534 2.19303 13.1797Z" fill="#568C8F"/>
<path d="M28.3745 29.4726C27.7166 29.2218 27.5339 28.5654 27.2342 28.0343C25.9551 25.8069 24.7418 23.55 23.4554 21.33C21.27 17.5832 18.9456 13.9176 17.3596 9.84626C17.0087 8.93907 16.3509 8.14988 15.8246 7.32382C15.6273 7.01405 15.4446 6.71165 15.4738 6.32812C16.636 7.62622 17.4034 9.18983 18.3244 10.6576C20.3271 13.8438 22.0667 17.1997 24.274 20.2531C24.8515 21.0497 25.0561 22.0011 25.4581 22.8641C26.3645 24.8186 27.2708 26.7805 28.3087 28.6686C28.4183 28.8751 28.6888 29.1775 28.3745 29.4726Z" fill="#E9EAEB"/>
<path d="M11.4834 0.220471C11.615 0.20572 11.7465 0.198345 11.8781 0.183594C11.9366 0.190969 11.9877 0.198345 12.0462 0.20572C12.397 0.994903 13.2303 1.07603 13.8589 1.44481C14.9918 2.20449 16.2051 2.70603 17.4769 3.20756C19.4869 4.00412 21.6285 4.42453 23.5654 5.41285C24.3329 5.79638 25.1735 6.05452 26.0067 6.26104C26.4233 6.36429 27.0154 6.62981 27.3004 5.95126C27.3589 5.95864 27.4174 5.96602 27.4759 5.96602C27.834 6.68882 28.1921 7.41162 28.5503 8.13442C28.6088 8.19343 28.6672 8.25243 28.7257 8.31144C28.7257 8.37044 28.7257 8.42945 28.733 8.48845C28.3822 8.71709 27.9729 8.75397 27.6074 8.65071C26.6061 8.37044 25.5462 8.1713 24.6618 7.66239C23.0611 6.7552 21.4239 5.90701 19.7866 5.08833C18.5075 4.44665 17.148 3.96724 15.825 3.42145C15.6862 3.21494 15.4815 3.24444 15.2769 3.24444C15.2184 3.18544 15.1526 3.12643 15.0941 3.0748C15.0722 2.83879 15.0503 2.61752 14.7506 2.86829C14.1001 2.60277 13.7419 1.86522 12.9891 1.76196C12.5432 1.19404 11.805 0.913772 11.4834 0.220471Z" fill="#457D81"/>
<path d="M12.9883 1.76953C13.7411 1.86541 14.0993 2.61034 14.7498 2.87586C14.8083 3.03812 14.9471 3.075 15.0933 3.08238C15.1518 3.14138 15.2176 3.20039 15.276 3.25201C15.3857 3.50278 15.5684 3.6798 15.8169 3.79043C15.8754 3.85681 15.9339 3.92319 15.985 3.99694C16.3286 4.60911 16.7013 5.19916 17.4249 5.4278C17.7904 5.66382 18.0901 5.96621 18.324 6.33499C18.2801 6.74064 18.4628 6.91766 18.8575 6.88078C19.0914 6.99879 19.2742 7.18318 19.3911 7.41919C19.3473 7.97236 19.7273 8.24525 20.1147 8.51077C20.0416 9.33683 20.8822 9.39584 21.2257 9.86787C21.8543 10.7382 22.5487 11.5274 23.36 12.2502C24.047 12.8623 24.6537 13.563 25.2677 14.2637C26.2179 15.3405 26.6491 16.705 27.475 17.8408C28.9953 19.9355 30.2818 22.1629 30.7788 24.7591C30.8957 25.3713 31.0419 25.9908 30.7057 26.5808C30.3256 26.4407 30.2525 26.0572 30.2379 25.7622C30.1575 23.6232 29.0173 21.8605 28.1694 20.0314C27.5481 18.6964 26.5175 17.5532 25.8305 16.2182C25.2092 15.0086 24.4198 13.9244 23.4185 13.0025C22.651 12.2944 21.942 11.5495 21.2988 10.7161C20.8602 10.1481 20.3486 9.58023 19.5885 9.39584C19.4715 9.39584 19.3546 9.39584 19.2303 9.38846C19.223 8.71729 18.726 8.36326 18.324 7.95023C18.1486 7.68471 17.8635 7.78797 17.6223 7.74372C17.6296 7.69209 17.6223 7.63308 17.615 7.58145C17.6515 7.2053 17.5492 6.89553 17.308 6.60051C16.811 5.99571 16.2993 5.39092 15.8608 4.74925C15.5757 4.32884 15.2395 4.05595 14.7498 3.96007C14.6328 3.84206 14.5159 3.72405 14.3916 3.59866C14.3843 3.33315 14.2601 3.15613 14.0262 3.06025C13.7777 2.55871 13.171 2.33745 12.9883 1.76953Z" fill="#9BB7BB"/>
<path d="M29.6318 28.5652C29.6318 28.4472 29.6245 28.3218 29.6245 28.2038C30.0192 27.8202 29.661 27.4515 29.5295 27.1417C28.55 24.7668 27.7899 22.3107 26.7227 19.9653C25.641 17.6051 24.2157 15.4883 22.5273 13.5412C22.3153 13.2978 22.118 13.0028 21.7379 13.0102C21.2189 12.3906 20.9997 11.4982 20.1299 11.1958C20.2395 10.709 19.6621 10.4214 19.7717 9.93457C20.298 10.1706 20.4588 10.7533 20.8535 11.1073C22.2861 12.3906 23.6675 13.733 24.7127 15.3777C24.9685 15.7834 25.1659 16.2185 25.4363 16.6094C26.8762 18.6967 28.1992 20.843 28.8863 23.3138C29.3687 25.047 30.3262 26.6697 30.1727 28.5652C29.9899 28.5726 29.8145 28.5652 29.6318 28.5652Z" fill="#BCCCCE"/>
<path d="M30.1652 28.5719C30.3187 26.6764 29.3612 25.0538 28.8788 23.3205C28.1918 20.8497 26.8688 18.7034 25.4289 16.6162C25.1585 16.2253 24.9611 15.7827 24.7053 15.3844C23.6601 13.7397 22.2786 12.4047 20.846 11.114C20.4513 10.76 20.2905 10.1773 19.7643 9.9413C19.7058 9.75691 19.6473 9.5799 19.5889 9.39551C20.349 9.5799 20.8607 10.1478 21.2992 10.7157C21.9424 11.5492 22.6514 12.2941 23.4189 13.0021C24.4202 13.9241 25.2096 15.0083 25.8309 16.2179C26.518 17.5529 27.5485 18.6961 28.1698 20.031C29.025 21.8675 30.1652 23.6229 30.2383 25.7618C30.2456 26.0495 30.3187 26.4404 30.7061 26.5805C30.7061 26.8829 30.7061 27.1853 30.7061 27.4877C30.2237 28.0925 30.8888 28.6973 30.7061 29.3021C30.6842 29.4791 30.6549 29.6635 30.633 29.8405C30.5307 29.8405 30.4357 29.8479 30.3333 29.8479C30.2749 29.6635 30.2164 29.4791 30.1579 29.2873C30.1652 29.0513 30.1652 28.8079 30.1652 28.5719Z" fill="#ABC0C3"/>
<path d="M21.7373 13.0177C22.1174 13.0103 22.322 13.3054 22.5267 13.5488C24.2151 15.4959 25.6404 17.6053 26.7222 19.9728C27.7893 22.3183 28.5494 24.7743 29.5289 27.1492C29.6531 27.459 30.0186 27.8204 29.6239 28.2113C29.0318 27.341 28.6225 26.3822 28.2644 25.4086C27.6504 23.7639 26.9195 22.1708 26.5102 20.4375C26.3275 19.6631 25.7062 18.9845 25.2311 18.2986C24.1932 16.8014 23.338 15.1787 22.1028 13.829C21.8981 13.6004 21.7665 13.3349 21.7373 13.0177Z" fill="#C9D5D5"/>
<path d="M14.757 3.96777C15.2468 4.06366 15.583 4.33655 15.868 4.75696C16.3066 5.406 16.8182 6.00342 17.3152 6.60822C17.5565 6.90324 17.6661 7.22039 17.6222 7.58916C16.3724 6.88849 15.7949 5.56827 14.8886 4.55044C14.7351 4.3808 14.7497 4.17429 14.757 3.96777Z" fill="#C9D5D5"/>
<path d="M20.1299 11.21C21.007 11.505 21.2189 12.4048 21.7379 13.0243C20.7439 12.8326 20.5246 11.9401 20.1299 11.21Z" fill="#C9D5D5"/>
<path d="M19.7718 9.9422C19.6622 10.429 20.2396 10.7166 20.13 11.2034C19.6183 10.8568 19.2894 10.3995 19.2236 9.76519L19.2309 9.75781C19.4137 9.82419 19.5891 9.8832 19.7718 9.9422Z" fill="#C9D5D5"/>
<path d="M17.6299 7.75098C17.8711 7.78785 18.1561 7.69197 18.3316 7.95749C18.3316 8.14188 18.3316 8.31889 18.3316 8.50328L18.3243 8.51066C17.8565 8.47378 17.7688 8.09025 17.6299 7.75098Z" fill="#C9D5D5"/>
<path d="M30.1653 28.5726C30.1653 28.8086 30.1653 29.052 30.1653 29.288C30.0995 29.288 30.041 29.2954 29.9752 29.2954C29.5001 29.229 29.6609 28.8529 29.6317 28.5726C29.8144 28.5652 29.9899 28.5726 30.1653 28.5726Z" fill="#C9D5D5"/>
<path d="M19.2239 9.77217C18.7707 9.73529 18.6757 9.4329 18.683 9.04937L18.6903 9.04199C18.873 9.16 19.0558 9.27801 19.2385 9.39602C19.2385 9.5214 19.2312 9.63941 19.2312 9.7648L19.2239 9.77217Z" fill="#C9D5D5"/>
<path d="M14.0339 4.15951C13.6685 4.14476 13.6758 3.87924 13.6758 3.62109C13.9097 3.71698 14.0339 3.89399 14.0339 4.15951Z" fill="#E9EAEB"/>
<path d="M14.0343 3.06738C14.2755 3.16326 14.3997 3.34028 14.3997 3.6058C14.0196 3.6058 14.0343 3.3329 14.0343 3.06738Z" fill="#C9D5D5"/>
<path d="M29.9756 29.2955C30.0414 29.2955 30.0998 29.2955 30.1656 29.2881C30.2241 29.4725 30.2826 29.6569 30.341 29.8486C29.9829 29.8191 29.9902 29.5536 29.9756 29.2955Z" fill="#BCCCCE"/>
<path d="M14.9255 5.42079C14.5601 5.40604 14.5674 5.14052 14.5674 4.875C14.8086 4.97826 14.9329 5.16265 14.9255 5.42079Z" fill="#E9EAEB"/>
<path d="M18.6824 9.0497C18.3315 9.02757 18.3242 8.76943 18.3242 8.51128L18.3315 8.50391C18.5727 8.60716 18.6897 8.78418 18.6897 9.0497H18.6824Z" fill="#C9D5D5"/>
<path d="M15.4666 6.32802C15.1011 6.31327 15.1084 6.04775 15.1084 5.78223C15.3496 5.88548 15.4666 6.0625 15.4666 6.32802Z" fill="#E9EAEB"/>
<path d="M13.4929 3.4366C13.259 3.42922 13.1421 3.31121 13.1348 3.0752C13.3687 3.0752 13.4856 3.20058 13.4929 3.4366Z" fill="#E9EAEB"/>
<path d="M34.8436 18.6301H34.7705C34.7705 18.6301 34.6974 18.6227 34.6901 18.6227C34.2954 18.217 34.1053 17.7081 33.9299 17.1845C33.6376 16.0781 33.9226 14.9128 33.5718 13.8138C32.9359 11.8077 31.8249 10.0228 30.7797 8.24531C29.9684 6.86608 29.1132 5.3836 27.666 4.50591C27.3298 4.29939 27.052 3.39958 26.4088 4.15188C26.3503 4.15188 26.2845 4.14451 26.2261 4.14451C26.0141 3.39958 25.539 2.83904 24.9689 2.3375C24.9616 1.68108 25.232 1.54094 25.8021 1.85071C26.153 2.0351 26.4453 2.28587 26.7158 2.56614C27.0447 2.90542 27.4321 3.0603 27.9145 3.07505C29.2886 3.12668 30.1365 3.79786 30.7797 5.0812C32.0442 7.60363 32.8189 10.3326 34.1273 12.8181C34.7339 13.9761 34.7266 15.2004 34.6316 16.4248C34.5658 17.1918 34.6755 17.9073 34.8436 18.6301Z" fill="#0D6365"/>
<path d="M24.968 2.3454C25.5381 2.83956 26.0132 3.4001 26.2252 4.1524C26.2836 4.21878 26.3421 4.28516 26.4006 4.35154C26.4006 4.40317 26.4006 4.46218 26.4006 4.51381C25.4723 4.31467 24.5441 4.14503 23.6231 3.92376C22.0663 3.54761 20.5386 2.89856 18.9745 2.80268C17.4176 2.69942 16.1166 2.07988 14.7425 1.55621C14.4793 1.45296 14.187 1.14318 13.8508 1.45296C13.2222 1.07681 12.3962 0.995674 12.0381 0.213867C13.5511 0.213867 15.0129 0.612146 16.4967 0.811286C18.3678 1.05468 20.2243 1.3497 22.0882 1.62259C23.0384 1.91762 24.0544 1.93237 24.968 2.3454Z" fill="#37676D"/>
<path d="M12.2427 33.6315C11.7603 33.6389 11.2779 33.6463 10.7955 33.6537C10.5178 33.425 10.1158 33.4177 9.89648 33.0931C10.0792 33.0267 10.2619 32.9677 10.4447 32.9014C10.9417 33.4103 11.6799 33.307 12.2427 33.6315Z" fill="#0D6365"/>
<path d="M9.89682 33.1014C9.21707 32.8433 8.88085 32.2901 8.63965 31.6484C9.1586 32.0393 9.81642 32.3196 9.89682 33.1014Z" fill="#0D6365"/>
<path d="M7.02416 28.7645C6.77565 28.6687 6.69525 28.4621 6.66602 28.2188C7.0534 28.2188 7.04609 28.4843 7.02416 28.7645Z" fill="#0D6365"/>
<path d="M6.49096 27.8573C6.24976 27.7541 6.16936 27.5475 6.13281 27.3115C6.5202 27.3115 6.50558 27.5844 6.49096 27.8573Z" fill="#0D6365"/>
<path d="M8.28198 31.0063C8.09925 30.8366 7.93114 30.6596 7.92383 30.3867C8.35507 30.4015 8.28198 30.726 8.28198 31.0063Z" fill="#0D6365"/>
<path d="M5.76733 26.6543C5.56998 26.4994 5.43842 26.3002 5.40918 26.0421C5.47496 26.0347 5.54074 26.0347 5.60653 26.0273C5.665 26.2412 5.71616 26.4477 5.76733 26.6543Z" fill="#0D6365"/>
<path d="M7.93113 30.3864C7.85073 30.261 7.76302 30.143 7.68262 30.0176C7.88727 30.0618 7.93113 30.2093 7.93113 30.3864Z" fill="#0D6365"/>
<path d="M7.2071 29.1694C7.05361 29.0662 7.00244 28.926 7.02437 28.749C7.2071 28.8375 7.21441 28.9998 7.2071 29.1694Z" fill="#0D6365"/>
<path d="M6.67398 28.2184C6.51318 28.1446 6.48394 28.0045 6.49125 27.8496C6.65205 27.916 6.68129 28.0635 6.67398 28.2184Z" fill="#0D6365"/>
<path d="M6.13271 27.3112C5.98653 27.23 5.94267 27.0973 5.94998 26.9424C6.11809 27.0161 6.14002 27.1563 6.13271 27.3112Z" fill="#0D6365"/>
<path d="M8.46448 31.346C8.40601 31.2575 8.34754 31.1764 8.28906 31.0879C8.34754 31.1764 8.40601 31.2575 8.46448 31.346Z" fill="#0D6365"/>
<path d="M8.64663 31.6556C8.58815 31.5893 8.53699 31.5229 8.47852 31.4639C8.53699 31.5229 8.59546 31.5893 8.64663 31.6556Z" fill="#0D6365"/>
<path d="M5.95765 26.9501C5.89917 26.8837 5.8407 26.8174 5.78223 26.751C5.8407 26.8174 5.89917 26.8837 5.95765 26.9501Z" fill="#0D6365"/>
<path d="M19.4058 7.41164C19.2888 7.17562 19.1061 6.99123 18.8722 6.87322C18.8137 6.74784 18.7553 6.62245 18.7041 6.49707C20.5972 6.88797 21.9859 8.17132 23.2577 9.46204C24.376 10.5979 25.604 11.6231 26.6784 12.8105C27.8406 14.0939 29.222 15.1633 30.3841 16.4393C31.2174 17.3539 31.8094 18.4307 32.2041 19.6698C32.6281 21.0048 32.3576 22.3471 32.5696 23.6673C32.6134 23.9402 32.6646 24.0361 32.8985 24.0509C32.8839 24.1689 32.8766 24.2869 32.862 24.4049C32.3503 24.9728 32.438 25.8136 31.9629 26.3963C31.8971 26.3373 31.8387 26.2709 31.7729 26.2119C31.7729 25.9685 31.7729 25.7325 31.7729 25.4891C32.1968 25.2973 32.1749 24.9138 32.1164 24.5598C31.7583 22.3176 31.5682 20.0828 29.9456 18.202C28.915 17.0072 28.0745 15.569 27.0365 14.3963C24.7634 11.8075 22.3002 9.35878 19.4058 7.41164Z" fill="#669699"/>
<path d="M30.7133 29.2949C30.896 28.6901 30.2309 28.0853 30.7133 27.4805C30.8887 27.5395 31.0715 27.5985 31.2469 27.6649C31.32 27.6649 31.4004 27.6649 31.4735 27.6649C31.4369 27.7829 31.4004 27.8935 31.3565 28.0115C30.7864 28.0115 30.9326 28.3065 31.1007 28.6237C31.0203 28.8744 30.9618 29.1473 30.7133 29.2949Z" fill="#9BB7BB"/>
<path d="M31.4737 27.6649C31.4006 27.6649 31.3202 27.6649 31.2471 27.6649C31.2617 27.1191 31.174 26.5364 31.7806 26.2119C31.8464 26.2709 31.9049 26.3373 31.9707 26.3963C31.8757 26.8536 31.7149 27.274 31.4737 27.6649Z" fill="#7AA2A5"/>
<path d="M31.1007 28.6239C30.9326 28.3141 30.7864 28.0117 31.3565 28.0117C31.2688 28.2182 31.1884 28.4248 31.1007 28.6239Z" fill="#8AACAF"/>
<path d="M32.9065 24.051C32.6653 24.0289 32.6215 23.9404 32.5776 23.6675C32.3656 22.3473 32.6361 21.0049 32.2121 19.67C31.8174 18.4382 31.2181 17.354 30.3922 16.4395C29.23 15.1635 27.8413 14.0867 26.6864 12.8107C25.612 11.6233 24.384 10.5981 23.2657 9.46222C21.9866 8.1715 20.6052 6.89553 18.7121 6.49725C18.5879 6.43825 18.4709 6.37925 18.3467 6.32024C18.1128 5.95146 17.8131 5.65644 17.4476 5.41305C17.4696 4.99264 17.031 4.84513 16.9141 4.50586C17.0895 4.53536 17.2868 4.52061 17.4257 4.60912C19.0045 5.61957 20.5394 6.71852 22.162 7.65521C23.5362 8.45177 24.5668 9.68349 25.9628 10.4505C27.4466 11.2619 28.8061 12.2944 30.3264 13.0467C30.6261 13.1942 30.8673 13.4008 30.9988 13.7327C31.0646 13.8949 31.1523 14.0867 31.3789 14.0424C31.6713 13.9834 31.5909 13.7253 31.6128 13.5335C31.9417 13.6884 31.9929 14.0351 32.1683 14.3006C32.5118 14.839 32.7238 15.4659 33.2135 15.9011C33.3597 16.3805 33.5132 16.8525 33.9371 17.1697C34.1125 17.6933 34.3026 18.2096 34.6973 18.6079C34.7046 18.7259 34.7119 18.8365 34.7192 18.9545C34.7192 19.0283 34.7192 19.102 34.7192 19.1758C34.7484 19.3823 34.7704 19.5888 34.7996 19.8027C34.5876 19.8691 34.4634 19.9945 34.5145 20.2379C33.9737 21.5212 33.4401 22.7898 32.9065 24.051Z" fill="#568C8F"/>
<path d="M34.7119 19.1978C34.7119 19.1241 34.7119 19.0503 34.7119 18.9766C34.8654 19.0134 35.1358 18.9544 35.1066 19.1683C35.0628 19.4265 34.8508 19.2273 34.7119 19.1978Z" fill="#07585C"/>
<path d="M34.5072 20.2525C34.456 20.0091 34.5876 19.8838 34.7922 19.8174C34.8507 20.0682 34.763 20.223 34.5072 20.2525Z" fill="#07585C"/>
<path d="M2.19336 20.4443C2.19336 20.2009 2.19336 19.9576 2.19336 19.7142C3.28242 19.869 3.31897 19.0504 3.45784 18.3276C3.61134 17.5236 3.67712 16.6828 4.34956 16.0928C5.30706 17.118 5.0951 18.2759 4.65655 19.4118C4.22531 20.5328 4.2984 21.6244 4.60538 22.7455C4.7004 23.0995 4.95622 23.5126 4.35687 23.6896C4.23262 23.6306 4.11567 23.5716 3.99141 23.5126L3.99872 23.5199C4.01334 23.3577 4.00603 23.2102 3.81599 23.1512C3.84523 22.8709 3.84523 22.6054 3.45054 22.6054L3.45784 22.6127C3.52363 22.0153 3.29704 21.5802 2.73424 21.3442L2.74155 21.3515C2.74886 21.1893 2.74886 21.0344 2.55151 20.9828L2.55882 20.9901C2.57344 20.7172 2.59536 20.437 2.19336 20.437V20.4443Z" fill="#4C8589"/>
<path d="M5.24107 25.6816C4.91216 25.4677 4.7806 25.1358 4.7002 24.7744C5.22646 24.8703 5.23376 25.276 5.24107 25.6816Z" fill="#0D6365"/>
<path d="M3.98363 23.5059C4.10788 23.5649 4.22483 23.6239 4.34909 23.6829C4.34909 23.8378 4.34909 23.9853 4.34178 24.1402C4.14443 23.9779 3.97632 23.7935 3.98363 23.5059Z" fill="#0D6365"/>
<path d="M5.41682 26.0426C5.26333 25.9689 5.21948 25.8361 5.23409 25.6738C5.41682 25.7402 5.43144 25.8877 5.41682 26.0426Z" fill="#0D6365"/>
<path d="M4.6997 24.7809C4.53159 24.7145 4.50236 24.5744 4.51698 24.4121C4.6997 24.4711 4.70701 24.6186 4.6997 24.7809Z" fill="#0D6365"/>
<path d="M4.525 24.4195C4.40074 24.3974 4.34958 24.3163 4.33496 24.1982C4.40074 24.272 4.45922 24.3458 4.525 24.4195Z" fill="#0D6365"/>
<path d="M11.6872 35.4683C11.5118 35.4609 11.3364 35.4535 11.1609 35.4462C10.3277 35.129 9.47253 34.9151 8.71237 34.3841C7.75487 33.7055 7.38941 32.6361 6.8193 31.7068C5.74485 29.9514 4.6704 28.1886 3.74214 26.3521C3.06239 25.0024 2.52882 23.5863 1.78329 22.2661C1.41783 21.6244 1.84176 20.9975 2.03911 20.3779C2.09027 20.3779 2.14143 20.4001 2.18529 20.4296L2.17798 20.4148C2.25107 20.6287 2.30224 20.8647 2.54344 20.968L2.53613 20.9606C2.54344 21.0786 2.55075 21.1966 2.56537 21.3146C2.15605 21.6908 2.44111 22.0522 2.63846 22.3619C3.66174 23.9846 4.28302 25.8137 5.2259 27.4732C5.79602 28.4836 6.35151 29.5162 7.01665 30.4603C7.93029 31.7584 8.93896 32.9901 9.90377 34.2513C10.2912 34.7529 10.737 35.0479 11.4168 34.893C11.6799 34.834 12.0234 34.7676 12.2281 35.0921C12.06 35.2323 11.8772 35.3503 11.6872 35.4683Z" fill="#B1B6B7"/>
<path d="M2.72656 21.3369C3.28937 21.5729 3.51595 22.0081 3.45017 22.6055C3.12126 22.2367 2.84351 21.8311 2.72656 21.3369Z" fill="#0D6365"/>
<path d="M3.44336 22.6055C3.83805 22.6055 3.83075 22.871 3.80882 23.1513C3.54569 23.0628 3.4726 22.8489 3.44336 22.6055Z" fill="#0D6365"/>
<path d="M3.80061 23.1436C3.99064 23.2026 3.99795 23.3501 3.98334 23.5123C3.80792 23.446 3.78599 23.3058 3.80061 23.1436Z" fill="#0D6365"/>
<path d="M2.57318 21.3296C2.56587 21.2116 2.55856 21.0936 2.54395 20.9756C2.73398 21.0346 2.74129 21.1821 2.73398 21.3444C2.68282 21.337 2.62435 21.3296 2.57318 21.3296Z" fill="#0D6365"/>
<path d="M14.041 33.6173C14.7866 33.2485 15.5906 33.5509 16.358 33.4403C18.1634 33.3592 19.998 33.6984 21.7741 33.1084C22.9582 33.7353 24.2885 33.2043 25.5018 33.5952C21.6864 33.6099 17.8637 33.6173 14.041 33.6173Z" fill="#0F4145"/>
<path d="M14.9327 34.7158C14.9327 34.7822 14.9327 34.8486 14.9327 34.915C14.6331 34.9076 14.3407 34.9076 14.041 34.9002C14.2237 34.3176 14.5673 34.4798 14.9327 34.7158Z" fill="#9CA3A5"/>
<path d="M31.6052 13.548C31.5833 13.7471 31.6564 14.0052 31.3713 14.0569C31.1447 14.1011 31.057 13.9094 30.9912 13.7471C30.8597 13.4152 30.6185 13.2087 30.3188 13.0612C28.7985 12.3015 27.4317 11.2763 25.9552 10.465C24.5592 9.69792 23.5286 8.4662 22.1545 7.66965C20.5318 6.73295 18.9969 5.634 17.4181 4.62355C17.2792 4.53504 17.0746 4.54979 16.9065 4.52029C16.5703 4.40228 16.4899 3.84174 16.0001 3.99663C15.9417 3.93025 15.8832 3.86387 15.832 3.79011C15.832 3.6721 15.832 3.54672 15.8393 3.42871C17.1623 3.98188 18.5218 4.45391 19.8009 5.09558C21.4455 5.91427 23.0754 6.76245 24.6761 7.66965C25.5605 8.17118 26.6277 8.37032 27.6217 8.65797C27.9872 8.76122 28.3965 8.72435 28.7473 8.49571C29.7121 9.80118 30.3773 11.2984 31.2544 12.6629C30.9108 13.1423 31.057 13.3709 31.6198 13.3857C31.6052 13.4373 31.6052 13.4889 31.6052 13.548Z" fill="#4C8589"/>
<path d="M13.8516 1.45284C14.1805 1.13569 14.4728 1.45284 14.7433 1.55609C16.1247 2.07238 17.4184 2.6993 18.9753 2.80256C20.5394 2.90582 22.0744 3.54749 23.6239 3.92364C24.5449 4.14491 25.4731 4.32192 26.4014 4.51369C26.8473 4.90459 27.1689 5.36925 27.3004 5.95191C27.0154 6.63784 26.4233 6.36494 26.0067 6.26169C25.1735 6.06255 24.3256 5.8044 23.5654 5.4135C21.6212 4.43255 19.4869 4.00477 17.4769 3.20822C16.2051 2.70668 14.9845 2.20514 13.8516 1.45284Z" fill="#3D7278"/>
<path d="M27.3072 5.95145C27.1757 5.36878 26.8541 4.90412 26.4082 4.51322C26.4082 4.46159 26.4082 4.40259 26.4082 4.35096C26.4082 4.28458 26.4082 4.22557 26.4082 4.15919C27.0514 3.40689 27.3292 4.3067 27.6654 4.51322C29.1053 5.39091 29.9678 6.87339 30.7864 8.25262C31.8316 10.0301 32.9426 11.815 33.5785 13.8211C33.9293 14.9201 33.6443 16.0854 33.9366 17.1918C33.5127 16.8746 33.3592 16.4026 33.213 15.9232C33.2057 14.8758 33.118 13.8802 32.5698 12.9066C31.5904 11.1586 30.6183 9.39583 29.4269 7.78796C28.9079 7.08728 28.579 6.08421 27.4826 5.9662C27.4242 5.95882 27.3657 5.95882 27.3072 5.95145Z" fill="#116A6E"/>
<path d="M27.4824 5.9668C28.5788 6.07743 28.9077 7.08788 29.4267 7.78855C30.6107 9.39642 31.5829 11.1592 32.5696 12.9072C33.1105 13.8807 33.1982 14.8764 33.2128 15.9238C32.7231 15.4812 32.5111 14.8617 32.1676 14.3233C31.9995 14.0578 31.941 13.7111 31.6121 13.5562C31.6121 13.4972 31.6121 13.4456 31.6121 13.3866C31.4878 13.1432 31.3709 12.9072 31.2466 12.6638C30.3769 11.2993 29.7117 9.80208 28.7396 8.49661C28.7396 8.4376 28.7396 8.3786 28.7323 8.31959C28.6738 8.26059 28.6153 8.20158 28.5569 8.14258C28.1987 7.4124 27.8406 6.6896 27.4824 5.9668Z" fill="#21797F"/>
<path d="M15.8324 3.42945C15.8324 3.54746 15.8324 3.67284 15.8251 3.79085C15.5765 3.68759 15.3938 3.5032 15.2842 3.25243C15.4888 3.25243 15.6935 3.22293 15.8324 3.42945Z" fill="#568C8F"/>
<path d="M15.1013 3.0829C14.9479 3.07552 14.8163 3.03865 14.7578 2.87638C15.0575 2.62562 15.0794 2.84688 15.1013 3.0829Z" fill="#568C8F"/>
<path d="M28.5576 8.13477C28.6161 8.19377 28.6746 8.25277 28.733 8.31178C28.6746 8.25277 28.6161 8.19377 28.5576 8.13477Z" fill="#4C8589"/>
<path d="M19.4058 7.41211C22.3002 9.35188 24.7634 11.8006 27.0512 14.3967C28.0891 15.5768 28.9296 17.0077 29.9602 18.2025C31.5829 20.0833 31.7729 22.3181 32.1311 24.5602C32.1895 24.9143 32.2115 25.2978 31.7875 25.4896C31.2905 25.401 31.4513 24.9954 31.4367 24.7004C31.3928 23.6162 31.0932 22.5983 30.7496 21.5805C30.1649 19.8473 28.9516 18.5049 27.9502 17.0298C26.2545 14.5148 24.2079 12.2947 22.059 10.1632C21.5766 9.68377 21.16 9.13061 20.6922 8.62907C20.5533 8.47419 20.3925 8.18654 20.1294 8.51106C19.742 8.23817 19.362 7.96527 19.4058 7.41211Z" fill="#7AA2A5"/>
<path d="M20.1294 8.50386C20.3925 8.17934 20.5533 8.47436 20.6922 8.62187C21.16 9.12341 21.5766 9.67657 22.059 10.156C24.2006 12.2875 26.2471 14.5075 27.9502 17.0226C28.9442 18.4977 30.1575 19.8401 30.7496 21.5733C31.0931 22.5911 31.4001 23.609 31.4366 24.6932C31.4513 24.9956 31.2905 25.3938 31.7875 25.4823C31.7875 25.7257 31.7875 25.9618 31.7875 26.2052C31.1735 26.5297 31.2685 27.1123 31.2539 27.6581C31.0785 27.5991 30.8958 27.5401 30.7203 27.4737C30.7203 27.1713 30.7203 26.8689 30.7203 26.5666C31.0566 25.9691 30.9104 25.3496 30.7934 24.7448C30.2964 22.1486 29.01 19.9212 27.4897 17.8265C26.6638 16.6907 26.2325 15.3262 25.2823 14.2494C24.6684 13.5561 24.0544 12.8481 23.3746 12.2359C22.5706 11.5131 21.8763 10.7239 21.2404 9.85359C20.8968 9.38893 20.049 9.32992 20.1294 8.50386Z" fill="#8AACAF"/>
<path d="M16 3.99756C16.4897 3.84267 16.5701 4.40321 16.9063 4.52122C17.0233 4.86049 17.4618 5.00063 17.4399 5.42841C16.7163 5.19977 16.3435 4.60973 16 3.99756Z" fill="#7AA2A5"/>
<path d="M18.697 9.04178C18.697 8.78363 18.5728 8.59924 18.3389 8.49599C18.3389 8.3116 18.3389 8.13458 18.3389 7.9502C18.7336 8.3706 19.2379 8.72463 19.2452 9.38843C19.0552 9.27779 18.8724 9.15978 18.697 9.04178Z" fill="#BCCCCE"/>
<path d="M19.2305 9.76428C19.2305 9.6389 19.2378 9.52089 19.2378 9.39551C19.3547 9.39551 19.4717 9.39551 19.5959 9.40288C19.6544 9.58727 19.7129 9.76428 19.7713 9.94867C19.5886 9.88229 19.4132 9.82329 19.2305 9.76428Z" fill="#BCCCCE"/>
<path d="M18.3314 6.32812C18.4556 6.38713 18.5726 6.44613 18.6969 6.50514C18.7553 6.63052 18.8138 6.75591 18.865 6.88129C18.4776 6.91079 18.2875 6.73378 18.3314 6.32812Z" fill="#7AA2A5"/>
<path d="M26.4078 4.15191C26.4078 4.21829 26.4078 4.27729 26.4078 4.34367C26.3494 4.27729 26.2909 4.21091 26.2324 4.14453C26.2836 4.15191 26.3494 4.15191 26.4078 4.15191Z" fill="#3D7278"/>
<path d="M2.55101 20.9829C2.3098 20.8796 2.25864 20.651 2.18555 20.4297C2.58024 20.4297 2.56562 20.71 2.55101 20.9829Z" fill="#0D6365"/>
<path d="M31.2397 12.6562C31.3639 12.8996 31.4809 13.1357 31.6051 13.3791C31.0423 13.3643 30.8962 13.1357 31.2397 12.6562Z" fill="#568C8F"/>
</svg>
