<svg width="130" height="28" viewBox="0 0 130 28" fill="none" xmlns="http://www.w3.org/2000/svg">
<path d="M115.179 0H107.263V28H115.179V0ZM107.263 6.95106H130V0H107.263V6.95106ZM40.2589 28H48.1748V0H40.2589V28ZM31.1831 0L22.2523 23.5422H25.9202L16.9917 0H7.14329V6.95106H12.4538L10.1859 3.78719L20.3719 28H27.8052L37.9436 3.88395L34.7582 6.95331H41.0338V0H31.1831ZM7.91587 0H0V28H7.91587V0ZM71.2019 0H63.6237V28H71.2019V0ZM84.2357 28H91.814V0H84.2357V28ZM64.4438 27.5207L66.4715 28H71.6845L90.9939 0.479306L87.5661 0H83.7531L64.4438 27.5207Z" fill="white"/>
</svg>
