<svg width="44" height="31" viewBox="0 0 44 31" fill="none" xmlns="http://www.w3.org/2000/svg">
<path d="M24.9333 31V24.2609C27.1145 24.2609 28.7316 24.0737 29.7846 23.6993C30.8376 23.25 31.5521 22.5386 31.9282 21.5652C32.3043 20.5169 32.4923 19.0193 32.4923 17.0725V15.2754H25.8359V0H44V11.3442C44 15.3128 43.7744 18.57 43.3231 21.1159C42.947 23.6618 42.1197 25.6461 40.841 27.0688C39.5624 28.4915 37.6444 29.5024 35.0872 30.1014C32.6051 30.7005 29.2205 31 24.9333 31ZM0 31V24.2609C2.1812 24.2609 3.79829 24.0737 4.85128 23.6993C5.90427 23.25 6.6188 22.5386 6.99487 21.5652C7.37094 20.5169 7.55897 19.0193 7.55897 17.0725V15.2754H0.789743V0H19.0667V11.3442C19.0667 15.3128 18.841 18.57 18.3897 21.1159C18.0137 23.6618 17.1863 25.6461 15.9077 27.0688C14.6291 28.4915 12.7111 29.5024 10.1538 30.1014C7.67179 30.7005 4.28718 31 0 31Z" fill="#0E3FB5"/>
</svg>
