<svg width="57" height="40" viewBox="0 0 57 40" fill="none" xmlns="http://www.w3.org/2000/svg">
<path d="M32.3 40V31.3043C35.1256 31.3043 37.2205 31.0628 38.5846 30.5797C39.9487 30 40.8744 29.0821 41.3615 27.8261C41.8487 26.4734 42.0923 24.5411 42.0923 22.029V19.7101H33.4692V0H57V14.6377C57 19.7585 56.7077 23.9614 56.1231 27.2464C55.6359 30.5314 54.5641 33.0918 52.9077 34.9275C51.2513 36.7633 48.7667 38.0676 45.4538 38.8406C42.2385 39.6135 37.8538 40 32.3 40ZM0 40V31.3043C2.82564 31.3043 4.92051 31.0628 6.28461 30.5797C7.64872 30 8.57436 29.0821 9.06154 27.8261C9.54872 26.4734 9.79231 24.5411 9.79231 22.029V19.7101H1.02308V0H24.7V14.6377C24.7 19.7585 24.4077 23.9614 23.8231 27.2464C23.3359 30.5314 22.2641 33.0918 20.6077 34.9275C18.9513 36.7633 16.4667 38.0676 13.1538 38.8406C9.93846 39.6135 5.55385 40 0 40Z" fill="white"/>
</svg>
