<svg width="132" height="46" viewBox="0 0 132 46" fill="none" xmlns="http://www.w3.org/2000/svg">
<path d="M29.3421 40.0845C28.7856 41.0717 28.2584 42.0809 27.6066 43.0018C26.9256 43.9669 26.2007 44.8952 25.1535 45.5066C24.7727 45.735 24.348 45.8234 23.9453 45.9929C23.5059 45.9929 23.0592 45.9929 22.6198 45.9929C21.8509 45.7792 21.0821 45.595 20.3425 45.2856C19.1196 44.7699 17.9845 44.0848 16.8202 43.4586C15.0847 42.523 13.3639 41.5726 11.6357 40.6223C11.5698 40.5854 11.5112 40.5265 11.4526 40.4823C11.4673 40.3423 11.5478 40.3128 11.6723 40.2907C12.9684 40.0992 14.2646 39.915 15.5534 39.7087C17.8747 39.3404 20.196 38.9499 22.5173 38.5742C22.6784 38.5742 22.8322 38.5742 22.9933 38.5742C24.1649 38.8468 25.3293 39.1341 26.5009 39.392C27.4455 39.5982 28.3609 39.915 29.3348 40.0108C29.3495 40.0403 29.3495 40.0624 29.3421 40.0845Z" fill="#B5DBCB"/>
<path d="M23.0009 38.5822C22.8398 38.5822 22.686 38.5822 22.5249 38.5822C22.481 38.3022 22.2247 38.3685 22.0709 38.3317C19.5006 37.7129 16.9303 37.1088 14.36 36.5047C12.566 36.0847 10.7646 35.6869 8.97782 35.2302C7.30823 34.8029 5.60935 34.5008 4.01299 33.8304C3.62488 33.6683 3.28071 33.4105 2.84867 33.3516C2.74615 33.16 2.54111 33.0863 2.37269 32.9758C1.67703 32.5117 1.12782 31.9224 0.856879 31.112C0.629874 30.4195 0.556646 29.6975 0.563969 28.9755C0.571292 28.9166 0.578615 28.8503 0.585937 28.7913C0.703102 28.6956 0.747038 28.5703 0.761684 28.423C1.01798 27.6642 1.48664 27.0085 1.72829 26.2497C1.83081 26.0876 1.94065 25.9403 2.02852 25.7708C3.55898 22.9345 5.07479 20.0982 6.61257 17.2692C6.94209 16.6651 7.18374 16.0021 7.64507 15.4717C7.68901 15.8916 7.71098 16.3189 7.77688 16.7388C8.04783 18.4701 8.31877 20.2087 8.619 21.94C8.70687 22.4262 8.67758 22.9419 8.89727 23.3986C8.81672 23.8186 9.00711 24.2238 8.97782 24.6363C8.75813 25.071 8.53845 25.513 8.32609 25.9477C7.70366 26.9496 7.19839 28.0178 6.61257 29.0418C6.53202 29.2186 6.5906 29.2923 6.73705 29.3733C7.84279 29.9701 8.94852 30.5668 10.0543 31.1635C10.0836 31.2004 10.1128 31.2298 10.1421 31.2667C10.1861 32.2244 10.4277 33.16 10.5376 34.1104C10.5595 34.3314 10.706 34.4419 10.9403 34.4124C11.2772 34.3682 11.6213 34.3093 11.9582 34.2651C12.9321 34.1472 13.8914 33.9041 14.8726 33.8452C17.6772 35.3701 20.4819 36.8951 23.2865 38.4201C23.1913 38.4717 23.0961 38.5232 23.0009 38.5822Z" fill="#77BFBA"/>
<path d="M12.771 5.8719C13.3861 4.73 14.0012 3.59547 14.7774 2.55672C15.2314 1.95262 15.7367 1.38535 16.3225 0.899126C17.399 0.0150775 18.6219 -0.169099 19.9619 0.132951C21.551 0.493937 22.957 1.26011 24.3629 2.02629C26.0764 2.96191 27.7826 3.90489 29.4962 4.83314C30.1333 5.1794 30.7484 5.56248 31.4221 5.8277C31.4221 5.8498 31.4221 5.8719 31.4294 5.894C30.8802 5.86453 30.3456 5.99714 29.8037 6.08555C28.493 6.29182 27.1895 6.51284 25.8787 6.71911C24.7876 6.89592 23.6892 7.0359 22.5981 7.22744C21.9098 7.34532 21.2141 7.40425 20.5478 7.60316C20.3867 7.60316 20.2256 7.60316 20.0718 7.61053C17.6333 7.0359 15.2022 6.4539 12.771 5.8719Z" fill="#B5DBCB"/>
<path d="M37.5582 36.0992C37.5363 36.1139 37.507 36.1287 37.4777 36.1287C35.2955 36.637 33.0767 36.8948 30.8652 37.2558L30.8359 37.2485C31.6195 35.8045 32.4103 34.3679 33.1939 32.924C33.5893 32.1873 34.0213 31.4727 34.3582 30.7065C34.3875 30.6991 34.4168 30.6991 34.4461 30.6918C35.0758 30.596 35.0758 30.596 35.0099 29.9698C35.0026 29.874 34.9953 29.7782 34.9879 29.6898C34.9953 29.6456 34.9953 29.6014 35.0026 29.5572C35.2003 29.1963 35.398 28.8426 35.5957 28.4816C36.4891 26.8314 37.4045 25.1959 38.2759 23.531C39.1033 21.9544 40.0114 20.4221 40.7729 18.8087C40.7949 18.8087 40.8169 18.8087 40.8388 18.7939C40.9487 19.4275 41.0512 20.0611 41.161 20.6947C41.161 20.8273 41.1537 20.9599 41.1537 21.0998C40.9413 21.4314 40.934 21.8144 40.8461 22.1754C39.9821 25.8369 39.1107 29.4983 38.2392 33.1597C38.0122 34.1396 37.7852 35.1194 37.5582 36.0992Z" fill="#3D8FC4"/>
<path d="M2.85596 33.3584C3.28068 33.4173 3.63217 33.6752 4.02027 33.8373C5.62396 34.5003 7.32284 34.8097 8.9851 35.237C10.7719 35.6938 12.5733 36.0842 14.3673 36.5115C16.9376 37.1156 19.5079 37.7197 22.0782 38.3385C22.232 38.3754 22.4883 38.3091 22.5322 38.589C20.2109 38.9721 17.8896 39.3552 15.5683 39.7235C14.2795 39.9298 12.9833 40.114 11.6872 40.3055C11.5627 40.3203 11.4748 40.3571 11.4675 40.4971C11.343 40.4603 11.2185 40.4234 11.0867 40.394C10.4643 39.9593 9.77596 39.6425 9.11691 39.2815C7.52787 38.4048 5.93151 37.5503 4.34248 36.6809C4.04224 36.5189 3.76398 36.2979 3.41981 36.2242V36.2316C3.39784 36.2021 3.37587 36.1653 3.3539 36.1358C3.33926 36.1063 3.33194 36.0768 3.31729 36.0474C3.288 36.0179 3.25139 35.9811 3.22209 35.9516C3.22942 35.7822 3.20745 35.6127 3.17816 35.4433C3.05367 34.7434 2.89257 34.0583 2.85596 33.3584Z" fill="#87CBC3"/>
<path d="M7.6594 15.4715C7.19807 16.0019 6.95642 16.665 6.62689 17.2691C5.08179 20.098 3.56598 22.9344 2.04285 25.7707C1.95497 25.9328 1.84513 26.0875 1.74261 26.2495C1.64009 25.6602 1.53758 25.0634 1.43506 24.4741C1.43506 24.3636 1.43506 24.2604 1.42773 24.1499C1.58884 23.9952 1.58151 23.7742 1.62545 23.59C2.42363 20.2306 3.21449 16.8713 3.99802 13.5045C4.247 12.4215 4.55455 11.3459 4.73762 10.2483C4.76691 10.2188 4.7962 10.1967 4.82549 10.1672C5.93123 9.902 7.05161 9.69573 8.17932 9.52628C9.11663 9.37894 10.0613 9.2537 10.9986 9.12109C10.9253 9.2758 10.8521 9.43788 10.7716 9.59259C9.74639 11.5007 8.72852 13.4014 7.70334 15.3094C7.68137 15.3536 7.66672 15.4126 7.6594 15.4715Z" fill="#3D8FC4"/>
<path d="M20.5405 7.61063C21.2142 7.41172 21.9099 7.35278 22.5909 7.23491C23.682 7.04337 24.7804 6.89602 25.8715 6.72658C27.1823 6.5203 28.4857 6.29929 29.7965 6.09301C30.3384 6.01198 30.8729 5.872 31.4221 5.90147C32.0446 6.23299 32.6743 6.54977 33.2894 6.90339C35.3325 8.07476 37.4561 9.08404 39.4332 10.3659C39.4699 10.4249 39.5138 10.4838 39.5504 10.5427C39.609 11.3457 39.7847 12.134 39.9165 12.9297C38.7669 12.3108 37.5733 11.8099 36.2991 11.5004C33.1943 10.7564 30.0967 10.0197 26.9919 9.27559C25.0147 8.8041 23.0376 8.33997 21.0604 7.85374C20.8847 7.81691 20.6357 7.86111 20.5405 7.61063Z" fill="#87CBC3"/>
<path d="M115.854 27.288C114.609 27.288 113.364 27.2733 112.119 27.2954C111.782 27.3027 111.694 27.1996 111.702 26.8681C111.716 24.5695 111.716 22.2784 111.702 19.9799C111.702 19.6631 111.797 19.582 112.104 19.582C114.579 19.5968 117.055 19.5968 119.53 19.582C119.866 19.582 119.954 19.6852 119.947 20.0093C119.94 20.9818 119.954 20.9818 118.98 20.9818C117.34 20.9818 115.7 20.9965 114.06 20.9744C113.686 20.967 113.54 21.0775 113.591 21.4533C113.635 21.829 113.43 22.3078 113.671 22.551C113.913 22.7941 114.389 22.6173 114.763 22.6246C115.487 22.6394 116.212 22.6394 116.937 22.6246C117.208 22.6173 117.282 22.713 117.289 22.9783C117.311 23.9654 117.318 23.9654 116.344 23.9654C115.553 23.9654 114.77 23.9802 113.979 23.9581C113.657 23.9507 113.562 24.0612 113.591 24.3633C113.635 24.8421 113.386 25.4757 113.693 25.7777C113.979 26.0577 114.594 25.8514 115.063 25.8588C116.579 25.8661 118.087 25.8735 119.603 25.8588C119.932 25.8588 120.035 25.9472 120.028 26.2787C120.02 27.2954 120.035 27.2954 119.017 27.2954C117.97 27.288 116.915 27.288 115.854 27.288Z" fill="#229EDA"/>
<path d="M85.0317 23.4791C85.0317 24.621 85.0244 25.7555 85.0391 26.8974C85.0464 27.1995 84.9805 27.3247 84.651 27.3026C84.2921 27.2731 83.926 27.2731 83.5672 27.3026C83.2596 27.3247 83.2011 27.2068 83.2084 26.9269C83.223 26.0723 83.2011 25.2177 83.223 24.3632C83.2303 24.0758 83.1425 23.9801 82.8496 23.9801C81.2459 23.9948 79.6349 23.9948 78.0312 23.9801C77.731 23.9801 77.665 24.0758 77.6724 24.3558C77.687 25.2104 77.665 26.0649 77.687 26.9195C77.6943 27.2437 77.5845 27.3247 77.2916 27.3026C76.9621 27.2805 76.6252 27.2731 76.303 27.3026C75.9808 27.3321 75.8783 27.2363 75.8856 26.8901C75.9003 24.7831 75.8929 22.6761 75.8929 20.5765C75.8929 19.5893 75.8929 19.5893 76.8595 19.5893C77.687 19.5893 77.687 19.5893 77.687 20.4291C77.687 21.0332 77.6943 21.63 77.687 22.2341C77.687 22.4551 77.709 22.573 77.9873 22.573C79.6275 22.5582 81.2678 22.5582 82.9008 22.573C83.1791 22.573 83.245 22.4698 83.2377 22.212C83.223 21.4532 83.245 20.6943 83.2304 19.9355C83.223 19.6703 83.2963 19.5746 83.5745 19.5893C83.948 19.6114 84.3288 19.6188 84.7095 19.5893C85.0244 19.5672 85.0684 19.6998 85.0684 19.9724C85.0244 21.1364 85.0317 22.3077 85.0317 23.4791Z" fill="#25325C"/>
<path d="M51.7574 23.4794C51.7574 22.3227 51.772 21.1661 51.75 20.0095C51.7427 19.6927 51.8086 19.5527 52.1528 19.5822C52.5116 19.6116 52.8777 19.6043 53.2366 19.5822C53.4929 19.5674 53.5514 19.6706 53.5514 19.9063C53.5368 20.6799 53.5588 21.4608 53.5441 22.2343C53.5368 22.5069 53.6247 22.5806 53.8883 22.5732C55.4993 22.5585 57.103 22.5585 58.714 22.5732C59.0435 22.5732 59.1021 22.448 59.1021 22.1606C59.0874 21.4166 59.1094 20.6725 59.0948 19.9284C59.0874 19.6632 59.168 19.5601 59.4389 19.5822C59.9222 19.6264 60.5373 19.3833 60.8449 19.6853C61.1158 19.9432 60.9181 20.5546 60.9181 21.0114C60.9255 22.9563 60.9108 24.9086 60.9328 26.8535C60.9401 27.2218 60.8376 27.3323 60.4861 27.2881C60.0394 27.2366 59.4536 27.4797 59.1753 27.185C58.9263 26.9198 59.1167 26.3378 59.1094 25.8958C59.1021 25.358 59.1021 24.8202 59.1094 24.2824C59.1167 24.0614 59.0289 23.9729 58.8092 23.9803C57.1542 23.9877 55.4993 23.9877 53.8443 23.9803C53.6027 23.9803 53.5588 24.0761 53.5588 24.2897C53.5661 25.1738 53.5514 26.0652 53.5661 26.9492C53.5734 27.2145 53.5002 27.3102 53.2292 27.2955C52.8558 27.2734 52.475 27.2734 52.0942 27.2955C51.8086 27.3102 51.7574 27.1924 51.7647 26.9419C51.7647 25.7926 51.7574 24.636 51.7574 23.4794Z" fill="#25325C"/>
<path d="M37.5586 36.099C37.7856 35.1191 38.0126 34.1393 38.2469 33.1595C39.111 29.4981 39.9824 25.8366 40.8538 22.1752C40.9417 21.8142 40.949 21.4238 41.1614 21.0996C41.3737 21.7626 41.4177 22.4478 41.5275 23.1256C41.8204 24.8642 42.0914 26.6028 42.3404 28.3488C42.5234 29.6307 42.582 30.9126 42.3257 32.2092C42.0474 33.6236 41.2419 34.5961 39.9897 35.2223C39.2135 35.6127 38.408 35.9148 37.5586 36.099Z" fill="#79B7E5"/>
<path d="M131.436 19.67C130.872 20.0531 130.308 20.4436 129.737 20.8267C128.676 21.5413 127.621 22.2559 126.552 22.9631C126.303 23.1252 126.31 23.1989 126.552 23.3683C128.185 24.5028 129.811 25.6447 131.436 26.7866C131.627 26.9192 131.817 27.0592 131.993 27.2876C131.407 27.2876 130.821 27.2434 130.243 27.295C129.488 27.3686 128.888 27.1329 128.295 26.6688C127.138 25.77 125.929 24.9375 124.736 24.0829C124.641 24.0166 124.545 23.8619 124.421 23.9429C124.362 23.9798 124.392 24.1492 124.392 24.2597C124.392 25.129 124.377 25.9984 124.399 26.8677C124.406 27.2066 124.297 27.3097 123.974 27.2876C123.601 27.2655 123.22 27.2729 122.839 27.2876C122.612 27.295 122.495 27.2508 122.495 26.9782C122.502 24.6207 122.502 22.2633 122.495 19.9058C122.495 19.6553 122.576 19.5669 122.817 19.5816C123.227 19.5964 123.637 19.5964 124.048 19.5816C124.318 19.5669 124.399 19.67 124.399 19.9353C124.384 20.7088 124.392 21.4897 124.399 22.2632C124.399 22.3664 124.384 22.5285 124.443 22.5727C124.567 22.6611 124.663 22.5064 124.758 22.4401C126.032 21.5634 127.299 20.6793 128.558 19.7879C128.763 19.6406 128.961 19.5743 129.21 19.5816C129.942 19.5964 130.675 19.589 131.407 19.589C131.422 19.6185 131.429 19.6406 131.436 19.67Z" fill="#1F9ED9"/>
<path d="M72.7514 27.2955C71.9386 27.5239 71.4772 27.1334 71.2209 26.4041C70.9866 25.741 70.5399 25.5569 69.8516 25.5937C68.5921 25.66 67.3325 25.6232 66.073 25.6084C65.8021 25.6084 65.641 25.6895 65.5165 25.9326C65.3261 26.3157 65.0918 26.6693 64.8941 27.0524C64.7915 27.2513 64.6597 27.3102 64.4474 27.3029C64.0373 27.2881 63.6272 27.2808 63.2172 27.3029C62.8803 27.3176 62.8949 27.2145 63.0414 26.9713C63.9934 25.3727 64.938 23.7667 65.89 22.168C66.3367 21.4092 66.798 20.6504 67.23 19.8842C67.3545 19.6632 67.4936 19.5748 67.7499 19.5895C68.2332 19.619 68.8044 19.4569 69.1852 19.6632C69.544 19.8621 69.7051 20.422 69.9468 20.8272C71.1697 22.8531 72.3852 24.8865 73.6008 26.9124C73.8278 27.2881 73.8278 27.2955 73.4031 27.2955C73.1907 27.2955 72.9711 27.2955 72.7514 27.2955ZM68.2625 24.1866C68.7312 24.1866 69.2072 24.1866 69.6758 24.1866C69.8882 24.1866 69.9761 24.1498 69.8442 23.9214C69.339 23.0373 68.841 22.1385 68.3431 21.2471C68.2625 21.0998 68.204 21.0408 68.1014 21.2324C67.6255 22.1312 67.1348 23.0373 66.6515 23.9287C66.5417 24.1276 66.6149 24.1792 66.8053 24.1792C67.2886 24.1866 67.7719 24.1866 68.2625 24.1866Z" fill="#25325C"/>
<path d="M4.73065 10.248C4.54025 11.3457 4.24002 12.4213 3.99105 13.5043C3.20751 16.8637 2.41665 20.2304 1.61847 23.5898C1.57454 23.7814 1.58918 24.0024 1.42076 24.1497C1.17911 23.3172 1.12053 22.4479 0.974072 21.6007C0.747066 20.2673 0.534706 18.9265 0.35896 17.5857C0.183214 16.2522 0.117309 14.9188 0.468801 13.5927C0.739743 12.576 1.3036 11.8025 2.20429 11.2721C2.99515 10.7932 3.82262 10.4322 4.73065 10.248Z" fill="#79B7E5"/>
<path d="M93.4605 27.2656C92.0399 27.273 90.6266 27.2951 89.206 27.273C88.2101 27.2583 87.7634 26.8678 87.7341 25.8732C87.6902 24.2599 87.6902 22.6465 87.7341 21.0331C87.7634 20.0533 88.0929 19.7291 89.0595 19.6554C90.5827 19.5449 92.1131 19.5965 93.6436 19.626C93.6436 20.0827 93.6436 20.5321 93.6436 20.9889C92.4134 20.9962 91.1831 21.011 89.9602 20.9962C89.6527 20.9962 89.5648 21.0773 89.5721 21.3867C89.5868 22.7128 89.5941 24.0462 89.5721 25.3723C89.5648 25.7333 89.66 25.8217 90.0188 25.8217C91.1685 25.8069 92.3182 25.829 93.4678 25.8438C93.4678 26.3153 93.4678 26.7868 93.4605 27.2656Z" fill="#164473"/>
<path d="M10.9841 9.12067C10.0395 9.25327 9.10217 9.38588 8.16486 9.52586C7.03715 9.70266 5.92409 9.90894 4.81104 10.1668C5.07465 9.09856 5.48473 8.09664 6.10716 7.19049C6.78818 6.21067 7.72549 5.68761 8.9191 5.59184C10.2006 5.48133 11.4601 5.59184 12.705 5.88652C12.6391 6.04123 12.5805 6.21067 12.4999 6.35801C12.0313 7.24943 11.5553 8.14085 11.0866 9.02489C11.0573 9.06173 11.0207 9.0912 10.9841 9.12067Z" fill="#585B80"/>
<path d="M30.8727 37.2561C33.0769 36.8951 35.303 36.6372 37.4852 36.1289C37.185 37.2708 36.6943 38.3169 35.9108 39.2083C35.2664 39.9377 34.4316 40.2987 33.4723 40.3944C32.081 40.5344 30.719 40.3576 29.3569 40.085C29.3643 40.0629 29.3643 40.0335 29.3569 40.0114C29.8549 39.0978 30.3602 38.177 30.8727 37.2561Z" fill="#585B80"/>
<path d="M39.4403 10.3654C37.4631 9.08356 35.3322 8.0669 33.2965 6.9029C32.6814 6.54928 32.0516 6.2325 31.4292 5.90098C31.4292 5.87888 31.4292 5.85678 31.4219 5.83468C32.9084 5.68734 34.3876 5.57683 35.8741 5.88625C37.0238 6.12936 37.8732 6.76293 38.4517 7.77222C38.9131 8.58259 39.2426 9.45191 39.4403 10.3654Z" fill="#79B7E5"/>
<path d="M104.627 19.6482C104.942 19.5303 105.14 19.6334 105.316 19.9355C106.619 22.2414 107.945 24.5325 109.263 26.8311C109.512 27.2657 109.512 27.2731 109.021 27.2731C108.516 27.2731 107.945 27.4131 107.535 27.2141C107.117 27.0152 106.993 26.3964 106.744 25.9617C106.026 24.702 105.33 23.4275 104.627 22.1603C104.583 22.0793 104.554 21.9835 104.525 21.9025C104.62 21.733 104.642 21.5489 104.642 21.3573C104.62 20.7901 104.627 20.2228 104.627 19.6482Z" fill="#2398D3"/>
<path d="M11.0869 9.03255C11.5556 8.14113 12.0315 7.25708 12.5002 6.36566C12.5808 6.21096 12.6393 6.04888 12.7052 5.89417C12.7272 5.87944 12.7419 5.87207 12.7711 5.87207C15.2023 6.45407 17.6335 7.03607 20.0573 7.61807C19.8303 7.81698 19.5081 7.6107 19.2884 7.80961C19.2298 7.80224 19.1639 7.80224 19.1053 7.79488C19.0321 7.68437 18.9076 7.6549 18.8051 7.59597C18.3072 7.32338 18.3072 7.32338 18.0875 7.83908C18.0728 7.88328 18.0728 7.92748 18.0655 7.97905C18.0362 7.98642 18.0069 7.98642 17.9776 7.99379C17.7506 7.94959 17.5456 8.06009 17.3332 8.08956C16.0225 8.28847 14.719 8.52422 13.4082 8.70839C12.632 8.8189 11.8704 9.01044 11.0869 9.03255Z" fill="#85B5AC"/>
<path d="M104.627 19.6488C104.627 20.2161 104.62 20.7833 104.627 21.358C104.627 21.5495 104.605 21.7337 104.51 21.9031C104.254 21.6895 104.269 21.9842 104.217 22.08C103.478 23.4576 102.687 24.8131 102.035 26.2276C101.654 27.0601 101.178 27.4726 100.263 27.2811C100.234 27.2737 100.197 27.2811 100.168 27.2811C99.6552 27.2811 99.6552 27.2811 99.9042 26.8243C101.12 24.6069 102.335 22.3967 103.544 20.1792C103.888 19.553 103.895 19.553 104.627 19.6488Z" fill="#228EC8"/>
<path d="M3.41992 36.21C3.76409 36.2836 4.04236 36.5046 4.34259 36.6667C5.93163 37.536 7.52799 38.3906 9.11703 39.2673C9.77607 39.6283 10.4644 39.9524 11.0868 40.3797C9.68088 40.5418 8.27491 40.6007 6.86894 40.3282C5.71927 40.0998 4.86983 39.4588 4.28401 38.4495C3.87393 37.7497 3.54441 37.0203 3.41992 36.21Z" fill="#79B7E5"/>
<path d="M2.85589 33.3585C2.8925 34.0583 3.0536 34.7361 3.17809 35.4212C3.20738 35.5907 3.22935 35.7601 3.22203 35.9296C1.77212 35.0455 0.454025 34.0362 0.0805644 32.246C-0.153764 31.1115 0.153792 30.0285 0.571189 28.9824C0.563866 29.7118 0.637094 30.4264 0.864099 31.1189C1.13504 31.9366 1.68425 32.5186 2.37991 32.9827C2.54833 33.1006 2.75337 33.1669 2.85589 33.3585Z" fill="#B5DBCB"/>
<path d="M95.7305 19.6261C96.0234 19.5671 96.3016 19.6482 96.5799 19.6997C96.5799 22.1898 96.5799 24.6873 96.5799 27.1773C96.3382 27.2952 96.082 27.2952 95.8183 27.2657C95.7817 26.7869 95.9209 26.2859 95.7158 25.8218C95.7231 24.2158 95.7231 22.6171 95.7305 21.0111C95.7305 20.547 95.7305 20.0902 95.7305 19.6261Z" fill="#2A72A5"/>
<path d="M39.9238 12.9299C39.7919 12.1343 39.6089 11.3533 39.5576 10.543C41.4396 11.8322 42.4281 13.4088 41.8863 15.8325C41.8496 15.9872 41.8277 16.1419 41.7911 16.2967C41.7764 16.3114 41.7618 16.3188 41.7398 16.3188C41.7325 14.8895 41.2199 13.7476 39.9311 13.033C39.9311 12.9962 39.9311 12.9594 39.9238 12.9299Z" fill="#B5DBCB"/>
<path d="M97.217 20.0244C97.5612 20.297 97.6051 20.7096 97.6051 21.0926C97.6271 22.6545 97.6271 24.2163 97.6051 25.7781C97.5978 26.1612 97.5612 26.5737 97.217 26.8463C97.0193 26.7432 97.0559 26.559 97.0559 26.3896C97.0559 24.4152 97.0559 22.4482 97.0559 20.4738C97.0632 20.3117 97.0193 20.1202 97.217 20.0244Z" fill="#1D81BA"/>
<path d="M97.2172 20.0238C97.0194 20.127 97.0561 20.3111 97.0561 20.4806C97.0561 22.4549 97.0561 24.422 97.0561 26.3963C97.0561 26.5658 97.0268 26.75 97.2172 26.8531C97.0634 27.0741 96.8437 27.1699 96.5801 27.1846C96.5801 24.6945 96.5801 22.1971 96.5801 19.707C96.8291 19.7365 97.0634 19.8028 97.2172 20.0238Z" fill="#1979B0"/>
<path d="M41.7396 16.3112C41.7615 16.3112 41.7762 16.3038 41.7908 16.2891C41.8494 17.7993 41.5931 19.258 41.1611 20.6946C41.0512 20.061 40.9487 19.4274 40.8389 18.7939C41.1098 17.9614 41.5492 17.1805 41.7396 16.3112Z" fill="#5C6084"/>
<path d="M1.42806 24.4668C1.53058 25.0562 1.6331 25.6529 1.73562 26.2423C1.49396 27.0011 1.02531 27.6641 0.769012 28.4155C0.717753 28.4082 0.666494 28.4082 0.615234 28.4008C0.747044 27.0674 1.04728 25.7634 1.42806 24.4668Z" fill="#5C6084"/>
<path d="M93.6509 20.9816C93.6509 20.5249 93.6509 20.0755 93.6509 19.6187C94.061 19.5745 94.471 19.5892 94.8811 19.6187C94.8811 20.0681 94.8811 20.5249 94.8811 20.9743C94.471 20.9816 94.061 20.9816 93.6509 20.9816Z" fill="#1E5585"/>
<path d="M94.8809 20.9817C94.8809 20.5323 94.8809 20.0755 94.8809 19.6262C95.1664 19.582 95.452 19.5893 95.7376 19.6262C95.7376 20.0829 95.7376 20.547 95.7376 21.0038C95.452 21.0038 95.1664 20.9891 94.8809 20.9817Z" fill="#1E6496"/>
<path d="M93.4604 27.2658C93.4604 26.7943 93.4604 26.3154 93.4604 25.8439C93.746 25.7924 94.0316 25.8071 94.3099 25.8439C94.3099 26.3154 94.3099 26.7869 94.3099 27.2658C94.0316 27.2658 93.746 27.2658 93.4604 27.2658Z" fill="#11507F"/>
<path d="M94.3169 27.2658C94.3169 26.7943 94.3169 26.3228 94.3169 25.8439C94.5659 25.7997 94.8222 25.8071 95.0711 25.8439C95.0711 26.3154 95.0711 26.7869 95.0711 27.2658C94.8222 27.2658 94.5659 27.2658 94.3169 27.2658Z" fill="#195B8C"/>
<path d="M95.0713 27.2658C95.0713 26.7943 95.0713 26.3228 95.0713 25.8439C95.2836 25.8366 95.5033 25.8292 95.7157 25.8145C95.928 26.2859 95.7816 26.7795 95.8182 27.2584C95.5766 27.2658 95.3203 27.2658 95.0713 27.2658Z" fill="#1E6496"/>
<path d="M0.615366 28.4082C0.666625 28.4156 0.717885 28.4156 0.769144 28.4229C0.761821 28.5703 0.710562 28.6955 0.593398 28.7913C0.578752 28.6661 0.564107 28.5334 0.615366 28.4082Z" fill="#9096AA"/>
<path d="M3.22217 35.9297C3.25168 35.9592 3.28857 35.996 3.31808 36.0255C3.28857 35.996 3.25906 35.9665 3.22217 35.9297Z" fill="#B5DBCB"/>
<path d="M3.354 36.1211C3.37614 36.1506 3.39827 36.1874 3.42041 36.2169C3.39827 36.18 3.37614 36.1506 3.354 36.1211Z" fill="#79B7E5"/>
<path d="M30.8729 37.2554C30.3677 38.1763 29.8551 39.0898 29.3498 40.0107C28.3832 39.9149 27.4605 39.5981 26.5159 39.3919C25.3443 39.134 24.1726 38.8467 23.0083 38.5741C23.1035 38.5225 23.1914 38.4636 23.2866 38.412C23.3818 38.4562 23.477 38.4636 23.5648 38.3899C24.1726 38.3678 24.7658 38.2131 25.3589 38.1174C27.1823 37.8227 29.013 37.5354 30.8436 37.248L30.8729 37.2554Z" fill="#85B5AC"/>
<path d="M23.5573 38.3901C23.4695 38.4564 23.3743 38.4564 23.2791 38.4122C20.4745 36.8872 17.6698 35.3623 14.8652 33.8373C14.8652 33.8152 14.8579 33.8004 14.8579 33.7783C16.4177 33.5426 17.9847 33.3216 19.5445 33.0564C20.4232 32.909 21.3166 32.828 22.1733 32.5996C22.3198 32.607 22.4663 32.607 22.62 32.6143C23.7624 33.0195 24.9413 33.2553 26.1276 33.4689C25.8713 34.1835 25.432 34.8024 25.0951 35.4801C24.5972 36.46 24.0114 37.3882 23.5573 38.3901Z" fill="#3D8FC4"/>
<path d="M22.1806 32.5924C21.3166 32.8282 20.4232 32.9018 19.5518 33.0492C17.992 33.3144 16.425 33.5354 14.8652 33.7712C14.6675 33.6754 14.4698 33.5796 14.2794 33.4765C12.9027 32.7398 11.526 31.9957 10.1494 31.2516C10.1201 31.2148 10.0908 31.1853 10.0615 31.1485C9.99558 30.6401 9.92967 30.1392 9.86377 29.6309C9.94432 29.6382 10.0249 29.6382 10.0981 29.6603C12.7709 30.2939 15.451 30.9275 18.1165 31.5758C19.4712 31.922 20.8406 32.1946 22.1806 32.5924Z" fill="#585B80"/>
<path d="M8.99218 24.636C9.02147 24.2161 8.83108 23.8182 8.91163 23.3983C9.02879 23.2436 9.05808 23.0521 9.0947 22.8752C9.72446 20.1936 10.3542 17.5194 10.9766 14.8378C11.0059 14.8083 11.0426 14.7715 11.0718 14.742C11.2769 14.7346 11.4746 14.7199 11.6723 14.6904C12.6389 14.5505 13.5909 14.3221 14.5721 14.2705C14.2792 14.9556 13.8838 15.5818 13.5396 16.2375C12.6023 17.9761 11.6503 19.7 10.7277 21.446C10.1711 22.5069 9.54139 23.5309 9.05808 24.6286C9.04344 24.6286 9.02147 24.6286 8.99218 24.636Z" fill="#B5DBCB"/>
<path d="M10.9842 14.8301C10.3544 17.5117 9.72469 20.1859 9.10225 22.8676C9.05832 23.0517 9.03635 23.2359 8.91918 23.3906C8.69218 22.9265 8.72147 22.4182 8.64092 21.9319C8.34069 20.2007 8.06974 18.4694 7.7988 16.7308C7.7329 16.3109 7.71093 15.8836 7.66699 15.4636C7.68164 15.4047 7.68896 15.3531 7.70361 15.2942C8.02581 15.2426 8.34069 15.1911 8.66289 15.1469C9.43178 15.0511 10.1933 14.8522 10.9842 14.8301Z" fill="#85B5AC"/>
<path d="M10.1348 31.2666C11.5114 32.0107 12.8881 32.7474 14.2648 33.4915C14.4552 33.5946 14.6602 33.683 14.8506 33.7861C14.8506 33.8082 14.8579 33.823 14.8579 33.8451C13.8767 33.904 12.9174 34.1471 11.9435 34.265C11.6066 34.3092 11.2625 34.3608 10.9256 34.4123C10.6986 34.4418 10.5522 34.3313 10.5229 34.1103C10.4277 33.1526 10.1787 32.2243 10.1348 31.2666Z" fill="#85B4AB"/>
<path d="M8.99258 24.6363C9.01455 24.6289 9.03652 24.6289 9.06581 24.6289C9.31478 26.2791 9.57108 27.922 9.82005 29.5722C9.24156 29.5206 8.68503 29.3291 8.12117 29.226C7.74039 29.1597 7.64519 29.027 7.74039 28.6219C7.95275 27.7378 8.20905 26.8611 8.34086 25.955C8.56054 25.513 8.78022 25.0709 8.99258 24.6363Z" fill="#79B7E5"/>
<path d="M8.34079 25.9473C8.20898 26.8534 7.96001 27.7301 7.74033 28.6141C7.64513 29.0193 7.733 29.1519 8.12111 29.2182C8.69229 29.3214 9.24149 29.5129 9.81999 29.5645C9.84196 29.5866 9.8566 29.6161 9.8566 29.6455C9.92251 30.1539 9.98841 30.6548 10.0543 31.1632C8.94858 30.5664 7.84285 29.9697 6.73711 29.373C6.59065 29.2919 6.52475 29.2182 6.62727 29.0414C7.21309 28.0174 7.71836 26.9492 8.34079 25.9473Z" fill="#3E8FC5"/>
<path d="M39.9236 12.9295C39.9309 12.959 39.9309 12.9885 39.9309 13.018C40.114 14.1599 40.3337 15.2944 40.4655 16.4363C40.5607 17.2246 40.8023 17.9981 40.7731 18.8011C40.0115 20.4145 39.1035 21.9468 38.276 23.5234C37.4046 25.181 36.4892 26.8238 35.5959 28.4741C35.3982 28.8351 35.2004 29.196 35.0027 29.5497C34.9368 29.4981 34.9295 29.4244 34.9149 29.3434C34.805 28.6509 34.6878 27.9584 34.578 27.2585C34.4023 26.1461 34.2412 25.0337 34.0581 23.9212C33.9409 23.1992 33.8091 22.4773 33.6846 21.7553C33.6846 21.7258 33.6846 21.689 33.6773 21.6595C33.6773 21.5048 33.6773 21.3427 33.6773 21.188C34.0068 20.2893 34.1753 19.361 34.3437 18.4254C34.4096 18.2633 34.4682 18.1086 34.5341 17.9465C34.8197 17.5855 34.9441 17.1288 35.2078 16.7531C35.3249 16.5836 35.2078 16.532 35.0906 16.4731C34.2924 16.0385 33.5089 15.5522 32.6741 15.1839C32.6594 15.1618 32.6521 15.1323 32.6448 15.1028C32.6448 14.9923 32.6594 14.8818 32.6375 14.7713C32.491 13.8799 32.3299 12.9885 32.1761 12.0897C32.0736 11.4561 31.9784 11.4046 31.3633 11.5077C30.0159 11.7435 28.6612 11.9497 27.3138 12.1634C27.2699 12.1634 27.2186 12.156 27.1747 12.156C27.0722 12.0897 26.9697 12.0087 26.8598 11.9497C24.8241 10.8447 22.7884 9.74697 20.76 8.62718C20.2693 8.3546 19.7348 8.14832 19.2954 7.77997C19.5151 7.58106 19.8446 7.77997 20.0643 7.58842C20.2254 7.58842 20.3865 7.58842 20.5403 7.58105C20.6355 7.83154 20.8844 7.78733 21.0675 7.83154C23.0447 8.31776 25.0218 8.78189 26.9989 9.25338C30.1038 9.99009 33.2086 10.7268 36.3062 11.4782C37.5803 11.8098 38.7739 12.3107 39.9236 12.9295Z" fill="#76C0BB"/>
<path d="M23.5571 38.3899C24.0111 37.388 24.597 36.4524 25.0876 35.4726C25.4244 34.8021 25.8638 34.1759 26.1201 33.4613C26.1494 33.4613 26.1787 33.454 26.208 33.454C26.2153 33.4687 26.2226 33.4834 26.2373 33.4908C27.5627 33.896 28.9247 34.1538 30.2648 34.4927C30.4259 34.5296 30.5943 34.4927 30.6309 34.2938C30.8506 33.2551 31.1948 32.2384 31.3119 31.1775C31.3412 31.1775 31.3705 31.1702 31.3998 31.1702C32.3811 31.0155 33.3623 30.8608 34.3436 30.7061C34.014 31.4722 33.5747 32.1868 33.1792 32.9235C32.403 34.3675 31.6122 35.8041 30.8213 37.248C28.9906 37.5353 27.1672 37.8226 25.3366 38.1173C24.7581 38.2131 24.1722 38.3678 23.5571 38.3899Z" fill="#76C0BB"/>
<path d="M34.3583 30.7063C33.377 30.861 32.3958 31.0157 31.4146 31.1704C31.7807 29.5792 32.1468 27.9879 32.513 26.3966C32.8718 24.8495 33.2306 23.3098 33.5967 21.7627C33.626 21.7627 33.6553 21.7627 33.6846 21.7627C33.8091 22.4847 33.9409 23.2066 34.0581 23.9286C34.2338 25.041 34.4022 26.1535 34.578 27.2659C34.6878 27.9584 34.805 28.6509 34.9148 29.3508C34.9295 29.4318 34.9368 29.5055 35.0027 29.5571C34.9954 29.6013 34.9954 29.6455 34.9881 29.6897C34.7244 29.977 34.578 30.3306 34.4462 30.6916C34.4169 30.699 34.3876 30.699 34.3583 30.7063Z" fill="#85B5AC"/>
<path d="M40.7733 18.8085C40.8026 18.0055 40.5609 17.232 40.4657 16.4437C40.3339 15.3018 40.1142 14.1673 39.9312 13.0254C41.22 13.74 41.7325 14.8893 41.7399 16.3111C41.5495 17.1804 41.1174 17.954 40.8392 18.7938C40.8172 18.8085 40.7952 18.8085 40.7733 18.8085Z" fill="#85B5AC"/>
<path d="M34.4463 30.6914C34.5781 30.3304 34.7246 29.9768 34.9882 29.6895C34.9955 29.7852 35.0028 29.881 35.0101 29.9694C35.076 30.5956 35.076 30.5956 34.4463 30.6914Z" fill="#5C6084"/>
<path d="M10.9842 14.83C10.1933 14.8521 9.42446 15.051 8.64825 15.1541C8.32604 15.1984 8.01117 15.2499 7.68896 15.3015C8.71415 13.3934 9.73934 11.4927 10.7572 9.58464C10.8377 9.42994 10.911 9.27523 10.9842 9.11315C11.0208 9.08368 11.0501 9.05422 11.0867 9.03211C11.8703 9.00265 12.6318 8.81847 13.4007 8.70796C14.7115 8.51642 16.0149 8.28804 17.3257 8.08913C17.5381 8.05966 17.7431 7.94179 17.9701 7.99336C17.7724 8.36908 17.5747 8.7448 17.3843 9.12052C16.8644 10.1372 16.2493 11.1096 15.8026 12.1558C15.7733 12.1631 15.7367 12.1631 15.7074 12.1705C15.6268 12.06 15.5097 12.0158 15.3852 11.9863C14.3673 11.7506 13.3421 11.5369 12.3389 11.2717C11.9728 11.1759 11.819 11.2717 11.7458 11.618C11.5847 12.3399 11.4236 13.0545 11.2478 13.7691C11.1746 14.0859 11.0501 14.3953 11.0721 14.7342C11.0501 14.7637 11.0208 14.8005 10.9842 14.83Z" fill="#76C0BB"/>
<path d="M15.8101 12.1562C16.2641 11.1027 16.8792 10.1377 17.3918 9.121C17.5822 8.74527 17.7799 8.36955 17.9776 7.99383C18.0069 7.98647 18.0362 7.9791 18.0655 7.9791C18.4096 7.92016 18.7611 7.85386 19.1053 7.79492C19.1639 7.80229 19.2298 7.80229 19.2884 7.80966C19.7277 8.17801 20.2623 8.38429 20.7529 8.65687C22.7813 9.77666 24.817 10.8744 26.8528 11.9794C26.9626 12.0384 27.0651 12.112 27.1677 12.1857C26.2889 12.4067 25.3809 12.4877 24.4875 12.6498C23.2353 12.8708 21.9758 13.0034 20.7383 13.2834C20.6431 13.276 20.5406 13.2687 20.4454 13.2687C20.3648 13.2245 20.2916 13.1582 20.2037 13.1361C19.4861 12.9666 18.7685 12.8119 18.0508 12.6498C17.3112 12.473 16.5789 12.2225 15.8101 12.1562Z" fill="#3D8FC4"/>
<path d="M19.1053 7.78733C18.7611 7.84627 18.4096 7.91257 18.0654 7.97151C18.0728 7.9273 18.0728 7.87573 18.0874 7.83153C18.3071 7.31584 18.3071 7.31584 18.805 7.58842C18.9075 7.64736 19.0394 7.67682 19.1053 7.78733Z" fill="#5C6084"/>
<path d="M22.6201 32.6146C23.2499 32.3789 23.9309 32.3789 24.5826 32.2463C25.3735 32.0916 26.179 31.9958 26.9845 31.8779C26.8014 32.4378 26.4279 32.9093 26.2156 33.4619C26.1863 33.4619 26.157 33.4692 26.1277 33.4692C24.9414 33.2482 23.7625 33.0125 22.6201 32.6146Z" fill="#79B7E5"/>
<path d="M14.6822 14.175C14.6529 14.2044 14.6162 14.2339 14.587 14.2634C13.6057 14.3149 12.6537 14.5433 11.6871 14.6833C11.4821 14.7128 11.2844 14.7275 11.0867 14.7349C11.0647 14.396 11.1819 14.0866 11.2624 13.7698C11.4308 13.0552 11.5993 12.3406 11.7604 11.6186C11.8336 11.2723 11.9874 11.1766 12.3535 11.2723C13.3641 11.5376 14.3892 11.7512 15.3998 11.987C15.5243 12.0164 15.6414 12.0606 15.722 12.1711C15.3705 12.8415 15.0263 13.5046 14.6822 14.175Z" fill="#87CBC3"/>
<path d="M27.1309 31.8189C27.2993 31.2369 27.6581 30.7433 27.9364 30.2128C29.2764 27.708 30.6311 25.2106 31.9858 22.7132C32.4545 21.8586 32.9305 21.004 33.4065 20.1494C33.5822 20.4736 33.4797 20.8714 33.6774 21.1955C33.6774 21.3502 33.6774 21.5123 33.6774 21.667C33.6481 21.6965 33.6188 21.7333 33.5895 21.7628C33.2307 23.3099 32.8646 24.8496 32.5058 26.3967C32.1396 27.988 31.7735 29.5793 31.4074 31.1706C31.3781 31.1706 31.3488 31.1706 31.3195 31.1779C31.0266 31.2295 30.741 31.2811 30.4481 31.3253C29.3423 31.4726 28.2512 31.7157 27.1309 31.8189Z" fill="#B5DBCB"/>
<path d="M32.8282 16.1633C28.8006 15.1982 24.7731 14.2405 20.7456 13.2754C21.9832 12.9955 23.25 12.8629 24.4949 12.6419C25.3882 12.4798 26.2889 12.3987 27.175 12.1777C27.2189 12.1777 27.2702 12.1851 27.3141 12.1851C29.0569 13.2165 30.8583 14.1595 32.6451 15.1172C32.6524 15.1467 32.6671 15.1688 32.6744 15.1982C32.7256 15.5077 32.7769 15.8244 32.8208 16.1339L32.8282 16.1633Z" fill="#585B80"/>
<path d="M32.6449 15.1177C30.8582 14.1674 29.0568 13.2244 27.314 12.1856C28.6614 11.9646 30.0161 11.7583 31.3635 11.53C31.9786 11.4268 32.0738 11.4784 32.1763 12.112C32.3227 13.0034 32.4838 13.8948 32.6376 14.7936C32.6596 14.8967 32.6449 15.0072 32.6449 15.1177Z" fill="#85B4AB"/>
<path d="M33.4286 19.9578C33.2309 18.6907 33.0258 17.4236 32.8281 16.1564V16.127C33.3554 16.3259 33.9192 16.3922 34.4684 16.5321C34.7394 16.5984 34.8199 16.6942 34.7467 16.9889C34.6588 17.3057 34.5343 17.6151 34.5416 17.954C34.4757 18.1161 34.4172 18.2708 34.3513 18.4328C33.9485 18.8896 33.8094 19.5011 33.4286 19.9578Z" fill="#79B7E5"/>
<path d="M34.5343 17.9541C34.527 17.6152 34.6515 17.3058 34.7393 16.989C34.8199 16.7017 34.732 16.6059 34.4611 16.5322C33.9119 16.3996 33.3553 16.3259 32.8208 16.127C32.7695 15.8176 32.7183 15.5008 32.6743 15.1914C33.5091 15.5598 34.2926 16.0386 35.0908 16.4806C35.208 16.5396 35.3252 16.5985 35.208 16.7606C34.9444 17.1437 34.8272 17.6004 34.5343 17.9541Z" fill="#3E8FC5"/>
<path d="M33.4282 19.9576C33.809 19.4935 33.9481 18.882 34.3436 18.4326C34.1825 19.3682 34.0067 20.3039 33.6772 21.1953C33.4795 20.8785 33.582 20.4733 33.4062 20.1491C33.4136 20.0902 33.4209 20.0239 33.4282 19.9576Z" fill="#86CAC4"/>
<path d="M33.5967 21.7706C33.6262 21.7411 33.6557 21.7043 33.6852 21.6748C33.6852 21.7043 33.6852 21.7337 33.6852 21.7632C33.6557 21.7632 33.6262 21.7632 33.5967 21.7706Z" fill="#87CBC3"/>
<path d="M27.1307 31.8187C28.2437 31.7155 29.3422 31.4724 30.4479 31.3251C30.7408 31.2882 31.0337 31.2293 31.3193 31.1777C31.2021 32.2386 30.8653 33.2552 30.6383 34.294C30.5943 34.4929 30.4259 34.5371 30.2721 34.4929C28.9321 34.154 27.57 33.9036 26.2446 33.491C26.23 33.4836 26.2227 33.4689 26.2153 33.4542C26.4277 32.9016 26.8012 32.4375 26.9842 31.8702C27.0355 31.8555 27.0794 31.8334 27.1307 31.8187Z" fill="#87CBC3"/>
<path d="M14.6821 14.1748C15.0263 13.5044 15.3705 12.834 15.7146 12.171C15.7439 12.1636 15.7805 12.1636 15.8098 12.1562C16.5787 12.2152 17.311 12.473 18.0579 12.6425C18.7756 12.8046 19.4932 12.9666 20.2108 13.1287C20.2987 13.1508 20.3719 13.2171 20.4525 13.2613C18.5339 13.6076 16.6153 13.917 14.6821 14.1748Z" fill="#79B7E5"/>
</svg>
