<svg width="152" height="31" viewBox="0 0 152 31" fill="none" xmlns="http://www.w3.org/2000/svg">
<path d="M152 23.2621C150.373 23.2263 149.977 22.8394 149.977 21.2704C149.97 20.16 149.985 19.0495 149.97 17.939C149.948 16.4488 149.12 15.6393 147.61 15.6249C146.526 15.6178 145.434 15.6608 144.349 15.6106C143.705 15.582 143.485 15.7396 143.499 16.4059C143.551 18.3689 143.529 20.3319 143.507 22.2949C143.499 22.6102 143.756 23.0973 143.25 23.2263C142.789 23.3409 142.305 23.212 141.939 22.8466C141.579 22.4884 141.484 22.0513 141.484 21.5713C141.492 19.8376 141.47 18.111 141.499 16.3772C141.506 15.8255 141.389 15.5891 140.759 15.6178C139.594 15.6679 138.428 15.6178 137.256 15.6321C135.893 15.6536 135.028 16.4918 135.013 17.8244C134.999 19.114 135.021 20.4107 134.999 21.7003C134.984 22.6531 134.457 23.1976 133.584 23.2549C133.218 23.2836 132.976 23.212 132.984 22.7678C133.013 20.9624 132.94 19.1498 133.042 17.3444C133.159 15.3097 134.874 13.7121 136.963 13.6834C140.619 13.6333 144.284 13.6404 147.94 13.6834C149.831 13.7049 151.282 14.8799 151.817 16.6781C151.846 16.7784 151.861 16.8787 151.985 16.9074C152 19.028 152 21.1415 152 23.2621Z" fill="#364895"/>
<path d="M151.267 30.699C151.267 29.9539 151.267 29.2088 151.267 28.2989C150.425 28.9867 149.941 29.7819 149.325 30.4482C148.746 31.0787 148.541 31.1073 147.962 30.4554C147.464 29.8894 146.988 29.3019 146.497 28.7216C146.401 28.6141 146.314 28.4207 146.13 28.5282C146.05 28.5783 146.02 28.7503 146.02 28.8649C146.006 29.3807 146.013 29.8966 146.013 30.4124C146.013 30.6703 145.954 30.8996 145.639 30.8996C145.332 30.8996 145.266 30.6703 145.266 30.4124C145.266 29.481 145.266 28.5568 145.266 27.6255C145.266 27.3747 145.324 27.1526 145.581 27.0523C145.845 26.952 146.035 27.1311 146.196 27.3102C146.907 28.1126 147.625 28.9007 148.299 29.7246C148.593 30.0828 148.768 30.0255 149.025 29.7175C149.677 28.9365 150.344 28.1771 151.004 27.3962C151.238 27.124 151.473 26.8732 151.854 27.1741C151.905 27.2099 151.956 27.2458 152 27.2816C152 28.4207 152 29.5527 152 30.6918C151.751 30.699 151.509 30.699 151.267 30.699Z" fill="#364895"/>
<path d="M151.267 30.6992C151.509 30.6992 151.758 30.6992 152 30.6992C152 30.7494 152 30.7995 152 30.8568C151.736 30.8927 151.421 31.1434 151.267 30.6992Z" fill="#2D75BA"/>
<path d="M152 27.2953C151.949 27.2595 151.897 27.2237 151.854 27.1878C151.905 27.1664 151.949 27.152 152 27.1377C152 27.1878 152 27.238 152 27.2953Z" fill="#2D75BA"/>
<path d="M13.0515 5.87431C19.9473 5.64505 26.0516 11.4911 26.015 18.3975C25.9856 25.1965 20.1305 30.8849 12.9196 30.842C5.69406 30.7918 0.0294196 25.2538 0.000107051 18.2399C-0.0292055 11.5556 5.9652 5.6164 13.0515 5.87431ZM12.9929 24.6592C16.591 24.6592 19.4123 21.8866 19.405 18.3474C19.3977 14.8225 16.5397 11.9425 13.0222 11.9711C9.24088 11.9998 6.64672 14.8154 6.58076 18.3832C6.52947 21.8149 9.50469 24.6592 12.9929 24.6592Z" fill="#41AAE1"/>
<path d="M64.7956 30.821C62.5752 30.7996 60.3474 30.9428 58.1563 30.3697C53.5982 29.1661 49.4651 25.0609 48.8569 19.8883C48.1461 13.8345 51.986 8.03135 58.0024 6.32625C58.999 6.04684 60.0176 5.87489 61.0582 5.86773C63.711 5.84624 66.3565 5.86773 69.0092 5.83907C69.5589 5.83191 69.6908 6.01102 69.6468 6.50535C69.339 9.73646 67.3238 12.1222 63.733 11.9789C63.0955 11.9574 62.4579 11.9789 61.8277 11.9789C58.53 11.9717 56.3389 14.1354 55.6208 16.4279C54.7267 19.2722 55.8333 22.1092 58.3688 23.7284C59.2409 24.2872 60.2302 24.6024 61.2854 24.6382C62.0768 24.6597 62.8756 24.6812 63.667 24.6526C67.3165 24.5093 69.2071 26.8592 69.5955 29.7607C69.6102 29.8897 69.6175 30.0186 69.6395 30.1476C69.7274 30.6348 69.5735 30.8425 69.0166 30.8282C67.6022 30.7996 66.1952 30.8282 64.7956 30.821Z" fill="#364895"/>
<path d="M44.9509 30.8278C41.9976 30.8135 39.4914 30.9353 37.0145 30.2475C32.2952 28.9293 28.2501 24.0933 28.1841 19.3291C28.0962 13.0818 28.1548 6.83451 28.1328 0.580057C28.1328 0.0785549 28.3233 -0.0217456 28.7923 -0.000252623C31.4525 0.135869 34.8454 1.90546 34.7135 5.82434C34.6842 6.80585 34.6915 7.78736 34.7208 8.76887C34.7355 9.22739 34.6036 9.49963 34.1858 9.77904C31.665 11.4412 31.687 15.2669 34.2298 16.886C34.6768 17.1726 34.7355 17.4878 34.7135 17.9177C34.6255 19.673 35.1312 21.2276 36.333 22.553C37.4908 23.8354 38.9271 24.5662 40.6932 24.6593C42.0123 24.731 43.3387 24.6378 44.6651 24.7381C47.2812 24.9316 49.0913 27.174 49.3771 29.5382C49.5309 30.8278 49.5309 30.8278 48.1899 30.8278C46.9514 30.8278 45.735 30.8278 44.9509 30.8278Z" fill="#2D75BA"/>
<path d="M41.8658 10.2445C43.5367 10.2445 45.2001 10.2659 46.871 10.2301C47.5085 10.2158 47.6184 10.4451 47.5745 11.0039C47.4206 12.8809 46.6438 14.4141 45.0756 15.546C44.5113 15.9616 43.9104 16.2195 43.1922 16.2625C41.0524 16.3771 38.9053 16.4201 36.7655 16.3843C34.9481 16.3556 33.6364 15.0517 33.629 13.3466C33.6144 11.6057 34.9334 10.3161 36.7875 10.2445C36.8387 10.2445 36.89 10.2445 36.9487 10.2445C38.5828 10.2445 40.2243 10.2445 41.8658 10.2445Z" fill="#7BB938"/>
<path d="M113.711 23.2552C112.333 23.2552 110.955 23.2767 109.578 23.2481C107.892 23.2122 106.581 22.1734 106.317 20.7119C106.038 19.2074 106.822 17.8462 108.325 17.23C108.823 17.0223 109.351 16.9864 109.886 16.9864C111.901 16.9864 113.916 16.9864 115.931 16.9793C116.129 16.9793 116.4 17.0724 116.503 16.8503C116.62 16.5996 116.503 16.3345 116.32 16.1339C115.961 15.7398 115.499 15.6181 114.964 15.6181C113.293 15.6324 111.622 15.6324 109.952 15.6181C108.977 15.6109 108.369 15.0377 108.332 14.178C108.317 13.8198 108.413 13.655 108.808 13.655C111.058 13.6694 113.315 13.612 115.565 13.698C117.236 13.7553 118.555 15.1739 118.591 16.836C118.635 18.799 118.591 20.762 118.613 22.7251C118.621 23.1907 118.423 23.2767 118.005 23.2695C116.576 23.2481 115.14 23.2624 113.711 23.2624V23.2552ZM112.787 21.2922C113.498 21.2922 114.216 21.2922 114.927 21.2922C116.686 21.2922 116.671 21.2922 116.627 19.5584C116.62 19.0856 116.466 18.9423 115.983 18.9423C113.894 18.9638 111.806 18.9423 109.71 18.9566C108.852 18.9638 108.229 19.5011 108.251 20.1602C108.273 20.8265 108.823 21.2707 109.688 21.285C110.721 21.3065 111.754 21.2922 112.787 21.2922Z" fill="#364895"/>
<path d="M81.8551 13.6692C83.394 13.6692 84.9256 13.6263 86.4645 13.6764C88.9414 13.7695 90.407 16.1911 89.2418 18.2616C88.6043 19.3935 87.5344 19.9094 86.2153 19.9165C83.9363 19.9237 81.6572 19.938 79.3855 19.9094C78.748 19.9022 78.5208 20.0956 78.5868 20.6974C78.6307 21.0771 78.6161 21.4712 78.5868 21.8581C78.5501 22.3739 78.3449 22.8181 77.8613 23.0688C76.9819 23.5273 76.5715 23.2909 76.5715 22.3381C76.5715 19.7589 76.6155 17.1798 76.5495 14.6006C76.5276 13.7695 76.806 13.6191 77.5755 13.6477C78.9971 13.7051 80.4261 13.6621 81.8551 13.6692C81.8551 13.6621 81.8551 13.6692 81.8551 13.6692ZM82.7345 15.6251C81.9137 15.6251 81.093 15.6251 80.2722 15.6251C78.5135 15.6251 78.5281 15.6251 78.5794 17.3732C78.5941 17.8532 78.77 17.9893 79.239 17.9822C81.54 17.9678 83.841 17.9822 86.1421 17.9678C87.0801 17.9607 87.6223 17.5022 87.6223 16.8C87.6223 16.0836 87.08 15.6394 86.1494 15.6323C85.0062 15.6179 83.8703 15.6251 82.7345 15.6251Z" fill="#364895"/>
<path d="M103.905 20.1743C103.905 20.9982 103.876 21.8293 103.913 22.6532C103.942 23.212 103.686 23.3194 103.195 23.2335C102.359 23.083 101.912 22.5815 101.89 21.643C101.861 20.4036 101.89 19.1641 101.876 17.9247C101.861 16.4417 101.04 15.6393 99.5086 15.6321C98.4753 15.625 97.442 15.625 96.4088 15.6321C94.8479 15.6465 94.0198 16.456 94.0052 17.9892C93.9905 19.2286 94.0198 20.468 93.9905 21.7075C93.9612 22.689 93.4629 23.1977 92.5762 23.2621C92.2098 23.2908 91.9826 23.2478 91.9899 22.7893C92.0046 19.2286 92.0046 15.668 91.9899 12.1073C91.9899 11.7347 92.1218 11.6201 92.4956 11.6201C93.4189 11.6273 93.9539 12.1789 93.9978 13.2393C94.0418 14.1563 94.0418 14.1563 94.9065 13.8625C95.3682 13.7049 95.8372 13.6691 96.3135 13.6691C97.4274 13.6691 98.5413 13.6619 99.6551 13.6763C102.073 13.7121 103.796 15.3456 103.891 17.7026C103.927 18.5194 103.905 19.3504 103.905 20.1743Z" fill="#364895"/>
<path d="M121.31 20.0238C121.31 19.2214 121.295 18.4262 121.317 17.6237C121.368 15.5461 123.039 13.7765 125.157 13.6977C127.143 13.6189 129.129 13.6834 131.122 13.6619C131.613 13.6547 131.701 13.884 131.65 14.2923C131.547 15.0804 130.961 15.6106 130.067 15.6177C128.66 15.6392 127.26 15.6249 125.853 15.6249C124.116 15.6321 123.347 16.3843 123.34 18.0966C123.332 19.2572 123.332 20.4178 123.34 21.5784C123.34 22.0656 123.222 22.5098 122.871 22.8537C122.512 23.2119 122.013 23.3409 121.552 23.2119C121.097 23.0901 121.339 22.6388 121.332 22.3379C121.288 21.5713 121.31 20.7975 121.31 20.0238Z" fill="#364895"/>
<path d="M122.541 27.0306C123.464 27.0306 124.395 26.9948 125.318 27.0378C126.278 27.0807 126.652 27.4461 126.652 28.2127C126.652 29.0939 126.33 29.4163 125.333 29.4808C124.754 29.5166 124.168 29.5381 123.589 29.4951C123.025 29.4593 122.841 29.6671 122.878 30.1972C122.9 30.4623 123.054 30.8993 122.541 30.9065C122.072 30.9137 122.109 30.5196 122.138 30.2187C122.204 29.6384 121.969 29.445 121.376 29.4951C120.826 29.5381 120.262 29.5166 119.712 29.4808C118.767 29.4163 118.43 29.0868 118.415 28.2772C118.408 27.4891 118.752 27.1022 119.683 27.0521C120.636 26.9948 121.588 27.0378 122.541 27.0306ZM124.3 27.6181V27.6109C123.955 27.6109 123.611 27.6252 123.266 27.6037C122.841 27.5822 122.856 27.8688 122.9 28.1196C122.951 28.399 122.651 28.879 123.215 28.9148C123.926 28.9578 124.644 28.9291 125.362 28.9005C125.787 28.879 125.926 28.5924 125.919 28.1984C125.912 27.8043 125.707 27.6324 125.333 27.6181C124.988 27.6109 124.644 27.6181 124.3 27.6181ZM120.811 27.6037C120.811 27.6109 120.811 27.6109 120.811 27.6037C120.496 27.6109 120.174 27.6109 119.859 27.6109C119.434 27.6109 119.163 27.7327 119.163 28.227C119.163 28.6856 119.36 28.9005 119.808 28.9148C120.335 28.9291 120.863 28.9076 121.39 28.9435C121.903 28.9793 122.131 28.8575 122.145 28.2843C122.167 27.6467 121.896 27.5393 121.361 27.6037C121.185 27.6252 121.002 27.6037 120.811 27.6037Z" fill="#364895"/>
<path d="M97.4278 27.9834C96.2479 28.9577 95.266 29.7744 94.2693 30.5768C94.0568 30.7488 93.8663 31.0354 93.5219 30.8849C93.1555 30.7201 93.2214 30.3762 93.2214 30.0753C93.2214 29.2801 93.2141 28.4777 93.2214 27.6825C93.2214 27.403 93.1701 27.0592 93.5878 27.0377C94.0568 27.009 93.9469 27.3887 93.9542 27.6466C93.9689 28.1338 93.9469 28.6281 93.9616 29.1153C93.9689 29.3016 93.859 29.5667 94.1228 29.6598C94.3573 29.7458 94.5038 29.5237 94.6577 29.4019C95.5078 28.7141 96.3579 28.012 97.2006 27.3099C97.4278 27.1236 97.6476 26.9159 97.97 27.0663C98.2778 27.2096 98.1826 27.5105 98.1826 27.7541C98.1899 28.6067 98.1826 29.452 98.1899 30.3046C98.1899 30.5912 98.2265 30.9279 97.7942 30.9136C97.3691 30.8992 97.4204 30.5553 97.4204 30.2759C97.4278 29.5882 97.4278 28.9004 97.4278 27.9834Z" fill="#364895"/>
<path d="M79.0265 27.0233C81.3422 27.0161 81.4155 27.0878 81.4081 29.366C81.4008 30.4621 81.1297 30.7917 80.0011 30.8992C79.1877 30.978 78.3596 31.0138 77.5536 30.8275C76.9307 30.6771 76.5203 30.3404 76.5643 29.6311C76.5862 29.2944 76.5643 28.9648 76.5716 28.6281C76.5716 27.4388 76.9233 27.0806 78.1545 27.0304C78.4403 27.0161 78.7334 27.0233 79.0265 27.0233ZM78.9459 30.2902C79.2097 30.2902 79.4735 30.283 79.7373 30.2902C80.4408 30.3189 80.6973 30.0108 80.6827 29.3087C80.6533 27.6036 80.69 27.6036 78.9532 27.6036C78.77 27.6036 78.5868 27.6036 78.3963 27.6036C77.4143 27.6251 77.3337 27.711 77.3337 28.6854C77.3264 30.2974 77.3264 30.2974 78.9459 30.2902Z" fill="#364895"/>
<path d="M110.721 29.9179C111.879 28.9722 112.861 28.1626 113.85 27.353C114.092 27.1524 114.334 26.8802 114.678 27.0593C114.986 27.2169 114.898 27.5536 114.898 27.833C114.905 28.6569 114.898 29.4808 114.898 30.3119C114.898 30.5698 114.913 30.885 114.554 30.8994C114.129 30.9209 114.158 30.577 114.158 30.2904C114.158 29.7244 114.158 29.1584 114.151 28.5853C114.151 28.442 114.202 28.2414 113.997 28.1984C113.901 28.1769 113.769 28.2916 113.674 28.3704C112.78 29.094 111.893 29.8319 111.007 30.5626C110.787 30.7418 110.574 31.0068 110.252 30.8922C109.871 30.7489 109.966 30.3835 109.966 30.0826C109.959 29.2301 109.966 28.3775 109.966 27.5321C109.966 27.2957 109.966 27.0378 110.303 27.0235C110.67 27.0091 110.721 27.2599 110.721 27.5465C110.721 28.2701 110.721 28.9865 110.721 29.9179Z" fill="#364895"/>
<path d="M139.256 27.0447C139.835 27.0447 140.429 26.9945 141 27.059C141.88 27.1593 142.144 27.5175 142.151 28.3199C142.151 29.1223 141.66 29.4232 140.956 29.4662C140.194 29.5164 139.418 29.5235 138.655 29.4877C138.106 29.4591 137.879 29.6238 137.93 30.1755C137.959 30.4621 138.047 30.8848 137.578 30.8991C137.102 30.9063 137.204 30.4907 137.197 30.197C137.19 29.3731 137.219 28.542 137.182 27.7181C137.16 27.188 137.336 26.9515 137.908 27.0017C138.355 27.0375 138.809 27.0089 139.256 27.0089C139.256 27.0232 139.256 27.0375 139.256 27.0447ZM139.483 28.9361C139.483 28.9289 139.483 28.9217 139.483 28.9146C139.901 28.9146 140.326 28.9217 140.744 28.9146C141.191 28.9074 141.396 28.6925 141.396 28.234C141.396 27.7468 141.132 27.6107 140.7 27.6107C139.909 27.6107 139.124 27.6107 138.333 27.6107C138.15 27.6107 137.996 27.6035 137.93 27.8543C137.732 28.6065 137.967 28.9361 138.765 28.9361C139.007 28.9361 139.242 28.9361 139.483 28.9361Z" fill="#364895"/>
<path d="M131.459 29.9106C130.587 29.8175 129.737 29.7745 129.305 30.7417C129.224 30.9279 129.056 31.0139 128.858 30.8706C128.66 30.7202 128.733 30.5554 128.843 30.3978C129.547 29.3661 130.243 28.3345 130.953 27.31C131.276 26.8514 131.628 26.8586 131.957 27.31C132.683 28.2986 133.394 29.2873 134.119 30.2688C134.273 30.4766 134.383 30.6843 134.171 30.8849C133.98 31.0712 133.746 31.0067 133.643 30.7846C133.203 29.796 132.346 29.8031 131.459 29.9106ZM130.47 29.2443C131.151 29.2443 131.767 29.2443 132.463 29.2443C132.133 28.7213 131.95 28.0336 131.474 27.9619C131.063 27.9046 130.895 28.6425 130.58 29.0007C130.528 29.0509 130.514 29.1297 130.47 29.2443Z" fill="#364895"/>
<path d="M104.433 30.9356C101.245 30.9858 101.89 30.3482 101.824 28.3207C101.802 27.5398 102.191 27.1242 102.902 27.0669C103.898 26.9881 104.91 27.0311 105.913 27.0239C106.111 27.0239 106.287 27.0669 106.302 27.3105C106.317 27.6329 106.075 27.6042 105.87 27.6114C105.019 27.6186 104.177 27.6257 103.327 27.6186C102.799 27.6114 102.557 27.8263 102.572 28.3565C102.63 30.4556 102.227 30.2837 104.47 30.3052C104.814 30.3052 105.159 30.2837 105.503 30.3124C105.782 30.3338 106.265 30.1476 106.273 30.5989C106.28 31.1148 105.767 30.907 105.466 30.9285C105.122 30.9571 104.778 30.9356 104.433 30.9356Z" fill="#364895"/>
<path d="M87.1831 27.0166C87.762 27.0166 88.3482 27.0166 88.9272 27.0166C89.1763 27.0166 89.3449 27.0811 89.3375 27.3605C89.3229 27.6184 89.125 27.5826 88.9418 27.6184C88.4802 27.69 87.8426 27.3533 87.5861 27.8333C87.3883 28.1987 87.5348 28.736 87.5348 29.2017C87.5348 29.6101 87.5348 30.0256 87.5348 30.434C87.5348 30.6847 87.4762 30.9212 87.1611 30.914C86.8533 30.9068 86.7947 30.6847 86.7947 30.4268C86.802 29.7104 86.758 28.9868 86.8093 28.2704C86.8533 27.7044 86.6261 27.5396 86.0912 27.6112C85.8567 27.6399 85.6149 27.6184 85.3804 27.6112C85.1898 27.6112 84.9773 27.6041 84.9627 27.3677C84.948 27.1026 85.1532 27.0238 85.3877 27.0238C85.9666 27.0166 86.5748 27.0166 87.1831 27.0166Z" fill="#364895"/>
</svg>
