<svg width="165" height="38" viewBox="0 0 165 38" fill="none" xmlns="http://www.w3.org/2000/svg">
<g clip-path="url(#clip0_902_8260)">
<path d="M9.80091 13.6061C9.83488 15.4346 9.81789 17.2548 9.81789 19.0834C9.81789 20.8288 9.85186 22.5659 9.80091 24.3113C9.78392 24.9513 10.0217 25.3585 10.4888 25.7408C11.7967 26.7964 13.3 27.1039 14.9391 26.9876C17.4275 26.813 19.3554 25.7325 20.3236 23.397C21.5636 20.4132 21.4447 17.4211 19.899 14.5453C19.0921 13.0492 17.7927 12.135 16.1111 11.8441C14.1408 11.5116 12.2384 11.7859 10.4294 12.6586C9.98775 12.8581 9.79241 13.0908 9.80091 13.6061ZM4.44189 12.9661C4.4334 11.3703 4.04272 9.82439 3.46521 8.28677C-1.45218 14.5121 -1.12945 25.1341 4.38244 30.9687C4.47586 30.8856 4.45887 30.7693 4.45887 30.6612C4.45887 24.7684 4.47586 18.8673 4.44189 12.9661ZM21.4192 8.71065C21.4107 7.11485 21.4956 5.65203 21.3428 4.19753C21.2154 2.97574 21.02 1.74565 20.5699 0.582042C20.417 0.199715 20.2472 -0.00807141 19.7886 0.00024005C18.5741 0.016863 17.3596 0.0667318 16.1536 0.249584C12.06 0.889567 8.55245 2.70147 5.60542 5.58554C4.87503 6.30033 4.14464 7.05667 3.55863 8.07898C4.16162 8.07898 4.6627 8.07898 5.15529 8.07898C6.51416 8.07898 7.87302 8.0956 9.22339 8.07067C9.66502 8.06236 9.86036 8.19534 9.81789 8.64416C9.80091 8.86857 9.8094 9.09298 9.81789 9.31739C9.84337 10.0904 9.75844 10.8716 9.87734 11.7028C10.2425 11.5365 10.4634 11.2789 10.7012 11.0545C11.4485 10.3314 12.2129 9.60829 12.9263 8.86026C13.3764 8.39482 13.903 8.11223 14.506 7.92938C15.1599 7.7299 15.8394 7.67172 16.5103 7.64679C18.1749 7.58029 19.7716 7.87119 21.4192 8.71065ZM67.7734 18.5597C68.0877 18.0694 68.249 17.554 68.249 17.0221C68.249 16.2907 67.9773 15.7089 67.4337 15.2767C66.8817 14.8445 65.9984 14.6284 64.7924 14.6284C64.5546 14.6284 64.2149 14.6367 63.7563 14.6617C63.0684 14.6949 62.4399 14.7032 61.8709 14.7032C60.9112 14.7032 60.1213 14.6949 59.4929 14.67V15.1354H59.8665C60.3591 15.1354 60.6734 15.2102 60.8008 15.3515C60.9281 15.4928 60.9961 15.8834 61.0046 16.5151L61.0301 18.0361V21.9591C60.9961 23.1477 60.9706 23.8624 60.9451 24.0952C60.9197 24.3279 60.8602 24.4858 60.7753 24.5606C60.6819 24.6354 60.478 24.677 60.1638 24.677H59.4844V25.1424C60.6309 25.1092 61.4292 25.0925 61.8794 25.0925C62.3889 25.0925 63.0853 25.1092 63.9771 25.1424V24.677H63.459C62.958 24.677 62.6607 24.5855 62.5758 24.411C62.4823 24.2365 62.4399 23.4136 62.4399 21.9342V17.7452C62.4399 16.9473 62.4569 16.1993 62.4908 15.4928C63.0684 15.31 63.5949 15.2185 64.079 15.2185C64.9368 15.2185 65.5823 15.4097 66.0154 15.792C66.4485 16.1743 66.6609 16.7146 66.6609 17.3961C66.6609 18.1026 66.457 18.6678 66.0494 19.075C65.6417 19.4823 65.0982 19.6901 64.4017 19.6901C64.1045 19.6901 63.7393 19.6402 63.2977 19.5322L63.4505 20.0807C63.9007 20.1722 64.2744 20.222 64.5801 20.222C65.234 20.222 65.854 20.0724 66.4315 19.7732C67.0176 19.4491 67.4592 19.0501 67.7734 18.5597ZM75.8926 25.0593C76.3512 25.0593 76.8269 25.0759 77.3109 25.1092V24.6853L76.7419 24.6271C76.5126 24.6105 76.3682 24.5689 76.3003 24.5107C76.2323 24.4526 76.1899 24.3611 76.1729 24.2448C76.1304 23.9622 76.1134 23.5715 76.1134 23.0812L76.1559 20.9036C76.1559 20.089 76.0795 19.5072 75.9181 19.1665C75.7567 18.8257 75.4765 18.5431 75.0688 18.327C74.6612 18.1109 74.1771 18.0029 73.625 18.0029C73.3108 18.0029 73.039 18.0444 72.8182 18.1192C72.5974 18.194 72.3681 18.3436 72.1388 18.5514L71.1536 19.3992V17.4377C71.1536 17.072 71.1706 16.5567 71.1876 15.8918L71.23 14.5702L71.2555 14.271C71.2555 14.1713 71.2131 14.1131 71.1366 14.1131L70.5251 14.3209C70.058 14.4622 69.438 14.5702 68.6652 14.6533V15.1022H69.1832C69.5399 15.1022 69.7438 15.152 69.7947 15.2601C69.8627 15.418 69.8967 16.1494 69.8967 17.4543V22.4079C69.8967 23.3305 69.8797 23.9206 69.8457 24.1866C69.8202 24.3528 69.7693 24.4609 69.6928 24.5024C69.6164 24.5523 69.4295 24.5855 69.1408 24.6271L68.6652 24.6853V25.1092C69.4635 25.0759 70.109 25.0593 70.6101 25.0593C71.0857 25.0593 71.7141 25.0759 72.4955 25.1092V24.6853L71.8415 24.6271C71.4933 24.5939 71.298 24.5191 71.2385 24.4027C71.1876 24.278 71.1536 23.638 71.1536 22.4744V21.1945C71.1536 20.5129 71.1961 20.0807 71.2895 19.8979C71.4169 19.6402 71.6547 19.4158 71.9944 19.2247C72.3341 19.0335 72.7163 18.9338 73.1239 18.9338C73.5316 18.9338 73.8628 19.0169 74.1261 19.1831C74.3894 19.3493 74.5762 19.5737 74.6782 19.8563C74.7801 20.1389 74.831 20.6792 74.831 21.4771C74.831 22.6656 74.7886 23.8791 74.6951 25.1009C75.1028 25.0759 75.4935 25.0593 75.8926 25.0593ZM82.3982 21.5352L82.4152 23.1643C82.1009 23.5715 81.7782 23.8791 81.4385 24.0785C81.0988 24.2863 80.7336 24.3861 80.3599 24.3861C80.0202 24.3861 79.7399 24.278 79.5276 24.0619C79.3153 23.8458 79.2049 23.5549 79.2049 23.1975C79.2049 22.6573 79.3917 22.2666 79.7654 22.009C80.1391 21.7513 81.0223 21.4771 82.4152 21.1862L82.3982 21.5352ZM83.5362 25.0593C83.7655 25.0593 84.1562 25.0759 84.7253 25.1092V24.6271H84.1392C83.9354 24.6271 83.8165 24.5606 83.7655 24.4193C83.7146 24.2863 83.6891 23.5549 83.6721 22.2417C83.6551 20.8454 83.6212 19.9727 83.5617 19.6236C83.4768 19.1582 83.222 18.7675 82.7974 18.4683C82.3727 18.1691 81.8207 18.0112 81.1243 18.0112C80.81 18.0112 80.5128 18.0527 80.2325 18.1275C79.9522 18.2023 79.6295 18.3519 79.2643 18.5514L78.449 19.0086L78.4575 19.5156L78.449 20.0059L78.8652 20.114C78.984 19.7898 79.1199 19.4574 79.2643 19.1083C79.4427 18.9919 79.638 18.9088 79.8503 18.8506C80.0626 18.7925 80.2835 18.7675 80.5298 18.7675C81.1582 18.7675 81.6423 18.9587 81.982 19.3493C82.2538 19.6568 82.3897 20.1223 82.3982 20.7456C80.7676 21.0282 79.7314 21.261 79.2813 21.4355C78.8312 21.61 78.4915 21.8843 78.2452 22.25C77.9989 22.6157 77.88 23.0479 77.88 23.5466C77.88 24.0702 78.0498 24.4858 78.3895 24.7933C78.7293 25.1009 79.2218 25.2588 79.8673 25.2588C80.1051 25.2588 80.292 25.2338 80.4278 25.1923C80.5637 25.1507 80.6996 25.0759 80.844 24.9762L82.3982 23.8209C82.4067 24.037 82.4067 24.2448 82.4067 24.4609L82.3982 25.1175C82.8823 25.0759 83.256 25.0593 83.5362 25.0593ZM90.8401 18.3187L90.8486 18.2439C90.8486 18.1774 90.8147 18.1359 90.7467 18.1026C90.6023 18.0361 90.39 18.0029 90.1182 18.0029C89.855 18.0029 89.6002 18.0694 89.3624 18.2023C89.1246 18.3353 88.8613 18.5764 88.581 18.9338C88.3432 19.233 88.1309 19.4823 87.9271 19.6652L87.961 18.2023C87.961 18.1026 87.9525 18.0361 87.9271 18.0029C87.9101 17.9696 87.8676 17.9613 87.8167 17.9613C87.7742 17.9613 87.7147 17.9779 87.6468 18.0112C87.3495 18.1442 87.0098 18.2522 86.6362 18.3353C86.254 18.4184 85.8208 18.4932 85.3367 18.5431V18.967H85.9652C86.3134 18.967 86.5173 19.0335 86.5767 19.1665C86.6701 19.3743 86.7211 20.0641 86.7211 21.2443C86.7211 22.2168 86.7041 23.0479 86.6701 23.7544C86.6531 24.1533 86.6022 24.3944 86.5427 24.4692C86.4748 24.544 86.3134 24.5855 86.0586 24.6105L85.3367 24.6687V25.0925C85.9907 25.0593 86.6446 25.0427 87.3071 25.0427C87.995 25.0427 88.7169 25.0593 89.4813 25.0925V24.6853H89.0312C88.6575 24.6853 88.3772 24.6354 88.1903 24.5274C88.1139 24.4858 88.063 24.3778 88.0375 24.2032C87.9865 23.7378 87.9525 23.1643 87.9525 22.4911C87.9525 21.4604 87.995 20.7706 88.0799 20.4132C88.1649 20.0641 88.3347 19.7898 88.581 19.5904C88.8358 19.3909 89.1076 19.2995 89.3963 19.2995C89.6172 19.2995 89.804 19.3493 89.9569 19.4574C90.1182 19.5571 90.2541 19.74 90.3645 19.9893H90.7042C90.7127 19.2745 90.7552 18.7177 90.8401 18.3187ZM104.276 25.0925L104.641 25.1092V24.6853L104.089 24.6603C103.775 24.6437 103.579 24.5772 103.512 24.4692C103.435 24.3528 103.401 23.9788 103.401 23.3305L103.435 20.4547C103.435 19.8896 103.35 19.4491 103.172 19.1166C102.993 18.7925 102.722 18.5182 102.356 18.3187C101.991 18.1109 101.584 18.0112 101.134 18.0112C100.836 18.0112 100.531 18.061 100.216 18.1691C99.9785 18.2439 99.7747 18.3603 99.6048 18.5099L98.6366 19.3743C98.3479 18.8589 98.0336 18.5016 97.6939 18.3021C97.3542 18.1026 96.8956 18.0029 96.335 18.0029C96.0803 18.0029 95.8255 18.0444 95.5622 18.1359C95.3838 18.194 95.214 18.2938 95.0526 18.4351L94.0504 19.3161C94.042 18.9836 94.0505 18.6761 94.0674 18.4101L94.0844 18.1442C94.0844 18.0278 94.042 17.9696 93.9485 17.9696L93.405 18.1774C92.8784 18.3519 92.2415 18.4849 91.5026 18.5847V18.9919H91.9697C92.3264 18.9919 92.5387 19.0252 92.6067 19.0834C92.6746 19.1415 92.7171 19.2828 92.7341 19.5072C92.751 19.7317 92.7595 20.4547 92.7595 21.6765C92.7595 23.3471 92.7256 24.2697 92.6576 24.4443C92.5897 24.6105 92.3943 24.7019 92.0716 24.7019H91.5026V25.1258C92.2415 25.0925 92.9294 25.0759 93.5579 25.0759C94.1099 25.0759 94.7044 25.0925 95.3329 25.1258V24.6853L94.8148 24.6271C94.4496 24.5939 94.2373 24.544 94.1693 24.4775C94.1014 24.411 94.0674 24.2697 94.0589 24.037C94.042 23.5383 94.025 22.7653 94.025 21.7098C94.025 20.7456 94.0589 20.1638 94.1354 19.9561C94.2543 19.6568 94.4666 19.3992 94.7808 19.1914C95.0951 18.9836 95.4433 18.8756 95.834 18.8756C96.1907 18.8756 96.5049 18.9587 96.7597 19.1332C97.0145 19.3078 97.2013 19.5405 97.3032 19.8397C97.4136 20.1389 97.4646 20.6708 97.4646 21.4521C97.4646 22.3248 97.4476 23.1643 97.4051 23.9705C97.3882 24.278 97.3372 24.4775 97.2438 24.5606C97.1504 24.6437 96.955 24.6853 96.6578 24.6853H96.1567V25.1092C97.1079 25.0759 97.7449 25.0593 98.0761 25.0593C98.4922 25.0593 99.1462 25.0759 100.029 25.1092V24.6853L99.5284 24.6271C99.1632 24.5855 98.9509 24.544 98.8829 24.4858C98.815 24.4359 98.7725 24.3445 98.7555 24.2198C98.7385 24.0952 98.73 23.5799 98.73 22.6739C98.73 21.1363 98.7555 20.2636 98.8065 20.0558C98.8829 19.7317 99.0697 19.4574 99.384 19.2247C99.6897 18.9919 100.063 18.8756 100.497 18.8756C100.879 18.8756 101.201 18.967 101.456 19.1498C101.711 19.3327 101.881 19.582 101.974 19.9062C102.068 20.2303 102.11 20.9036 102.11 21.9259C102.11 23.1394 102.076 24.1949 102.008 25.1009C102.433 25.0676 102.798 25.051 103.121 25.051C103.299 25.0593 103.69 25.0759 104.276 25.0925ZM109.83 24.544C110.408 24.0619 110.697 23.4967 110.697 22.8318C110.697 22.5077 110.629 22.2251 110.484 21.9757C110.348 21.7264 110.161 21.5436 109.932 21.4189C109.703 21.2942 109.227 21.1612 108.505 21.0199C107.529 20.8288 106.934 20.6459 106.722 20.4797C106.51 20.3135 106.399 20.0641 106.399 19.74C106.399 19.3992 106.535 19.1083 106.807 18.8839C107.079 18.6595 107.444 18.5431 107.894 18.5431C108.242 18.5431 108.565 18.6179 108.871 18.7675C109.176 18.9171 109.389 19.075 109.499 19.2579C109.584 19.3909 109.635 19.6818 109.643 20.114H110.094C110.119 19.3327 110.153 18.7758 110.195 18.4434C109.499 18.1691 108.803 18.0361 108.098 18.0361C107.214 18.0361 106.527 18.2356 106.042 18.6428C105.558 19.0501 105.321 19.582 105.321 20.2303C105.321 20.5794 105.397 20.8786 105.558 21.1197C105.72 21.369 105.957 21.5602 106.28 21.7098C106.603 21.8594 107.257 22.0256 108.251 22.2251C108.786 22.3331 109.151 22.4744 109.338 22.6573C109.525 22.8401 109.626 23.0812 109.626 23.3804C109.626 23.7544 109.465 24.0869 109.142 24.3528C108.82 24.6271 108.395 24.7601 107.885 24.7601C107.486 24.7601 107.096 24.6853 106.722 24.5357C106.34 24.3861 106.093 24.2365 105.957 24.0785C105.89 23.9871 105.856 23.7461 105.856 23.3638V22.8817H105.388L105.397 23.2308C105.397 23.4967 105.371 23.8624 105.329 24.3445C105.312 24.5274 105.295 24.6603 105.278 24.7352L105.253 24.8349C105.253 24.9014 105.321 24.9513 105.456 24.9928C106.221 25.184 106.909 25.2754 107.529 25.2754C108.48 25.2588 109.253 25.0177 109.83 24.544ZM116.022 19.341L116.106 18.5847L115.504 18.6179C115.121 18.6345 114.62 18.6428 114.009 18.6428C114.051 17.2216 114.094 16.3156 114.136 15.9333L113.941 15.7837C113.686 15.9333 113.261 16.1245 112.684 16.3655C112.718 17.18 112.735 17.9447 112.743 18.6428C112.378 18.8174 111.979 18.9919 111.554 19.1498V19.4657C111.962 19.4324 112.361 19.4158 112.743 19.4158V22.2085L112.709 23.6297C112.709 24.0536 112.769 24.3611 112.879 24.5772C112.998 24.785 113.176 24.9513 113.44 25.0842C113.695 25.2172 114.009 25.2754 114.382 25.2754C114.527 25.2754 114.671 25.2588 114.816 25.2338C114.968 25.2006 115.121 25.159 115.283 25.1092L116.013 24.2697L115.792 24.0121C115.656 24.1284 115.52 24.2115 115.385 24.2697C115.249 24.3279 115.104 24.3528 114.96 24.3528C114.722 24.3528 114.535 24.2946 114.382 24.1783C114.23 24.0619 114.128 23.8957 114.077 23.6879C114.026 23.4801 114 22.9981 114 22.25V19.3659H114.264L115.707 19.3576L116.022 19.341ZM121.245 21.5352L121.262 23.1643C120.947 23.5715 120.625 23.8791 120.285 24.0785C119.945 24.2863 119.58 24.3861 119.206 24.3861C118.867 24.3861 118.586 24.278 118.374 24.0619C118.162 23.8458 118.051 23.5549 118.051 23.1975C118.051 22.6573 118.238 22.2666 118.612 22.009C118.986 21.7513 119.869 21.4771 121.262 21.1862L121.245 21.5352ZM122.383 25.0593C122.612 25.0593 123.003 25.0759 123.572 25.1092V24.6271H122.986C122.782 24.6271 122.663 24.5606 122.612 24.4193C122.561 24.2863 122.536 23.5549 122.519 22.2417C122.502 20.8454 122.468 19.9727 122.408 19.6236C122.323 19.1582 122.069 18.7675 121.644 18.4683C121.219 18.1691 120.667 18.0112 119.971 18.0112C119.657 18.0112 119.359 18.0527 119.079 18.1275C118.799 18.2023 118.476 18.3519 118.111 18.5514L117.296 19.0086L117.304 19.5156L117.296 20.0059L117.712 20.114C117.831 19.7898 117.966 19.4574 118.111 19.1083C118.289 18.9919 118.485 18.9088 118.697 18.8506C118.909 18.7925 119.13 18.7675 119.376 18.7675C120.005 18.7675 120.489 18.9587 120.829 19.3493C121.1 19.6568 121.236 20.1223 121.245 20.7456C119.614 21.0282 118.578 21.261 118.128 21.4355C117.678 21.61 117.338 21.8843 117.092 22.25C116.845 22.6157 116.726 23.0479 116.726 23.5466C116.726 24.0702 116.896 24.4858 117.236 24.7933C117.576 25.1009 118.068 25.2588 118.714 25.2588C118.952 25.2588 119.138 25.2338 119.274 25.1923C119.41 25.1507 119.546 25.0759 119.69 24.9762L121.245 23.8209C121.253 24.037 121.253 24.2448 121.253 24.4609L121.245 25.1175C121.729 25.0759 122.102 25.0593 122.383 25.0593ZM131.445 25.0593C131.835 25.0593 132.294 25.0759 132.829 25.1092V24.6853H132.294C132.022 24.6853 131.835 24.6105 131.742 24.4526C131.674 24.3279 131.64 23.8708 131.64 23.0729L131.674 20.7623C131.674 20.0392 131.589 19.5072 131.419 19.1665C131.249 18.8257 130.969 18.5514 130.578 18.3353C130.188 18.1192 129.721 18.0195 129.186 18.0195C128.854 18.0195 128.523 18.0694 128.192 18.1774C128.039 18.2273 127.895 18.3187 127.767 18.4351L126.629 19.4158L126.646 18.4268L126.655 18.1442C126.655 18.0278 126.612 17.9779 126.536 17.9779C126.493 17.9779 126.451 17.9862 126.408 18.0112C125.984 18.1857 125.602 18.3104 125.262 18.3935C124.922 18.4766 124.54 18.5431 124.107 18.593V19.0169H124.65C124.973 19.0169 125.177 19.0501 125.245 19.1083C125.313 19.1665 125.355 19.2745 125.364 19.4324C125.381 19.9062 125.398 20.5628 125.398 21.4023C125.398 23.264 125.364 24.278 125.304 24.4526C125.245 24.6188 125.024 24.7019 124.659 24.7019H124.115V25.1258C124.795 25.0925 125.398 25.0759 125.924 25.0759C126.425 25.0759 127.096 25.0925 127.946 25.1258V24.6853H127.411C127.122 24.6853 126.918 24.6271 126.791 24.5191C126.723 24.4609 126.689 24.3196 126.689 24.0869C126.672 23.3222 126.663 22.4827 126.663 21.5934C126.663 20.7872 126.689 20.2885 126.74 20.0974C126.816 19.8065 127.028 19.5405 127.368 19.3078C127.708 19.0667 128.115 18.9504 128.608 18.9504C128.999 18.9504 129.338 19.0335 129.61 19.1997C129.89 19.3659 130.086 19.5904 130.205 19.8646C130.324 20.1389 130.383 20.6044 130.383 21.261C130.383 22.89 130.332 24.1783 130.239 25.1341C130.663 25.0759 131.062 25.0593 131.445 25.0593ZM139.258 21.5186C139.258 22.2666 139.182 22.8069 139.029 23.156C138.876 23.5051 138.63 23.7876 138.298 24.0037C137.967 24.2198 137.594 24.3279 137.194 24.3279C136.54 24.3279 135.988 24.0702 135.53 23.5466C135.071 23.023 134.842 22.3082 134.842 21.3856C134.842 20.4797 135.046 19.7981 135.445 19.3327C135.844 18.8673 136.371 18.6262 137.025 18.6262C137.432 18.6262 137.814 18.7177 138.188 18.9005C138.562 19.0834 138.918 19.3576 139.267 19.715V21.5186H139.258ZM140.124 25.0427C140.6 25.0427 141.144 25.0676 141.755 25.1092V24.6853L141.22 24.6188C140.88 24.5772 140.676 24.4858 140.6 24.3528C140.549 24.2614 140.524 23.8043 140.524 22.9897V18.6013L140.541 17.9696L140.575 16.0164C140.6 15.31 140.625 14.7115 140.668 14.2128L140.532 14.1214C139.759 14.4206 138.927 14.6035 138.035 14.6533V15.0939H138.681C138.927 15.0939 139.088 15.1354 139.165 15.2102C139.233 15.285 139.267 15.4845 139.267 15.792V18.46C138.944 18.3104 138.638 18.194 138.332 18.1192C138.027 18.0444 137.738 18.0112 137.449 18.0112C137.033 18.0112 136.574 18.1275 136.082 18.3686C135.436 18.6844 134.961 18.9504 134.655 19.1582C134.349 19.3659 134.086 19.6984 133.865 20.1638C133.644 20.621 133.534 21.1778 133.534 21.8345C133.534 22.8734 133.823 23.7128 134.392 24.3279C134.961 24.9513 135.666 25.2588 136.515 25.2588C136.838 25.2588 137.211 25.1923 137.636 25.051C138.298 24.4692 138.833 24.0204 139.258 23.6962C139.241 24.303 139.207 24.7767 139.173 25.1092C139.725 25.0676 140.039 25.0427 140.124 25.0427ZM147.258 21.5352L147.275 23.1643C146.961 23.5715 146.638 23.8791 146.299 24.0785C145.959 24.2863 145.594 24.3861 145.22 24.3861C144.88 24.3861 144.6 24.278 144.388 24.0619C144.176 23.8458 144.065 23.5549 144.065 23.1975C144.065 22.6573 144.252 22.2666 144.626 22.009C144.999 21.7513 145.883 21.4771 147.275 21.1862L147.258 21.5352ZM148.396 25.0593C148.626 25.0593 149.016 25.0759 149.585 25.1092V24.6271H148.999C148.796 24.6271 148.677 24.5606 148.626 24.4193C148.575 24.2863 148.549 23.5549 148.532 22.2417C148.515 20.8454 148.481 19.9727 148.422 19.6236C148.337 19.1582 148.082 18.7675 147.658 18.4683C147.233 18.1691 146.681 18.0112 145.985 18.0112C145.67 18.0112 145.373 18.0527 145.093 18.1275C144.812 18.2023 144.49 18.3519 144.125 18.5514L143.309 19.0086L143.318 19.5156L143.309 20.0059L143.725 20.114C143.844 19.7898 143.98 19.4574 144.125 19.1083C144.303 18.9919 144.498 18.9088 144.711 18.8506C144.923 18.7925 145.144 18.7675 145.39 18.7675C146.018 18.7675 146.503 18.9587 146.842 19.3493C147.114 19.6568 147.25 20.1223 147.258 20.7456C145.628 21.0282 144.592 21.261 144.142 21.4355C143.691 21.61 143.352 21.8843 143.105 22.25C142.859 22.6157 142.74 23.0479 142.74 23.5466C142.74 24.0702 142.91 24.4858 143.25 24.7933C143.59 25.1009 144.082 25.2588 144.728 25.2588C144.965 25.2588 145.152 25.2338 145.288 25.1923C145.424 25.1507 145.56 25.0759 145.704 24.9762L147.258 23.8209C147.267 24.037 147.267 24.2448 147.267 24.4609L147.258 25.1175C147.743 25.0759 148.116 25.0593 148.396 25.0593ZM155.7 18.3187L155.709 18.2439C155.709 18.1774 155.675 18.1359 155.607 18.1026C155.463 18.0361 155.25 18.0029 154.978 18.0029C154.715 18.0029 154.46 18.0694 154.223 18.2023C153.985 18.3353 153.722 18.5764 153.441 18.9338C153.203 19.233 152.991 19.4823 152.787 19.6652L152.821 18.2023C152.821 18.1026 152.813 18.0361 152.787 18.0029C152.77 17.9696 152.728 17.9613 152.677 17.9613C152.634 17.9613 152.575 17.9779 152.507 18.0112C152.21 18.1442 151.87 18.2522 151.496 18.3353C151.114 18.4184 150.681 18.4932 150.197 18.5431V18.967H150.825C151.174 18.967 151.378 19.0335 151.437 19.1665C151.53 19.3743 151.581 20.0641 151.581 21.2443C151.581 22.2168 151.564 23.0479 151.53 23.7544C151.513 24.1533 151.462 24.3944 151.403 24.4692C151.335 24.544 151.174 24.5855 150.919 24.6105L150.197 24.6687V25.0925C150.851 25.0593 151.505 25.0427 152.167 25.0427C152.855 25.0427 153.577 25.0593 154.342 25.0925V24.6853H153.891C153.518 24.6853 153.237 24.6354 153.051 24.5274C152.974 24.4858 152.923 24.3778 152.898 24.2032C152.847 23.7378 152.813 23.1643 152.813 22.4911C152.813 21.4604 152.855 20.7706 152.94 20.4132C153.025 20.0641 153.195 19.7898 153.441 19.5904C153.696 19.3909 153.968 19.2995 154.257 19.2995C154.477 19.2995 154.664 19.3493 154.826 19.4574C154.987 19.5571 155.123 19.74 155.233 19.9893H155.573C155.573 19.2745 155.624 18.7177 155.7 18.3187ZM160.805 19.341L160.89 18.5847L160.287 18.6179C159.904 18.6345 159.403 18.6428 158.792 18.6428C158.834 17.2216 158.877 16.3156 158.919 15.9333L158.724 15.7837C158.469 15.9333 158.044 16.1245 157.467 16.3655C157.501 17.18 157.518 17.9447 157.526 18.6428C157.161 18.8174 156.762 18.9919 156.337 19.1498V19.4657C156.745 19.4324 157.144 19.4158 157.526 19.4158V22.2085L157.492 23.6297C157.492 24.0536 157.552 24.3611 157.662 24.5772C157.781 24.785 157.96 24.9513 158.223 25.0842C158.478 25.2172 158.792 25.2754 159.165 25.2754C159.31 25.2754 159.454 25.2588 159.599 25.2338C159.751 25.2006 159.904 25.159 160.066 25.1092L160.796 24.2697L160.575 24.0121C160.439 24.1284 160.304 24.2115 160.168 24.2697C160.032 24.3279 159.887 24.3528 159.743 24.3528C159.505 24.3528 159.31 24.2946 159.165 24.1783C159.013 24.0619 158.911 23.8957 158.86 23.6879C158.809 23.4801 158.783 22.9981 158.783 22.25V19.3659H159.047L160.49 19.3576L160.805 19.341ZM162.868 16.5567C163.633 22.0589 162.045 26.8546 158.223 30.869C155.403 33.8279 151.887 35.4985 147.802 35.9972C146.927 36.1052 146.052 36.1219 145.178 36.1219C121.185 36.1219 97.1928 36.1135 73.1919 36.1385C70.5166 36.1385 68.0282 35.4902 65.7181 34.2518C60.7668 31.6004 57.6754 27.5029 56.6987 21.9757C55.756 16.6481 57.1403 11.8773 60.6819 7.77977C63.3826 4.65466 66.8392 2.81783 70.8988 2.07811C71.3659 1.99499 71.8585 1.99499 72.3341 1.99499C84.7592 1.98668 97.1758 1.99499 109.601 1.99499C121.601 1.99499 133.593 2.01161 145.594 1.98668C150.384 1.97837 154.511 3.5991 157.926 6.90707C160.669 9.53349 162.342 12.7833 162.868 16.5567ZM165 19.208C165.043 14.9692 163.82 11.096 161.221 7.72159C157.433 2.79289 152.397 0.0999776 146.137 0.0750432C126.808 0.000240053 107.478 0.016863 88.1479 0.016863C68.1981 0.00855151 48.2398 0.016863 28.2899 0.016863C28.1201 0.016863 27.9502 0.0334859 27.7804 0.016863C27.3557 -0.0413173 27.1944 0.166469 27.1009 0.565419C26.8377 1.72071 26.6848 2.89263 26.6763 4.07286C26.6508 6.46656 26.6508 8.85195 26.6508 11.2456C26.6508 11.4119 26.6168 11.5781 26.7442 11.7776C26.999 11.5532 27.2538 11.3371 27.4916 11.1044C28.4173 10.2317 29.3346 9.35895 30.2603 8.49455C30.5066 8.27015 30.7359 8.03742 31.1011 7.96262C32.7827 7.63016 34.4728 7.5138 36.1629 7.81301C38.6088 8.24521 40.2479 9.6166 40.9783 12.0103C41.2416 12.883 41.352 13.764 41.352 14.67C41.352 17.4792 41.352 20.2968 41.352 23.1061C41.352 23.4718 41.42 23.8375 41.403 24.1949C41.3775 24.5855 41.5643 24.8266 41.8276 25.0676C43.0761 26.2312 44.5199 27.0208 46.21 27.3283C47.5773 27.5777 48.8597 27.4114 49.9808 26.5221C50.3885 26.198 50.6942 25.8156 50.8131 25.292C51.0594 24.2448 50.7112 23.397 49.9638 22.7072C49.5137 22.2916 48.9956 21.9342 48.4776 21.5934C47.1102 20.6875 45.7174 19.8231 44.4774 18.7509C43.7046 18.086 42.9911 17.3546 42.4731 16.4736C41.4624 14.7531 41.42 12.9911 42.4646 11.2789C43.4837 9.60829 45.0974 8.68572 46.9319 8.13716C48.4691 7.68003 50.0487 7.66341 51.6369 7.63847C52.9109 7.62185 54.0914 7.98756 55.2719 8.35326C55.4417 8.40313 55.671 8.46131 55.671 8.72728C55.671 9.974 55.671 11.2207 55.671 12.5838C55.0596 12.1682 54.6009 11.8025 54.0999 11.5033C52.2399 10.3896 50.2865 10.3729 48.3332 11.2041C47.3225 11.6363 46.9488 12.5838 47.1951 13.656C47.331 14.2544 47.6622 14.7365 48.0699 15.1687C48.7154 15.8502 49.4882 16.3738 50.2781 16.8725C51.569 17.6953 52.8259 18.5431 53.9979 19.5239C54.8642 20.247 55.5012 21.1197 55.8834 22.1752C56.8346 24.8183 55.6116 27.7771 53.0043 29.2067C50.4649 30.603 47.7387 30.5532 44.987 30.2955C43.8235 30.1875 42.6854 29.9049 41.4794 29.9797C39.594 30.096 37.6916 30.0129 35.7892 30.0046C35.5853 30.0046 35.339 30.0877 35.1352 29.8716C36.0779 27.8852 36.1714 25.7575 36.1883 23.6214C36.2053 21.0366 36.1968 18.4434 36.1883 15.8585C36.1883 15.551 36.1968 15.2351 36.1629 14.9276C35.959 13.016 35.0078 12.0851 33.0969 11.7942C31.0247 11.4784 29.1222 12.0269 27.2538 12.7999C26.7952 12.9911 26.6338 13.2321 26.6338 13.7308C26.6593 17.446 26.6423 21.1612 26.6508 24.8681C26.6508 26.4556 26.8037 28.0099 27.4746 29.4727C27.5426 29.614 27.636 29.7802 27.4661 29.9963H26.6678C24.7144 29.9963 22.7611 29.9963 20.8077 29.9963C20.3831 29.9963 19.9669 30.0545 19.5508 30.1293C16.2555 30.7527 13.1386 30.362 10.2765 28.5086C10.1576 28.4338 10.0557 28.334 9.81789 28.3839C9.81789 29.3646 9.82639 30.3786 9.81789 31.3843C9.80091 32.6892 10.0132 33.9526 10.319 35.2159C10.4549 35.7977 10.7351 36.1302 11.2787 36.3629C13.7246 37.4101 16.264 37.9836 18.9393 37.9836C61.2764 37.9836 103.622 37.9836 145.959 37.9836C147.182 37.9836 148.388 37.8673 149.585 37.6429C157.883 36.0886 164.907 28.7496 165 19.208Z" fill="#11151D"/>
</g>
<defs>
<clipPath id="clip0_902_8260">
<rect width="165" height="38" fill="white"/>
</clipPath>
</defs>
</svg>
