<svg width="16" height="16" viewBox="0 0 16 16" fill="none" xmlns="http://www.w3.org/2000/svg">
<path fill-rule="evenodd" clip-rule="evenodd" d="M0 6.5931V8C0.382756 7.99804 0.765264 7.98152 1.14763 7.965L1.14776 7.96499L1.29434 7.95869C1.55738 7.94714 1.82026 7.93527 2.08299 7.92119C2.41368 7.90346 2.74391 7.87909 3.07382 7.84697C3.42917 7.81231 3.78232 7.76562 4.13309 7.69995C5.01517 7.53473 5.8231 7.21204 6.48007 6.57823C6.91984 6.15394 7.23442 5.64658 7.44308 5.07306C7.59942 4.64371 7.69489 4.19964 7.7616 3.74845C7.84744 3.16781 7.88996 2.58369 7.92189 1.99814C7.95683 1.3591 7.9788 0.719749 7.99983 0.0803955C8.00204 0.0126617 7.98354 -0.000156611 7.91905 1.69922e-06L7.57727 0.000528127C6.94851 0.001313 6.31969 0.00209788 5.6911 0.0197828C5.05943 0.0375078 4.42807 0.0661524 3.80097 0.147813C3.19538 0.226624 2.60053 0.348798 2.03509 0.593461C1.30872 0.907758 0.821528 1.44171 0.538569 2.17396C0.353935 2.65206 0.245178 3.14803 0.173095 3.65366C0.065444 4.40838 0.0316153 5.16801 0.0151758 5.92906C0.0150576 5.9343 0.0158319 5.93991 0.0166197 5.94561C0.0189934 5.9628 0.0214844 5.98084 0 5.99236V6.16629C0.0153332 6.17135 0.0180206 6.18417 0.01723 6.19731C0.0140963 6.2457 0.0150528 6.29427 0.0160093 6.34283C0.0176592 6.42655 0.019309 6.51027 0 6.5931ZM16 6.22878V6.05487C15.9818 6.04664 15.9834 6.03194 15.9848 6.01808C15.9853 6.01407 15.9857 6.01014 15.9856 6.00645C15.9791 5.50607 15.9595 5.00633 15.9195 4.50753C15.8596 3.7595 15.7652 3.01748 15.5103 2.30585C15.3754 1.92953 15.1946 1.57791 14.9299 1.27487C14.6364 0.938594 14.2641 0.715782 13.8564 0.54725C13.3553 0.340104 12.8292 0.230281 12.2944 0.160653C11.132 0.00915507 9.96302 0.0055311 8.79412 0.00190714H8.7941L8.60491 0.00129774C8.54004 0.00107172 8.47514 0.00124911 8.41024 0.00142649H8.41011C8.29335 0.00174597 8.17656 0.00206545 8.05985 3.22168e-05C8.01021 -0.000759333 7.99883 0.0128496 8.00009 0.0614317C8.01495 0.603427 8.03171 1.14542 8.06111 1.68694C8.06574 1.77256 8.07002 1.8582 8.0743 1.94384C8.08551 2.16828 8.09672 2.39271 8.11423 2.61664C8.17793 3.43225 8.26567 4.24421 8.53852 5.02342C8.73565 5.58662 9.03569 6.08763 9.45413 6.51252C9.87084 6.93567 10.3667 7.24045 10.9245 7.44301C11.3284 7.5897 11.7455 7.68275 12.1698 7.74906C12.692 7.83056 13.2173 7.87518 13.7443 7.90778C14.3327 7.94402 14.9216 7.96791 15.5107 7.98643C15.559 7.98793 15.6073 7.99002 15.6555 7.99212L15.6559 7.99213L15.656 7.99214C15.7706 7.99712 15.8852 8.00209 16 7.99909V6.52913C15.9783 6.42896 15.9703 6.32895 16 6.22878ZM9.48735 15.9997H8.00152C8.00136 15.9944 8.00109 15.9891 8.00083 15.9838L8.00058 15.9788C8.00016 15.97 7.99983 15.9612 8.0001 15.9524C8.01717 15.3025 8.04136 14.6529 8.07646 14.0038C8.10824 13.4157 8.15108 12.8292 8.23756 12.2462C8.30444 11.7951 8.39883 11.3505 8.55724 10.922C8.8287 10.1876 9.26395 9.573 9.89699 9.10385C10.4859 8.66747 11.1578 8.43622 11.8687 8.30026C12.2163 8.23378 12.567 8.18835 12.9194 8.15401C13.2595 8.12093 13.6 8.09481 13.9414 8.07851C14.0301 8.07428 14.1189 8.06979 14.2076 8.06531L14.2079 8.06529C14.3713 8.05703 14.5347 8.04877 14.6982 8.0421C14.7818 8.03868 14.8655 8.03508 14.9491 8.03147H14.9491C15.2993 8.01637 15.6494 8.00128 16 8V9.47027C15.9783 9.57046 15.9703 9.6705 16 9.77069V9.96047C15.9787 9.97465 15.9813 9.99449 15.9838 10.0136C15.9846 10.02 15.9854 10.0264 15.9853 10.0325C15.9698 10.8066 15.9358 11.5795 15.8267 12.3473C15.7548 12.8531 15.6503 13.3508 15.4599 13.8268C15.2991 14.2285 15.0879 14.5994 14.7646 14.8952C14.4576 15.1761 14.0977 15.3686 13.7096 15.5108C13.0117 15.7662 12.2827 15.8598 11.548 15.9191C11.0467 15.9596 10.5441 15.9797 10.0412 15.9854C10.0375 15.9855 10.0336 15.985 10.0296 15.9845C10.0158 15.9828 10.0011 15.981 9.99359 16H9.81968C9.70869 15.9698 9.59802 15.9783 9.48735 15.9997ZM0 9.85132V9.99358C0.0168533 9.99955 0.0160627 10.0129 0.0153189 10.0254C0.0151548 10.0281 0.0149937 10.0309 0.0150223 10.0335C0.0216637 10.5207 0.0415878 11.0073 0.0801706 11.493C0.137413 12.2146 0.23561 12.9284 0.460942 13.6211C0.774668 14.5854 1.4075 15.2244 2.3716 15.5412C2.80772 15.6846 3.25364 15.7796 3.70746 15.8405C4.43928 15.9388 5.17552 15.9714 5.91287 15.9851C5.91809 15.9852 5.92369 15.9845 5.9294 15.9837C5.94654 15.9813 5.96466 15.9788 5.97628 16H6.16603C6.2821 15.9699 6.39801 15.9786 6.51392 16H8C7.9984 15.6348 7.98255 15.2701 7.96669 14.9054C7.9638 14.8388 7.9609 14.7722 7.9581 14.7055C7.9521 14.5634 7.94489 14.4214 7.93769 14.2794C7.93237 14.1743 7.92704 14.0692 7.9222 13.9642C7.90607 13.6146 7.87903 13.2661 7.84551 12.918C7.80645 12.513 7.75142 12.1111 7.66809 11.7129C7.4981 10.9011 7.18248 10.1602 6.60531 9.54875C6.14121 9.05708 5.57827 8.72128 4.93991 8.50875C4.51645 8.36776 4.08017 8.28373 3.63868 8.2209C3.05993 8.13861 2.47739 8.10142 1.89469 8.06803C1.56995 8.04943 1.24486 8.03897 0.919753 8.02852C0.807928 8.02492 0.6961 8.02132 0.584282 8.01739C0.529204 8.01547 0.47414 8.01278 0.41907 8.0101C0.27951 8.00329 0.139918 7.99648 0 8.00205V9.04521C0.0122747 9.15215 0.0123034 9.25943 0.012332 9.3667C0.0123472 9.42387 0.0123625 9.48104 0.0142317 9.53815C0.0169201 9.61917 0.0177107 9.70019 0.0169201 9.78122C0.0168428 9.78695 0.0176525 9.79302 0.0184736 9.79918C0.0210333 9.81837 0.0237017 9.83838 0 9.85132Z" fill="#0E3FB5"/>
</svg>
