<svg width="12" height="18" viewBox="0 0 12 18" fill="none" xmlns="http://www.w3.org/2000/svg">
<path fill-rule="evenodd" clip-rule="evenodd" d="M5.98639 8.9206C3.44259 8.9206 1.37378 6.92387 1.37378 4.46918C1.37378 2.01369 3.44259 0.0164185 5.98639 0.0164185C8.53073 0.0164185 10.599 2.01369 10.599 4.46918C10.599 6.92387 8.53073 8.9206 5.98639 8.9206ZM5.98734 2.62587C7.04052 2.62587 7.89719 3.45254 7.89719 4.46915C7.89719 5.48497 7.04052 6.31217 5.98734 6.31217C4.935 6.31217 4.0775 5.48497 4.0775 4.46915C4.0775 3.45254 4.935 2.62587 5.98734 2.62587ZM10.4452 15.045L7.8666 12.5557C8.80551 12.3492 9.71103 11.9906 10.5451 11.485C11.1763 11.1008 11.3664 10.2955 10.9687 9.68618C10.5713 9.07557 9.73752 8.89174 9.10523 9.27591C7.21581 10.4228 4.78324 10.4225 2.89493 9.27591C2.26264 8.89174 1.4286 9.07557 1.032 9.68618C0.6343 10.296 0.823905 11.1008 1.45509 11.485C2.28913 11.9901 3.19465 12.3492 4.13357 12.5557L1.55472 15.045C1.02758 15.5544 1.02758 16.3802 1.55528 16.8896C1.8194 17.144 2.16494 17.2714 2.51047 17.2714C2.85656 17.2714 3.20266 17.144 3.46678 16.8896L5.9998 14.4434L8.53504 16.8896C9.06218 17.399 9.91747 17.399 10.4452 16.8896C10.9734 16.3802 10.9734 15.5538 10.4452 15.045Z" fill="#0E3FB5"/>
</svg>
