<svg width="20" height="10" viewBox="0 0 20 10" fill="none" xmlns="http://www.w3.org/2000/svg">
<path fill-rule="evenodd" clip-rule="evenodd" d="M17.2381 6.28092C17.8754 6.84459 18.6037 7.40827 19.1499 8.05246C19.423 8.29404 19.6961 8.61614 19.8782 8.93823C20.1513 9.42138 19.8782 9.90453 19.423 9.90453H16.5098C15.7815 9.98505 15.1442 9.66296 14.689 9.26033C14.3249 8.93824 13.8697 8.53561 13.5055 8.13299C13.3235 7.97194 13.1414 7.81089 12.9593 7.73036C12.5951 7.48879 12.231 7.56932 11.9579 7.97194C11.6848 8.37456 11.6848 8.77719 11.6848 9.17981C11.6848 9.82401 11.4116 9.90453 10.7744 9.98506C9.31777 10.0656 7.95219 9.82401 6.58662 9.17981C5.40312 8.61614 4.58378 7.81089 3.76443 6.84459C2.21678 5.07305 1.12432 3.05994 0.122901 1.04682C-0.150214 0.563673 0.031865 0.322099 0.669133 0.322099C1.57952 0.322099 2.58093 0.322099 3.49132 0.322099C3.85547 0.322099 4.12859 0.483148 4.31066 0.805246C4.85689 1.93259 5.49416 2.97941 6.22246 3.94571C6.40454 4.18728 6.67766 4.42886 6.95077 4.67043C7.31492 4.912 7.58804 4.83148 7.67908 4.50938C7.77012 4.26781 7.86115 4.10676 7.86115 3.86518C7.95219 3.05994 7.95219 2.33521 7.77012 1.52997C7.67908 1.04682 7.40596 0.724722 6.85973 0.644197C6.58662 0.563673 6.58662 0.483148 6.7687 0.402623C7.04181 0.161049 7.22389 0 7.67908 0H10.9565C11.5027 0.0805246 11.5937 0.322099 11.6848 0.724722V3.94571C11.6848 4.10676 11.7758 4.67043 12.14 4.75095C12.4131 4.83148 12.5951 4.5899 12.7772 4.42886C13.5966 3.70413 14.1428 2.81836 14.598 1.93259C14.7801 1.52997 15.0532 1.12735 15.2353 0.724722C15.4173 0.402624 15.5994 0.241574 15.9636 0.241574H19.1499C19.2409 0.241574 19.332 0.241574 19.423 0.241574C19.9692 0.322099 20.0603 0.563672 19.9692 0.966295C19.6961 1.69102 19.2409 2.25469 18.6947 2.89889C18.1485 3.54308 17.6022 4.18728 17.056 4.83148C16.6008 5.47568 16.6919 5.79777 17.2381 6.28092Z" fill="#0E3FB5"/>
</svg>
