<svg width="179" height="28" viewBox="0 0 179 28" fill="none" xmlns="http://www.w3.org/2000/svg">
<g clip-path="url(#clip0_987_9061)">
<path d="M95.6195 23.7184C94.5672 23.7184 93.576 23.3112 92.8295 22.5584C92.0831 21.8057 91.6793 20.8061 91.6793 19.7448V18.4244H90.3699C89.3176 18.4244 88.3264 18.0171 87.58 17.2644C86.8335 16.5116 86.4297 15.512 86.4297 14.4508C86.4297 13.3895 86.8335 12.3899 87.58 11.6371C88.3264 10.8844 89.3176 10.4771 90.3699 10.4771H91.6793V9.15672C91.6793 8.09545 92.0831 7.09587 92.8295 6.34311C93.576 5.59034 94.5672 5.18311 95.6195 5.18311C96.6719 5.18311 97.6631 5.59034 98.4095 6.34311C99.156 7.09587 99.5598 8.09545 99.5598 9.15672V10.4771H100.869C101.921 10.4771 102.913 10.8844 103.659 11.6371C104.406 12.3899 104.809 13.3895 104.809 14.4508C104.809 15.512 104.406 16.5116 103.659 17.2644C102.913 18.0171 101.921 18.4244 100.869 18.4244H99.5598V19.7448C99.5598 20.8061 99.156 21.8057 98.4095 22.5584C97.6631 23.2988 96.6719 23.7184 95.6195 23.7184ZM90.3699 13.1303C89.648 13.1303 89.0606 13.7227 89.0606 14.4508C89.0606 15.1788 89.648 15.7712 90.3699 15.7712H91.7038C93.1355 15.7712 94.3102 16.9559 94.3102 18.3997V19.7448C94.3102 20.4729 94.8976 21.0652 95.6195 21.0652C96.3415 21.0652 96.9289 20.4729 96.9289 19.7448V18.3997C96.9289 16.9559 98.1036 15.7712 99.5353 15.7712H100.869C101.591 15.7712 102.178 15.1788 102.178 14.4508C102.178 13.7227 101.591 13.1303 100.869 13.1303H99.5353C98.1036 13.1303 96.9289 11.9457 96.9289 10.5018V9.15672C96.9289 8.42864 96.3415 7.8363 95.6195 7.8363C94.8976 7.8363 94.3102 8.42864 94.3102 9.15672V10.5018C94.3102 11.9457 93.1355 13.1303 91.7038 13.1303H90.3699Z" fill="#888E9C"/>
<path d="M4.61328 17.1163C4.25841 16.5487 3.9892 16.3759 3.41407 16.3759H2.78999V20.8678H0V9.29248H2.78999V13.661H3.40183C3.97696 13.661 4.23393 13.4635 4.60104 12.9206L6.90156 9.30482H10.0342L7.23195 13.7474C6.60787 14.6112 6.25301 14.821 6.03274 14.9691C6.26524 15.1048 6.62011 15.3023 7.24419 16.2895L10.1443 20.8678H6.98722L4.61328 17.1163Z" fill="#888E9C"/>
<path d="M14.5744 20.8678H11.4785L16.1652 9.29248H17.8417L22.4672 20.8678H19.3713L16.9728 14.4384L14.5744 20.8678Z" fill="#888E9C"/>
<path d="M31.0459 20.8678V14.5001L26.2858 20.8678H24.6094V9.29248H27.3994V15.6601L32.1595 9.29248H33.8359V20.8678H31.0459Z" fill="#888E9C"/>
<path d="M43.1595 20.8678V16.4129H39.5986V20.8801H36.8086V9.29248H39.5986V13.735H43.1595V9.29248H45.9495V20.8678H43.1595Z" fill="#888E9C"/>
<path d="M55.3584 20.8678V14.5001L50.5983 20.8678H48.9219V9.29248H51.7119V15.6601L56.472 9.29248H58.1484V20.8678H55.3584Z" fill="#888E9C"/>
<path d="M65.8945 17.1163C65.5397 16.5487 65.2705 16.3759 64.6953 16.3759H64.0712V20.8678H61.2812V9.29248H64.0712V13.661H64.6831C65.2582 13.661 65.5152 13.4635 65.8823 12.9206L68.1828 9.30482H71.3154L68.5132 13.7474C67.8891 14.6112 67.5343 14.821 67.314 14.9691C67.5465 15.1048 67.9014 15.3023 68.5254 16.2895L71.4256 20.8678H68.2807L65.8945 17.1163Z" fill="#888E9C"/>
<path d="M80.0166 20.8678V14.5001L75.2565 20.8678H73.5801V9.29248H76.3701V15.6601L81.1302 9.29248H82.8066V20.8678H80.0166Z" fill="#888E9C"/>
<path d="M109.924 20.8551H106.828L111.515 9.27979H113.191L117.817 20.8551H114.721L112.322 14.4257L109.924 20.8551Z" fill="#888E9C"/>
<path d="M125.649 20.8552V18.2391H124.963C123.899 18.2761 123.752 18.5476 122.895 19.8557L122.271 20.8429H119.139L120.044 19.4237C120.754 18.3131 121.219 17.6837 121.672 17.3382C120.216 16.6595 119.42 15.3514 119.42 13.7472C119.42 11.3655 121.048 9.26758 124.401 9.26758H128.439V20.8552H125.649ZM124.144 11.9208C122.944 11.9208 122.063 12.5625 122.063 13.7595C122.063 15.0182 122.944 15.5735 124.144 15.5735H125.649V11.9208H124.144Z" fill="#888E9C"/>
<path d="M139.855 22.99V20.8551H133.528V22.99H130.738V18.1896H132.268L135.89 9.27979H137.566L141.127 18.1896H142.657V22.99H139.855ZM135.278 18.1896H138.117L136.71 14.4134L135.278 18.1896Z" fill="#888E9C"/>
<path d="M155.458 15.0677C155.458 18.3379 152.839 20.9664 149.608 20.9664C146.378 20.9664 143.771 18.3379 143.771 15.0677C143.771 11.8098 146.378 9.16895 149.608 9.16895C152.839 9.16895 155.458 11.8098 155.458 15.0677ZM146.561 15.0677C146.561 17.0668 147.908 18.3132 149.608 18.3132C151.334 18.3132 152.68 17.0792 152.68 15.0677C152.68 13.0809 151.334 11.8098 149.608 11.8098C147.908 11.8098 146.561 13.0809 146.561 15.0677Z" fill="#888E9C"/>
<path d="M162.529 9.27979C165.919 9.27979 166.482 11.3653 166.482 12.4266C166.482 13.747 165.796 14.4998 165.074 14.8577C166.102 15.1168 166.824 16.1657 166.824 17.4738C166.824 19.2879 165.809 20.8674 162.444 20.8674H157.965V9.27979H162.529ZM160.755 13.71H162.835C163.655 13.71 163.839 13.13 163.839 12.8215C163.839 12.513 163.679 11.933 162.835 11.933H160.755V13.71ZM160.755 18.1896H163.031C163.912 18.1896 164.193 17.6219 164.193 17.153C164.193 16.684 163.9 16.1287 163.031 16.1287H160.755V18.1896Z" fill="#888E9C"/>
<path d="M171.119 20.8551H168.023L172.71 9.27979H174.387L179.012 20.8551H175.916L175.329 19.2508H171.719L171.119 20.8551ZM172.673 16.5853H174.35L173.518 14.3394L172.673 16.5853Z" fill="#888E9C"/>
</g>
<defs>
<clipPath id="clip0_987_9061">
<rect width="179" height="28" fill="white"/>
</clipPath>
</defs>
</svg>
