<svg width="143" height="17" viewBox="0 0 143 17" fill="none" xmlns="http://www.w3.org/2000/svg">
<path d="M71.2261 0H70.5508V17H71.2261V0Z" fill="#888E9C"/>
<path d="M77.6914 13.3787V2.44043H80.1057V6.75816H81.4057L84.4616 2.44043H87.298L83.3811 7.77409L87.4161 13.3787H84.4785L81.4057 9.01015H80.1057V13.3787H77.6914Z" fill="#888E9C"/>
<path d="M89.425 10.0092C89.4419 9.70442 89.4419 9.36577 89.4419 8.9594C89.4419 8.56995 89.4588 8.16358 89.4588 7.74027C89.4588 7.3339 89.4588 6.92752 89.4588 6.52115V5.48828H95.942V13.3787H93.629V7.52015H91.5354C91.5354 7.75721 91.5354 8.01119 91.5354 8.28211C91.5354 8.55302 91.5186 8.82394 91.5186 9.09485C91.5186 9.36577 91.5017 9.61975 91.5017 9.87374C91.5017 10.1277 91.4848 10.3478 91.4848 10.5172C91.4679 11.55 91.2822 12.2781 90.9276 12.7184C90.5731 13.1586 89.9147 13.3787 88.9185 13.3787H87.8887V11.3807H88.3614C88.7497 11.3807 89.0198 11.296 89.1718 11.1098C89.3237 10.9235 89.4082 10.551 89.425 10.0092Z" fill="#888E9C"/>
<path d="M100.313 13.3784H98.0508V5.50488H100.279V10.3306L103.2 5.50488H105.564V13.3784H103.335V8.50189L100.313 13.3784Z" fill="#888E9C"/>
<path d="M107.66 13.3784V5.50488H109.956V8.3495H112.776V5.50488H115.055V13.3784H112.776V10.3475H109.956V13.3784H107.66Z" fill="#888E9C"/>
<path d="M119.442 13.3784H117.18V5.50488H119.408V10.3306L122.329 5.50488H124.676V13.3784H122.447V8.50189L119.442 13.3784Z" fill="#888E9C"/>
<path d="M126.787 13.3784V5.50488H129.083V8.43417H129.995L131.801 5.50488H134.317L131.936 9.17919L134.452 13.3784H131.886L129.995 10.1951H129.083V13.3784H126.787Z" fill="#888E9C"/>
<path d="M140.126 13.3789V12.4984C139.873 12.8371 139.552 13.108 139.164 13.2773C138.776 13.4467 138.337 13.5482 137.847 13.5482C137.104 13.5482 136.463 13.3451 135.956 12.9387C135.45 12.5323 135.18 11.9566 135.18 11.1947C135.18 10.365 135.45 9.77235 135.973 9.39984C136.497 9.02733 137.223 8.80721 138.117 8.75642C138.472 8.73948 138.81 8.72255 139.13 8.72255C139.451 8.72255 139.755 8.72255 140.025 8.73948V8.18072C140.025 7.82514 139.924 7.57116 139.704 7.40183C139.485 7.23251 139.198 7.14785 138.81 7.14785C138.472 7.14785 138.185 7.23251 137.965 7.40183C137.746 7.57116 137.594 7.84207 137.526 8.19765L135.433 7.87594C135.551 7.16478 135.906 6.55522 136.48 6.08112C137.054 5.59008 137.847 5.35303 138.843 5.35303C139.316 5.35303 139.772 5.40382 140.194 5.50542C140.616 5.60701 140.971 5.7594 141.275 5.97952C141.578 6.19964 141.815 6.50442 142.001 6.87693C142.169 7.24944 142.271 7.70661 142.271 8.26538V13.3789H140.126ZM140.042 10.1787C139.839 10.1618 139.603 10.1618 139.333 10.1618C139.063 10.1618 138.81 10.1618 138.556 10.1787C138.236 10.1957 137.965 10.2803 137.746 10.4158C137.526 10.5512 137.425 10.7544 137.425 11.0253C137.425 11.2963 137.526 11.4994 137.729 11.6518C137.932 11.8042 138.185 11.872 138.506 11.872C138.962 11.872 139.333 11.7704 139.62 11.5502C139.89 11.3301 140.042 11.0592 140.042 10.7036V10.1787Z" fill="#888E9C"/>
<path d="M52.2305 14.8519H56.0798V4.54011H63.2552V1.13672H52.2305V14.8519Z" fill="#888E9C"/>
<path d="M3.99586 4.54011H5.75172L10.0232 14.8519H13.6362L17.9245 4.54011H19.6804V14.8519H23.5129V1.13672H15.3245L11.8297 10.2971L8.35174 1.13672H0.146484V14.8519H3.99586V4.54011Z" fill="#888E9C"/>
<path d="M34.9247 14.8519L41.0533 6.09788V14.8519H44.7339V1.13672H40.8339L34.6884 9.89071V1.13672H31.0078V14.8519H34.9247Z" fill="#888E9C"/>
</svg>
