<svg width="41" height="18" viewBox="0 0 41 18" fill="none" xmlns="http://www.w3.org/2000/svg">
<path d="M0 17.5883H2.90334V0.53125H0V17.5883ZM6.57787 8.68341L12.9301 0.532968H9.56772L3.27039 8.67278L10.0583 17.5883H13.4206L6.57787 8.68341Z" fill="#888E9C"/>
<path d="M37.2583 0.532227H34.3555V3.08003H37.2583V17.588H40.1608V0.532227H37.2583Z" fill="#888E9C"/>
<path d="M21.595 1.80829C22.9128 0.861896 25.4466 0.26709 26.855 0.26709C29.1381 0.26709 32.5633 1.24148 32.5633 5.06558C32.5633 6.71036 31.5758 8.00357 30.1986 8.71644C31.7549 9.45813 32.8175 10.9717 32.8175 12.7314C32.8175 16.2655 29.646 17.8513 26.6396 17.8513C23.6302 17.8513 21.9695 16.6442 21.3262 16.2511L22.1198 13.823C23.6004 14.9286 24.9628 15.2925 26.5925 15.2925C28.2241 15.2925 29.9609 15.0161 29.9609 12.6003C29.9609 11.0731 29.0184 9.86568 26.5494 9.86568H25.2919V7.49541H26.4577C29.0321 7.49541 29.7196 6.43181 29.7196 5.05155C29.7196 3.66917 28.7338 2.7971 26.6075 2.7971C24.4834 2.7971 23.0616 3.84364 22.4934 4.16505L21.595 1.80829Z" fill="#888E9C"/>
<path d="M18.0784 7.48055V5.08301H15.6138V7.48055H13.1523V9.87619H15.6136V12.2725H18.0782V9.87638H20.5446V7.48075L18.0784 7.48055Z" fill="#888E9C"/>
</svg>
