<svg width="123" height="56" viewBox="0 0 123 56" fill="none" xmlns="http://www.w3.org/2000/svg">
<path d="M47.504 35.686C47.6641 35.5308 47.908 35.1893 47.8622 35.1272C47.5345 34.7003 47.1687 34.2812 46.7418 33.963C46.6275 33.8776 46.2388 34.1492 46.0025 34.2967C45.8501 34.3898 45.7434 34.5528 45.6062 34.6693C41.7191 37.9524 36.765 37.2461 33.64 33.8388C29.7453 29.5932 31.1325 22.1187 36.9555 19.9533C40.1338 18.7735 43.2358 19.1616 45.8044 21.7307C46.0178 21.948 46.3989 22.3516 46.4522 22.3128C46.8867 21.9946 47.3211 21.6453 47.6107 21.2029C47.7098 21.0476 47.4812 20.5276 47.2677 20.3258C44.1428 17.2833 40.4386 16.5226 36.4525 17.974C30.9648 19.9688 28.4953 25.2311 29.8673 30.9592C30.8428 35.0185 34.829 38.8993 40.271 38.7131C42.9462 38.8217 45.3852 37.6575 47.504 35.686ZM21.369 28.3668C20.401 28.3668 19.4407 28.3668 18.4803 28.3668C17.0398 28.3746 17.0856 28.3979 16.5368 29.7018C16.2091 30.4935 16.6054 30.2917 17.0779 30.284C18.8843 30.2451 20.6907 30.284 22.497 30.2296C23.3049 30.2063 23.5564 30.5323 23.5183 31.3085C23.4802 32.1623 23.4802 33.0238 23.5183 33.8853C23.5488 34.5606 23.3202 34.9953 22.7485 35.3989C20.5154 36.9822 18.0611 37.2306 15.5231 36.5786C12.0095 35.686 9.2199 31.8596 9.34185 27.8779C9.47142 23.5624 13.2747 19.5652 17.5657 19.4876C20.0047 19.441 22.0168 20.2948 23.808 21.8859C24.029 22.0799 24.4101 22.4292 24.4863 22.3749C24.9131 22.0722 25.3399 21.7074 25.6143 21.265C25.7058 21.1097 25.4238 20.5975 25.1875 20.3801C22.2531 17.586 18.6938 16.8564 14.982 17.9042C9.25039 19.5264 6.16358 25.0914 7.77177 31.1533C9.73056 38.5345 18.6785 41.6314 24.8674 36.2837C25.2332 35.9655 25.5838 35.3911 25.5991 34.9176C25.6829 32.9617 25.6296 30.9903 25.6296 29.0266C25.6296 28.5686 25.4162 28.3591 24.9741 28.3591C23.7775 28.3668 22.5732 28.3668 21.369 28.3668ZM82.8614 32.0458C82.8614 31.7509 82.808 31.4482 82.7394 31.1688C82.7242 31.0989 82.5565 31.0213 82.4574 31.0213C82.3583 31.0213 82.2135 31.0989 82.1754 31.1765C82.0992 31.3318 82.0611 31.5181 82.0611 31.6888C82.0611 34.8788 82.0611 38.0688 82.0687 41.2589C82.0687 41.4296 82.1221 41.6159 82.1907 41.7711C82.2288 41.8565 82.3736 41.9264 82.465 41.9264C82.5565 41.9264 82.7166 41.841 82.7318 41.7634C82.8004 41.4762 82.8538 41.1735 82.8538 40.8785C82.869 39.4038 82.8614 37.9369 82.8614 36.4622C82.869 34.9953 82.8766 33.5205 82.8614 32.0458ZM98.4784 36.4622C98.4784 34.809 98.486 33.1558 98.4631 31.5103C98.4631 31.3318 98.2878 31.1533 98.1887 30.9747C98.0134 31.1533 97.6781 31.324 97.6781 31.5025C97.6476 34.809 97.6552 38.1154 97.6781 41.4219C97.6781 41.6004 97.8915 41.7711 98.0134 41.9419C98.143 41.7711 98.3793 41.6004 98.3793 41.4219C98.4098 39.7686 98.3945 38.1154 98.3945 36.4622C98.425 36.4622 98.4555 36.4622 98.4784 36.4622ZM74.0963 36.2682C74.0963 37.8593 74.0963 39.4426 74.0963 41.0338C74.0963 41.5538 74.1345 42.035 74.8204 42.035C76.6191 42.035 78.4179 42.035 80.2166 42.0117C80.3462 42.0117 80.4681 41.8099 80.5901 41.709C80.4453 41.5616 80.3005 41.2977 80.1556 41.2899C78.7761 41.2511 77.3966 41.2744 76.017 41.2511C74.95 41.2278 74.9271 41.2045 74.9195 40.1101C74.9043 37.6031 74.9195 35.1039 74.9195 32.5969C74.9195 32.17 74.9271 31.7431 74.8814 31.3162C74.8661 31.1998 74.6375 31.0368 74.5079 31.0368C74.3784 31.0368 74.1726 31.2076 74.1497 31.3318C74.0887 31.6267 74.1116 31.9372 74.1116 32.2399C74.0963 33.5826 74.0963 34.9254 74.0963 36.2682ZM71.444 41.1813C71.5964 41.0493 71.5735 40.7 71.6345 40.4517C71.4287 40.4827 71.1696 40.4361 71.0324 40.5526C70.0035 41.3986 68.8373 41.7634 67.5188 41.7168C65.4228 41.6392 63.6317 40.2731 62.9457 38.193C62.2445 36.0819 62.9076 34.0328 64.7749 32.5115C66.2612 31.293 68.4791 31.0756 70.3388 32.1778C70.697 32.3874 70.979 32.7366 71.3296 32.9695C71.4135 33.0316 71.6803 32.9539 71.7565 32.8531C71.8327 32.7521 71.8174 32.5426 71.7793 32.3951C71.7565 32.2942 71.6193 32.2166 71.5354 32.139C69.912 30.6565 66.8176 30.2995 64.9502 31.4327C62.6866 32.8065 61.4137 35.6317 62.1835 38.1853C62.9686 40.7932 65.0036 42.4309 67.9837 42.4231C69.1651 42.524 70.3845 42.0738 71.444 41.1813ZM110.193 41.4219C110.384 41.2822 110.582 41.1192 110.711 40.9251C110.78 40.8165 110.765 40.5681 110.681 40.4672C110.612 40.3818 110.361 40.3585 110.254 40.4206C109.941 40.5914 109.667 40.8475 109.355 41.026C107.205 42.2601 104.812 41.8876 103.112 40.0636C101.215 38.0223 101.245 35.5696 102.998 33.2722C104.324 31.5336 107.48 30.7497 109.652 32.3563C109.941 32.5736 110.201 32.8375 110.49 33.0471C110.528 33.0781 110.704 32.9462 110.78 32.8686C110.856 32.7832 110.955 32.628 110.925 32.5659C110.848 32.4106 110.711 32.2709 110.582 32.1467C109.027 30.6798 106.169 30.3072 104.164 31.3318C101.809 32.5426 100.559 35.2591 101.146 37.7739C101.832 40.7156 103.897 42.4076 106.984 42.4076C108.051 42.5007 109.179 42.1592 110.193 41.4219ZM117.822 22.4059C118.607 22.4059 119.385 22.4214 120.17 22.3982C121.115 22.3749 121.168 22.305 120.81 21.5133C119.956 19.6273 119.088 17.749 118.211 15.8707C118.15 15.7309 117.952 15.5602 117.838 15.5679C117.716 15.5757 117.586 15.7853 117.518 15.9327C116.618 17.8654 115.726 19.798 114.835 21.7307C114.598 22.2352 114.865 22.3904 115.307 22.3982C116.138 22.4059 116.984 22.4059 117.822 22.4059ZM117.754 14.0001C117.99 14.1786 118.15 14.2562 118.249 14.3882C118.394 14.5822 118.508 14.7995 118.615 15.0169C120.071 18.1603 121.534 21.3038 122.975 24.455C123.043 24.6025 122.959 24.8275 122.944 25.0138C122.731 24.944 122.342 24.9052 122.327 24.7965C121.961 22.6853 120.376 23.1355 119.011 23.12C117.685 23.1122 116.367 23.151 115.048 23.0734C114.492 23.0424 114.172 23.0889 113.935 23.6711C113.714 24.2221 113.714 25.0837 112.754 24.975C112.922 24.4317 113.044 23.8729 113.272 23.3606C114.522 20.5897 115.795 17.8266 117.083 15.0712C117.243 14.7064 117.502 14.3882 117.754 14.0001ZM78.4636 22.4059C79.302 22.4137 80.1404 22.4292 80.9788 22.4059C81.7029 22.3826 81.7638 22.2585 81.4437 21.5211C80.8111 20.0774 80.1556 18.6493 79.5002 17.2134C79.2715 16.7167 79.0505 16.2199 78.7761 15.7542C78.7304 15.6766 78.2807 15.6921 78.2426 15.7775C77.3204 17.7567 76.4362 19.7437 75.5369 21.7307C75.3387 22.1731 75.4302 22.4137 75.9561 22.4059C76.7868 22.3982 77.6252 22.4059 78.4636 22.4059ZM83.776 24.8198C83.6921 24.8896 83.6236 24.9983 83.5321 25.0216C83.4254 25.0449 83.2348 25.0371 83.1967 24.975C82.9452 24.5714 82.6632 24.1756 82.4955 23.7332C82.2897 23.1821 82.0001 23.0501 81.4056 23.0812C79.7212 23.1588 78.0368 23.1743 76.36 23.1045C75.3387 23.0657 74.5918 23.2675 74.2793 24.3696C74.2183 24.5947 74.0735 24.8198 73.8982 24.9673C73.7991 25.0526 73.5628 24.9983 73.4028 24.9595C73.357 24.9517 73.3189 24.7732 73.3342 24.6723C73.3494 24.5559 73.4028 24.4395 73.4561 24.3308C74.889 21.2417 76.3219 18.1526 77.7548 15.0634C77.8539 14.8461 77.9758 14.6288 78.0978 14.4192C78.3722 13.9535 78.7075 14.101 78.9667 14.3959C79.1572 14.6133 79.2487 14.9237 79.3782 15.1954C80.773 18.2379 82.1602 21.2805 83.555 24.323C83.6388 24.486 83.7074 24.649 83.776 24.8198ZM71.6574 21.7462C71.6574 21.0709 71.7031 20.3879 71.6345 19.7282C71.6116 19.5108 71.2915 19.1616 71.101 19.1616C69.8434 19.1228 68.5782 19.1538 67.313 19.1771C67.2291 19.1771 67.0691 19.3634 67.0843 19.4099C67.1377 19.5574 67.252 19.798 67.3511 19.798C68.3114 19.8446 69.2794 19.8756 70.2397 19.8524C70.9409 19.8368 71.2306 20.1318 71.1772 20.8381C71.1543 21.1408 71.1772 21.4512 71.1772 21.7617C71.1772 23.6711 70.5827 24.4007 68.7535 24.6801C68.3419 24.7422 67.9151 24.7344 67.4883 24.7266C65.3923 24.6723 63.9975 23.5236 63.121 21.6996C62.1607 19.7049 62.6104 17.8111 63.967 16.2354C65.2703 14.7219 66.9929 13.9923 68.9898 14.6986C69.7596 14.9703 70.4303 15.5136 71.1696 15.8939C71.322 15.9716 71.5583 15.8862 71.7565 15.8784C71.7184 15.6766 71.7488 15.4127 71.6269 15.2963C69.9958 13.6974 68.0523 13.3869 65.9487 14.0311C62.9838 14.9393 61.6348 17.8654 61.9701 20.2715C62.4427 23.6478 65.0493 26.0384 69.0126 25.3398C69.912 25.1846 70.8419 24.649 71.5202 24.0203C71.8632 23.7021 71.6498 22.7707 71.6879 22.1187C71.6955 21.9946 71.6879 21.8704 71.6879 21.754H71.6574V21.7462ZM86.093 36.6485C86.093 38.2396 86.0854 39.8307 86.1082 41.4219C86.1082 41.6004 86.3293 41.7711 86.4436 41.9496C86.5579 41.7711 86.7485 41.6004 86.7713 41.4063C86.8247 40.9872 86.7942 40.5526 86.7942 40.1257C86.7942 37.9214 86.7942 35.7171 86.8018 33.5128C86.8018 33.3343 86.8628 33.1558 86.9009 32.9772C87.0838 33.0937 87.282 33.1946 87.4421 33.3343C87.5259 33.4041 87.5564 33.5438 87.625 33.6447C89.5076 36.2604 91.3825 38.8761 93.2803 41.4684C93.4632 41.7168 93.8367 41.8099 94.1263 41.9729C94.2178 41.7013 94.3855 41.4374 94.3855 41.1657C94.4083 38.1077 94.4007 35.0418 94.4007 31.9837C94.4007 31.8596 94.4388 31.7121 94.3855 31.619C94.2788 31.4404 94.1187 31.293 93.9739 31.13C93.8748 31.2619 93.7071 31.3939 93.6919 31.5336C93.6462 31.9605 93.6538 32.3873 93.6538 32.8142C93.6538 35.0806 93.6538 37.347 93.6462 39.6134C93.6462 39.854 93.5776 40.0946 93.5395 40.3275C93.3642 40.1878 93.1508 40.0713 93.0136 39.8928C92.7163 39.5125 92.4648 39.0934 92.1828 38.6975C90.5212 36.3768 88.8749 34.0483 87.1905 31.7431C87 31.4792 86.6646 31.3162 86.3903 31.1067C86.2759 31.4172 86.0778 31.7354 86.0778 32.0458C86.0473 33.5749 86.0625 35.1039 86.0625 36.6407H86.093V36.6485ZM99.8274 19.5264C99.8274 20.8148 99.7893 22.1032 99.8503 23.3839C99.8731 23.9194 99.4539 24.6102 100.224 24.9828C100.33 24.4239 100.521 23.8729 100.529 23.314C100.567 21.0476 100.536 18.7735 100.544 16.5071C100.544 16.2665 100.612 16.0259 100.643 15.793C100.841 15.9793 101.07 16.1501 101.23 16.3674C102.228 17.7412 103.196 19.146 104.202 20.5199C105.086 21.7229 105.277 21.7074 106.184 20.5742C106.375 20.3336 106.535 20.0774 106.71 19.8291C107.594 18.595 108.478 17.3609 109.37 16.1268C109.477 15.9871 109.621 15.8784 109.751 15.762C109.812 15.9638 109.926 16.1656 109.926 16.3674C109.941 18.6959 109.934 21.0244 109.934 23.3528C109.934 23.7797 109.926 24.2144 109.972 24.6413C109.987 24.7655 110.17 24.8819 110.307 24.9595C110.345 24.9828 110.536 24.8431 110.544 24.7655C110.597 24.4705 110.62 24.1678 110.62 23.8651C110.627 20.9855 110.62 18.0982 110.62 15.2187C110.62 15.0324 110.643 14.8461 110.605 14.6676C110.566 14.4968 110.475 14.2174 110.391 14.2097C110.178 14.1941 109.911 14.2485 109.743 14.3804C109.507 14.5589 109.324 14.8151 109.149 15.0634C108.158 16.445 107.175 17.8343 106.192 19.2237C105.17 20.6596 105.178 20.6518 104.149 19.1771C103.067 17.6325 101.984 16.0957 100.872 14.5745C100.719 14.3649 100.384 14.2873 100.125 14.1553C100.026 14.4192 99.8503 14.6754 99.8427 14.9393C99.8122 16.4605 99.8274 17.9973 99.8274 19.5264ZM85.7119 19.4255C85.7119 20.4655 85.7119 21.5133 85.7119 22.5534C85.7119 23.2287 85.7119 23.9039 85.7424 24.5792C85.75 24.7189 85.9101 24.8586 86.0015 24.9983C86.1464 24.8508 86.3903 24.7189 86.4207 24.5481C86.4817 24.129 86.4512 23.6944 86.4512 23.2675C86.4512 20.939 86.4512 18.6105 86.4512 16.2743C86.4512 16.1035 86.5274 15.925 86.5656 15.7542C86.6951 15.8707 86.8552 15.9638 86.9543 16.1035C88.0594 17.6325 89.1341 19.1771 90.2621 20.6906C90.9862 21.6686 91.3215 21.6763 92.0227 20.7294C93.1126 19.2625 94.1492 17.7645 95.2163 16.282C95.3534 16.088 95.5287 15.9327 95.6888 15.7542C95.7422 15.9716 95.8336 16.1889 95.8336 16.414C95.8489 18.7424 95.8412 21.0709 95.8489 23.4072C95.8489 23.8341 95.8412 24.2687 95.887 24.6956C95.9022 24.812 96.1309 24.9983 96.2376 24.9828C96.3595 24.9673 96.5348 24.7577 96.5348 24.6257C96.5501 21.2572 96.5501 17.8809 96.5272 14.5124C96.5272 14.101 96.1766 14.0234 95.887 14.2407C95.605 14.4503 95.3611 14.7375 95.1553 15.0324C94.3397 16.1656 93.5547 17.3298 92.7392 18.4553C92.2514 19.1305 91.7255 19.767 91.2148 20.419C90.6432 19.7204 90.0411 19.0529 89.5076 18.3233C88.5701 17.0582 87.6783 15.7387 86.7332 14.4813C86.5884 14.2873 86.215 14.264 85.9482 14.1631C85.872 14.3882 85.7424 14.6055 85.7348 14.8306C85.7119 16.3596 85.7195 17.8887 85.7119 19.4255ZM27.8475 2.56726C20.0123 2.56726 12.1848 2.5595 4.3496 2.56726C1.94112 2.56726 2.22313 2.32665 2.22313 4.72498C2.2155 20.2482 2.22313 35.7714 2.22313 51.2946C2.22313 53.9413 2.16215 53.7318 4.54014 53.7318C19.2425 53.7318 33.9449 53.7318 48.6397 53.7318C49.661 53.7318 50.6899 53.7318 51.7112 53.724C53.4642 53.7085 53.4642 53.7007 53.4795 51.8379C53.4795 51.7138 53.4795 51.5896 53.4795 51.4731V4.5387C53.4795 4.236 53.4566 3.92554 53.4795 3.62284C53.5481 2.81563 53.1746 2.52069 52.4201 2.57502C51.9399 2.60606 51.4597 2.57502 50.9719 2.57502C43.2739 2.56726 35.5607 2.56726 27.8475 2.56726ZM27.8094 55.9826C19.2501 55.9826 10.6985 55.9826 2.13929 55.9826C1.78106 55.9826 1.41522 55.9594 1.057 55.9904C0.310064 56.0603 -0.0481591 55.8041 0.00519328 54.9736C0.0661674 54.0578 0.0204368 53.1341 0.0204368 52.2105C0.0204368 35.4609 0.012815 18.7036 0.0204368 1.95409C0.0204368 -0.226922 -0.299677 0.013688 1.94112 0.013688C19.1739 0.00592643 36.4067 0.00592643 53.6395 0.013688C55.9642 0.013688 55.6669 -0.296776 55.6669 2.03947C55.6745 19.3401 55.6745 36.6485 55.6593 53.9491C55.6593 56.231 56.0328 55.9749 53.6472 55.9826C45.0422 55.9826 36.422 55.9826 27.8094 55.9826Z" fill="#4F65A1"/>
</svg>
