<svg width="122" height="60" viewBox="0 0 122 60" fill="none" xmlns="http://www.w3.org/2000/svg">
<path d="M11.6576 19.5639C11.6576 20.5969 10.8178 21.434 9.7839 21.434C8.75002 21.434 7.91016 20.5969 7.91016 19.5639C7.91016 18.5334 8.74747 17.6963 9.7839 17.6963C10.8178 17.6988 11.6576 18.5359 11.6576 19.5639Z" fill="#A0D7E1"/>
<path d="M7.20681 16.2469C7.00514 16.995 6.2342 17.4402 5.48368 17.2392C4.73316 17.0357 4.29153 16.2698 4.48809 15.5217C4.68976 14.7737 5.46071 14.3335 6.20867 14.532C6.96174 14.733 7.40593 15.4988 7.20681 16.2469Z" fill="#6871B4"/>
<path d="M1.87374 19.5637C1.87374 20.0802 1.45509 20.4975 0.936872 20.4975C0.418656 20.4975 0 20.0776 0 19.5637C0 19.0497 0.421209 18.6299 0.936872 18.6299C1.45509 18.6324 1.87374 19.0497 1.87374 19.5637Z" fill="#502981"/>
<path d="M7.20768 22.8848C7.40935 23.6328 6.96261 24.3987 6.21209 24.5997C5.46157 24.8007 4.69063 24.358 4.48896 23.6099C4.28984 22.8619 4.73403 22.096 5.48455 21.895C6.23507 21.6915 7.00601 22.1367 7.20768 22.8848Z" fill="#6871B4"/>
<path d="M4.25259 28.4138C4.51042 28.8616 4.35726 29.4315 3.91052 29.6911C3.45867 29.9455 2.88685 29.7928 2.62902 29.3476C2.37118 28.8998 2.52435 28.3273 2.97364 28.0703C3.42038 27.8158 3.99476 27.9685 4.25259 28.4138Z" fill="#502981"/>
<path d="M10.5324 28.632C11.0838 29.1765 11.0838 30.0645 10.5324 30.6115C9.98614 31.156 9.09266 31.1611 8.54636 30.6115C7.99496 30.067 7.99496 29.1765 8.54636 28.632C9.09521 28.0849 9.98614 28.0849 10.5324 28.632Z" fill="#6871B4"/>
<path d="M10.7504 34.8911C11.1997 35.1507 11.3529 35.7181 11.0925 36.1659C10.8321 36.6137 10.2603 36.7689 9.81102 36.5094C9.36429 36.2524 9.21112 35.6774 9.46895 35.2346C9.72933 34.7868 10.3037 34.6367 10.7504 34.8911Z" fill="#502981"/>
<path d="M16.2996 31.9498C17.0501 32.1508 17.4968 32.9192 17.2952 33.6647C17.0935 34.4128 16.3225 34.8555 15.572 34.6545C14.8215 34.4535 14.3799 33.6851 14.579 32.9396C14.7807 32.1915 15.549 31.7488 16.2996 31.9498Z" fill="#6871B4"/>
<path d="M19.6283 37.2627C20.1465 37.2627 20.5651 37.68 20.5651 38.199C20.5651 38.713 20.1465 39.1328 19.6283 39.1328C19.1101 39.1328 18.6914 38.713 18.6914 38.199C18.6914 37.68 19.1126 37.2627 19.6283 37.2627Z" fill="#502981"/>
<path d="M22.9611 31.9498C23.7091 31.7488 24.48 32.1915 24.6817 32.9396C24.8834 33.6876 24.4366 34.456 23.6887 34.657C22.9381 34.8581 22.1672 34.4153 21.9655 33.6673C21.7664 32.9192 22.2106 32.1508 22.9611 31.9498Z" fill="#6871B4"/>
<path d="M28.5071 34.8905C28.9564 34.6309 29.5282 34.7862 29.7861 35.234C30.0464 35.6793 29.8907 36.2517 29.444 36.5087C28.9947 36.7683 28.4229 36.6156 28.1625 36.1652C27.9072 35.7174 28.0604 35.15 28.5071 34.8905Z" fill="#502981"/>
<path d="M28.7261 28.632C29.275 28.0849 30.1659 28.0849 30.7147 28.632C31.2636 29.1765 31.2636 30.067 30.7147 30.6115C30.1685 31.1611 29.2775 31.156 28.7261 30.6115C28.1798 30.067 28.1798 29.1765 28.7261 28.632Z" fill="#6871B4"/>
<path d="M35.0081 28.4127C35.2659 27.9649 35.8403 27.8123 36.2871 28.0718C36.7363 28.3288 36.8895 28.9013 36.6291 29.3491C36.3687 29.7943 35.7969 29.947 35.3476 29.6875C34.9034 29.433 34.7503 28.8605 35.0081 28.4127Z" fill="#502981"/>
<path d="M32.0564 22.8834C32.2581 22.1353 33.029 21.69 33.777 21.891C34.5249 22.092 34.9717 22.8579 34.7726 23.606C34.5709 24.354 33.8 24.7968 33.052 24.5957C32.2989 24.3973 31.8547 23.6314 32.0564 22.8834Z" fill="#6871B4"/>
<path d="M37.3867 19.5637C37.3867 19.0472 37.8079 18.6299 38.3236 18.6299C38.8418 18.6299 39.2604 19.0497 39.2604 19.5637C39.2604 20.0802 38.8418 20.4975 38.3236 20.4975C37.8054 20.4975 37.3867 20.0802 37.3867 19.5637Z" fill="#502981"/>
<path d="M32.0563 16.2469C31.8546 15.4988 32.3013 14.733 33.0493 14.532C33.7998 14.3335 34.5707 14.7737 34.7724 15.5217C34.9715 16.2698 34.5273 17.0357 33.7768 17.2367C33.0289 17.4402 32.2579 16.9949 32.0563 16.2469Z" fill="#6871B4"/>
<path d="M35.0059 10.7166C34.7455 10.2688 34.8987 9.6988 35.3454 9.44181C35.7947 9.18228 36.3691 9.33495 36.6269 9.78531C36.8873 10.2306 36.7341 10.8005 36.2848 11.0601C35.8381 11.317 35.2663 11.1618 35.0059 10.7166Z" fill="#502981"/>
<path d="M28.7261 10.5017C28.1798 9.95466 28.1798 9.06666 28.7261 8.51962C29.275 7.97002 30.1685 7.97002 30.7147 8.51962C31.2636 9.06666 31.2636 9.95466 30.7147 10.5017C30.1685 11.0488 29.275 11.0488 28.7261 10.5017Z" fill="#6871B4"/>
<path d="M28.508 4.2412C28.0587 3.98167 27.9056 3.41172 28.166 2.96645C28.4263 2.51863 28.9956 2.36597 29.4475 2.6255C29.8916 2.88249 30.0474 3.45244 29.7895 3.89771C29.5317 4.34553 28.9573 4.49819 28.508 4.2412Z" fill="#502981"/>
<path d="M22.9582 7.18296C22.2052 6.98196 21.761 6.21609 21.9627 5.4655C22.1643 4.71744 22.9353 4.27472 23.6858 4.47318C24.4338 4.67673 24.8805 5.44005 24.6788 6.1881C24.4772 6.94125 23.7088 7.38143 22.9582 7.18296Z" fill="#6871B4"/>
<path d="M19.6283 1.86759C19.1101 1.86759 18.6914 1.45031 18.6914 0.936341C18.6914 0.417284 19.1101 0 19.6283 0C20.1465 0 20.5652 0.417284 20.5652 0.936341C20.5677 1.45031 20.149 1.86759 19.6283 1.86759Z" fill="#502981"/>
<path d="M16.2996 7.18239C15.549 7.38085 14.7807 6.94067 14.579 6.19261C14.3799 5.44455 14.8215 4.67614 15.572 4.47513C16.3225 4.27667 17.0935 4.7194 17.2952 5.46745C17.4968 6.21296 17.0501 6.98138 16.2996 7.18239Z" fill="#6871B4"/>
<path d="M10.7529 4.2412C10.3036 4.49819 9.73182 4.34553 9.47399 3.89771C9.21361 3.44989 9.36933 2.88249 9.81606 2.6255C10.2654 2.36597 10.8372 2.51863 11.0976 2.96645C11.3554 3.41172 11.2022 3.98167 10.7529 4.2412Z" fill="#502981"/>
<path d="M10.5324 10.5017C9.98614 11.0488 9.09266 11.0488 8.54636 10.5017C7.99496 9.95466 7.99496 9.06666 8.54636 8.51962C9.09266 7.97002 9.98358 7.97002 10.5324 8.51962C11.0838 9.06666 11.0838 9.95466 10.5324 10.5017Z" fill="#6871B4"/>
<path d="M4.25258 10.7168C3.9922 11.1646 3.42038 11.3173 2.97364 11.0603C2.52435 10.8008 2.37119 10.2308 2.62902 9.78558C2.88685 9.33776 3.45867 9.1851 3.91051 9.44208C4.3598 9.69907 4.51296 10.269 4.25258 10.7168Z" fill="#502981"/>
<path d="M12.7279 23.5387C13.2461 24.4344 12.9372 25.5743 12.0438 26.0908C11.1452 26.6073 9.99899 26.2994 9.48078 25.4063C8.96512 24.5132 9.27145 23.3708 10.1675 22.8543C11.0635 22.3352 12.2097 22.6456 12.7279 23.5387Z" fill="#A0D7E1"/>
<path d="M15.6439 26.4456C16.54 26.9621 16.8488 28.1046 16.3306 28.9977C15.8124 29.8907 14.6662 30.1961 13.7702 29.6796C12.8741 29.1656 12.5653 28.0206 13.0835 27.1275C13.6017 26.2344 14.7479 25.9291 15.6439 26.4456Z" fill="#A0D7E1"/>
<path d="M19.6277 27.5107C20.6641 27.5107 21.5014 28.3478 21.5014 29.3783C21.5014 30.4114 20.6641 31.2485 19.6277 31.2485C18.5938 31.2485 17.7539 30.4114 17.7539 29.3783C17.7565 28.3478 18.5938 27.5107 19.6277 27.5107Z" fill="#A0D7E1"/>
<path d="M23.6178 26.4464C24.5139 25.9325 25.66 26.2352 26.1783 27.1283C26.6965 28.0189 26.3901 29.1638 25.4916 29.6803C24.5955 30.1969 23.4493 29.8915 22.9311 28.9959C22.4129 28.1028 22.7218 26.9604 23.6178 26.4464Z" fill="#A0D7E1"/>
<path d="M26.5317 23.5386C27.0524 22.6455 28.1961 22.3376 29.0921 22.8541C29.9881 23.3681 30.297 24.5105 29.7762 25.4036C29.2606 26.2993 28.1144 26.6046 27.2158 26.0881C26.3223 25.5741 26.016 24.4317 26.5317 23.5386Z" fill="#A0D7E1"/>
<path d="M27.5977 19.5639C27.5977 18.5334 28.4375 17.6963 29.4714 17.6963C30.5053 17.6963 31.3451 18.5334 31.3451 19.5639C31.3451 20.5969 30.5078 21.434 29.4714 21.434C28.4375 21.434 27.5977 20.5969 27.5977 19.5639Z" fill="#A0D7E1"/>
<path d="M19.6315 13.1826C16.0959 13.1852 13.2291 16.04 13.2266 19.564C13.2291 23.0905 16.0959 25.9453 19.6289 25.9453C23.1697 25.9428 26.0364 23.088 26.0313 19.564C26.0364 16.04 23.1697 13.1826 19.6315 13.1826ZM19.6289 22.7852C17.8471 22.7852 16.3997 21.3451 16.3997 19.5665C16.3997 17.788 17.8445 16.3479 19.6289 16.3479C21.4133 16.3479 22.8582 17.788 22.8608 19.5665C22.8608 21.3451 21.4159 22.7852 19.6289 22.7852Z" fill="#F1B018"/>
<path d="M26.5316 15.5946C26.0159 14.7016 26.3222 13.5591 27.2183 13.0426C28.1168 12.5261 29.2631 12.834 29.7787 13.7271C30.2969 14.6201 29.9906 15.7626 29.0946 16.2791C28.196 16.7956 27.0523 16.4877 26.5316 15.5946Z" fill="#A0D7E1"/>
<path d="M23.6178 12.6861C22.7218 12.1671 22.4129 11.0272 22.9311 10.1316C23.4493 9.23848 24.5955 8.9306 25.4916 9.44966C26.3876 9.96617 26.6939 11.1061 26.1783 12.0017C25.6601 12.8973 24.5139 13.2027 23.6178 12.6861Z" fill="#A0D7E1"/>
<path d="M19.6276 11.6199C18.5938 11.6199 17.7539 10.7828 17.7539 9.75235C17.7539 8.72187 18.5912 7.88477 19.6276 7.88477C20.6641 7.88477 21.5014 8.71933 21.5014 9.75235C21.5039 10.7828 20.6666 11.6199 19.6276 11.6199Z" fill="#A0D7E1"/>
<path d="M15.6419 12.6863C14.7459 13.2028 13.5997 12.895 13.084 12.0019C12.5658 11.1088 12.8722 9.96635 13.7707 9.44984C14.6668 8.93332 15.813 9.2412 16.3312 10.1343C16.8468 11.0274 16.5405 12.1698 15.6419 12.6863Z" fill="#A0D7E1"/>
<path d="M12.7279 15.5946C12.2123 16.4903 11.0661 16.7956 10.1675 16.2816C9.27145 15.7651 8.96512 14.6201 9.48078 13.7271C9.99899 12.834 11.1452 12.5261 12.0438 13.0426C12.9372 13.5591 13.2461 14.699 12.7279 15.5946Z" fill="#A0D7E1"/>
<path d="M60.5689 12.9979C60.74 13.0106 60.8727 13.0437 60.9646 13.0971C61.0565 13.1505 61.1229 13.2167 61.1637 13.2956C61.2046 13.3745 61.2224 13.4559 61.2224 13.5424C61.2224 13.6289 61.2224 13.7103 61.2224 13.7892L60.985 17.5575C60.9723 17.6898 60.9416 17.7737 60.8957 17.8144C60.8497 17.8552 60.7936 17.873 60.7272 17.873H59.7571C59.6116 17.873 59.5325 17.7686 59.5197 17.5575L59.4202 14.6187H50.4752C50.1331 14.6187 49.8523 14.5194 49.6353 14.3235C49.4184 14.1251 49.3086 13.8172 49.3086 13.3974V1.09007C49.3086 0.957761 49.3341 0.87634 49.3877 0.843262C49.4413 0.810185 49.5205 0.794922 49.6251 0.794922H50.8122C50.9322 0.794922 51.0139 0.812729 51.0598 0.843262C51.1058 0.87634 51.1287 0.957761 51.1287 1.09007V13.0233H58.0953V1.09007C58.0953 0.957761 58.1259 0.87634 58.1846 0.843262C58.2433 0.810185 58.325 0.794922 58.4322 0.794922H59.581C59.7137 0.794922 59.8005 0.812729 59.849 0.843262C59.895 0.87634 59.918 0.957761 59.918 1.09007V12.9623L60.5689 12.9979Z" fill="#502981"/>
<path d="M66.9796 4.04492C67.7327 4.04492 68.3811 4.14924 68.93 4.36043C69.4763 4.57161 69.9256 4.86931 70.2753 5.2586C70.625 5.64535 70.8854 6.10589 71.0564 6.64021C71.2275 7.17199 71.3143 7.76229 71.3143 8.40603C71.3143 8.72153 71.2734 8.97852 71.1968 9.17444C71.1177 9.3729 71.0079 9.52557 70.8701 9.63752C70.7322 9.74947 70.574 9.82835 70.3953 9.87415C70.2166 9.91995 70.0302 9.94285 69.8311 9.94285H64.1333C64.1333 10.5611 64.2201 11.0878 64.3911 11.5204C64.5621 11.9555 64.7919 12.3066 65.0753 12.5763C65.3586 12.846 65.6905 13.0394 66.0683 13.159C66.4461 13.2786 66.852 13.3371 67.2911 13.3371C67.7276 13.3371 68.159 13.2811 68.5828 13.1691C69.0065 13.0572 69.3563 12.93 69.6345 12.7849C69.7928 12.6933 69.9179 12.7264 70.0098 12.8842L70.4259 13.7136C70.5178 13.8968 70.4795 14.0292 70.3059 14.108C69.8311 14.3981 69.3205 14.5915 68.7717 14.6907C68.2228 14.7899 67.6868 14.8383 67.1583 14.8383C66.4206 14.8383 65.7569 14.734 65.1697 14.5228C64.5826 14.3116 64.0848 13.991 63.6763 13.5559C63.2679 13.1208 62.9539 12.5687 62.7369 11.8995C62.5199 11.2278 62.4102 10.4263 62.4102 9.49249C62.4102 8.62485 62.525 7.85135 62.7573 7.17454C62.9871 6.49773 63.3087 5.92778 63.7172 5.46725C64.1256 5.00671 64.6081 4.65558 65.1621 4.41132C65.7135 4.16705 66.321 4.04492 66.9796 4.04492ZM69.6907 8.56123C69.6907 8.15413 69.6498 7.76229 69.5707 7.38826C69.4916 7.01424 69.3486 6.68601 69.1444 6.40104C68.9402 6.11861 68.6619 5.8947 68.3096 5.72932C67.9599 5.56393 67.5183 5.48251 66.9899 5.48251C66.5533 5.48251 66.1653 5.56902 65.8283 5.73949C65.4914 5.90997 65.2054 6.13642 64.9731 6.41885C64.7408 6.70128 64.5596 7.02696 64.4269 7.3959C64.2941 7.76484 64.215 8.15159 64.1894 8.55869H69.6907V8.56123Z" fill="#502981"/>
<path d="M74.9854 14.5472C74.9266 14.593 74.8322 14.6159 74.702 14.6159H73.7421C73.6119 14.6159 73.5149 14.593 73.4486 14.5472C73.3822 14.5014 73.3516 14.4072 73.3516 14.2622V4.59856C73.3516 4.45353 73.3848 4.36193 73.4486 4.32122C73.5149 4.28051 73.6119 4.2627 73.7421 4.2627H74.702C74.8322 4.2627 74.9266 4.28305 74.9854 4.32122C75.0441 4.36193 75.0747 4.45353 75.0747 4.59856V8.32611H80.2007V4.59856C80.2007 4.45353 80.2313 4.36193 80.2901 4.32122C80.3488 4.28051 80.4458 4.2627 80.5811 4.2627H81.5614C81.7069 4.2627 81.8039 4.28305 81.8524 4.32122C81.8983 4.36193 81.9213 4.45353 81.9213 4.59856V14.2622C81.9213 14.4072 81.8983 14.5014 81.8524 14.5472C81.8064 14.593 81.7094 14.6159 81.5614 14.6159H80.5811C80.4483 14.6159 80.3513 14.593 80.2901 14.5472C80.2313 14.5014 80.2007 14.4072 80.2007 14.2622V9.78406H75.0747V14.2622C75.0721 14.4047 75.0441 14.5014 74.9854 14.5472Z" fill="#502981"/>
<path d="M88.5889 14.5476C88.5353 14.5934 88.4434 14.6163 88.3107 14.6163H87.3406C87.2079 14.6163 87.116 14.5934 87.0624 14.5476C87.0087 14.5018 86.9832 14.4076 86.9832 14.2626V5.76173H83.9173C83.7718 5.76173 83.6774 5.7312 83.6314 5.67268C83.5855 5.61162 83.5625 5.53019 83.5625 5.42333V4.64474C83.5625 4.52515 83.5855 4.43101 83.6314 4.36486C83.6774 4.2987 83.7718 4.26562 83.9173 4.26562H91.8718C92.03 4.26562 92.1296 4.2987 92.1679 4.36486C92.2087 4.43101 92.2266 4.52515 92.2266 4.64474V5.42333C92.2266 5.53019 92.2062 5.61416 92.1679 5.67268C92.1271 5.73375 92.03 5.76173 91.8718 5.76173H88.6655V14.2626C88.668 14.4051 88.6425 14.5018 88.5889 14.5476Z" fill="#502981"/>
<path d="M102.755 9.42888C102.755 10.1795 102.658 10.8792 102.469 11.5306C102.277 12.1819 101.994 12.7544 101.619 13.2455C101.244 13.7391 100.764 14.1258 100.184 14.4083C99.6046 14.6907 98.9307 14.8332 98.1649 14.8332C97.7947 14.8332 97.3965 14.8128 96.9676 14.7747C96.5388 14.734 96.0792 14.6424 95.5917 14.4948V18.3241C95.5917 18.4437 95.5687 18.5175 95.5227 18.5506C95.4768 18.5836 95.4002 18.5989 95.2955 18.5989H94.1876C94.083 18.5989 94.0038 18.5811 93.9502 18.5506C93.8966 18.5175 93.8711 18.4412 93.8711 18.3241V5.11103C93.8711 4.94055 93.9502 4.8286 94.1085 4.77517C94.7671 4.48511 95.4462 4.29173 96.1456 4.1925C96.8451 4.09327 97.5114 4.04492 98.1444 4.04492C98.9358 4.04492 99.6225 4.17978 100.202 4.44948C100.781 4.71919 101.261 5.09322 101.637 5.57411C102.012 6.055 102.293 6.6224 102.477 7.27886C102.663 7.93786 102.755 8.65284 102.755 9.42888ZM100.953 9.42888C100.953 8.70881 100.881 8.1007 100.736 7.60454C100.59 7.10838 100.383 6.70891 100.113 6.40867C99.842 6.10843 99.5178 5.88962 99.1426 5.75222C98.7673 5.61482 98.341 5.54612 97.8662 5.54612C97.5241 5.54612 97.1335 5.5792 96.6996 5.64535C96.263 5.71151 95.8954 5.80311 95.5917 5.92015V12.9834C96.092 13.1284 96.526 13.2226 96.8885 13.2684C97.251 13.3142 97.5854 13.3371 97.8866 13.3371C98.3359 13.3371 98.7469 13.2684 99.1222 13.131C99.4974 12.9936 99.8216 12.7722 100.092 12.4644C100.363 12.1565 100.575 11.7545 100.725 11.2583C100.878 10.7571 100.953 10.1489 100.953 9.42888Z" fill="#502981"/>
<path d="M50.4965 25.7704C50.5092 25.4295 50.6088 25.1776 50.7952 25.0198C50.979 24.8621 51.2189 24.7832 51.5099 24.7832H56.6104C56.9933 24.7832 57.2512 24.8697 57.3839 25.0402C57.5166 25.2107 57.583 25.4549 57.583 25.7704V34.8438C57.583 34.9761 57.5549 35.0575 57.5039 35.0906C57.4503 35.1237 57.3507 35.1389 57.2027 35.1389H56.2224C56.1024 35.1389 56.0131 35.1237 55.9518 35.0906C55.8905 35.0575 55.8624 34.9761 55.8624 34.8438V26.2844H52.0435L51.9235 27.7627C51.8188 29.0782 51.7065 30.1799 51.5865 31.0653C51.4665 31.9533 51.2955 32.6861 51.0709 33.2637C50.8462 33.8413 50.5475 34.2916 50.1697 34.6148C49.7945 34.9379 49.3018 35.1898 48.6968 35.373C48.6176 35.3985 48.5283 35.4188 48.4287 35.4315C48.3292 35.4443 48.2602 35.3857 48.2219 35.2534L47.9641 34.4647C47.8977 34.2815 47.9769 34.1364 48.2015 34.0296C48.5589 33.8718 48.8499 33.681 49.0822 33.4571C49.312 33.2332 49.5086 32.9049 49.6668 32.4698C49.8251 32.0348 49.9527 31.4572 50.0523 30.7346C50.1519 30.012 50.2463 29.0654 50.3382 27.895L50.4965 25.7704Z" fill="#502981"/>
<path d="M64.4611 36.8337C64.1573 37.7421 63.7693 38.3731 63.2945 38.7267C62.8196 39.083 62.2121 39.2585 61.4743 39.2585C61.2905 39.2585 61.0582 39.2458 60.7825 39.2178C60.5043 39.1924 60.203 39.1313 59.8712 39.0397C59.6593 38.9863 59.5802 38.8819 59.6338 38.7242L59.8508 37.8565C59.8763 37.7522 59.9171 37.6886 59.9707 37.6683C60.0243 37.6479 60.0958 37.6505 60.1877 37.6784C60.4379 37.7446 60.6268 37.7879 60.7519 37.8057C60.877 37.826 61.025 37.8362 61.1961 37.8362C61.6454 37.8362 62.0079 37.7471 62.2836 37.569C62.5618 37.3909 62.7839 37.0398 62.9575 36.5131C62.9703 36.4724 63.0034 36.3808 63.057 36.2358C63.1107 36.0907 63.1668 35.9355 63.2255 35.7727C63.2842 35.6073 63.3379 35.4546 63.3838 35.3096C63.4297 35.1646 63.4604 35.073 63.4731 35.0323H63.0979C62.9141 35.0323 62.7507 35.0017 62.6129 34.9432C62.475 34.8847 62.3525 34.6837 62.2478 34.3427L59.1998 24.9946C59.1589 24.8496 59.2202 24.7783 59.3785 24.7783H60.7034C60.8489 24.7783 60.9408 24.8445 60.9816 24.9768C61.0072 25.0684 61.0633 25.249 61.1501 25.5187C61.2369 25.7884 61.339 26.104 61.4565 26.4653C61.5764 26.8266 61.7015 27.2159 61.8317 27.6281C61.9645 28.0428 62.0895 28.4295 62.207 28.7908C62.327 29.1521 62.4265 29.4702 62.5133 29.7475C62.6001 30.0249 62.6537 30.2004 62.6818 30.2793L63.6901 33.7499H63.8101C63.851 33.6456 63.9301 33.4089 64.0475 33.04C64.1675 32.6711 64.2875 32.2818 64.4126 31.867C64.5377 31.4523 64.6576 31.0783 64.77 30.7424C64.8823 30.4065 64.9436 30.2259 64.9589 30.2004C64.9716 30.175 65.015 30.0529 65.0865 29.8366C65.158 29.6203 65.2524 29.3481 65.3648 29.0173C65.4771 28.6891 65.5996 28.3303 65.7298 27.9436C65.8626 27.5568 65.9902 27.1701 66.1153 26.7909C66.2404 26.4093 66.3604 26.0582 66.4701 25.735C66.5824 25.4119 66.6718 25.16 66.7382 24.9768C66.779 24.8445 66.8709 24.7783 67.0164 24.7783H68.2826C68.4409 24.7783 68.4996 24.8496 68.4613 24.9946L64.4611 36.8337Z" fill="#502981"/>
<path d="M69.8477 25.0784C69.8477 24.946 69.8732 24.8646 69.9268 24.8315C69.9778 24.7985 70.057 24.7832 70.1617 24.7832H71.2568C71.3615 24.7832 71.438 24.801 71.4917 24.8315C71.5427 24.8646 71.5708 24.946 71.5708 25.0784V27.3861C71.5708 27.8848 71.6193 28.2945 71.7188 28.61C71.8184 28.9255 71.9716 29.1723 72.1758 29.3504C72.38 29.5285 72.6455 29.6532 72.9697 29.7244C73.2939 29.7957 73.6743 29.8338 74.1134 29.8338C74.458 29.8338 74.8562 29.8033 75.3055 29.7448C75.7548 29.6863 76.153 29.5896 76.4977 29.4598V25.0809C76.4977 24.9486 76.5206 24.8672 76.5666 24.8341C76.6125 24.801 76.6942 24.7857 76.8142 24.7857H77.9017C78.0064 24.7857 78.0855 24.8036 78.1391 24.8341C78.1927 24.8672 78.2182 24.9486 78.2182 25.0809V34.8438C78.2182 34.9761 78.1927 35.0575 78.1391 35.0906C78.0855 35.1237 78.0064 35.1389 77.9017 35.1389H76.8142C76.6942 35.1389 76.6125 35.1237 76.5666 35.0906C76.5206 35.0575 76.4977 34.9761 76.4977 34.8438V30.9178C76.1147 31.0501 75.6706 31.1518 75.1626 31.2231C74.6546 31.2943 74.2155 31.3325 73.8479 31.3325C72.4489 31.3325 71.4329 31.0068 70.7998 30.3554C70.1668 29.7041 69.8502 28.7016 69.8502 27.348V25.0784H69.8477Z" fill="#502981"/>
<path d="M84.9875 24.5684C85.7405 24.5684 86.389 24.6727 86.9378 24.8839C87.4841 25.0951 87.9334 25.3927 88.2831 25.782C88.6329 26.1688 88.8932 26.6293 89.0643 27.1636C89.2353 27.6954 89.3221 28.2857 89.3221 28.9295C89.3221 29.245 89.2838 29.502 89.2047 29.6979C89.1255 29.8963 89.0158 30.049 88.8779 30.161C88.7401 30.2729 88.5818 30.3518 88.4031 30.3976C88.2244 30.4434 88.0381 30.4663 87.8389 30.4663H82.1411C82.1411 31.0846 82.2279 31.6113 82.3989 32.0438C82.57 32.4789 82.7997 32.83 83.0831 33.0997C83.3664 33.3694 83.6983 33.5628 84.0761 33.6824C84.4539 33.7994 84.8598 33.8605 85.2989 33.8605C85.7354 33.8605 86.1669 33.8045 86.5906 33.6926C87.0144 33.5806 87.3641 33.4534 87.6424 33.3084C87.8006 33.2168 87.9257 33.2499 88.0176 33.4076L88.4337 34.2371C88.5256 34.4203 88.4873 34.5526 88.3138 34.6315C87.8389 34.9215 87.3284 35.1149 86.7795 35.2141C86.2307 35.3134 85.6946 35.3617 85.1662 35.3617C84.4284 35.3617 83.7647 35.2574 83.1775 35.0462C82.5904 34.835 82.0926 34.5144 81.6842 34.0793C81.2757 33.6442 80.9617 33.0921 80.7447 32.4229C80.5277 31.7512 80.418 30.9497 80.418 30.0159C80.418 29.1483 80.5328 28.3748 80.7652 27.698C80.9949 27.0212 81.3166 26.4512 81.725 25.9907C82.1334 25.5301 82.6159 25.179 83.1699 24.9348C83.7213 24.6905 84.3263 24.5684 84.9875 24.5684ZM87.6985 29.0847C87.6985 28.6776 87.6577 28.2857 87.5785 27.9117C87.4994 27.5377 87.3565 27.2094 87.1522 26.9245C86.948 26.642 86.6698 26.4181 86.3175 26.2528C85.9677 26.0874 85.5261 26.0059 84.9977 26.0059C84.5612 26.0059 84.1731 26.0925 83.8362 26.2629C83.4992 26.4334 83.2133 26.6599 82.981 26.9423C82.7487 27.2247 82.5674 27.5504 82.4347 27.9193C82.3019 28.2883 82.2228 28.675 82.1973 29.0821H87.6985V29.0847Z" fill="#502981"/>
<path d="M98.3743 29.5769C99.0074 29.788 99.4567 30.1264 99.7196 30.5921C99.9826 31.0602 100.115 31.5615 100.115 32.1009C100.115 32.5614 100.026 32.9762 99.8473 33.3426C99.6686 33.7115 99.4286 34.0296 99.1248 34.2993C98.821 34.569 98.4611 34.7751 98.0475 34.9201C97.6314 35.0651 97.1796 35.1364 96.692 35.1364H92.1812C91.903 35.1364 91.6962 35.0651 91.5583 34.9201C91.4205 34.7751 91.3516 34.5842 91.3516 34.3476V25.572C91.3516 25.3226 91.423 25.1292 91.5685 24.9893C91.7141 24.8519 91.9183 24.7832 92.1812 24.7832H96.4955C97.4196 24.7832 98.1777 24.9893 98.77 25.404C99.3648 25.8188 99.6609 26.4727 99.6609 27.3658C99.6609 27.8136 99.546 28.2283 99.3137 28.6074C99.084 28.9891 98.7751 29.2715 98.3947 29.4547L98.3743 29.5769ZM93.0721 28.9458H96.4163C96.5491 28.9458 96.7022 28.9229 96.8809 28.8771C97.0596 28.8313 97.2204 28.7576 97.366 28.6507C97.5115 28.5464 97.6366 28.4064 97.7412 28.2309C97.8459 28.0553 97.8995 27.8289 97.8995 27.5541C97.8995 27.2029 97.7744 26.9027 97.5242 26.6533C97.2741 26.4065 96.9371 26.2819 96.5159 26.2819H93.0721V28.9458ZM98.336 32.0017C98.336 31.4877 98.1675 31.0755 97.8306 30.76C97.4936 30.4445 96.9907 30.2867 96.3168 30.2867H93.0721V33.798H96.2989C96.7201 33.798 97.0647 33.7395 97.3277 33.6199C97.5906 33.5029 97.7999 33.3527 97.9505 33.1772C98.1012 32.9991 98.2033 32.8057 98.2569 32.5945C98.3079 32.3833 98.336 32.1874 98.336 32.0017Z" fill="#502981"/>
<path d="M111.066 29.9108C111.066 31.6741 110.668 33.0201 109.871 33.9539C109.075 34.8877 107.918 35.3533 106.407 35.3533C104.919 35.3533 103.788 34.9004 103.012 33.992C102.236 33.0837 101.848 31.7428 101.848 29.9694C101.848 29.1017 101.963 28.3333 102.192 27.6616C102.422 26.9899 102.746 26.425 103.16 25.9645C103.573 25.5039 104.066 25.1553 104.63 24.9187C105.197 24.6821 105.807 24.5625 106.466 24.5625C107.967 24.5625 109.108 25.0358 109.892 25.9823C110.675 26.9339 111.066 28.2417 111.066 29.9108ZM109.345 29.9719C109.345 29.4579 109.304 28.9618 109.225 28.4834C109.146 28.0025 109.001 27.5827 108.789 27.2214C108.577 26.8601 108.288 26.5675 107.918 26.3436C107.548 26.1197 107.073 26.0077 106.494 26.0077C105.993 26.0077 105.557 26.112 105.187 26.3232C104.817 26.5344 104.513 26.8168 104.275 27.1705C104.038 27.5267 103.859 27.9389 103.742 28.4122C103.622 28.8854 103.563 29.3841 103.563 29.9108C103.563 30.5037 103.609 31.0456 103.701 31.5367C103.793 32.0303 103.951 32.4501 104.176 32.7987C104.4 33.1473 104.694 33.4196 105.057 33.618C105.419 33.8165 105.879 33.9132 106.432 33.9132C106.986 33.9132 107.451 33.8012 107.826 33.5773C108.202 33.3534 108.503 33.0583 108.727 32.6893C108.952 32.3204 109.11 31.9006 109.202 31.4273C109.299 30.9566 109.345 30.4706 109.345 29.9719Z" fill="#502981"/>
<path d="M113.238 25.0783C113.238 24.946 113.264 24.862 113.317 24.8213C113.371 24.7806 113.45 24.7628 113.557 24.7628H114.637C114.757 24.7628 114.841 24.7831 114.887 24.8213C114.933 24.862 114.956 24.946 114.956 25.0783V32.6911H115.035C115.352 32.1924 115.638 31.7344 115.893 31.3197C116.151 30.9049 116.442 30.4622 116.771 29.989L119.75 25.3938C119.881 25.1699 120.006 25.0121 120.126 24.9205C120.243 24.8289 120.435 24.7831 120.698 24.7831H121.211C121.435 24.7831 121.622 24.8493 121.772 24.9816C121.923 25.1139 121.999 25.3098 121.999 25.5744V34.864C121.999 34.9811 121.976 35.0574 121.931 35.0905C121.885 35.1236 121.803 35.1388 121.683 35.1388H120.595C120.491 35.1388 120.412 35.1236 120.358 35.0905C120.304 35.0574 120.279 34.9811 120.279 34.864V27.3301H120.164C120.006 27.5667 119.863 27.7881 119.738 27.9916C119.613 28.1952 119.487 28.3987 119.362 28.6023C119.237 28.8058 119.107 29.0145 118.977 29.2231C118.844 29.4343 118.699 29.6582 118.54 29.8948L115.454 34.5485C115.309 34.7724 115.168 34.9276 115.028 35.0116C114.89 35.0981 114.709 35.1388 114.484 35.1388H114.03C113.792 35.1388 113.601 35.0778 113.455 34.9505C113.31 34.8259 113.238 34.6325 113.238 34.3679V25.0783ZM117.514 23.7374C116.856 23.7374 116.253 23.5338 115.714 23.1267C115.173 22.7196 114.711 22.2336 114.328 21.6662C114.303 21.6255 114.28 21.5746 114.259 21.5085C114.239 21.4423 114.282 21.3711 114.387 21.2922L114.762 20.9564C114.882 20.8902 114.961 20.8673 115 20.8877C115.038 20.908 115.104 20.9564 115.199 21.0352C115.582 21.4551 115.98 21.7858 116.396 22.0225C116.812 22.2591 117.21 22.3787 117.593 22.3787C117.884 22.3787 118.219 22.2896 118.602 22.1115C118.985 21.9334 119.447 21.5568 119.988 20.9767C120.093 20.8851 120.167 20.8419 120.205 20.8495C120.246 20.8571 120.297 20.88 120.363 20.9182L120.759 21.2337C120.863 21.338 120.907 21.4245 120.886 21.4907C120.866 21.5568 120.843 21.6103 120.817 21.6484C120.264 22.399 119.699 22.9334 119.125 23.2565C118.553 23.5771 118.015 23.7374 117.514 23.7374Z" fill="#502981"/>
<path d="M53.0499 55.5915C52.9963 55.6373 52.9044 55.6602 52.7716 55.6602H51.8016C51.6688 55.6602 51.5769 55.6373 51.5233 55.5915C51.4697 55.5457 51.4442 55.4516 51.4442 55.3066V46.8057H48.3783C48.2328 46.8057 48.1383 46.7752 48.0924 46.7166C48.0464 46.6581 48.0234 46.5741 48.0234 46.4673V45.6887C48.0234 45.5691 48.0464 45.475 48.0924 45.4088C48.1383 45.3426 48.2328 45.3096 48.3783 45.3096H56.3328C56.491 45.3096 56.5906 45.3426 56.6289 45.4088C56.6672 45.475 56.6876 45.5691 56.6876 45.6887V46.4673C56.6876 46.5741 56.6672 46.6581 56.6289 46.7166C56.588 46.7777 56.491 46.8057 56.3328 46.8057H53.1265V55.3066C53.129 55.4516 53.1009 55.5457 53.0499 55.5915Z" fill="#502981"/>
<path d="M62.2101 45.0898C62.9632 45.0898 63.6116 45.1942 64.1604 45.4054C64.7067 45.6165 65.156 45.9142 65.5057 46.3035C65.8554 46.6903 66.1158 47.1508 66.2869 47.6851C66.4579 48.2169 66.5447 48.8072 66.5447 49.451C66.5447 49.7665 66.5064 50.0234 66.4273 50.2194C66.3481 50.4178 66.2384 50.5705 66.1005 50.6824C65.9627 50.7944 65.8044 50.8733 65.6257 50.9191C65.447 50.9649 65.2607 50.9878 65.0615 50.9878H59.3637C59.3637 51.6061 59.4505 52.1328 59.6216 52.5653C59.7926 53.0004 60.0224 53.3515 60.3057 53.6212C60.5891 53.8909 60.9209 54.0843 61.2988 54.2039C61.6766 54.3235 62.0824 54.382 62.5215 54.382C62.9581 54.382 63.3895 54.326 63.8132 54.2141C64.237 54.1021 64.5867 53.9749 64.865 53.8299C65.0233 53.7383 65.1483 53.7714 65.2402 53.9291L65.6563 54.7586C65.7482 54.9418 65.7099 55.0741 65.5364 55.153C65.0615 55.443 64.551 55.6364 64.0021 55.7356C63.4558 55.8349 62.9172 55.8832 62.3888 55.8832C61.651 55.8832 60.9873 55.7789 60.4002 55.5677C59.813 55.3565 59.3152 55.0359 58.9068 54.6008C58.4984 54.1657 58.1844 53.6136 57.9674 52.9444C57.7504 52.2727 57.6406 51.4712 57.6406 50.5374C57.6406 49.6698 57.7555 48.8963 57.9878 48.2195C58.2176 47.5427 58.5392 46.9727 58.9476 46.5122C59.3561 46.0516 59.8386 45.7005 60.3925 45.4562C60.9439 45.2094 61.5489 45.0898 62.2101 45.0898ZM64.9211 49.6062C64.9211 49.1991 64.8803 48.8072 64.8012 48.4332C64.722 48.0592 64.5791 47.7309 64.3748 47.446C64.1706 47.1635 63.8924 46.9396 63.5401 46.7742C63.1904 46.6089 62.7487 46.5274 62.2203 46.5274C61.7838 46.5274 61.3958 46.6139 61.0588 46.7844C60.7218 46.9549 60.4359 47.1813 60.2036 47.4638C59.9713 47.7462 59.7901 48.0719 59.6573 48.4408C59.5246 48.8098 59.4454 49.1965 59.4199 49.6036H64.9211V49.6062Z" fill="#502981"/>
<path d="M77.4188 50.4744C77.4188 51.225 77.3218 51.9247 77.1329 52.5761C76.9414 53.2274 76.6581 53.7999 76.2828 54.291C75.9076 54.7846 75.4276 55.1714 74.8482 55.4538C74.2687 55.7362 73.5947 55.8787 72.8289 55.8787C72.4588 55.8787 72.0605 55.8583 71.6317 55.8202C71.2028 55.7795 70.7433 55.6879 70.2557 55.5403V59.3696C70.2557 59.4867 70.2328 59.563 70.1868 59.5961C70.1409 59.6292 70.0643 59.6444 69.9596 59.6444H68.8517C68.747 59.6444 68.6679 59.6266 68.6143 59.5961C68.5607 59.563 68.5352 59.4867 68.5352 59.3696V46.154C68.5352 45.9835 68.6143 45.8716 68.7726 45.8181C69.4312 45.5281 70.1102 45.3347 70.8097 45.2355C71.5091 45.1362 72.1754 45.0879 72.8085 45.0879C73.5999 45.0879 74.2866 45.2227 74.866 45.4924C75.4455 45.7622 75.9254 46.1362 76.3007 46.6171C76.6759 47.098 76.9568 47.6654 77.1406 48.3218C77.3269 48.9808 77.4188 49.6983 77.4188 50.4744ZM75.6165 50.4744C75.6165 49.7543 75.5451 49.1462 75.3996 48.6501C75.2541 48.1539 75.0473 47.7544 74.7767 47.4542C74.5061 47.1539 74.1819 46.9351 73.8066 46.7977C73.4314 46.6603 73.0051 46.5916 72.5302 46.5916C72.1882 46.5916 71.7976 46.6247 71.3636 46.6909C70.9271 46.757 70.5595 46.8486 70.2557 46.9657V54.0289C70.7561 54.174 71.19 54.2681 71.5525 54.3139C71.915 54.3597 72.2494 54.3826 72.5507 54.3826C73 54.3826 73.4109 54.3139 73.7862 54.1765C74.1615 54.0391 74.4857 53.8177 74.7563 53.5099C75.0269 53.202 75.2387 52.8 75.3893 52.3038C75.5425 51.8026 75.6165 51.1945 75.6165 50.4744Z" fill="#502981"/>
<path d="M87.6016 54.6953C87.6016 54.9574 87.502 55.1304 87.3055 55.2093C86.7107 55.4714 86.0699 55.6495 85.3756 55.7411C84.6838 55.8327 84.02 55.8785 83.387 55.8785C82.5292 55.8785 81.8272 55.7894 81.2784 55.6113C80.7295 55.4332 80.2981 55.1915 79.9815 54.8887C79.665 54.5859 79.4429 54.2348 79.3178 53.8404C79.1927 53.4435 79.1289 53.0288 79.1289 52.5937C79.1289 52.1459 79.2055 51.7082 79.3561 51.2782C79.5067 50.8508 79.7543 50.4742 80.099 50.151C80.441 49.8279 80.8878 49.5684 81.4341 49.3699C81.9804 49.1715 82.6518 49.0722 83.4431 49.0722H85.8581V48.6422C85.8581 48.3293 85.8274 48.0494 85.7687 47.8C85.71 47.5532 85.5926 47.3369 85.4215 47.1537C85.2505 46.9705 85.008 46.8306 84.6991 46.7339C84.3902 46.6372 83.9894 46.5863 83.5018 46.5863C83.0398 46.5863 82.5496 46.627 82.0289 46.7059C81.5081 46.7848 81.0818 46.8764 80.7525 46.9833C80.6478 47.024 80.561 47.0367 80.4946 47.024C80.4283 47.0113 80.3823 46.9527 80.3568 46.8459L80.1194 45.9986C80.0939 45.9324 80.0888 45.8714 80.1092 45.8103C80.1296 45.7518 80.1909 45.7009 80.2981 45.6627C80.7984 45.4515 81.3728 45.304 82.0187 45.22C82.6645 45.1335 83.2593 45.0928 83.8005 45.0928C85.1203 45.0928 86.0827 45.3854 86.6903 45.9706C87.2978 46.5558 87.6016 47.4082 87.6016 48.5252V54.6953ZM85.8402 50.5734H83.5452C83.3078 50.5734 83.0347 50.5912 82.7232 50.6218C82.4143 50.6548 82.1208 50.7413 81.8425 50.8787C81.5643 51.0161 81.332 51.2197 81.1405 51.4894C80.949 51.7591 80.8546 52.1306 80.8546 52.6038C80.8546 52.9601 80.921 53.2578 81.0512 53.502C81.1839 53.7463 81.36 53.9371 81.5847 54.0745C81.8093 54.2119 82.0723 54.3111 82.376 54.3697C82.6798 54.4282 83.0091 54.4587 83.3665 54.4587C83.4865 54.4587 83.6397 54.4562 83.8311 54.4485C84.0226 54.4409 84.2345 54.4231 84.4642 54.39C84.694 54.3569 84.9288 54.3188 85.1662 54.2704C85.4037 54.2246 85.6283 54.161 85.8402 54.0822V50.5734Z" fill="#502981"/>
<path d="M91.8368 55.6115C91.7831 55.6446 91.704 55.6598 91.5993 55.6598H90.5119C90.4072 55.6598 90.3281 55.6446 90.2744 55.6115C90.2208 55.5784 90.1953 55.497 90.1953 55.3647V46.1158C90.1953 45.9707 90.254 45.8003 90.374 45.6018C90.494 45.4033 90.711 45.3066 91.0275 45.3066H98.1319C98.4485 45.3066 98.6655 45.4059 98.7854 45.6018C98.9054 45.8003 98.9641 45.9707 98.9641 46.1158V55.3647C98.9641 55.497 98.9412 55.5784 98.8952 55.6115C98.8493 55.6446 98.7676 55.6598 98.6476 55.6598H97.5601C97.4554 55.6598 97.3763 55.6446 97.3227 55.6115C97.2691 55.5784 97.2436 55.497 97.2436 55.3647V46.8053H91.921V55.3647C91.9159 55.497 91.8904 55.5784 91.8368 55.6115Z" fill="#502981"/>
<path d="M101.581 45.6026C101.581 45.4703 101.606 45.3863 101.66 45.3456C101.713 45.3049 101.793 45.2871 101.9 45.2871H102.98C103.1 45.2871 103.184 45.3075 103.23 45.3456C103.276 45.3863 103.299 45.4703 103.299 45.6026V53.2155H103.378C103.694 52.7168 103.98 52.2588 104.236 51.844C104.493 51.4293 104.784 50.9866 105.114 50.5133L108.093 45.9181C108.223 45.6942 108.348 45.5365 108.468 45.4449C108.586 45.3533 108.777 45.3075 109.04 45.3075H109.553C109.778 45.3075 109.964 45.3736 110.115 45.5059C110.265 45.6382 110.342 45.8342 110.342 46.0988V55.3884C110.342 55.508 110.319 55.5818 110.273 55.6148C110.227 55.6479 110.145 55.6632 110.025 55.6632H108.938C108.833 55.6632 108.754 55.6479 108.7 55.6148C108.647 55.5818 108.621 55.5054 108.621 55.3884V47.8544H108.504C108.346 48.091 108.203 48.3124 108.078 48.516C107.952 48.7195 107.827 48.9231 107.702 49.1266C107.577 49.3302 107.447 49.5388 107.317 49.7474C107.184 49.9586 107.039 50.1825 106.88 50.4192L103.794 55.0729C103.648 55.2968 103.508 55.452 103.368 55.536C103.23 55.6225 103.049 55.6632 102.824 55.6632H102.369C102.132 55.6632 101.941 55.6021 101.795 55.4749C101.65 55.3502 101.578 55.1568 101.578 54.8922V45.6026H101.581Z" fill="#502981"/>
<path d="M112.975 45.6026C112.975 45.4703 113.001 45.3863 113.054 45.3456C113.108 45.3049 113.187 45.2871 113.294 45.2871H114.374C114.494 45.2871 114.578 45.3075 114.624 45.3456C114.67 45.3863 114.693 45.4703 114.693 45.6026V53.2155H114.772C115.089 52.7168 115.375 52.2588 115.63 51.844C115.888 51.4293 116.179 50.9866 116.508 50.5133L119.487 45.9181C119.618 45.6942 119.743 45.5365 119.863 45.4449C119.98 45.3533 120.172 45.3075 120.434 45.3075H120.948C121.172 45.3075 121.359 45.3736 121.509 45.5059C121.66 45.6382 121.736 45.8342 121.736 46.0988V55.3884C121.736 55.508 121.713 55.5818 121.667 55.6148C121.621 55.6479 121.54 55.6632 121.42 55.6632H120.332C120.228 55.6632 120.149 55.6479 120.095 55.6148C120.041 55.5818 120.016 55.5054 120.016 55.3884V47.8544H119.898C119.74 48.091 119.597 48.3124 119.472 48.516C119.347 48.7195 119.222 48.9231 119.097 49.1266C118.972 49.3302 118.842 49.5388 118.711 49.7474C118.579 49.9586 118.433 50.1825 118.275 50.4192L115.188 55.0729C115.043 55.2968 114.903 55.452 114.762 55.536C114.624 55.6225 114.443 55.6632 114.218 55.6632H113.764C113.527 55.6632 113.335 55.6021 113.19 55.4749C113.044 55.3502 112.973 55.1568 112.973 54.8922V45.6026H112.975Z" fill="#502981"/>
</svg>
