<svg width="75" height="34" viewBox="0 0 75 34" fill="none" xmlns="http://www.w3.org/2000/svg">
<path d="M17.8765 0.513672L6.11181 16.2496L18.7943 33.4856H25.073L12.2862 16.2705L24.1552 0.513672H17.8765ZM0 33.4856H5.42345V0.513672H0V33.4856Z" fill="#002856"/>
<path d="M69.6188 0.513672H64.1953V5.43376H69.6188V33.4856H75.0005V0.513672H69.6188Z" fill="#002856"/>
<path d="M40.3529 2.97933C42.8143 1.15396 47.5493 0 50.1776 0C54.4434 0 60.8472 1.88831 60.8472 9.27368C60.8472 12.4523 59.0012 14.9596 56.425 16.3338C59.3349 17.7711 61.3166 20.6979 61.3166 24.0969C61.3166 30.9263 55.3925 34 49.7709 34C44.1493 34 41.0412 31.6711 39.8418 30.9053L41.3228 26.2055C44.0867 28.3456 46.6315 29.0484 49.677 29.0484C52.7225 29.0484 55.9661 28.5134 55.9661 23.8451C55.9661 20.8973 54.2035 18.5579 49.5936 18.5579H47.2469V13.9735H49.4267C54.2348 13.9735 55.5176 11.9173 55.5176 9.2527C55.5176 6.5776 53.6716 4.88861 49.6979 4.88861C45.7242 4.88861 43.075 6.9133 42.0112 7.53224L40.3529 2.97933Z" fill="#002856"/>
<path d="M33.781 13.9523V9.31543H29.1711V13.9523H24.582V18.5786H29.1711V23.2155H33.781V18.5786H38.391V13.9523H33.781Z" fill="#FF8300"/>
</svg>
