<svg width="181" height="63" viewBox="0 0 181 63" fill="none" xmlns="http://www.w3.org/2000/svg">
<path d="M85.7052 29.6728C85.6362 29.707 85.5501 29.7241 85.4725 29.7156H84.3868C84.3092 29.7156 84.223 29.6985 84.1541 29.6728C84.0938 29.6472 84.0679 29.5703 84.0679 29.4508V18.8595H77.5018V29.4508C77.5018 29.5703 77.4846 29.6472 77.4415 29.6728C77.3725 29.707 77.2864 29.7241 77.2088 29.7156H76.0886C76.011 29.7156 75.9335 29.6985 75.8646 29.6728C75.8129 29.6472 75.787 29.5703 75.787 29.4508V18.5179C75.7698 18.2189 75.8732 17.92 76.0972 17.6979C76.3126 17.5185 76.597 17.4246 76.89 17.4417H84.6711C84.9727 17.416 85.2657 17.51 85.4897 17.6979C85.6966 17.9285 85.8086 18.2275 85.7827 18.5349V29.4679C85.7827 29.5874 85.7655 29.6643 85.7138 29.6899" fill="#592776"/>
<path d="M91.5378 28.4C92.1841 28.4171 92.8304 28.3061 93.425 28.0669C93.9075 27.8619 94.3298 27.5459 94.6572 27.1444C94.9846 26.7259 95.2173 26.2476 95.3466 25.7351C95.4931 25.1458 95.5878 24.5479 95.6223 23.9414H90.1764C90.0988 23.95 90.0126 23.9244 89.9609 23.8646C89.9265 23.7962 89.9092 23.7279 89.9178 23.651V22.8225C89.9092 22.7456 89.9265 22.6688 89.9609 22.6004C89.9954 22.5577 90.0643 22.5407 90.1764 22.5407H95.6223C95.5792 22.0282 95.4672 21.5242 95.3035 21.0374C95.157 20.6018 94.9157 20.1918 94.6055 19.833C94.2953 19.4914 93.9075 19.2181 93.4681 19.0387C92.951 18.8337 92.3995 18.7312 91.8394 18.7483C91.3397 18.7483 90.8399 18.7995 90.3487 18.885C89.8661 18.9704 89.4008 19.107 88.9528 19.2864C88.858 19.3377 88.7804 19.3462 88.7287 19.312C88.677 19.2779 88.6339 19.2181 88.6167 19.1583L88.2462 18.3554C88.1858 18.2273 88.16 18.1333 88.1858 18.0821C88.2117 18.0223 88.272 17.971 88.3323 17.954C88.9269 17.6635 89.5646 17.4586 90.2194 17.3646C90.7882 17.2792 91.3655 17.2365 91.9428 17.2279C92.727 17.2194 93.4939 17.3475 94.2263 17.6123C94.8899 17.8515 95.4758 18.2444 95.9411 18.7398C96.4323 19.2864 96.8028 19.9355 97.0183 20.6274C97.2768 21.4901 97.3974 22.3784 97.3888 23.2667C97.3888 25.4789 96.9062 27.1274 95.9497 28.2292C94.9846 29.3225 93.6318 29.8777 91.8653 29.8777C91.5723 29.8777 91.2535 29.8777 90.9174 29.8435C90.5727 29.8179 90.2367 29.7837 89.9006 29.7239C89.5473 29.6641 89.2026 29.5787 88.8666 29.4677C88.5305 29.3652 88.2117 29.2285 87.9101 29.0662C87.8498 29.0235 87.7981 28.9637 87.7636 28.8954C87.7377 28.8442 87.7636 28.7502 87.8412 28.605L88.1944 27.8704C88.2203 27.8107 88.2634 27.7509 88.3237 27.7167C88.384 27.6655 88.4874 27.674 88.6167 27.7338C89.0648 27.9217 89.5387 28.0754 90.0126 28.1865C90.521 28.3061 91.0467 28.3658 91.5723 28.3658" fill="#592776"/>
<path d="M102.576 18.8595H98.9482C98.8362 18.8595 98.7673 18.8424 98.7328 18.7997C98.6983 18.7314 98.6811 18.6545 98.6897 18.5777V17.7235C98.6811 17.6552 98.6983 17.5783 98.7328 17.5185C98.7673 17.4673 98.8362 17.4502 98.9482 17.4502H108.074C108.186 17.4502 108.255 17.4758 108.289 17.5185C108.323 17.5783 108.341 17.6552 108.332 17.7235V18.5777C108.341 18.6545 108.323 18.7314 108.289 18.7997C108.255 18.8424 108.186 18.8595 108.074 18.8595H104.334V29.4166C104.334 29.5447 104.308 29.6301 104.256 29.6729C104.179 29.7156 104.093 29.7326 103.998 29.7326H102.929C102.834 29.7412 102.74 29.7156 102.654 29.6729C102.602 29.6387 102.567 29.5533 102.567 29.4166L102.576 18.8595Z" fill="#592776"/>
<path d="M79.6548 34.4728H76.0271C75.9151 34.4728 75.8375 34.4472 75.8117 34.413C75.7686 34.3447 75.76 34.2763 75.76 34.1995V33.3368C75.7513 33.2685 75.7686 33.1916 75.8117 33.1318C75.8461 33.0806 75.9151 33.0635 76.0271 33.0635H85.1439C85.2559 33.0635 85.3248 33.0891 85.3593 33.1318C85.3938 33.1916 85.411 33.2685 85.4024 33.3368V34.1995C85.411 34.2763 85.3938 34.3447 85.3593 34.413C85.299 34.4643 85.2214 34.4899 85.1439 34.4728H81.4041V45.0384C81.4041 45.1666 81.3782 45.2434 81.3265 45.2776C81.249 45.3203 81.1542 45.3374 81.068 45.3288H80.0081C79.9134 45.3374 79.8186 45.3203 79.7324 45.2776C79.6807 45.2434 79.6548 45.1666 79.6548 45.0384V34.4728Z" fill="#592776"/>
<path d="M93.339 39.9483C93.339 39.5981 93.3046 39.2479 93.227 38.9063C93.1581 38.5902 93.0202 38.2913 92.8306 38.0265C92.6238 37.7703 92.3567 37.5653 92.0465 37.4286C91.6501 37.2663 91.2279 37.198 90.797 37.2065C90.4179 37.198 90.0473 37.2834 89.7113 37.4372C89.4011 37.5824 89.1253 37.7873 88.9099 38.0436C88.6859 38.2998 88.5135 38.5988 88.3929 38.9148C88.2636 39.2479 88.1947 39.5896 88.1688 39.9398L93.339 39.9483ZM90.797 35.9253C91.4174 35.9168 92.0465 36.0108 92.6324 36.2072C93.115 36.378 93.5458 36.6514 93.8991 37.0101C94.2352 37.3688 94.4851 37.7873 94.6316 38.24C94.7953 38.7525 94.8815 39.2821 94.8729 39.8116C94.8815 40.0423 94.847 40.2729 94.7608 40.495C94.7005 40.6572 94.5885 40.7939 94.4592 40.9049C94.33 41.0074 94.1749 41.0758 94.0112 41.1185C93.8388 41.1612 93.6579 41.1783 93.4769 41.1783H88.1171C88.1085 41.6566 88.1861 42.1349 88.3584 42.579C88.4963 42.9292 88.7203 43.2538 89.0047 43.5186C89.2718 43.7492 89.5906 43.9286 89.9353 44.0311C90.3058 44.1421 90.7022 44.1934 91.09 44.1934C91.495 44.1934 91.9086 44.1421 92.305 44.0481C92.6497 43.9627 92.9771 43.8517 93.2959 43.7065C93.3993 43.6296 93.5372 43.6467 93.6234 43.7407C93.6406 43.7577 93.6492 43.7748 93.6579 43.7919L94.0456 44.5265C94.1232 44.6888 94.0973 44.8083 93.9336 44.8767C93.4941 45.1329 93.003 45.3037 92.4946 45.3891C91.9948 45.4746 91.4864 45.5173 90.978 45.5258C90.3403 45.5343 89.7113 45.4404 89.1081 45.2439C88.5738 45.0731 88.0913 44.7742 87.7035 44.3898C87.2985 43.9627 86.9969 43.4588 86.816 42.9122C86.5919 42.2203 86.4885 41.4943 86.5058 40.7768C86.4971 40.0764 86.6005 39.3846 86.8332 38.7269C87.0228 38.1717 87.333 37.6507 87.738 37.2065C88.1171 36.8051 88.5824 36.4805 89.0995 36.267C89.6251 36.0364 90.2111 35.9168 90.797 35.9253Z" fill="#592776"/>
<path d="M100.965 40.3839L104.231 45.0901C104.257 45.1414 104.274 45.1926 104.266 45.2439C104.266 45.3037 104.214 45.3378 104.119 45.3378H102.758C102.663 45.3464 102.568 45.3208 102.482 45.278C102.43 45.2353 102.387 45.1841 102.353 45.1328L100.026 41.5882L97.6477 45.1158C97.6047 45.1841 97.553 45.2353 97.4926 45.278C97.4065 45.3208 97.3203 45.3464 97.2169 45.3378H96.0277C95.8382 45.3378 95.7951 45.2439 95.8985 45.0816L99.1385 40.4693L96.3293 36.3951C96.2863 36.3438 96.2776 36.284 96.2949 36.2328C96.2949 36.1644 96.3638 36.1388 96.4586 36.1388H97.6994C97.7942 36.1303 97.889 36.1474 97.9752 36.1986C98.0269 36.2413 98.0786 36.2926 98.1131 36.3438L100.104 39.3589L102.12 36.3438C102.163 36.2926 102.215 36.2413 102.275 36.1986C102.344 36.1559 102.43 36.1388 102.508 36.1388H103.723C103.835 36.1388 103.895 36.1644 103.904 36.2242C103.912 36.2755 103.904 36.3267 103.878 36.3694L100.965 40.3839Z" fill="#592776"/>
<path d="M107.171 45.269C107.094 45.3203 106.999 45.3374 106.896 45.3288H105.999C105.905 45.3374 105.81 45.3118 105.724 45.269C105.663 45.2263 105.629 45.1409 105.629 45.0128V36.4288C105.629 36.3006 105.655 36.2152 105.724 36.1725C105.81 36.1384 105.905 36.1213 105.999 36.1213H106.896C106.99 36.1127 107.085 36.1298 107.171 36.1725C107.223 36.2067 107.249 36.2921 107.249 36.4288V39.7428H112.066V36.4288C112.066 36.3006 112.092 36.2152 112.152 36.1725C112.238 36.1298 112.333 36.1127 112.428 36.1213H113.35C113.445 36.1127 113.539 36.1298 113.625 36.1725C113.669 36.2067 113.694 36.2921 113.694 36.4288V45.0299C113.712 45.1238 113.686 45.2093 113.625 45.2861C113.548 45.3374 113.445 45.3545 113.35 45.3459H112.428C112.333 45.3545 112.238 45.3288 112.152 45.2861C112.083 45.2178 112.049 45.1238 112.066 45.0299V41.0496H107.249V45.0299C107.266 45.1238 107.232 45.2178 107.171 45.2861" fill="#592776"/>
<path d="M122.811 40.7333C122.811 40.2892 122.776 39.845 122.699 39.4009C122.639 39.008 122.501 38.6236 122.294 38.282C122.096 37.9659 121.811 37.7012 121.475 37.5132C121.062 37.2997 120.605 37.1972 120.131 37.2143C119.7 37.2058 119.278 37.2997 118.899 37.4962C118.554 37.6841 118.261 37.9489 118.046 38.2649C117.813 38.598 117.641 38.9738 117.546 39.3667C117.434 39.8023 117.374 40.255 117.374 40.6992C117.374 41.186 117.417 41.6643 117.503 42.1427C117.572 42.5441 117.727 42.9199 117.951 43.2701C118.158 43.5776 118.442 43.8253 118.778 43.9961C119.183 44.184 119.623 44.2694 120.071 44.2524C120.527 44.2694 120.984 44.1669 121.38 43.9534C121.725 43.757 122.018 43.4922 122.225 43.1591C122.44 42.8174 122.595 42.4331 122.673 42.0402C122.759 41.6131 122.802 41.1775 122.802 40.7419L122.811 40.7333ZM124.431 40.6821C124.431 42.2451 124.06 43.4495 123.311 44.2694C122.561 45.0894 121.475 45.5165 120.045 45.5165C118.614 45.5165 117.58 45.1065 116.848 44.3036C116.116 43.4922 115.762 42.3049 115.762 40.7248C115.754 40.0244 115.857 39.3326 116.09 38.6749C116.279 38.1197 116.589 37.6072 116.994 37.1631C117.374 36.7616 117.848 36.4456 118.373 36.2406C118.916 36.0271 119.511 35.916 120.105 35.916C121.518 35.916 122.587 36.3345 123.328 37.1801C124.06 38.0343 124.431 39.1959 124.431 40.6821Z" fill="#592776"/>
<path d="M127.798 36.9929C127.781 36.7452 127.884 36.4975 128.074 36.3267C128.263 36.1815 128.505 36.1131 128.746 36.1217H133.545C133.813 36.0875 134.08 36.1729 134.269 36.3438C134.407 36.5317 134.476 36.7623 134.459 36.9929V45.0645C134.459 45.184 134.433 45.2524 134.381 45.2865C134.295 45.3207 134.2 45.3378 134.106 45.3292H133.184C133.097 45.3378 133.011 45.3207 132.934 45.2865C132.882 45.2609 132.856 45.184 132.856 45.0645V37.4456H129.271L129.159 38.761C129.056 39.9311 128.953 40.9048 128.841 41.6992C128.763 42.3654 128.599 43.0231 128.349 43.6551C128.177 44.1164 127.893 44.5264 127.505 44.8595C127.091 45.167 126.626 45.3976 126.118 45.5428C126.04 45.5599 125.954 45.5769 125.868 45.594C125.782 45.6111 125.704 45.5599 125.67 45.4317L125.428 44.7313C125.368 44.5691 125.428 44.4324 125.652 44.347C125.962 44.2189 126.238 44.048 126.48 43.8345C126.729 43.5783 126.91 43.2793 127.022 42.9547C127.195 42.4508 127.315 41.9383 127.384 41.4173C127.47 40.7767 127.565 39.9311 127.66 38.8891L127.798 36.9929Z" fill="#592776"/>
<path d="M143.533 40.7333C143.533 40.2892 143.498 39.845 143.421 39.4094C143.36 39.0165 143.214 38.6322 143.007 38.2905C142.809 37.9745 142.525 37.7097 142.189 37.5218C141.775 37.3083 141.318 37.2058 140.853 37.2228C140.422 37.2143 140 37.3083 139.621 37.5047C139.276 37.6926 138.983 37.9574 138.768 38.2734C138.535 38.6065 138.363 38.9824 138.268 39.3753C138.156 39.8109 138.095 40.2636 138.095 40.7077C138.087 41.1946 138.139 41.6814 138.225 42.1512C138.294 42.5526 138.44 42.9285 138.664 43.2786C138.862 43.5861 139.147 43.8338 139.483 44.0047C139.888 44.1926 140.327 44.278 140.775 44.2609C141.232 44.278 141.689 44.1755 142.094 43.962C142.438 43.7655 142.731 43.4922 142.947 43.1762C143.162 42.826 143.309 42.4501 143.386 42.0487C143.472 41.6216 143.524 41.186 143.516 40.7504L143.533 40.7333ZM145.161 40.6821C145.161 42.2451 144.782 43.4495 144.041 44.2694C143.292 45.0894 142.206 45.5165 140.775 45.5165C139.345 45.5165 138.311 45.1065 137.578 44.3036C136.846 43.4922 136.493 42.3049 136.493 40.7248C136.484 40.0244 136.587 39.3326 136.82 38.6749C137.01 38.1197 137.32 37.6072 137.734 37.1631C138.113 36.7531 138.587 36.437 139.112 36.2406C139.655 36.0271 140.25 35.916 140.844 35.916C142.249 35.916 143.326 36.3345 144.067 37.1801C144.799 38.0343 145.17 39.1959 145.161 40.6821Z" fill="#592776"/>
<path d="M154.004 37.4537H150.385L149.937 40.3578C149.842 40.9898 149.756 41.5108 149.687 41.9208C149.618 42.3308 149.549 42.6725 149.481 42.9458C149.429 43.1764 149.351 43.3899 149.248 43.6035C149.162 43.7743 149.067 43.9366 148.955 44.0903H154.013L154.004 37.4537ZM147.197 44.0903C147.507 43.7572 147.74 43.3728 147.886 42.9458C148.059 42.3906 148.188 41.8269 148.274 41.2631L148.964 36.9668C148.972 36.7191 149.093 36.48 149.3 36.3177C149.541 36.1725 149.825 36.1127 150.118 36.1298H154.72C155.133 36.1298 155.375 36.2067 155.478 36.3604C155.581 36.5483 155.633 36.7533 155.624 36.9668V44.1074L156.167 44.1416C156.443 44.1672 156.59 44.2441 156.641 44.3807C156.693 44.4918 156.719 44.6199 156.71 44.7395L156.503 47.84C156.503 47.9937 156.434 48.0706 156.297 48.0706H155.271C155.159 48.0706 155.099 47.9937 155.09 47.84L154.97 45.3288H147.938L147.749 47.8912C147.757 47.951 147.731 48.0108 147.688 48.0535C147.645 48.0791 147.593 48.0962 147.55 48.0962H146.525C146.482 48.0962 146.439 48.0877 146.404 48.062C146.361 48.0108 146.344 47.951 146.335 47.8912L146.137 44.748C146.12 44.6113 146.154 44.4747 146.232 44.3551C146.344 44.2184 146.525 44.133 146.714 44.1416L147.197 44.0903Z" fill="#592776"/>
<path d="M163.629 41.0155H162.19C161.81 41.0155 161.431 41.118 161.104 41.2974C160.733 41.5109 160.475 41.8526 160.38 42.2455L159.441 45.1495C159.432 45.2264 159.38 45.2862 159.311 45.3203C159.26 45.3374 159.199 45.346 159.148 45.346H158.062C157.924 45.346 157.847 45.3118 157.829 45.2435C157.812 45.1837 157.812 45.1154 157.829 45.0556L158.777 42.0148C158.889 41.6646 159.053 41.3315 159.26 41.024C159.51 40.6995 159.872 40.4774 160.285 40.3834L160.268 40.3493C159.94 40.2212 159.673 39.9991 159.484 39.7172C159.286 39.4097 159.148 39.0681 159.053 38.7179L158.346 36.4203C158.329 36.3605 158.338 36.2921 158.364 36.2409C158.389 36.1726 158.458 36.1469 158.57 36.1469H159.57C159.63 36.1469 159.691 36.1555 159.751 36.1811C159.82 36.2153 159.863 36.2836 159.872 36.3519L160.595 38.5471C160.664 38.7777 160.768 38.9997 160.914 39.1962C161.026 39.3499 161.173 39.4781 161.336 39.5806C161.492 39.6745 161.655 39.7343 161.836 39.7599C162.017 39.7856 162.198 39.8026 162.379 39.8026H163.629V36.3861C163.629 36.2665 163.654 36.1982 163.697 36.164C163.766 36.1299 163.853 36.1128 163.93 36.1213H164.947C165.025 36.1128 165.102 36.1299 165.18 36.164C165.231 36.1982 165.257 36.2665 165.257 36.3861V39.7941H166.498C166.679 39.7941 166.86 39.777 167.041 39.7514C167.222 39.7258 167.394 39.6574 167.541 39.572C167.704 39.4695 167.851 39.3329 167.972 39.1877C168.118 38.9912 168.23 38.7691 168.299 38.5385L169.006 36.3434C169.023 36.2751 169.066 36.2067 169.126 36.1726C169.187 36.1555 169.247 36.1384 169.307 36.1384H170.307C170.427 36.1384 170.488 36.164 170.505 36.2324C170.522 36.2921 170.522 36.3519 170.505 36.4117L169.816 38.7093C169.721 39.0595 169.574 39.4012 169.376 39.7087C169.187 39.9905 168.919 40.2041 168.609 40.3407L168.592 40.3749C168.799 40.4347 169.006 40.5201 169.187 40.6311C169.35 40.7336 169.488 40.8532 169.609 40.9984C169.721 41.1436 169.807 41.2974 169.884 41.4597C169.962 41.6305 170.031 41.8098 170.091 41.9978L171.022 45.0385C171.031 45.0983 171.031 45.1666 171.022 45.2264C171.022 45.2947 170.944 45.3289 170.807 45.3289H169.721C169.669 45.3289 169.609 45.3203 169.557 45.3033C169.488 45.2862 169.454 45.2264 169.428 45.1324L168.514 42.2369C168.42 41.8526 168.17 41.5194 167.825 41.2974C167.489 41.118 167.118 41.024 166.739 41.0155H165.292V45.0641C165.292 45.1837 165.266 45.252 165.214 45.2862C165.145 45.3203 165.068 45.3374 164.981 45.3289H163.965C163.887 45.3374 163.801 45.3203 163.732 45.2862C163.689 45.2606 163.663 45.1837 163.663 45.0641L163.629 41.0155Z" fill="#592776"/>
<path d="M172.744 36.3865C172.735 36.3011 172.761 36.2157 172.821 36.1559C172.89 36.1218 172.968 36.1047 173.045 36.1047H174.062C174.148 36.0961 174.226 36.1132 174.303 36.1559C174.355 36.2243 174.381 36.3011 174.372 36.3865V43.1598H174.441L175.26 41.9384C175.501 41.5711 175.777 41.1697 176.079 40.7512L178.888 36.6684C178.974 36.5061 179.095 36.3609 179.241 36.2499C179.405 36.1559 179.594 36.1132 179.784 36.1303H180.266C180.456 36.1218 180.646 36.1815 180.801 36.3011C180.947 36.4378 181.025 36.6257 181.016 36.8136V45.0816C181.025 45.1585 180.999 45.2268 180.947 45.2781C180.878 45.3122 180.792 45.3293 180.715 45.3208H179.689C179.612 45.3208 179.534 45.3122 179.465 45.2781C179.413 45.2525 179.388 45.1841 179.388 45.0816V38.3938H179.275C179.12 38.6073 179 38.7952 178.87 38.9831C178.741 39.1625 178.638 39.3418 178.517 39.5298C178.397 39.7091 178.276 39.897 178.155 40.0849C178.035 40.2728 177.88 40.4778 177.742 40.6828L174.838 44.8168C174.734 44.9791 174.605 45.1243 174.441 45.2268C174.286 45.3037 174.105 45.3464 173.924 45.3379H173.493C173.295 45.3464 173.106 45.2866 172.951 45.167C172.804 45.0304 172.735 44.8425 172.752 44.6546V36.3865H172.744Z" fill="#592776"/>
<path d="M19.7851 31.3984C19.7851 33.0554 18.3633 34.3964 16.6055 34.3964C14.8476 34.3964 13.4258 33.0554 13.4258 31.3984C13.4258 29.7499 14.8476 28.4089 16.5968 28.4004C18.3633 28.4004 19.7851 29.7414 19.7851 31.3984Z" fill="#ACD2E0"/>
<path d="M12.2362 26.0686C11.9002 27.273 10.5904 27.9819 9.31507 27.6659C8.03976 27.3498 7.28146 26.1113 7.62614 24.9155C7.9622 23.7112 9.27199 23.0023 10.5473 23.3183C11.814 23.6429 12.5723 24.8728 12.2362 26.0686Z" fill="#7194C8"/>
<path d="M3.18829 31.3978C3.18829 32.2263 2.48169 32.9011 1.60276 32.9011C0.715211 32.9011 0 32.2263 0 31.3978C0 30.5693 0.706594 29.8945 1.58553 29.8945C2.47308 29.8945 3.17967 30.5693 3.18829 31.3978Z" fill="#572675"/>
<path d="M12.2367 36.7197C12.5814 37.9155 11.8403 39.154 10.565 39.4871C9.28966 39.8202 7.97988 39.1113 7.6352 37.9155C7.29052 36.7197 8.03158 35.4812 9.3069 35.1481H9.31551C10.5822 34.8235 11.892 35.5324 12.2367 36.7197C12.2367 36.7282 12.2367 36.7282 12.2367 36.7368Z" fill="#7194C8"/>
<path d="M7.2208 45.5933C7.66027 46.3107 7.40176 47.2247 6.64346 47.6432C5.88517 48.0617 4.91144 47.814 4.47198 47.0965C4.03251 46.3791 4.29102 45.4652 5.04932 45.0466C5.80761 44.6366 6.78133 44.8758 7.2208 45.5933Z" fill="#592776"/>
<path d="M17.8797 45.9443C18.8104 46.8241 18.8104 48.242 17.8797 49.1217C16.9491 50.0015 15.4411 50.0015 14.5105 49.1217C13.5798 48.242 13.5798 46.8241 14.5105 45.9529C15.4325 45.0731 16.9319 45.0731 17.8625 45.9443C17.8711 45.9358 17.8711 45.9443 17.8797 45.9443Z" fill="#7194C8"/>
<path d="M18.2489 55.9889C19.0072 56.4074 19.2657 57.3213 18.8263 58.0388C18.3868 58.7563 17.4131 58.9955 16.6548 58.5769C15.8965 58.1584 15.638 57.253 16.0774 56.5355C16.5083 55.8181 17.482 55.5704 18.2489 55.9889C18.2403 55.9889 18.2403 55.9889 18.2489 55.9889Z" fill="#592776"/>
<path d="M27.6615 51.2646C28.9369 51.5892 29.6865 52.8192 29.3505 54.0149C29.0144 55.2107 27.7046 55.9282 26.4293 55.6036C25.154 55.2791 24.4043 54.0491 24.7404 52.8533C25.0851 51.6575 26.3948 50.9486 27.6615 51.2646Z" fill="#7194C8"/>
<path d="M33.3122 59.7891C34.1911 59.7891 34.9063 60.4553 34.9063 61.2838C34.9063 62.1123 34.1997 62.7871 33.3208 62.7871C32.4418 62.7871 31.7266 62.1208 31.7266 61.2923C31.718 60.4638 32.4246 59.7976 33.3122 59.7891Z" fill="#592776"/>
<path d="M38.9667 51.2652C40.2334 50.9407 41.5431 51.6496 41.8878 52.8454C42.2325 54.0412 41.4828 55.2797 40.2075 55.6042C38.9408 55.9288 37.631 55.2199 37.2863 54.0241C37.2863 54.0241 37.2863 54.0241 37.2863 54.0155C36.9417 52.8198 37.7 51.5898 38.9667 51.2652C38.9753 51.2652 38.9753 51.2652 38.9839 51.2652Z" fill="#7194C8"/>
<path d="M48.3754 55.9881C49.1337 55.5781 50.1074 55.8258 50.5468 56.5348C50.9863 57.2522 50.7192 58.1662 49.9609 58.5762C49.2026 58.9861 48.2375 58.747 47.798 58.0295C47.3499 57.3206 47.6084 56.4067 48.3754 55.9881Z" fill="#592776"/>
<path d="M48.7384 45.944C49.669 45.0642 51.177 45.0642 52.1076 45.944C53.0383 46.8238 53.0383 48.2416 52.1076 49.1214C51.177 50.0011 49.669 50.0011 48.7384 49.1214C47.8164 48.2416 47.8164 46.8238 48.7384 45.944Z" fill="#7194C8"/>
<path d="M59.4055 45.5937C59.845 44.8762 60.8187 44.637 61.577 45.0556C62.3353 45.4741 62.5938 46.388 62.1543 47.1055C61.7148 47.8144 60.7497 48.0621 59.9828 47.6521C59.2245 47.2336 58.9574 46.3197 59.4055 45.5937C59.4055 45.5937 59.3969 45.6022 59.4055 45.5937Z" fill="#592776"/>
<path d="M54.3922 36.7193C54.7282 35.5149 56.038 34.806 57.3133 35.122C58.5886 35.4381 59.3469 36.6765 59.0023 37.8723C58.6662 39.0767 57.3564 39.7856 56.0811 39.4696C54.8144 39.1535 54.0561 37.9236 54.3922 36.7193Z" fill="#7194C8"/>
<path d="M63.4375 31.3978C63.4375 30.5693 64.1441 29.8945 65.023 29.8945C65.902 29.8945 66.6172 30.5608 66.6172 31.3893C66.6172 32.2178 65.9106 32.8925 65.0316 32.8925C64.1527 32.8925 63.4375 32.2263 63.4375 31.3978Z" fill="#592776"/>
<path d="M54.3918 26.0684C54.0471 24.8641 54.8054 23.6341 56.0807 23.3095C57.356 22.985 58.6658 23.7024 59.0019 24.8982C59.3465 26.1026 58.5882 27.3325 57.3129 27.6571C56.0462 27.9817 54.7364 27.2727 54.3918 26.0684Z" fill="#7194C8"/>
<path d="M59.4073 17.1855C58.9678 16.468 59.235 15.5541 59.9933 15.1441C60.7515 14.7341 61.7253 14.9818 62.1647 15.6993C62.6042 16.4167 62.3457 17.3307 61.5874 17.7406C60.8377 18.1592 59.864 17.92 59.4245 17.2111C59.4159 17.2025 59.4073 17.194 59.4073 17.1855Z" fill="#592776"/>
<path d="M48.737 16.8518C47.8064 15.9721 47.8064 14.5457 48.737 13.6745C49.6677 12.7947 51.1843 12.7947 52.1149 13.6745C53.0455 14.5542 53.0455 15.9806 52.1149 16.8518C51.1843 17.7231 49.6763 17.7231 48.737 16.8518Z" fill="#7194C8"/>
<path d="M48.3774 6.79847C47.6191 6.37994 47.3606 5.46602 47.8001 4.74855C48.2396 4.03108 49.2133 3.79192 49.9716 4.2019C50.7299 4.61189 50.9884 5.52581 50.5575 6.24328C50.1181 6.9693 49.1444 7.21699 48.3774 6.79847C48.3774 6.80701 48.3774 6.80701 48.3774 6.79847Z" fill="#592776"/>
<path d="M38.9647 11.5223C37.6894 11.2063 36.9311 9.97632 37.2671 8.77199C37.6032 7.56766 38.913 6.85873 40.1883 7.17476C41.4636 7.49079 42.2219 8.72074 41.8858 9.92507C41.5412 11.1294 40.2314 11.8383 38.9647 11.5223Z" fill="#7194C8"/>
<path d="M33.3121 2.99801C32.4332 2.99801 31.7266 2.32324 31.7266 1.49473C31.7266 0.666224 32.4418 0 33.3207 0C34.1996 0 34.9062 0.674766 34.9062 1.50328C34.8976 2.33179 34.191 2.99801 33.3121 2.99801Z" fill="#592776"/>
<path d="M27.6606 11.5223C26.3853 11.8469 25.0755 11.1294 24.7394 9.93363C24.3947 8.73784 25.153 7.49935 26.4284 7.17478C27.7037 6.85021 29.0048 7.56768 29.3495 8.76347C29.6942 9.9678 28.9359 11.1977 27.6606 11.5223Z" fill="#7194C8"/>
<path d="M18.2507 6.79856C17.4924 7.20855 16.5186 6.96085 16.0792 6.24337C15.6397 5.5259 15.9068 4.61198 16.6651 4.20199C17.4234 3.79201 18.3885 4.03971 18.828 4.74864C19.2675 5.45757 19.0176 6.38004 18.2593 6.79002C18.2593 6.79856 18.2507 6.79856 18.2507 6.79856Z" fill="#592776"/>
<path d="M17.8797 16.8523C16.9491 17.732 15.4411 17.732 14.5105 16.8523C13.5798 15.9725 13.5798 14.5547 14.5105 13.6749C15.4411 12.8037 16.9491 12.8037 17.8797 13.6749C18.8104 14.5461 18.8104 15.964 17.8797 16.8523C17.8797 16.8523 17.8797 16.8437 17.8797 16.8523Z" fill="#7194C8"/>
<path d="M7.2208 17.1853C6.78133 17.9027 5.80761 18.1419 5.04932 17.7234C4.29102 17.3048 4.03251 16.3909 4.47198 15.6734C4.91144 14.9645 5.87655 14.7168 6.64346 15.1268C7.40176 15.5539 7.66027 16.4678 7.2208 17.1853Z" fill="#592776"/>
<path d="M21.6016 37.7698C22.4719 39.2047 21.9462 41.0325 20.4296 41.8611C18.9044 42.681 16.9656 42.1942 16.0867 40.7592C15.2164 39.3328 15.7334 37.505 17.2414 36.6765C18.7579 35.848 20.7054 36.3348 21.5929 37.7612C21.5929 37.7612 21.5929 37.7698 21.6016 37.7698Z" fill="#ACD2E0"/>
<path d="M26.5476 42.4338C28.0642 43.2623 28.5813 45.0987 27.6937 46.5336C26.8062 47.96 24.8673 48.4469 23.3507 47.6183C21.8428 46.7898 21.3257 44.962 22.1961 43.5356C23.075 42.1006 25.0224 41.6052 26.539 42.4338H26.5476Z" fill="#ACD2E0"/>
<path d="M33.3125 44.1416C35.0703 44.1416 36.4922 45.4826 36.5008 47.1396C36.5008 48.7966 35.079 50.1376 33.3211 50.1376C31.5632 50.1376 30.1414 48.7966 30.1328 47.1396V47.1311C30.1328 45.4826 31.5546 44.1416 33.3125 44.1416Z" fill="#ACD2E0"/>
<path d="M40.0684 42.4333C41.585 41.6048 43.5324 42.0916 44.4113 43.518C45.2903 44.9445 44.7819 46.7808 43.2653 47.6179C41.7487 48.4464 39.8012 47.9595 38.9223 46.5331C38.9223 46.5331 38.9223 46.5331 38.9223 46.5246C38.052 45.0897 38.569 43.2618 40.0856 42.4333" fill="#ACD2E0"/>
<path d="M45.022 37.77C45.9096 36.3436 47.8484 35.8567 49.365 36.6853C50.8816 37.5138 51.3986 39.3502 50.511 40.7851C49.6321 42.2115 47.6933 42.6984 46.1767 41.8784C44.6601 41.0499 44.1345 39.2135 45.022 37.77C45.0134 37.77 45.0134 37.7785 45.022 37.77Z" fill="#ACD2E0"/>
<path d="M46.832 31.3977C46.832 29.7407 48.2538 28.3997 50.0117 28.4082C51.7696 28.4082 53.1914 29.7492 53.1914 31.4063C53.1914 33.0633 51.7696 34.3957 50.0117 34.3957C48.2538 34.3957 46.832 33.0547 46.832 31.3977Z" fill="#ACD2E0"/>
<path d="M33.3152 36.5656C30.2907 36.5656 27.8348 34.2508 27.8348 31.398C27.8348 28.5452 30.2907 26.2305 33.3152 26.2391C36.3398 26.2391 38.7957 28.5538 38.7957 31.398C38.7957 34.2423 36.3484 36.557 33.3152 36.5656ZM33.3152 21.1484C27.3178 21.1484 22.4492 25.7351 22.4492 31.3895C22.4492 37.0439 27.3092 41.6306 33.3152 41.6391C39.3127 41.6391 44.1813 37.0524 44.1813 31.398V31.3895C44.1727 25.7351 39.3127 21.157 33.3152 21.1484Z" fill="#EEB033"/>
<path d="M45.0256 25.0173C44.1553 23.5824 44.6809 21.7546 46.1975 20.926C47.7227 20.1061 49.6615 20.5929 50.5405 22.0279C51.4108 23.4543 50.8938 25.2821 49.3858 26.1106C47.8692 26.9391 45.9218 26.4523 45.0342 25.0259C45.0256 25.0259 45.0256 25.0259 45.0256 25.0173Z" fill="#ACD2E0"/>
<path d="M40.0791 20.354C38.5625 19.5255 38.0455 17.6891 38.9244 16.2542C39.8034 14.8192 41.7508 14.3324 43.276 15.1694C44.7926 15.998 45.3096 17.8258 44.4393 19.2607C43.5517 20.6957 41.5957 21.1911 40.0791 20.354Z" fill="#ACD2E0"/>
<path d="M33.3125 18.6457C31.5546 18.6457 30.1328 17.3047 30.1328 15.6477C30.1328 13.9907 31.5546 12.6497 33.3125 12.6582C35.0617 12.6582 36.4835 13.9992 36.4922 15.6477C36.4922 17.3047 35.079 18.6457 33.3211 18.6457C33.3211 18.6457 33.3125 18.6457 33.3125 18.6457Z" fill="#ACD2E0"/>
<path d="M26.5501 20.3539C25.0248 21.1824 23.086 20.687 22.2071 19.252C21.3282 17.8171 21.8538 15.9807 23.379 15.1607C24.8956 14.3408 26.8344 14.8276 27.7133 16.254C28.5923 17.6804 28.0839 19.5168 26.5673 20.3539C26.5587 20.3539 26.5587 20.3539 26.5501 20.3539Z" fill="#ACD2E0"/>
<path d="M21.6031 25.0172C20.7155 26.4436 18.7767 26.9304 17.2601 26.1019C15.7435 25.2734 15.2265 23.437 16.1141 22.0021C16.993 20.5757 18.9318 20.0888 20.4484 20.9088C21.9736 21.7287 22.4993 23.5651 21.6203 24.9915C21.6031 25.0086 21.6031 25.0172 21.6031 25.0172Z" fill="#ACD2E0"/>
</svg>
