<svg width="38" height="38" viewBox="0 0 38 38" fill="none" xmlns="http://www.w3.org/2000/svg">
<path d="M36.7276 37.4989H1.2708C0.845056 37.4989 0.5 37.1541 0.5 36.7281V8.97932C0.5 8.6722 0.682163 8.3943 0.963682 8.27235L18.6921 0.56436C18.8884 0.478547 19.1109 0.478547 19.3066 0.56436L37.035 8.27235C37.3162 8.39429 37.4984 8.6722 37.4984 8.97932V36.7281C37.4984 37.1541 37.1533 37.4989 36.7276 37.4989ZM2.0416 35.9573H35.9568V9.48419L18.9992 2.11189L2.0416 9.48419V35.9573Z" fill="#0E3FB5"/>
<path d="M15.1454 37.4976H5.8958C5.47006 37.4976 5.125 37.1529 5.125 36.7268V21.3108C5.125 20.8848 5.47006 20.54 5.8958 20.54H15.1454C15.5711 20.54 15.9162 20.8848 15.9162 21.3108V36.7268C15.9162 37.1529 15.5711 37.4976 15.1454 37.4976ZM6.6666 35.956H14.3746V22.0816H6.6666V35.956Z" fill="#0E3FB5"/>
<path d="M30.5594 31.3312H21.3099C20.8841 31.3312 20.5391 30.9865 20.5391 30.5604V21.3108C20.5391 20.8848 20.8841 20.54 21.3099 20.54H30.5594C30.9852 20.54 31.3302 20.8848 31.3302 21.3108V30.5604C31.3302 30.9865 30.9852 31.3312 30.5594 31.3312ZM22.0807 29.7896H29.7887V22.0816H22.0807V29.7896Z" fill="#0E3FB5"/>
<path d="M18.2298 15.1461C17.804 15.1461 17.459 14.8013 17.459 14.3753V6.66728C17.459 6.24124 17.804 5.89648 18.2298 5.89648C18.6555 5.89648 19.0006 6.24124 19.0006 6.66728V14.3753C19.0006 14.8013 18.6555 15.1461 18.2298 15.1461Z" fill="#0E3FB5"/>
<path d="M22.0804 11.2916H14.3724C13.9466 11.2916 13.6016 10.9468 13.6016 10.5208C13.6016 10.0948 13.9466 9.75 14.3724 9.75H22.0804C22.5061 9.75 22.8512 10.0948 22.8512 10.5208C22.8512 10.9468 22.5061 11.2916 22.0804 11.2916Z" fill="#0E3FB5"/>
</svg>
