<svg width="38" height="49" viewBox="0 0 38 49" fill="none" xmlns="http://www.w3.org/2000/svg">
<path d="M22.1757 4.57008H30.2809C32.018 4.57008 33.4393 5.82747 33.4393 7.36377V27.9456C33.4393 34.0954 27.7523 39.125 20.798 39.125H13.6414C6.68776 39.125 1 34.0954 1 27.9456V7.36377C1 5.82747 2.42137 4.57008 4.15995 4.57008H12.5648" stroke="#0E3FB5" stroke-width="1.3" stroke-miterlimit="22.926" stroke-linecap="round" stroke-linejoin="round"/>
<path d="M37.1107 48.001H22.6671C19.5225 48.001 16.9434 45.4249 16.9434 42.2764V39.4881" stroke="#0E3FB5" stroke-width="1.3" stroke-miterlimit="22.926" stroke-linecap="round" stroke-linejoin="round"/>
<path d="M17.2207 1.00016C19.0145 1.00016 20.4688 2.45372 20.4688 4.24901C20.4688 6.042 19.0145 7.49707 17.2207 7.49707C15.427 7.49707 13.9727 6.042 13.9727 4.24901C13.9727 2.45372 15.427 1.00016 17.2207 1.00016Z" stroke="#0E3FB5" stroke-width="1.3" stroke-miterlimit="22.926" stroke-linecap="round" stroke-linejoin="round"/>
<path d="M33.4401 16.6779C15.3087 22.2324 17.2204 8.58572 1 16.6779" stroke="#0E3FB5" stroke-width="1.3" stroke-miterlimit="22.926" stroke-linecap="round" stroke-linejoin="round"/>
<path d="M19.9897 23.0664H13.9824" stroke="#0E3FB5" stroke-width="1.3" stroke-miterlimit="22.926" stroke-linecap="round" stroke-linejoin="round"/>
<path d="M19.9897 28.2568H13.9824" stroke="#0E3FB5" stroke-width="1.3" stroke-miterlimit="22.926" stroke-linecap="round" stroke-linejoin="round"/>
<path d="M19.9897 33.4492H13.9824" stroke="#0E3FB5" stroke-width="1.3" stroke-miterlimit="22.926" stroke-linecap="round" stroke-linejoin="round"/>
</svg>
