<svg width="44" height="44" viewBox="0 0 44 44" fill="none" xmlns="http://www.w3.org/2000/svg">
<path d="M22 4.40324V10.7656" stroke="#0E3FB5" stroke-width="1.3" stroke-miterlimit="22.926" stroke-linecap="round" stroke-linejoin="round"/>
<path d="M18.8184 7.58398H25.1807" stroke="#0E3FB5" stroke-width="1.3" stroke-miterlimit="22.926" stroke-linecap="round" stroke-linejoin="round"/>
<path d="M13.1164 9.23242L12.502 3.87608C12.3865 2.86659 17.2073 0.682817 22.0007 0.682817C26.793 0.682817 31.6133 2.86797 31.4978 3.87608L30.8837 9.23242" stroke="#0E3FB5" stroke-width="1.3" stroke-miterlimit="22.926" stroke-linecap="round" stroke-linejoin="round"/>
<path d="M1.70274 43L1 38.1346V37.3016C1 35.4489 3.18201 34.378 5.00391 34.0622C6.66743 33.7733 12.8932 32.6114 14.9077 31.413L15.0305 31.3964C17.7983 42.5601 26.1615 42.5339 28.9692 31.3964L29.0936 31.413C31.1079 32.6114 37.3325 33.7733 38.9947 34.0622C40.8166 34.378 43 35.4502 43 37.3016V38.1346L42.2972 43" stroke="#0E3FB5" stroke-width="1.3" stroke-miterlimit="22.926" stroke-linecap="round" stroke-linejoin="round"/>
<path d="M35.2937 42.998H29.1797" stroke="#0E3FB5" stroke-width="1.3" stroke-miterlimit="22.926" stroke-linecap="round" stroke-linejoin="round"/>
<path d="M29.5973 23.5832C26.9724 32.6155 17.0263 32.6155 14.4015 23.5832L14.2151 23.6115C14.1502 23.6163 14.0869 23.6163 14.0247 23.6129C13.4529 23.6218 12.9554 23.2371 12.5802 22.6613C12.094 21.9504 11.8165 20.9485 11.8265 20.0479C11.8128 18.9288 12.2157 17.9655 13.1964 17.9083C13.8731 17.8683 13.6702 17.0698 13.6702 16.1334C13.6702 14.2565 14.026 13.3063 14.5432 12.9084C15.4237 11.9369 16.897 12.885 17.8732 13.6297C19.2994 14.7199 19.6635 15.3763 21.9999 15.4149C24.3352 15.3763 24.6993 14.7199 26.1258 13.6297C27.1017 12.885 28.575 11.9369 29.4556 12.9084C29.9741 13.3063 30.3282 14.2565 30.3282 16.1334C30.3282 17.0698 30.1268 17.8683 30.802 17.9083C31.783 17.9655 32.1863 18.9288 32.1736 20.0479C32.1822 20.9485 31.9037 21.9504 31.4175 22.6613C31.0434 23.2357 30.547 23.6218 29.9741 23.6129C29.9118 23.6163 29.8485 23.6163 29.7825 23.6115L29.5973 23.5832Z" stroke="#0E3FB5" stroke-width="1.3" stroke-miterlimit="22.926" stroke-linecap="round" stroke-linejoin="round"/>
</svg>
