<svg width="49" height="49" viewBox="0 0 49 49" fill="none" xmlns="http://www.w3.org/2000/svg">
<path d="M5.94313 0.999999H42.4954C45.214 0.999999 47.4385 3.22433 47.4385 5.94287V31.0205C47.4385 33.7406 45.214 35.9642 42.4954 35.9642H30.3819L24.2186 48L18.0567 35.9642H5.94313C3.22452 35.9642 1 33.7406 1 31.0205V5.94287C1 3.22433 3.22452 0.999999 5.94313 0.999999Z" stroke="#0E3FB5" stroke-width="1.3" stroke-miterlimit="22.926" stroke-linecap="round" stroke-linejoin="round"/>
<path d="M16.7793 13.7825V29.3691H31.8602V20.0827" stroke="#0E3FB5" stroke-width="1.3" stroke-miterlimit="22.926" stroke-linecap="round" stroke-linejoin="round"/>
<path d="M21.5332 18.7905H27.1023V24.3584H21.5332V18.7905Z" stroke="#0E3FB5" stroke-width="1.3" stroke-miterlimit="22.926" stroke-linecap="round" stroke-linejoin="round"/>
<path d="M12.8203 17.5791L12.9222 17.489L12.8203 17.377L24.1176 7.28844L24.2179 7.3793L24.3195 7.28844L35.6155 17.377L35.5136 17.489L35.6155 17.5791" stroke="#0E3FB5" stroke-width="1.3" stroke-miterlimit="22.926" stroke-linecap="round" stroke-linejoin="round"/>
</svg>
