<svg width="48" height="48" viewBox="0 0 48 48" fill="none" xmlns="http://www.w3.org/2000/svg">
<path d="M2.54336 11.0353H45.4563C46.3051 11.0353 47 11.7286 47 12.5785V41.7529C47 42.6013 46.3051 43.2969 45.4563 43.2969H2.54336C1.6952 43.2969 1 42.6013 1 41.7529V12.5785C1 11.7286 1.6952 11.0353 2.54336 11.0353Z" stroke="#0E3FB5" stroke-width="1.3" stroke-miterlimit="22.926" stroke-linecap="round" stroke-linejoin="round"/>
<path d="M15.125 28.9047V25.4258C15.125 24.6734 15.7398 24.0592 16.4914 24.0592H20.8954V19.6551C20.8954 18.905 21.5102 18.29 22.2618 18.29H25.7396C26.4918 18.29 27.1061 18.905 27.1061 19.6551V24.0592H31.5103C32.2622 24.0592 32.8771 24.6734 32.8771 25.4258V28.9047C32.8771 29.6571 32.2622 30.2713 31.5103 30.2713H27.1061V34.6753C27.1061 35.427 26.4918 36.042 25.7396 36.042H22.2618C21.5102 36.042 20.8954 35.427 20.8954 34.6753V30.2713H16.4914C15.7398 30.2713 15.125 29.6571 15.125 28.9047Z" stroke="#0E3FB5" stroke-width="1.3" stroke-miterlimit="22.926" stroke-linecap="round" stroke-linejoin="round"/>
<path d="M17.0254 10.9512V6.52797C17.0254 5.13827 18.1621 3.99963 19.5519 3.99963H28.4444C29.8348 3.99963 30.9715 5.15977 30.9715 6.52797V10.9512" stroke="#0E3FB5" stroke-width="1.3" stroke-miterlimit="22.926" stroke-linecap="round" stroke-linejoin="round"/>
</svg>
