<svg width="95" height="98" viewBox="0 0 95 98" fill="none" xmlns="http://www.w3.org/2000/svg">
<path d="M47.4962 12.2041C40.2388 12.2017 33.1508 14.4085 27.1662 18.5337C21.1816 22.6589 16.5812 28.509 13.9709 35.3132C11.3607 42.1175 10.8631 49.5566 12.5437 56.6507C14.2244 63.7447 18.0045 70.1607 23.3859 75.0534H27.0077C21.4431 70.7541 17.3579 64.812 15.3254 58.061C13.2928 51.31 13.415 44.089 15.6747 37.4113C17.9344 30.7337 22.2182 24.9345 27.925 20.8277C33.6319 16.7208 40.4752 14.5125 47.4947 14.5125C54.5141 14.5125 61.3575 16.7208 67.0643 20.8277C72.7711 24.9345 77.0549 30.7337 79.3146 37.4113C81.5743 44.089 81.6965 51.31 79.664 58.061C77.6314 64.812 73.5462 70.7541 67.9816 75.0534H71.6128C76.9946 70.1603 80.7748 63.7437 82.4553 56.6491C84.1357 49.5545 83.6377 42.1148 81.0266 35.3103C78.4156 28.5058 73.8141 22.6557 67.8286 18.531C61.843 14.4063 54.7542 12.2004 47.4962 12.2041Z" fill="#A21C2A"/>
<path d="M78.7631 48.3056C78.7639 42.8287 77.3395 37.4467 74.6313 32.6936C71.9231 27.9406 68.0251 23.9815 63.3242 21.2092C58.6232 18.4369 53.2826 16.9478 47.8321 16.8895C42.3816 16.8312 37.0106 18.2057 32.252 20.8768C27.4934 23.5479 23.5124 27.4226 20.7041 32.1167C17.8958 36.8108 16.3577 42.1611 16.2424 47.6368C16.127 53.1125 17.4385 58.5233 20.0466 63.3326C22.6548 68.1419 26.469 72.1824 31.1109 75.0533H36.1647C30.0295 72.4275 24.9855 67.7527 21.886 61.8199C18.7866 55.887 17.822 49.0605 19.1556 42.4953C20.4892 35.9301 24.0391 30.0294 29.2045 25.7915C34.3699 21.5537 40.8338 19.2389 47.5024 19.2389C54.171 19.2389 60.6348 21.5537 65.8002 25.7915C70.9657 30.0294 74.5155 35.9301 75.8491 42.4953C77.1827 49.0605 76.2181 55.887 73.1187 61.8199C70.0192 67.7527 64.9752 72.4275 58.84 75.0533H63.8844C68.431 72.2418 72.1857 68.3078 74.7912 63.6259C77.3967 58.9439 78.7662 53.6698 78.7694 48.3056" fill="#A21C2A"/>
<path d="M15.3564 64.4603C15.3784 64.5072 15.4035 64.554 15.4255 64.5946C15.4085 64.5461 15.3875 64.4991 15.3627 64.4541" fill="#A21C2A"/>
<path d="M16.4746 66.5387C16.4281 66.4545 16.3721 66.3608 16.3193 66.2734C16.3659 66.3671 16.4125 66.4545 16.4653 66.5481" fill="#A21C2A"/>
<path d="M47.4937 84.4289C51.8516 84.4351 56.1741 83.6407 60.2477 82.085H34.7334C38.8092 83.6407 43.1337 84.4351 47.4937 84.4289Z" fill="#A21C2A"/>
<path d="M29.7662 79.7353H65.2141C66.4566 79.028 67.6557 78.2463 68.8049 77.3945H26.1816C27.3313 78.2456 28.5304 79.0273 29.7724 79.7353" fill="#A21C2A"/>
<path d="M48.6579 55.2686H46.3252V66.3234L47.49 65.8865L48.6579 66.3328V55.2686Z" fill="#A21C2A"/>
<path d="M41.6533 55.2686V68.0962L43.9861 67.2161V55.2686H41.6533Z" fill="#A21C2A"/>
<path d="M50.9971 55.2686V67.2161L53.3267 68.0962V55.2686H50.9971Z" fill="#A21C2A"/>
<path d="M46.2939 29.1669H48.6329V30.8304C48.2508 30.7992 47.8626 30.7836 47.465 30.7836C47.0674 30.7836 46.6822 30.7836 46.2939 30.8367V29.1669ZM47.465 33.1244C50.4025 33.1144 53.25 34.1424 55.5094 36.0286C57.7688 37.9149 59.2962 40.5393 59.8245 43.4427L35.1023 43.4115C35.6369 40.5121 37.1671 37.893 39.4262 36.0109C41.6854 34.1287 44.5302 33.1028 47.465 33.1119M29.9087 50.7211V45.7461L65.0305 45.7929V50.7211H29.9087ZM91.6662 30.7805V30.7181C91.6662 29.9534 91.6351 29.1856 91.5637 28.4366H67.3509V25.8554H62.2008C61.7493 22.9221 60.4391 20.1902 58.4373 18.0075C56.4354 15.8248 53.8323 14.2901 50.9594 13.5989V9.2294H48.6298V6.37985C48.2477 6.358 47.8595 6.34863 47.4712 6.34863C47.0829 6.34863 46.6884 6.34863 46.297 6.37985V9.2294H43.9674V9.42602V13.602C41.103 14.295 38.5071 15.8252 36.5075 17.9994C34.5079 20.1735 33.1942 22.8942 32.7323 25.818H27.576V28.4459H20.997C20.9256 29.195 20.8945 29.9628 20.8945 30.7274V30.7899H27.5698V33.1307H21.0033C21.0747 33.9203 21.1741 34.6912 21.3139 35.4715H27.5698V62.2223C28.2699 63.2376 29.0489 64.1956 29.8994 65.0875V53.0588H34.8072V69.0887C35.5606 69.5565 36.3394 69.9816 37.14 70.3621V53.0588H57.79V70.3808C58.5895 70.0003 59.3673 69.5752 60.1196 69.1074V53.0588H65.0088V65.1187C65.8576 64.2309 66.6365 63.2782 67.3384 62.2691V53.0588H73.672C73.8118 52.2879 73.9112 51.4983 73.9826 50.718H67.3509V48.3772L91.6662 30.7805Z" fill="#A21C2A"/>
<path d="M41.2314 70.9302L41.6601 72.0726L41.6477 75.0532H43.9804L43.9897 72.3909L47.4966 71.0707L51.0004 72.4003L50.9911 75.0532H53.3332V72.0476L53.7525 70.9302L47.4966 68.5645L41.2314 70.9302Z" fill="#A21C2A"/>
<path d="M33.4569 7.69125L31.3664 6.35231L31.1241 6.44282L31.8075 8.30299L30.7296 8.70249L29.0771 4.22061L30.1581 3.81799L30.798 5.55955L30.9688 5.49401L31.7112 3.24058L33.0593 2.74121L32.1212 5.49713L34.7988 7.18876L33.4569 7.69125Z" fill="#A21C2A"/>
<path d="M36.5561 8.1033L35.4658 3.29683L36.5654 3.04402L36.699 3.64327H36.7332C36.7564 3.52001 36.7983 3.40107 36.8574 3.29058C36.9234 3.16872 37.0145 3.06233 37.1245 2.97847C37.2562 2.87729 37.4092 2.80788 37.5718 2.77561C37.8118 2.71933 38.0626 2.73231 38.2956 2.81306C38.551 2.90391 38.7745 3.0677 38.9386 3.28434C39.3425 3.86923 39.5082 4.58739 39.4014 5.2912C39.352 5.56147 39.2246 5.81115 39.0348 6.00905C38.8555 6.19041 38.6279 6.31609 38.3794 6.3711C38.2227 6.40339 38.061 6.40339 37.9042 6.3711C37.7709 6.3462 37.644 6.29416 37.5314 6.21816C37.4278 6.14858 37.3365 6.06208 37.2612 5.96224H37.2395L37.665 7.83489L36.5561 8.1033ZM36.9475 4.79495C36.9819 4.9632 37.0461 5.12388 37.137 5.26935C37.2073 5.38612 37.3083 5.48115 37.4289 5.54401C37.5448 5.60047 37.6769 5.61375 37.8017 5.58146C37.9245 5.55338 38.0341 5.48401 38.1123 5.38483C38.1937 5.27696 38.2432 5.14825 38.2552 5.01342C38.2695 4.84293 38.2569 4.67124 38.2179 4.50469C38.1825 4.33722 38.1195 4.17687 38.0315 4.03028C37.9616 3.91618 37.8631 3.82253 37.7458 3.75875C37.628 3.70463 37.4954 3.69252 37.3699 3.72442C37.2482 3.75131 37.1388 3.81832 37.0593 3.9148C36.9771 4.02128 36.9264 4.14895 36.9133 4.28309C36.8965 4.45444 36.9081 4.62739 36.9475 4.79495Z" fill="#A21C2A"/>
<path d="M42.4581 5.68444C42.2498 5.7114 42.0382 5.69439 41.8369 5.63451C41.659 5.57809 41.5021 5.46937 41.3865 5.3224C41.2602 5.15758 41.1856 4.95877 41.1721 4.75124C41.1497 4.57881 41.1678 4.40352 41.2249 4.23938C41.2778 4.09968 41.3642 3.97529 41.4765 3.87733C41.5963 3.77671 41.7316 3.69658 41.8772 3.64013C42.0389 3.5761 42.2064 3.52802 42.3773 3.49656C42.5761 3.45599 42.7377 3.42166 42.8588 3.38732C42.9527 3.36533 43.0413 3.32504 43.1197 3.26872C43.1444 3.24682 43.1633 3.21909 43.1747 3.18804C43.1861 3.15699 43.1896 3.12358 43.1849 3.09082C43.1825 3.03802 43.1674 2.98661 43.1409 2.94096C43.1144 2.89531 43.0773 2.85678 43.0327 2.82865C42.9295 2.76877 42.8087 2.74671 42.6911 2.76623C42.5639 2.77269 42.442 2.8197 42.3432 2.90043C42.2585 2.97291 42.206 3.0762 42.1972 3.18757L41.1504 3.25936C41.1578 3.04534 41.2198 2.83683 41.3305 2.65387C41.45 2.46044 41.6183 2.30216 41.8182 2.19507C42.066 2.06395 42.3375 1.98434 42.6165 1.96099C42.8277 1.93097 43.0421 1.93097 43.2533 1.96099C43.4362 1.98939 43.6128 2.04959 43.7751 2.13889C43.9232 2.22153 44.0499 2.33808 44.1448 2.47909C44.2413 2.62539 44.2991 2.79406 44.3125 2.96909L44.5641 5.39418L43.5018 5.50342L43.449 5.00716H43.421C43.3745 5.13038 43.3037 5.24291 43.2129 5.338C43.1214 5.43549 43.0102 5.51212 42.8868 5.56272C42.7475 5.62242 42.5996 5.6593 42.4488 5.67196M42.7221 4.89481C42.8323 4.8814 42.9383 4.84413 43.0327 4.78557C43.1227 4.72831 43.1965 4.64878 43.2471 4.55461C43.2966 4.4586 43.3161 4.34982 43.303 4.2425L43.2688 3.90542C43.2328 3.92664 43.1955 3.94541 43.157 3.9616L43.011 4.01778L42.8464 4.06772L42.688 4.11141C42.5953 4.13389 42.5064 4.16963 42.4239 4.21753C42.3589 4.25536 42.3044 4.30902 42.2655 4.37358C42.2324 4.43791 42.2194 4.51081 42.2282 4.5827C42.2307 4.63503 42.2462 4.6859 42.2733 4.73063C42.3005 4.77535 42.3384 4.81249 42.3836 4.83863C42.4846 4.89188 42.5996 4.91259 42.7128 4.89793" fill="#A21C2A"/>
<path d="M48.0213 5.41937C47.6841 5.42272 47.3519 5.33659 47.0584 5.16968C46.7915 5.0161 46.5755 4.78709 46.4372 4.51113C46.2917 4.2092 46.2234 3.8756 46.2384 3.54048C46.2339 3.20541 46.314 2.87467 46.4713 2.57918C46.6133 2.31461 46.8293 2.0976 47.0926 1.95496C47.3762 1.81545 47.6872 1.74084 48.003 1.73653C48.3188 1.73221 48.6317 1.79829 48.919 1.93C49.153 2.04448 49.35 2.22298 49.4874 2.44498C49.6269 2.67863 49.6989 2.9466 49.6956 3.219L48.6332 3.20028C48.6237 3.03994 48.5615 2.88732 48.4562 2.76645C48.4053 2.71333 48.3439 2.67147 48.276 2.64353C48.208 2.61558 48.1351 2.60217 48.0617 2.60415C47.9371 2.59886 47.8144 2.63628 47.7138 2.71027C47.6078 2.79028 47.5261 2.89835 47.4777 3.02238C47.3629 3.36909 47.3575 3.74299 47.4622 4.09291C47.5036 4.22248 47.5812 4.33733 47.6858 4.42374C47.7846 4.50044 47.9058 4.54214 48.0306 4.54235C48.1284 4.5435 48.2251 4.52215 48.3133 4.47993C48.3963 4.43296 48.4659 4.36523 48.5152 4.2833C48.5729 4.18839 48.609 4.08179 48.6208 3.97119L49.6831 3.98991C49.674 4.26294 49.5936 4.52877 49.4502 4.76082C49.3104 4.98208 49.1097 5.15774 48.8724 5.26644C48.5997 5.39064 48.3018 5.44839 48.0027 5.43498" fill="#A21C2A"/>
<path d="M55.2124 1.14617L55.0944 2.07625L53.0101 1.81408L52.5318 5.62493L51.3887 5.48136L51.9851 0.737305L55.2124 1.14617Z" fill="#A21C2A"/>
<path d="M57.5047 1.53613L58.8808 1.91378L59.269 5.08793L59.325 5.10353L61.2663 2.56609L62.6393 2.94374L61.3844 7.55671L60.3034 7.2602L61.0737 4.42626L61.0365 4.41689L59.1728 6.91688L58.4801 6.7265L58.1446 3.60541L58.1073 3.59605L57.3339 6.44248L56.2529 6.1491L57.5047 1.53613Z" fill="#A21C2A"/>
<path d="M63.5771 8.5153L63.9468 7.67885L64.1673 7.77873C64.2658 7.82429 64.3705 7.8548 64.4779 7.86924C64.5565 7.87658 64.6354 7.86028 64.7047 7.82242C64.7823 7.77746 64.8509 7.71816 64.9066 7.64764L65.0153 7.53528L64.7606 3.74316L65.8416 4.22069L65.9441 6.61456L67.5841 4.99472L68.6496 5.466L65.6303 8.27498C65.4794 8.40802 65.3161 8.52613 65.1427 8.62766C64.9735 8.72988 64.7833 8.7918 64.5867 8.80868C64.3571 8.81952 64.1286 8.7723 63.9219 8.67136L63.5771 8.5153Z" fill="#A21C2A"/>
<path d="M11.6571 17.1047L14.1265 17.3169L14.3005 17.1234L12.8343 15.7938L13.6047 14.9355L17.1364 18.1378L16.3661 18.9961L14.9962 17.7539L14.872 17.8912L15.2572 20.232L14.2911 21.3057L13.8532 18.4249L10.6973 18.1721L11.6571 17.1047Z" fill="#A21C2A"/>
<path d="M9.4426 19.8164L13.3564 22.538L12.2382 24.161C12.063 24.43 11.8239 24.651 11.5424 24.8039C11.2914 24.9363 11.0079 24.9937 10.7255 24.9693C10.4265 24.9405 10.1404 24.8328 9.89611 24.6572C9.64432 24.4915 9.44154 24.2608 9.30903 23.9893C9.19021 23.7289 9.14921 23.4394 9.191 23.156C9.24034 22.8317 9.36717 22.5244 9.56064 22.2602L10.2502 21.2583L10.9957 21.7796L10.4273 22.5848C10.337 22.706 10.2773 22.8474 10.2533 22.9968C10.2358 23.1217 10.2564 23.249 10.3123 23.362C10.3737 23.48 10.4634 23.5808 10.5733 23.6553C10.6813 23.7336 10.8075 23.7831 10.9398 23.7989C11.0639 23.8095 11.1884 23.7823 11.297 23.7209C11.4232 23.6424 11.5295 23.5355 11.6076 23.4088L11.9182 22.9406L8.76855 20.7559L9.4426 19.8164Z" fill="#A21C2A"/>
<path d="M6.02244 25.1445L6.59709 24.0459L10.0574 27.7038L9.34297 29.0646L4.37305 28.2594L4.9477 27.1607L8.61923 27.838L8.63786 27.8037L6.02244 25.1445ZM7.7557 25.8749L6.54739 28.172L5.77395 27.76L6.98226 25.466L7.7557 25.8749Z" fill="#A21C2A"/>
<path d="M4.9824 35.1758L5.37999 34.0803C5.48988 34.1059 5.6032 34.1133 5.71546 34.1021C5.8246 34.0921 5.93042 34.0591 6.02608 34.0054C6.11929 33.9517 6.20151 33.8808 6.26836 33.7963C6.34156 33.7016 6.40019 33.5964 6.44231 33.4842C6.51988 33.2854 6.53506 33.0676 6.4858 32.8599C6.43052 32.6543 6.31596 32.4697 6.15654 32.3294C5.95587 32.1556 5.72389 32.0221 5.47318 31.9361C5.22139 31.8354 4.95203 31.7866 4.6811 31.7925C4.47125 31.7979 4.26784 31.8664 4.09713 31.9892C3.9348 32.117 3.81287 32.2894 3.74613 32.4854C3.70501 32.5967 3.67991 32.7134 3.67158 32.8319C3.66541 32.9375 3.67911 33.0434 3.71196 33.144C3.74305 33.2417 3.7938 33.332 3.86106 33.4093C3.93268 33.4926 4.01773 33.5633 4.11266 33.6184L3.70885 34.7108C3.51221 34.6173 3.3351 34.487 3.18701 34.3269C3.02543 34.1561 2.89599 33.9573 2.80495 33.7401C2.7048 33.504 2.65101 33.2507 2.64653 32.9942C2.64462 32.6955 2.69835 32.3991 2.80495 32.1202C2.93799 31.7375 3.16693 31.3957 3.46968 31.1277C3.76813 30.8695 4.13523 30.7046 4.52579 30.6533C4.98287 30.6003 5.44593 30.6614 5.87387 30.8312C6.31362 30.9766 6.7092 31.2323 7.02317 31.5741C7.28799 31.8672 7.46181 32.2317 7.52327 32.6227C7.58336 33.0202 7.54057 33.4265 7.39902 33.8025C7.30788 34.0592 7.17797 34.3003 7.01385 34.5172C6.86238 34.7134 6.67595 34.8795 6.46406 35.0073C6.25477 35.1293 6.02363 35.2089 5.7838 35.2413C5.51948 35.2736 5.25143 35.2534 4.99482 35.182" fill="#A21C2A"/>
<path d="M1.49962 36.3711L6.1527 37.3667L5.91353 38.4966L4.0467 38.0971L3.65532 39.9385L5.52215 40.338L5.28297 41.4678L0.629883 40.4722L0.86906 39.3424L2.73899 39.745L3.13037 37.9004L1.25734 37.5009L1.49962 36.3711Z" fill="#A21C2A"/>
<path d="M2.35411 47.5097C1.89279 47.4911 1.44381 47.3547 1.0495 47.1133C0.713318 46.9016 0.444837 46.5971 0.276063 46.2363C0.114864 45.8664 0.0453472 45.4628 0.0734793 45.06C0.101611 44.6572 0.22655 44.2672 0.437582 43.9236C0.655048 43.5915 0.962101 43.3284 1.32285 43.1652C1.75101 42.9967 2.21106 42.9258 2.6698 42.9576C3.12854 42.9895 3.57451 43.1232 3.97554 43.3493C4.31002 43.5608 4.57731 43.8641 4.74588 44.2232C4.90754 44.5929 4.97757 44.9964 4.94998 45.3992C4.92239 45.802 4.798 46.192 4.58746 46.5359C4.37301 46.8703 4.06655 47.1348 3.70531 47.2975C3.28012 47.4823 2.81513 47.5553 2.35411 47.5097ZM2.43487 46.3299C2.70143 46.357 2.97069 46.3305 3.22695 46.2519C3.37126 46.201 3.50296 46.1194 3.61309 46.0127C3.72323 45.9061 3.80921 45.7769 3.86521 45.6338C3.9212 45.4908 3.94589 45.3373 3.93759 45.1839C3.9293 45.0304 3.88821 44.8805 3.81713 44.7444C3.70848 44.5639 3.54831 44.4203 3.35741 44.3325C3.11298 44.2105 2.84695 44.1384 2.57465 44.1202C2.30828 44.0942 2.03943 44.1197 1.78257 44.1951C1.58215 44.2569 1.40472 44.3776 1.27315 44.5416C1.14807 44.7087 1.07656 44.9101 1.06814 45.119C1.04608 45.3279 1.08953 45.5385 1.19239 45.7213C1.29976 45.9018 1.45893 46.0454 1.649 46.1333C1.89316 46.2426 2.15547 46.305 2.42244 46.3175" fill="#A21C2A"/>
<path d="M2.26407 50.6275L2.34172 51.8759L0.0897257 50.8428L0.00585938 49.5944L2.26407 50.6275ZM0.266781 53.4552L0.192231 52.3066L4.01596 52.0538L3.97869 51.4858C3.97338 51.3368 3.93853 51.1904 3.87618 51.0551C3.82671 50.9466 3.74398 50.8569 3.64011 50.7991C3.52512 50.7458 3.39871 50.7222 3.27233 50.7304C3.14595 50.7385 3.0236 50.7783 2.91637 50.846C2.82343 50.9173 2.75589 51.0169 2.72378 51.13C2.6849 51.2732 2.67123 51.4221 2.6834 51.57L2.75174 52.6L1.84784 52.6593L1.76707 51.4109C1.73755 51.0867 1.77781 50.7599 1.88511 50.4527C1.97751 50.192 2.14648 49.9656 2.36967 49.8035C2.61287 49.6364 2.89836 49.5422 3.19282 49.532C3.48746 49.5031 3.78429 49.5572 4.05013 49.688C4.29704 49.8143 4.5005 50.0122 4.6341 50.2561C4.78829 50.5368 4.87448 50.8501 4.8857 51.1705L5.01616 53.1368L0.266781 53.4552Z" fill="#A21C2A"/>
<path d="M0.558594 55.7873L5.21789 54.876L5.59374 56.8142C5.66336 57.1289 5.65376 57.4561 5.56579 57.7661C5.48993 58.0417 5.33553 58.2891 5.1216 58.4777C4.88639 58.6638 4.60958 58.7895 4.31515 58.8438C4.02071 58.8982 3.71752 58.8797 3.43183 58.7898C3.16199 58.6958 2.92622 58.523 2.75468 58.2936C2.55962 58.0305 2.42972 57.7245 2.37572 57.4009L2.14586 56.2056L3.03424 56.0339L3.22682 57.017C3.25011 57.1671 3.30868 57.3094 3.39766 57.4321C3.47605 57.5343 3.58488 57.6087 3.70828 57.6444C3.83664 57.6777 3.97131 57.6777 4.09966 57.6444C4.23101 57.6233 4.35435 57.5672 4.45687 57.4821C4.55191 57.4002 4.62012 57.2914 4.65257 57.17C4.68549 57.0241 4.68549 56.8727 4.65257 56.7268L4.54385 56.165L0.776031 56.9172L0.558594 55.7873Z" fill="#A21C2A"/>
<path d="M6.06563 64.72L5.69288 63.6151C5.79508 63.5664 5.88851 63.5011 5.96933 63.4216C6.04481 63.346 6.10436 63.256 6.14439 63.1567C6.18441 63.0575 6.20411 62.9512 6.20229 62.8442C6.20057 62.722 6.1796 62.6009 6.14017 62.4853C6.07788 62.2827 5.9554 62.104 5.78917 61.9734C5.61755 61.8485 5.41373 61.7759 5.2021 61.7643C4.66419 61.7572 4.14012 61.9357 3.71734 62.2699C3.5525 62.4004 3.43346 62.5804 3.37759 62.7836C3.32171 62.9869 3.33191 63.2027 3.40672 63.3997C3.44369 63.5106 3.49597 63.6156 3.56203 63.7118C3.62291 63.7976 3.69867 63.8716 3.78567 63.9303C3.87153 63.9863 3.96762 64.0245 4.06834 64.0427C4.17118 64.0597 4.27611 64.0597 4.37896 64.0427L4.74238 65.1507C4.52926 65.1983 4.30931 65.2068 4.09319 65.1756C3.86139 65.1433 3.63728 65.0693 3.43157 64.9572C3.20698 64.8363 3.0085 64.6719 2.8476 64.4734C2.63131 64.1978 2.47366 63.8806 2.38443 63.5412C2.2952 63.2019 2.27629 62.8478 2.32887 62.5009C2.40163 62.1117 2.58629 61.7526 2.86003 61.4678C3.19165 61.1474 3.58994 60.9051 4.02613 60.7583C4.46232 60.6115 4.92551 60.5639 5.38226 60.6188C5.77114 60.6835 6.13337 60.859 6.42594 61.1245C6.71534 61.3992 6.92932 61.7442 7.04718 62.1263C7.13681 62.3833 7.18505 62.6531 7.19007 62.9253C7.19388 63.1734 7.15175 63.42 7.06582 63.6525C6.97922 63.8846 6.8472 64.0969 6.67755 64.2768C6.49289 64.4675 6.27217 64.6192 6.02835 64.7231" fill="#A21C2A"/>
<path d="M5.38531 70.4591L6.4849 68.2275L6.36997 67.9934L4.60254 68.8798L4.08691 67.8436L8.34551 65.7119L8.86114 66.745L7.20864 67.5721L7.28941 67.7375L9.60042 68.2338L10.2403 69.5259L7.41365 68.8861L6.02518 71.745L5.38531 70.4591Z" fill="#A21C2A"/>
<path d="M11.0231 70.8428L11.6692 71.7947L9.40476 73.3459L9.42651 73.3802L12.747 73.3833L13.303 74.2073L9.37059 76.8977L8.7245 75.9426L10.9951 74.3883L10.9765 74.3634L7.63733 74.3415L7.09375 73.5332L11.0231 70.8428Z" fill="#A21C2A"/>
<path d="M14.378 75.5624L15.1452 76.4207L13.1044 78.2621L13.1324 78.2902L16.4219 77.8502L17.0835 78.5898L13.5455 81.7827L12.7752 80.9244L14.8191 79.0799L14.8004 79.058L11.4892 79.4856L10.8369 78.7584L14.378 75.5624ZM16.9841 76.5767L17.4842 77.1354C17.3862 77.228 17.2681 77.2965 17.1393 77.3355C17.0105 77.3745 16.8744 77.3829 16.7418 77.3601C16.438 77.2804 16.1641 77.1128 15.9543 76.8781C15.7445 76.6434 15.6079 76.352 15.5614 76.0399C15.5534 75.9046 15.5773 75.7693 15.6313 75.6451C15.6853 75.5208 15.7678 75.4112 15.8721 75.3252L16.3659 75.8807C16.2897 75.9494 16.2411 76.0438 16.2293 76.146C16.2372 76.2766 16.2887 76.4006 16.3755 76.4981C16.4623 76.5955 16.5794 76.6606 16.7076 76.6829C16.8113 76.682 16.9114 76.6444 16.9903 76.5767" fill="#A21C2A"/>
<path d="M22.1872 83.0781L23.3862 83.8521L22.8084 86.9982L22.855 87.0294L25.4642 85.1973L26.6632 85.9714L24.0882 89.9913L23.147 89.3827L24.728 86.9139L24.6939 86.8921L22.1685 88.7148L21.5659 88.3247L22.181 85.2473L22.1468 85.2254L20.5564 87.7067L19.6152 87.0981L22.1872 83.0781Z" fill="#A21C2A"/>
<path d="M26.2256 91.0838L28.2073 86.7393L31.2235 88.1281L30.8352 88.9833L28.8627 88.0751L28.4589 88.9646L30.273 89.8042L29.8847 90.6593L28.0676 89.8198L27.6607 90.7155L29.63 91.6206L29.2417 92.4758L26.2256 91.0838Z" fill="#A21C2A"/>
<path d="M30.9004 94.3953L31.4968 92.4321L31.8074 92.5289C31.9461 92.4833 32.0748 92.4112 32.1864 92.3166C32.3426 92.1819 32.475 92.0215 32.5777 91.8422C32.7438 91.5594 32.8832 91.2616 32.994 90.9527L33.7301 89.0645L36.8363 90.0195L35.7057 93.7305L36.1934 93.8803L35.597 95.8403L34.5409 95.5282L34.8732 94.4296L32.2858 93.6337L31.9503 94.7355L30.9004 94.3953ZM33.0747 92.9159L34.6558 93.4028L35.5131 90.5938L34.4446 90.2661L34.0563 91.2804C33.9642 91.534 33.8552 91.7812 33.7301 92.0201C33.6345 92.2064 33.5244 92.3849 33.4009 92.5538C33.3089 92.685 33.2049 92.8073 33.0903 92.919" fill="#A21C2A"/>
<path d="M38.8055 90.4814L39.9424 90.6593L39.5137 93.3809L39.5541 93.3872L41.8278 90.959L42.8063 91.1119L42.067 95.8341L40.9333 95.6562L41.3588 92.9315L41.3308 92.9253L39.0292 95.3566L38.0693 95.2036L38.8055 90.4814Z" fill="#A21C2A"/>
<path d="M44.4307 96.0549L44.5083 91.2734L45.6141 91.2922L45.552 95.1654L47.3722 95.1966L47.4344 91.3203L48.5557 91.339L48.4812 96.1205L44.4307 96.0549ZM49.2111 95.2372L49.1179 97.2597L48.0432 97.2441L48.0618 96.1142H47.7263V95.2185L49.2111 95.2372Z" fill="#A21C2A"/>
<path d="M50.7705 91.2423L51.9074 91.1019L52.2428 93.836L52.2832 93.8297L53.8053 90.8678L54.7899 90.7461L55.3677 95.4901L54.2277 95.6337L53.8922 92.8934L53.8643 92.8965L52.3174 95.8678L51.3483 95.9895L50.7705 91.2423Z" fill="#A21C2A"/>
<path d="M57.7002 95.0438L56.4795 90.4215L57.5915 90.125L58.0823 91.9789L59.8963 91.4952L59.4055 89.6412L60.5144 89.3447L61.7352 93.9671L60.6263 94.2636L60.1355 92.4065L58.3246 92.8903L58.8122 94.7442L57.7002 95.0438Z" fill="#A21C2A"/>
<path d="M66.7855 88.6985L65.717 89.1511C65.66 89.0536 65.5876 88.9661 65.5027 88.892C65.4228 88.8223 65.3298 88.7692 65.2293 88.7359C65.129 88.7044 65.0235 88.6927 64.9187 88.7016C64.7979 88.7122 64.6795 88.7416 64.5677 88.789C64.3717 88.8672 64.2038 89.0032 64.0863 89.1791C63.9737 89.3603 63.9174 89.5711 63.9247 89.7846C63.9579 90.3262 64.1775 90.8393 64.546 91.2359C64.6908 91.3869 64.8785 91.4893 65.0833 91.5293C65.2885 91.5646 65.4994 91.5374 65.6891 91.4513C65.8012 91.4074 65.906 91.3463 65.9997 91.2703C66.081 91.2032 66.1494 91.1217 66.2016 91.0299C66.2482 90.939 66.2797 90.8409 66.2948 90.7397C66.3057 90.63 66.2984 90.5192 66.273 90.412L67.3447 89.9657C67.4105 90.1742 67.4359 90.3935 67.4192 90.6117C67.3909 91.1084 67.1741 91.5753 66.8135 91.9163C66.5982 92.1211 66.3463 92.2831 66.0711 92.3939C65.7016 92.5581 65.2958 92.6226 64.8939 92.5811C64.5039 92.5359 64.135 92.3788 63.8315 92.1286C63.48 91.828 63.2088 91.4439 63.0426 91.0112C62.8499 90.5895 62.7665 90.1257 62.8003 89.6629C62.8359 89.2684 62.9836 88.8924 63.2258 88.5799C63.4707 88.2665 63.7916 88.0215 64.1577 87.8683C64.4069 87.7612 64.6708 87.6928 64.9405 87.6654C65.1871 87.6446 65.4355 87.6689 65.6735 87.7372C65.9012 87.8091 66.1124 87.9258 66.2948 88.0805C66.4983 88.2543 66.6661 88.4663 66.7886 88.7047" fill="#A21C2A"/>
<path d="M72.5264 88.9514L70.2309 88.0151L70.0073 88.1493L71.0168 89.8534L70.029 90.4464L67.5938 86.3391L68.5815 85.7461L69.5289 87.3409L69.6842 87.2473L70.0042 84.894L71.2404 84.1543L70.8149 87.0382L73.7564 88.2117L72.5264 88.9514Z" fill="#A21C2A"/>
<path d="M72.4893 83.2714L73.3838 82.5536L75.0923 84.7103L75.1233 84.6853L74.881 81.3582L75.6576 80.7402L78.6178 84.4793L77.717 85.2003L76.0086 83.0405L75.9868 83.0592L76.2105 86.405L75.4495 87.0136L72.4893 83.2714Z" fill="#A21C2A"/>
<path d="M77.7446 76.8917L78.2602 76.3486C78.3604 76.4392 78.4379 76.5523 78.4865 76.6786C78.5351 76.805 78.5533 76.9411 78.5397 77.0758C78.4842 77.387 78.3385 77.6748 78.1207 77.903C77.903 78.1313 77.623 78.2898 77.3159 78.3586C77.183 78.377 77.0477 78.3637 76.9209 78.3198C76.7941 78.2759 76.6793 78.2026 76.5859 78.1058L77.0985 77.569C77.1727 77.6398 77.2696 77.6819 77.3718 77.6876C77.5007 77.6684 77.6197 77.6068 77.7102 77.5126C77.8007 77.4183 77.8575 77.2965 77.8719 77.1664C77.8642 77.0623 77.8189 76.9646 77.7446 76.8917ZM76.9307 79.5789L77.7259 78.7487L79.7046 80.6526L79.7325 80.6245L79.0492 77.3599L79.7325 76.642L83.168 79.9535L82.3728 80.7868L80.391 78.8767L80.3693 78.8986L81.0371 82.1819L80.3631 82.8873L76.9307 79.5789Z" fill="#A21C2A"/>
<path d="M88.2844 72.9845L87.4923 72.5226L87.6135 72.3072C87.6717 72.2111 87.7127 72.1055 87.7346 71.9951C87.7498 71.9187 87.7423 71.8394 87.7129 71.7673C87.6747 71.6846 87.6221 71.6096 87.5576 71.5457L87.4582 71.4271L83.6748 71.3053L84.2557 70.2723L86.635 70.4065L85.1999 68.6337L85.7715 67.6162L88.2564 70.9121C88.3759 71.0757 88.4799 71.2502 88.5671 71.4333C88.6483 71.6136 88.6886 71.8097 88.6851 72.0076C88.6756 72.2385 88.6071 72.4632 88.4863 72.6599L88.2844 72.9845Z" fill="#A21C2A"/>
<path d="M90.8184 68.0558L86.4014 66.2799L86.83 65.2062L88.6006 65.9178L89.2994 64.17L87.5258 63.4553L87.9514 62.3848L92.3684 64.1638L91.9428 65.2343L90.1692 64.5196L89.4703 66.2674L91.247 66.9821L90.8184 68.0558Z" fill="#A21C2A"/>
<path d="M88.4795 60.7304L88.7559 59.613L91.4148 60.2747L91.4242 60.2373L89.2157 57.7466L89.4517 56.7822L94.0707 57.9308L93.7942 59.0544L91.1291 58.3896L91.1229 58.4177L93.3314 60.9333L93.0953 61.8821L88.4795 60.7304Z" fill="#A21C2A"/>
<path d="M94.472 55.6092L89.7412 55.0724L89.9649 53.0905C89.9909 52.7845 90.0764 52.4865 90.2165 52.2135C90.3239 52.0042 90.4917 51.8323 90.6979 51.7204C90.8964 51.6162 91.1223 51.5769 91.344 51.608C91.5114 51.6221 91.672 51.6803 91.8099 51.7766C91.9402 51.8673 92.0468 51.9883 92.1206 52.1292C92.1986 52.2798 92.2471 52.444 92.2634 52.613H92.31C92.3375 52.427 92.4112 52.2509 92.5244 52.1012C92.6346 51.948 92.7837 51.8273 92.9561 51.7516C93.1516 51.6668 93.3665 51.6377 93.5774 51.6673C93.8186 51.6935 94.0471 51.7888 94.2359 51.942C94.427 52.1077 94.568 52.3239 94.6428 52.5662C94.7319 52.8623 94.7563 53.1742 94.7142 53.4807L94.472 55.6092ZM91.8161 54.1455L91.8876 53.5212C91.902 53.4073 91.8935 53.2916 91.8628 53.181C91.8356 53.0847 91.7817 52.9981 91.7074 52.9314C91.6309 52.8646 91.5351 52.8241 91.4341 52.8159C91.363 52.8047 91.2902 52.8104 91.2217 52.8326C91.1532 52.8549 91.0908 52.893 91.0396 52.9438C90.9292 53.0648 90.8635 53.2201 90.8532 53.3839L90.7787 54.0393L91.8161 54.1455ZM93.6799 54.3546L93.7575 53.6461C93.7947 53.4533 93.7674 53.2536 93.6799 53.0781C93.6395 53.0143 93.5847 52.9609 93.5199 52.9224C93.4551 52.8839 93.3822 52.8613 93.3071 52.8564C93.1959 52.8419 93.0829 52.8593 92.981 52.9064C92.8843 52.957 92.8036 53.0337 92.748 53.128C92.6836 53.2409 92.6444 53.3666 92.6331 53.4963L92.5523 54.2266L93.6799 54.3546Z" fill="#A21C2A"/>
<path d="M95 49.6419L90.2413 49.7168L90.1885 46.3835L91.1234 46.371L91.1576 48.5464L92.133 48.5308L92.1019 46.5239L93.0369 46.5083L93.0679 48.5152L94.0464 48.4996L94.0122 46.3211L94.9472 46.3086L95 49.6419Z" fill="#A21C2A"/>
<path d="M94.8103 44.0113L90.092 44.6355L89.8404 42.6754C89.7923 42.3607 89.8232 42.0388 89.9305 41.7391C90.0273 41.4715 90.2001 41.2382 90.4275 41.0681C90.6731 40.8948 90.957 40.7844 91.2548 40.7463C91.5525 40.7082 91.8549 40.7437 92.1359 40.8496C92.3982 40.961 92.6219 41.1477 92.7789 41.3864C92.9528 41.6624 93.0592 41.9757 93.0895 42.3009L93.2448 43.5088L92.344 43.6243L92.2166 42.6286C92.2034 42.4787 92.1544 42.3341 92.0738 42.2073C92.0035 42.1015 91.9027 42.0198 91.7849 41.9732C91.6608 41.9275 91.5274 41.9135 91.3966 41.9326C91.2633 41.9462 91.1359 41.9946 91.027 42.0731C90.9279 42.1478 90.8542 42.2513 90.8157 42.3696C90.7701 42.5137 90.7584 42.6665 90.7816 42.8159L90.853 43.3808L94.6643 42.8721L94.8103 44.0113Z" fill="#A21C2A"/>
<path d="M89.8838 34.738L90.1945 35.8678C90.0886 35.9083 89.9908 35.9675 89.9056 36.0426C89.827 36.112 89.7635 36.197 89.7192 36.2923C89.671 36.3895 89.6435 36.4958 89.6385 36.6044C89.633 36.7252 89.6456 36.8462 89.6757 36.9633C89.7231 37.1696 89.8314 37.3567 89.9864 37.5001C90.1489 37.636 90.3477 37.7207 90.5579 37.7436C91.0947 37.7845 91.6294 37.6402 92.0737 37.3347C92.244 37.2121 92.3713 37.0383 92.4371 36.8385C92.5022 36.6355 92.5022 36.4172 92.4371 36.2142C92.4076 36.1039 92.3615 35.9986 92.3005 35.9021C92.2454 35.8132 92.1749 35.735 92.0924 35.6712C92.0104 35.6103 91.9176 35.5658 91.819 35.5401C91.7126 35.5125 91.6022 35.504 91.4929 35.5151L91.2009 34.3853C91.4164 34.3501 91.6365 34.3554 91.8501 34.4009C92.08 34.448 92.2998 34.5357 92.4993 34.6599C92.7151 34.7967 92.9019 34.9748 93.0491 35.1843C93.2486 35.4723 93.3864 35.7989 93.4538 36.1433C93.5212 36.4877 93.5166 36.8424 93.4404 37.1849C93.3417 37.5687 93.1346 37.9155 92.8441 38.1836C92.5006 38.4898 92.0863 38.7044 91.6389 38.8079C91.1962 38.9421 90.7268 38.9603 90.2752 38.8609C89.8905 38.7712 89.5392 38.5731 89.2626 38.2898C88.9867 37.9987 88.7908 37.6405 88.6942 37.2504C88.6225 36.9884 88.5922 36.7167 88.6041 36.4452C88.6163 36.1973 88.6742 35.9539 88.7749 35.7273C88.8761 35.505 89.0208 35.3055 89.2005 35.1406C89.4 34.9637 89.6307 34.8261 89.8807 34.7348" fill="#A21C2A"/>
<path d="M87.6723 33.627L87.2281 32.5627L89.7535 31.4953L89.7379 31.4578L86.4858 30.793L86.1006 29.8754L90.4865 28.0215L90.9338 29.0858L88.4023 30.1563L88.4116 30.1844L91.6793 30.8679L92.0583 31.7699L87.6723 33.627Z" fill="#A21C2A"/>
<path d="M86.1965 27.9809L85.392 28.4553L83.3574 24.9722L84.1619 24.4978L84.8919 25.7462L88.1907 23.8018L88.7622 24.7849L85.4665 26.7293L86.1965 27.9809Z" fill="#A21C2A"/>
<path d="M86.2307 20.7492L82.4505 23.6581L80.4346 21.0083L81.1769 20.4402L82.494 22.1693L83.2705 21.5732L82.0529 19.9783L82.7984 19.4072L84.0129 21.002L84.7895 20.4028L83.4724 18.6737L84.2148 18.1025L86.2307 20.7492Z" fill="#A21C2A"/>
<path d="M80.074 19.13L79.4062 19.7886L76.5889 16.9016L77.2567 16.2462L78.2662 17.2792L80.9966 14.5889L81.7918 15.4035L79.0614 18.0938L80.074 19.13Z" fill="#A21C2A"/>
<path d="M21.9122 10.1534L20.8213 10.9277L21.592 12.0239L22.6829 11.2495L21.9122 10.1534Z" fill="#A21C2A"/>
<path d="M73.0832 10.1519L72.3125 11.248L73.4034 12.0224L74.1741 10.9263L73.0832 10.1519Z" fill="#A21C2A"/>
</svg>
