<svg width="378" height="220" viewBox="0 0 378 220" fill="none" xmlns="http://www.w3.org/2000/svg">
	<path d="M182.47 100H181.694V119.104H182.47V100Z" fill="white" />
	<path d="M189.895 115.697V103.407H192.679V108.251H194.173L197.675 103.407H200.938L196.44 109.389L201.067 115.697H197.693L194.173 110.781H192.679V115.697H189.895Z" fill="white" />
	<path d="M206.395 110.438H209.695L208.036 105.793L206.395 110.438ZM209.916 103.407L214.524 115.697H211.575L210.561 112.86H205.528L204.533 115.697H201.657L206.247 103.407H209.916Z" fill="white" />
	<path d="M219.317 109.208H221.843C222.58 109.208 223.109 109.067 223.428 108.784C223.748 108.501 223.908 108.07 223.908 107.492C223.908 106.877 223.748 106.434 223.428 106.163C223.109 105.892 222.58 105.756 221.843 105.756H219.317V109.208ZM216.534 115.697V103.407H222.175C223.563 103.407 224.673 103.732 225.502 104.383C226.332 105.033 226.747 106.07 226.747 107.492C226.747 108.877 226.326 109.902 225.484 110.564C224.642 111.227 223.496 111.558 222.046 111.558H219.317V115.697H216.534Z" fill="white" />
	<path d="M234.452 113.311C235.19 113.311 235.718 113.185 236.038 112.932C236.357 112.679 236.517 112.251 236.517 111.648C236.517 111.07 236.357 110.649 236.038 110.383C235.718 110.118 235.19 109.986 234.452 109.986H231.927V113.311H234.452ZM229.143 103.407H231.927V107.6H234.655C236.105 107.6 237.251 107.919 238.093 108.558C238.935 109.197 239.356 110.245 239.356 111.703C239.356 113.065 238.938 114.071 238.102 114.721C237.267 115.372 236.16 115.697 234.784 115.697H229.143V103.407Z" fill="white" />
	<path d="M241.881 115.697V103.407H250.97V105.774H244.665V108.377H250.712V110.673H244.665V113.329H250.915V115.697H241.881Z" fill="white" />
	<path d="M256.574 109.208H259.1C259.837 109.208 260.365 109.067 260.685 108.784C261.004 108.501 261.164 108.07 261.164 107.492C261.164 106.877 261.004 106.434 260.685 106.163C260.365 105.892 259.837 105.756 259.1 105.756H256.574V109.208ZM253.79 115.697V103.407H259.431C260.82 103.407 261.929 103.732 262.759 104.383C263.588 105.033 264.003 106.07 264.003 107.492C264.003 108.877 263.582 109.902 262.74 110.564C261.898 111.227 260.752 111.558 259.302 111.558H256.574V115.697H253.79Z" fill="white" />
	<path d="M268.87 110.438H272.17L270.511 105.793L268.87 110.438ZM272.391 103.407L277 115.697H274.05L273.036 112.86H268.003L267.008 115.697H264.132L268.722 103.407H272.391Z" fill="white" />
	<path d="M160.867 117.258H165.281V105.672H173.545V101.845H160.867V117.258Z" fill="white" />
	<path d="M105.415 105.672H107.434L112.36 117.258H116.505L121.431 105.672H123.45V117.258H127.865V101.846H118.443L114.432 112.139L110.421 101.846H101V117.258H105.415V105.672Z" fill="white" />
	<path d="M140.974 117.258L148.027 107.414V117.258H152.253V101.845H147.757L140.705 111.69V101.845H136.479V117.258H140.974Z" fill="white" />
</svg>
