<svg width="378" height="220" viewBox="0 0 378 220" fill="none" xmlns="http://www.w3.org/2000/svg">
	<path d="M144.513 100.712C144.513 101.647 143.755 102.405 142.823 102.405C141.891 102.405 141.134 101.647 141.134 100.712C141.134 99.7791 141.889 99.0212 142.823 99.0212C143.755 99.0235 144.513 99.7814 144.513 100.712Z" fill="#F9F9F9" />
	<path d="M140.497 97.7092C140.315 98.3865 139.62 98.7896 138.944 98.6077C138.267 98.4234 137.869 97.73 138.046 97.0527C138.228 96.3754 138.923 95.9769 139.597 96.1566C140.276 96.3386 140.677 97.032 140.497 97.7092Z" fill="white" />
	<path d="M135.689 100.712C135.689 101.18 135.312 101.558 134.845 101.558C134.377 101.558 134 101.178 134 100.712C134 100.247 134.38 99.8669 134.845 99.8669C135.312 99.8692 135.689 100.247 135.689 100.712Z" fill="white" />
	<path d="M140.498 103.719C140.68 104.397 140.277 105.09 139.6 105.272C138.924 105.454 138.229 105.053 138.047 104.376C137.867 103.699 138.268 103.005 138.944 102.823C139.621 102.639 140.316 103.042 140.498 103.719Z" fill="white" />
	<path d="M137.835 108.725C138.067 109.13 137.929 109.646 137.526 109.881C137.119 110.111 136.603 109.973 136.371 109.57C136.138 109.165 136.276 108.646 136.682 108.414C137.084 108.183 137.602 108.321 137.835 108.725Z" fill="white" />
	<path d="M143.496 108.922C143.993 109.415 143.993 110.219 143.496 110.715C143.003 111.208 142.198 111.212 141.705 110.715C141.208 110.222 141.208 109.415 141.705 108.922C142.2 108.427 143.003 108.427 143.496 108.922Z" fill="white" />
	<path d="M143.694 114.589C144.099 114.824 144.237 115.338 144.003 115.744C143.768 116.149 143.252 116.29 142.847 116.055C142.444 115.822 142.306 115.301 142.539 114.9C142.773 114.495 143.291 114.359 143.694 114.589Z" fill="white" />
	<path d="M148.697 111.926C149.374 112.108 149.776 112.804 149.595 113.479C149.413 114.156 148.718 114.557 148.041 114.375C147.364 114.193 146.966 113.497 147.146 112.822C147.327 112.145 148.02 111.744 148.697 111.926Z" fill="white" />
	<path d="M151.699 116.736C152.166 116.736 152.544 117.114 152.544 117.584C152.544 118.049 152.166 118.429 151.699 118.429C151.232 118.429 150.854 118.049 150.854 117.584C150.854 117.114 151.234 116.736 151.699 116.736Z" fill="white" />
	<path d="M154.703 111.926C155.377 111.744 156.072 112.145 156.254 112.822C156.436 113.5 156.033 114.195 155.359 114.377C154.682 114.559 153.987 114.158 153.805 113.481C153.625 112.804 154.026 112.108 154.703 111.926Z" fill="white" />
	<path d="M159.702 114.589C160.107 114.354 160.622 114.495 160.855 114.9C161.09 115.303 160.949 115.821 160.547 116.054C160.141 116.289 159.626 116.151 159.391 115.743C159.161 115.338 159.299 114.824 159.702 114.589Z" fill="white" />
	<path d="M159.899 108.922C160.394 108.427 161.197 108.427 161.692 108.922C162.187 109.415 162.187 110.222 161.692 110.715C161.2 111.212 160.396 111.208 159.899 110.715C159.407 110.222 159.407 109.415 159.899 108.922Z" fill="white" />
	<path d="M165.563 108.724C165.796 108.319 166.313 108.181 166.716 108.416C167.121 108.648 167.259 109.166 167.025 109.572C166.79 109.975 166.274 110.113 165.869 109.878C165.469 109.648 165.331 109.13 165.563 108.724Z" fill="white" />
	<path d="M162.902 103.718C163.084 103.041 163.779 102.638 164.453 102.82C165.128 103.002 165.53 103.695 165.351 104.372C165.169 105.05 164.474 105.451 163.8 105.269C163.121 105.089 162.72 104.395 162.902 103.718Z" fill="white" />
	<path d="M167.708 100.712C167.708 100.245 168.088 99.8669 168.553 99.8669C169.02 99.8669 169.398 100.247 169.398 100.712C169.398 101.18 169.02 101.558 168.553 101.558C168.086 101.558 167.708 101.18 167.708 100.712Z" fill="white" />
	<path d="M162.902 97.7092C162.72 97.032 163.123 96.3386 163.797 96.1566C164.474 95.9769 165.169 96.3754 165.351 97.0527C165.53 97.73 165.13 98.4234 164.453 98.6054C163.779 98.7896 163.084 98.3865 162.902 97.7092Z" fill="white" />
	<path d="M165.562 92.7026C165.327 92.2972 165.465 91.7812 165.868 91.5485C166.273 91.3135 166.791 91.4518 167.024 91.8595C167.258 92.2626 167.12 92.7786 166.715 93.0136C166.312 93.2463 165.797 93.1058 165.562 92.7026Z" fill="white" />
	<path d="M159.899 92.5075C159.407 92.0123 159.407 91.2083 159.899 90.713C160.394 90.2154 161.2 90.2154 161.692 90.713C162.187 91.2083 162.187 92.0123 161.692 92.5075C161.2 93.0028 160.394 93.0028 159.899 92.5075Z" fill="white" />
	<path d="M159.703 86.8398C159.298 86.6048 159.159 86.0888 159.394 85.6856C159.629 85.2802 160.142 85.142 160.55 85.377C160.95 85.6096 161.091 86.1256 160.858 86.5288C160.626 86.9342 160.108 87.0724 159.703 86.8398Z" fill="white" />
	<path d="M154.701 89.5036C154.022 89.3216 153.622 88.6282 153.803 87.9486C153.985 87.2714 154.68 86.8706 155.357 87.0502C156.031 87.2345 156.434 87.9256 156.252 88.6029C156.071 89.2847 155.378 89.6833 154.701 89.5036Z" fill="white" />
	<path d="M151.699 84.6909C151.232 84.6909 150.854 84.3131 150.854 83.8477C150.854 83.3778 151.232 83 151.699 83C152.166 83 152.544 83.3778 152.544 83.8477C152.546 84.3131 152.168 84.6909 151.699 84.6909Z" fill="white" />
	<path d="M148.697 89.5025C148.02 89.6822 147.327 89.2837 147.146 88.6064C146.966 87.9291 147.364 87.2334 148.041 87.0515C148.718 86.8718 149.413 87.2726 149.595 87.9499C149.776 88.6248 149.374 89.3205 148.697 89.5025Z" fill="white" />
	<path d="M143.695 86.8398C143.29 87.0724 142.775 86.9342 142.542 86.5288C142.307 86.1233 142.448 85.6096 142.851 85.377C143.256 85.142 143.771 85.2802 144.006 85.6856C144.239 86.0888 144.1 86.6048 143.695 86.8398Z" fill="white" />
	<path d="M143.496 92.5075C143.003 93.0028 142.198 93.0028 141.705 92.5075C141.208 92.0123 141.208 91.2083 141.705 90.713C142.198 90.2154 143.001 90.2154 143.496 90.713C143.993 91.2083 143.993 92.0123 143.496 92.5075Z" fill="white" />
	<path d="M137.835 92.7023C137.6 93.1078 137.084 93.246 136.682 93.0133C136.276 92.7783 136.138 92.2623 136.371 91.8592C136.603 91.4538 137.119 91.3155 137.526 91.5482C137.931 91.7809 138.07 92.2969 137.835 92.7023Z" fill="white" />
	<path d="M145.477 104.311C145.945 105.122 145.666 106.154 144.86 106.621C144.05 107.089 143.017 106.81 142.55 106.002C142.085 105.193 142.361 104.159 143.169 103.691C143.977 103.221 145.01 103.502 145.477 104.311Z" fill="#F9F9F9" />
	<path d="M148.104 106.943C148.911 107.411 149.19 108.445 148.723 109.254C148.255 110.062 147.222 110.339 146.414 109.871C145.606 109.406 145.328 108.369 145.795 107.56C146.262 106.752 147.296 106.475 148.104 106.943Z" fill="#F9F9F9" />
	<path d="M151.697 107.907C152.632 107.907 153.387 108.665 153.387 109.598C153.387 110.533 152.632 111.291 151.697 111.291C150.765 111.291 150.008 110.533 150.008 109.598C150.01 108.665 150.765 107.907 151.697 107.907Z" fill="#F9F9F9" />
	<path d="M155.293 106.944C156.101 106.478 157.135 106.752 157.602 107.561C158.069 108.367 157.793 109.404 156.983 109.871C156.175 110.339 155.142 110.063 154.674 109.252C154.207 108.443 154.486 107.409 155.293 106.944Z" fill="#F9F9F9" />
	<path d="M157.92 104.311C158.39 103.503 159.421 103.224 160.229 103.692C161.037 104.157 161.315 105.191 160.846 106C160.381 106.811 159.347 107.087 158.537 106.619C157.732 106.154 157.455 105.12 157.92 104.311Z" fill="#F9F9F9" />
	<path d="M158.885 100.712C158.885 99.7791 159.642 99.0212 160.574 99.0212C161.506 99.0212 162.264 99.7791 162.264 100.712C162.264 101.647 161.509 102.405 160.574 102.405C159.642 102.405 158.885 101.647 158.885 100.712Z" fill="#F9F9F9" />
	<path d="M151.7 94.9351C148.512 94.9374 145.927 97.522 145.925 100.713C145.927 103.905 148.512 106.49 151.698 106.49C154.89 106.488 157.475 103.903 157.47 100.713C157.475 97.522 154.89 94.9351 151.7 94.9351ZM151.698 103.629C150.091 103.629 148.786 102.325 148.786 100.715C148.786 99.1046 150.089 97.8008 151.698 97.8008C153.307 97.8008 154.609 99.1046 154.612 100.715C154.612 102.325 153.309 103.629 151.698 103.629Z" fill="white" />
	<path d="M157.92 97.1192C157.455 96.3106 157.732 95.2763 158.539 94.8087C159.35 94.3411 160.383 94.6198 160.848 95.4284C161.315 96.2369 161.039 97.2712 160.231 97.7389C159.421 98.2065 158.39 97.9278 157.92 97.1192Z" fill="#F9F9F9" />
	<path d="M155.294 94.4856C154.486 94.0157 154.207 92.9837 154.674 92.1728C155.142 91.3642 156.175 91.0855 156.983 91.5554C157.791 92.023 158.067 93.0551 157.602 93.8659C157.135 94.6768 156.101 94.9532 155.294 94.4856Z" fill="#F9F9F9" />
	<path d="M151.697 93.5199C150.765 93.5199 150.008 92.762 150.008 91.829C150.008 90.8961 150.763 90.1382 151.697 90.1382C152.632 90.1382 153.387 90.8938 153.387 91.829C153.389 92.762 152.634 93.5199 151.697 93.5199Z" fill="#F9F9F9" />
	<path d="M148.104 94.4852C147.296 94.9529 146.263 94.6741 145.798 93.8656C145.331 93.057 145.607 92.0227 146.417 91.555C147.225 91.0874 148.259 91.3661 148.726 92.1747C149.191 92.9833 148.915 94.0176 148.104 94.4852Z" fill="#F9F9F9" />
	<path d="M145.477 97.1192C145.012 97.9301 143.979 98.2065 143.169 97.7412C142.361 97.2736 142.085 96.2369 142.55 95.4284C143.017 94.6198 144.05 94.3411 144.86 94.8087C145.666 95.2763 145.945 96.3083 145.477 97.1192Z" fill="#F9F9F9" />
	<path d="M188.611 94.7674C188.765 94.7789 188.885 94.8088 188.968 94.8572C189.051 94.9056 189.11 94.9655 189.147 95.0369C189.184 95.1083 189.2 95.182 189.2 95.2604C189.2 95.3387 189.2 95.4124 189.2 95.4838L188.986 98.8955C188.975 99.0152 188.947 99.0913 188.906 99.1281C188.864 99.165 188.814 99.1811 188.754 99.1811H187.879C187.748 99.1811 187.677 99.0867 187.665 98.8955L187.575 96.2348H179.51C179.202 96.2348 178.949 96.1449 178.753 95.9676C178.557 95.7879 178.458 95.5091 178.458 95.129V83.9865C178.458 83.8667 178.481 83.793 178.53 83.763C178.578 83.7331 178.649 83.7192 178.744 83.7192H179.814C179.922 83.7192 179.996 83.7354 180.037 83.763C180.079 83.793 180.099 83.8667 180.099 83.9865V94.7904H186.381V83.9865C186.381 83.8667 186.408 83.793 186.461 83.763C186.514 83.7331 186.588 83.7192 186.684 83.7192H187.72C187.84 83.7192 187.918 83.7354 187.962 83.763C188.003 83.793 188.024 83.8667 188.024 83.9865V94.7351L188.611 94.7674Z" fill="white" />
	<path d="M194.391 86.6616C195.07 86.6616 195.655 86.7561 196.15 86.9473C196.642 87.1385 197.047 87.408 197.363 87.7604C197.678 88.1106 197.913 88.5275 198.067 89.0113C198.221 89.4928 198.299 90.0272 198.299 90.61C198.299 90.8957 198.263 91.1283 198.194 91.3057C198.122 91.4854 198.023 91.6236 197.899 91.725C197.775 91.8263 197.632 91.8977 197.471 91.9392C197.31 91.9807 197.142 92.0014 196.962 92.0014H191.825C191.825 92.5612 191.903 93.038 192.057 93.4296C192.211 93.8236 192.419 94.1415 192.674 94.3856C192.93 94.6298 193.229 94.8049 193.569 94.9132C193.91 95.0214 194.276 95.0744 194.672 95.0744C195.066 95.0744 195.455 95.0237 195.837 94.9224C196.219 94.821 196.534 94.7058 196.785 94.5745C196.928 94.4916 197.04 94.5215 197.123 94.6644L197.498 95.4153C197.581 95.5812 197.547 95.701 197.39 95.7724C196.962 96.035 196.502 96.2101 196.007 96.2999C195.512 96.3898 195.029 96.4335 194.552 96.4335C193.887 96.4335 193.289 96.3391 192.759 96.1479C192.23 95.9567 191.781 95.6664 191.413 95.2725C191.044 94.8786 190.761 94.3787 190.566 93.7729C190.37 93.1647 190.271 92.4391 190.271 91.5937C190.271 90.8081 190.375 90.1078 190.584 89.4951C190.791 88.8823 191.081 88.3663 191.45 87.9493C191.818 87.5324 192.253 87.2145 192.752 86.9933C193.25 86.7722 193.797 86.6616 194.391 86.6616ZM196.836 90.7505C196.836 90.382 196.799 90.0272 196.727 89.6886C196.656 89.3499 196.527 89.0528 196.343 88.7948C196.159 88.5391 195.908 88.3363 195.59 88.1866C195.275 88.0369 194.877 87.9632 194.4 87.9632C194.007 87.9632 193.657 88.0415 193.353 88.1958C193.049 88.3502 192.791 88.5552 192.582 88.8109C192.373 89.0666 192.209 89.3615 192.089 89.6955C191.97 90.0295 191.898 90.3797 191.875 90.7482H196.836V90.7505Z" fill="white" />
	<path d="M201.61 96.1703C201.557 96.2118 201.472 96.2325 201.355 96.2325H200.489C200.372 96.2325 200.284 96.2118 200.224 96.1703C200.165 96.1289 200.137 96.0437 200.137 95.9123V87.1632C200.137 87.0319 200.167 86.949 200.224 86.9121C200.284 86.8753 200.372 86.8591 200.489 86.8591H201.355C201.472 86.8591 201.557 86.8776 201.61 86.9121C201.663 86.949 201.691 87.0319 201.691 87.1632V90.538H206.312V87.1632C206.312 87.0319 206.34 86.949 206.393 86.9121C206.446 86.8753 206.533 86.8591 206.655 86.8591H207.539C207.67 86.8591 207.758 86.8776 207.802 86.9121C207.843 86.949 207.864 87.0319 207.864 87.1632V95.9123C207.864 96.0437 207.843 96.1289 207.802 96.1703C207.76 96.2118 207.673 96.2325 207.539 96.2325H206.655C206.536 96.2325 206.448 96.2118 206.393 96.1703C206.34 96.1289 206.312 96.0437 206.312 95.9123V91.858H201.691V95.9123C201.688 96.0413 201.663 96.1289 201.61 96.1703Z" fill="white" />
	<path d="M213.877 96.1707C213.829 96.2122 213.746 96.2329 213.626 96.2329H212.752C212.632 96.2329 212.549 96.2122 212.501 96.1707C212.452 96.1293 212.429 96.044 212.429 95.9127V88.2163H209.665C209.534 88.2163 209.449 88.1887 209.407 88.1357C209.366 88.0804 209.345 88.0067 209.345 87.91V87.2051C209.345 87.0968 209.366 87.0116 209.407 86.9517C209.449 86.8918 209.534 86.8618 209.665 86.8618H216.837C216.98 86.8618 217.07 86.8918 217.104 86.9517C217.141 87.0116 217.157 87.0968 217.157 87.2051V87.91C217.157 88.0067 217.139 88.0827 217.104 88.1357C217.067 88.191 216.98 88.2163 216.837 88.2163H213.946V95.9127C213.948 96.0417 213.925 96.1293 213.877 96.1707Z" fill="white" />
	<path d="M226.65 91.5361C226.65 92.2156 226.562 92.8491 226.392 93.4389C226.219 94.0286 225.964 94.5469 225.626 94.9915C225.287 95.4384 224.854 95.7885 224.332 96.0442C223.809 96.2999 223.202 96.4289 222.511 96.4289C222.178 96.4289 221.819 96.4105 221.432 96.376C221.045 96.3391 220.631 96.2562 220.191 96.1226V99.5895C220.191 99.6978 220.171 99.7646 220.129 99.7945C220.088 99.8245 220.019 99.8383 219.924 99.8383H218.925C218.831 99.8383 218.76 99.8222 218.711 99.7945C218.663 99.7646 218.64 99.6955 218.64 99.5895V87.6268C218.64 87.4725 218.711 87.3711 218.854 87.3228C219.448 87.0601 220.06 86.8851 220.691 86.7952C221.321 86.7054 221.922 86.6616 222.493 86.6616C223.206 86.6616 223.826 86.7837 224.348 87.0279C224.871 87.2721 225.303 87.6107 225.642 88.0461C225.98 88.4815 226.233 88.9952 226.399 89.5895C226.567 90.1862 226.65 90.8335 226.65 91.5361ZM225.025 91.5361C225.025 90.8841 224.96 90.3336 224.829 89.8844C224.698 89.4352 224.512 89.0735 224.268 88.8017C224.024 88.5299 223.731 88.3317 223.393 88.2073C223.055 88.083 222.67 88.0208 222.242 88.0208C221.934 88.0208 221.581 88.0507 221.19 88.1106C220.797 88.1705 220.465 88.2534 220.191 88.3594V94.7542C220.642 94.8855 221.034 94.9708 221.36 95.0122C221.687 95.0537 221.989 95.0744 222.26 95.0744C222.666 95.0744 223.036 95.0122 223.374 94.8878C223.713 94.7634 224.005 94.563 224.249 94.2843C224.493 94.0055 224.684 93.6416 224.82 93.1924C224.958 92.7386 225.025 92.188 225.025 91.5361Z" fill="white" />
	<path d="M179.531 106.332C179.543 106.023 179.632 105.795 179.8 105.652C179.966 105.509 180.182 105.438 180.445 105.438H185.044C185.389 105.438 185.621 105.516 185.741 105.67C185.861 105.825 185.921 106.046 185.921 106.332V114.546C185.921 114.666 185.895 114.74 185.849 114.77C185.801 114.8 185.711 114.813 185.578 114.813H184.694C184.586 114.813 184.505 114.8 184.45 114.77C184.395 114.74 184.369 114.666 184.369 114.546V106.797H180.926L180.818 108.135C180.723 109.326 180.622 110.324 180.514 111.125C180.406 111.929 180.251 112.593 180.049 113.116C179.846 113.639 179.577 114.046 179.236 114.339C178.898 114.631 178.454 114.86 177.908 115.025C177.837 115.048 177.756 115.067 177.667 115.078C177.577 115.09 177.515 115.037 177.48 114.917L177.248 114.203C177.188 114.037 177.259 113.906 177.462 113.809C177.784 113.666 178.046 113.493 178.256 113.291C178.463 113.088 178.64 112.791 178.783 112.397C178.926 112.003 179.041 111.48 179.131 110.826C179.22 110.172 179.305 109.315 179.388 108.255L179.531 106.332Z" fill="white" />
	<path d="M192.121 116.347C191.847 117.17 191.497 117.741 191.069 118.061C190.641 118.384 190.093 118.542 189.428 118.542C189.262 118.542 189.052 118.531 188.804 118.506C188.553 118.483 188.281 118.427 187.982 118.344C187.791 118.296 187.72 118.202 187.768 118.059L187.964 117.273C187.987 117.179 188.024 117.121 188.072 117.103C188.12 117.084 188.185 117.087 188.268 117.112C188.493 117.172 188.663 117.211 188.776 117.227C188.889 117.246 189.023 117.255 189.177 117.255C189.582 117.255 189.909 117.174 190.157 117.013C190.408 116.852 190.608 116.534 190.765 116.057C190.776 116.02 190.806 115.937 190.855 115.806C190.903 115.674 190.954 115.534 191.007 115.387C191.06 115.237 191.108 115.099 191.149 114.967C191.191 114.836 191.218 114.753 191.23 114.716H190.891C190.726 114.716 190.578 114.689 190.454 114.636C190.33 114.583 190.219 114.401 190.125 114.092L187.377 105.628C187.34 105.497 187.395 105.433 187.538 105.433H188.732C188.864 105.433 188.947 105.493 188.983 105.612C189.006 105.695 189.057 105.859 189.135 106.103C189.214 106.347 189.306 106.633 189.411 106.96C189.52 107.287 189.632 107.639 189.75 108.013C189.87 108.388 189.982 108.738 190.088 109.065C190.196 109.393 190.286 109.68 190.364 109.932C190.443 110.183 190.491 110.342 190.516 110.413L191.425 113.555H191.534C191.57 113.461 191.642 113.246 191.748 112.912C191.856 112.578 191.964 112.226 192.077 111.85C192.19 111.475 192.298 111.136 192.399 110.832C192.5 110.528 192.556 110.365 192.569 110.342C192.581 110.319 192.62 110.208 192.685 110.012C192.749 109.816 192.834 109.57 192.935 109.27C193.037 108.973 193.147 108.648 193.265 108.298C193.384 107.948 193.499 107.598 193.612 107.255C193.725 106.909 193.833 106.591 193.932 106.299C194.033 106.006 194.114 105.778 194.174 105.612C194.211 105.493 194.293 105.433 194.425 105.433H195.566C195.709 105.433 195.762 105.497 195.727 105.628L192.121 116.347Z" fill="white" />
	<path d="M196.979 105.705C196.979 105.585 197.002 105.511 197.05 105.482C197.097 105.452 197.168 105.438 197.262 105.438H198.25C198.344 105.438 198.413 105.454 198.461 105.482C198.507 105.511 198.533 105.585 198.533 105.705V107.794C198.533 108.246 198.576 108.617 198.666 108.902C198.756 109.188 198.894 109.411 199.078 109.573C199.262 109.734 199.502 109.847 199.794 109.911C200.086 109.976 200.429 110.01 200.825 110.01C201.136 110.01 201.495 109.983 201.9 109.93C202.305 109.877 202.664 109.789 202.975 109.672V105.707C202.975 105.587 202.996 105.514 203.037 105.484C203.079 105.454 203.152 105.44 203.26 105.44H204.241C204.335 105.44 204.407 105.456 204.455 105.484C204.503 105.514 204.526 105.587 204.526 105.707V114.546C204.526 114.666 204.503 114.74 204.455 114.77C204.407 114.8 204.335 114.813 204.241 114.813H203.26C203.152 114.813 203.079 114.8 203.037 114.77C202.996 114.74 202.975 114.666 202.975 114.546V110.992C202.63 111.112 202.229 111.204 201.771 111.268C201.313 111.333 200.917 111.367 200.586 111.367C199.325 111.367 198.408 111.072 197.838 110.483C197.267 109.893 196.981 108.985 196.981 107.76V105.705H196.979Z" fill="white" />
	<path d="M210.629 105.242C211.308 105.242 211.892 105.337 212.387 105.528C212.88 105.719 213.285 105.989 213.6 106.341C213.915 106.691 214.15 107.108 214.304 107.592C214.459 108.074 214.537 108.608 214.537 109.191C214.537 109.476 214.502 109.709 214.431 109.887C214.36 110.066 214.261 110.204 214.136 110.306C214.012 110.407 213.869 110.479 213.708 110.52C213.547 110.561 213.379 110.582 213.2 110.582H208.062C208.062 111.142 208.14 111.619 208.295 112.01C208.449 112.404 208.656 112.722 208.912 112.966C209.167 113.211 209.466 113.386 209.807 113.494C210.148 113.6 210.513 113.655 210.909 113.655C211.303 113.655 211.692 113.605 212.074 113.503C212.456 113.402 212.771 113.287 213.022 113.155C213.165 113.072 213.278 113.102 213.361 113.245L213.736 113.996C213.819 114.162 213.784 114.282 213.628 114.353C213.2 114.616 212.739 114.791 212.244 114.881C211.75 114.971 211.266 115.014 210.79 115.014C210.125 115.014 209.526 114.92 208.997 114.729C208.467 114.538 208.018 114.247 207.65 113.853C207.282 113.459 206.999 112.96 206.803 112.354C206.608 111.746 206.509 111.02 206.509 110.174C206.509 109.389 206.612 108.689 206.822 108.076C207.029 107.463 207.319 106.947 207.687 106.53C208.055 106.113 208.49 105.795 208.99 105.574C209.487 105.353 210.032 105.242 210.629 105.242ZM213.073 109.331C213.073 108.963 213.036 108.608 212.965 108.269C212.893 107.931 212.765 107.634 212.58 107.376C212.396 107.12 212.145 106.917 211.828 106.767C211.512 106.618 211.114 106.544 210.638 106.544C210.244 106.544 209.894 106.622 209.591 106.777C209.287 106.931 209.029 107.136 208.819 107.392C208.61 107.647 208.447 107.942 208.327 108.276C208.207 108.61 208.136 108.96 208.113 109.329H213.073V109.331Z" fill="white" />
	<path d="M222.699 109.778C223.27 109.969 223.675 110.275 223.912 110.697C224.149 111.121 224.268 111.575 224.268 112.063C224.268 112.48 224.188 112.855 224.027 113.187C223.866 113.521 223.649 113.809 223.375 114.053C223.101 114.297 222.777 114.484 222.404 114.615C222.029 114.747 221.621 114.811 221.182 114.811H217.115C216.864 114.811 216.677 114.747 216.553 114.615C216.429 114.484 216.367 114.311 216.367 114.097V106.152C216.367 105.926 216.431 105.751 216.562 105.624C216.694 105.5 216.878 105.438 217.115 105.438H221.005C221.838 105.438 222.521 105.624 223.055 106C223.592 106.375 223.859 106.967 223.859 107.776C223.859 108.181 223.755 108.557 223.546 108.9C223.339 109.246 223.06 109.501 222.717 109.667L222.699 109.778ZM217.918 109.206H220.933C221.053 109.206 221.191 109.186 221.352 109.144C221.513 109.103 221.658 109.036 221.79 108.939C221.921 108.845 222.033 108.718 222.128 108.559C222.222 108.4 222.271 108.195 222.271 107.946C222.271 107.628 222.158 107.357 221.932 107.131C221.707 106.907 221.403 106.795 221.023 106.795H217.918V109.206ZM222.664 111.973C222.664 111.508 222.512 111.135 222.208 110.849C221.905 110.563 221.451 110.42 220.844 110.42H217.918V113.599H220.827C221.207 113.599 221.518 113.546 221.755 113.438C221.992 113.332 222.181 113.196 222.317 113.037C222.452 112.876 222.544 112.701 222.593 112.51C222.639 112.319 222.664 112.141 222.664 111.973Z" fill="white" />
	<path d="M234.144 110.079C234.144 111.676 233.785 112.895 233.067 113.74C232.348 114.585 231.306 115.007 229.943 115.007C228.601 115.007 227.582 114.597 226.882 113.774C226.182 112.952 225.832 111.738 225.832 110.132C225.832 109.347 225.936 108.651 226.143 108.043C226.35 107.435 226.642 106.924 227.015 106.507C227.388 106.09 227.832 105.774 228.341 105.56C228.852 105.346 229.402 105.237 229.996 105.237C231.349 105.237 232.378 105.666 233.085 106.523C233.792 107.384 234.144 108.568 234.144 110.079ZM232.592 110.135C232.592 109.669 232.556 109.22 232.484 108.787C232.413 108.352 232.282 107.972 232.091 107.645C231.9 107.317 231.639 107.053 231.306 106.85C230.972 106.647 230.544 106.546 230.021 106.546C229.57 106.546 229.177 106.64 228.843 106.831C228.509 107.023 228.235 107.278 228.021 107.599C227.807 107.921 227.646 108.294 227.54 108.723C227.432 109.151 227.379 109.603 227.379 110.079C227.379 110.616 227.42 111.107 227.503 111.552C227.586 111.998 227.729 112.378 227.931 112.694C228.134 113.01 228.399 113.256 228.726 113.436C229.052 113.616 229.467 113.703 229.966 113.703C230.466 113.703 230.885 113.602 231.223 113.399C231.561 113.196 231.833 112.929 232.035 112.595C232.238 112.261 232.381 111.881 232.463 111.452C232.551 111.026 232.592 110.586 232.592 110.135Z" fill="white" />
	<path d="M236.101 105.705C236.101 105.585 236.124 105.509 236.172 105.472C236.22 105.435 236.292 105.419 236.388 105.419H237.362C237.47 105.419 237.546 105.438 237.587 105.472C237.629 105.509 237.65 105.585 237.65 105.705V112.597H237.721C238.006 112.146 238.264 111.731 238.494 111.356C238.727 110.98 238.989 110.579 239.286 110.151L241.972 105.991C242.09 105.788 242.202 105.645 242.311 105.562C242.416 105.479 242.589 105.438 242.826 105.438H243.289C243.491 105.438 243.659 105.498 243.795 105.617C243.931 105.737 244 105.914 244 106.154V114.565C244 114.671 243.979 114.74 243.938 114.77C243.896 114.8 243.823 114.813 243.715 114.813H242.734C242.64 114.813 242.568 114.8 242.52 114.77C242.472 114.74 242.449 114.671 242.449 114.565V107.744H242.345C242.202 107.958 242.073 108.158 241.961 108.342C241.848 108.527 241.735 108.711 241.622 108.895C241.51 109.08 241.392 109.269 241.275 109.457C241.155 109.649 241.024 109.851 240.881 110.066L238.098 114.279C237.967 114.482 237.841 114.622 237.714 114.698C237.59 114.776 237.426 114.813 237.224 114.813H236.814C236.6 114.813 236.427 114.758 236.296 114.643C236.165 114.53 236.101 114.355 236.101 114.115V105.705ZM239.956 104.491C239.362 104.491 238.819 104.307 238.333 103.938C237.845 103.569 237.429 103.129 237.083 102.616C237.06 102.579 237.04 102.533 237.021 102.473C237.003 102.413 237.042 102.349 237.136 102.277L237.475 101.973C237.583 101.913 237.654 101.892 237.689 101.911C237.723 101.929 237.783 101.973 237.868 102.044C238.214 102.425 238.573 102.724 238.948 102.938C239.323 103.152 239.682 103.261 240.027 103.261C240.29 103.261 240.591 103.18 240.936 103.019C241.282 102.858 241.698 102.517 242.186 101.991C242.281 101.909 242.347 101.869 242.382 101.876C242.419 101.883 242.465 101.904 242.525 101.938L242.881 102.224C242.976 102.319 243.015 102.397 242.996 102.457C242.978 102.517 242.957 102.565 242.934 102.6C242.435 103.279 241.926 103.763 241.408 104.055C240.893 104.346 240.407 104.491 239.956 104.491Z" fill="white" />
	<path d="M181.833 133.33C181.785 133.372 181.702 133.392 181.582 133.392H180.708C180.588 133.392 180.505 133.372 180.457 133.33C180.408 133.289 180.385 133.203 180.385 133.072V125.376H177.621C177.49 125.376 177.405 125.348 177.363 125.295C177.322 125.242 177.301 125.166 177.301 125.069V124.364C177.301 124.256 177.322 124.171 177.363 124.111C177.405 124.051 177.49 124.021 177.621 124.021H184.793C184.936 124.021 185.026 124.051 185.06 124.111C185.095 124.171 185.113 124.256 185.113 124.364V125.069C185.113 125.166 185.095 125.242 185.06 125.295C185.023 125.35 184.936 125.376 184.793 125.376H181.902V133.072C181.905 133.203 181.879 133.289 181.833 133.33Z" fill="white" />
	<path d="M190.094 123.822C190.773 123.822 191.358 123.917 191.853 124.108C192.345 124.299 192.75 124.569 193.066 124.921C193.381 125.271 193.616 125.688 193.77 126.172C193.924 126.653 194.003 127.188 194.003 127.771C194.003 128.056 193.968 128.289 193.897 128.466C193.825 128.646 193.726 128.784 193.602 128.886C193.478 128.987 193.335 129.058 193.174 129.1C193.013 129.141 192.845 129.162 192.665 129.162H187.528C187.528 129.722 187.606 130.199 187.76 130.59C187.915 130.984 188.122 131.302 188.377 131.546C188.633 131.79 188.932 131.966 189.273 132.074C189.613 132.182 189.979 132.235 190.375 132.235C190.769 132.235 191.158 132.184 191.54 132.083C191.922 131.982 192.237 131.866 192.488 131.735C192.631 131.652 192.743 131.682 192.826 131.825L193.202 132.576C193.284 132.742 193.25 132.862 193.093 132.933C192.665 133.196 192.205 133.371 191.71 133.461C191.217 133.55 190.732 133.594 190.255 133.594C189.59 133.594 188.992 133.5 188.462 133.309C187.933 133.117 187.484 132.827 187.116 132.433C186.748 132.039 186.465 131.539 186.269 130.934C186.073 130.325 185.974 129.6 185.974 128.754C185.974 127.969 186.078 127.268 186.287 126.656C186.494 126.043 186.784 125.527 187.153 125.11C187.521 124.693 187.956 124.375 188.455 124.154C188.953 123.931 189.498 123.822 190.094 123.822ZM192.539 127.911C192.539 127.543 192.502 127.188 192.43 126.849C192.359 126.511 192.23 126.213 192.046 125.955C191.862 125.7 191.611 125.497 191.293 125.347C190.978 125.198 190.58 125.124 190.103 125.124C189.71 125.124 189.36 125.202 189.056 125.356C188.752 125.511 188.495 125.716 188.285 125.972C188.076 126.227 187.912 126.522 187.793 126.856C187.673 127.19 187.602 127.54 187.579 127.909H192.539V127.911Z" fill="white" />
	<path d="M203.804 128.698C203.804 129.377 203.716 130.011 203.546 130.601C203.374 131.19 203.118 131.709 202.78 132.153C202.441 132.6 202.009 132.95 201.486 133.206C200.964 133.462 200.356 133.591 199.665 133.591C199.332 133.591 198.973 133.572 198.586 133.538C198.199 133.501 197.785 133.418 197.345 133.284V136.751C197.345 136.857 197.325 136.926 197.283 136.956C197.242 136.986 197.173 137 197.078 137H196.079C195.985 137 195.914 136.984 195.865 136.956C195.817 136.926 195.794 136.857 195.794 136.751V124.786C195.794 124.632 195.865 124.531 196.008 124.482C196.602 124.22 197.214 124.044 197.845 123.955C198.476 123.865 199.076 123.821 199.647 123.821C200.361 123.821 200.98 123.943 201.502 124.187C202.025 124.432 202.457 124.77 202.796 125.206C203.134 125.641 203.387 126.155 203.553 126.749C203.721 127.346 203.804 127.995 203.804 128.698ZM202.179 128.698C202.179 128.046 202.114 127.495 201.983 127.046C201.852 126.597 201.666 126.235 201.422 125.963C201.178 125.692 200.885 125.493 200.547 125.369C200.209 125.245 199.824 125.182 199.396 125.182C199.088 125.182 198.736 125.212 198.344 125.272C197.951 125.332 197.619 125.415 197.345 125.521V131.916C197.797 132.047 198.188 132.132 198.515 132.174C198.841 132.215 199.143 132.236 199.415 132.236C199.82 132.236 200.19 132.174 200.529 132.05C200.867 131.925 201.159 131.725 201.403 131.446C201.647 131.167 201.838 130.803 201.974 130.354C202.112 129.9 202.179 129.35 202.179 128.698Z" fill="white" />
	<path d="M212.988 132.519C212.988 132.756 212.898 132.912 212.721 132.984C212.185 133.221 211.607 133.382 210.981 133.465C210.357 133.548 209.759 133.59 209.188 133.59C208.415 133.59 207.782 133.509 207.287 133.348C206.792 133.187 206.403 132.968 206.118 132.694C205.832 132.419 205.632 132.102 205.519 131.745C205.406 131.385 205.349 131.01 205.349 130.616C205.349 130.21 205.418 129.814 205.554 129.425C205.69 129.038 205.913 128.697 206.224 128.404C206.532 128.112 206.935 127.877 207.427 127.697C207.92 127.517 208.525 127.428 209.239 127.428H211.416V127.038C211.416 126.755 211.389 126.502 211.336 126.276C211.283 126.052 211.177 125.856 211.023 125.691C210.868 125.525 210.65 125.398 210.371 125.311C210.093 125.223 209.731 125.177 209.292 125.177C208.875 125.177 208.433 125.214 207.964 125.285C207.494 125.357 207.11 125.44 206.813 125.536C206.718 125.573 206.64 125.585 206.58 125.573C206.52 125.562 206.479 125.509 206.456 125.412L206.242 124.645C206.219 124.585 206.214 124.53 206.233 124.474C206.251 124.421 206.306 124.375 206.403 124.341C206.854 124.15 207.372 124.016 207.954 123.94C208.537 123.862 209.073 123.825 209.561 123.825C210.751 123.825 211.619 124.09 212.166 124.619C212.714 125.149 212.988 125.921 212.988 126.932V132.519V132.519ZM211.4 128.787H209.331C209.117 128.787 208.87 128.803 208.59 128.83C208.311 128.86 208.046 128.939 207.796 129.063C207.545 129.188 207.335 129.372 207.163 129.616C206.99 129.86 206.905 130.197 206.905 130.625C206.905 130.947 206.965 131.217 207.082 131.438C207.202 131.659 207.361 131.832 207.563 131.956C207.766 132.081 208.003 132.171 208.277 132.224C208.551 132.277 208.847 132.304 209.17 132.304C209.278 132.304 209.416 132.302 209.589 132.295C209.761 132.288 209.952 132.272 210.159 132.242C210.367 132.212 210.578 132.178 210.792 132.134C211.006 132.092 211.209 132.035 211.4 131.963V128.787V128.787Z" fill="white" />
	<path d="M216.807 133.348C216.758 133.378 216.687 133.392 216.593 133.392H215.612C215.518 133.392 215.446 133.378 215.398 133.348C215.35 133.318 215.327 133.245 215.327 133.125V124.751C215.327 124.62 215.38 124.465 215.488 124.286C215.596 124.106 215.792 124.019 216.077 124.019H222.483C222.768 124.019 222.964 124.108 223.072 124.286C223.18 124.465 223.233 124.62 223.233 124.751V133.125C223.233 133.245 223.212 133.318 223.171 133.348C223.129 133.378 223.056 133.392 222.948 133.392H221.967C221.873 133.392 221.801 133.378 221.753 133.348C221.705 133.318 221.682 133.245 221.682 133.125V125.375H216.883V133.125C216.878 133.245 216.855 133.318 216.807 133.348Z" fill="white" />
	<path d="M225.59 124.286C225.59 124.167 225.613 124.091 225.661 124.054C225.709 124.017 225.781 124.001 225.877 124.001H226.851C226.959 124.001 227.035 124.019 227.077 124.054C227.118 124.091 227.139 124.167 227.139 124.286V131.179H227.21C227.496 130.727 227.753 130.313 227.983 129.937C228.216 129.562 228.478 129.161 228.775 128.732L231.461 124.572C231.579 124.369 231.691 124.226 231.8 124.144C231.906 124.061 232.078 124.019 232.315 124.019H232.778C232.98 124.019 233.148 124.079 233.284 124.199C233.42 124.319 233.489 124.496 233.489 124.736V133.146C233.489 133.254 233.468 133.321 233.427 133.351C233.386 133.381 233.312 133.395 233.204 133.395H232.223C232.129 133.395 232.057 133.381 232.009 133.351C231.961 133.321 231.938 133.252 231.938 133.146V126.325H231.832C231.689 126.539 231.56 126.74 231.448 126.924C231.335 127.108 231.222 127.293 231.109 127.477C230.996 127.661 230.879 127.85 230.762 128.039C230.642 128.23 230.511 128.433 230.368 128.647L227.585 132.86C227.454 133.063 227.327 133.204 227.201 133.28C227.077 133.358 226.913 133.395 226.711 133.395H226.301C226.087 133.395 225.914 133.34 225.783 133.224C225.652 133.112 225.587 132.936 225.587 132.697V124.286H225.59Z" fill="white" />
	<path d="M235.863 124.286C235.863 124.167 235.886 124.091 235.935 124.054C235.983 124.017 236.054 124.001 236.151 124.001H237.125C237.233 124.001 237.309 124.019 237.35 124.054C237.392 124.091 237.412 124.167 237.412 124.286V131.179H237.484C237.769 130.727 238.027 130.313 238.257 129.937C238.49 129.562 238.752 129.161 239.049 128.732L241.735 124.572C241.852 124.369 241.965 124.226 242.073 124.144C242.179 124.061 242.352 124.019 242.589 124.019H243.052C243.254 124.019 243.422 124.079 243.558 124.199C243.694 124.319 243.763 124.496 243.763 124.736V133.146C243.763 133.254 243.742 133.321 243.701 133.351C243.659 133.381 243.586 133.395 243.477 133.395H242.497C242.402 133.395 242.331 133.381 242.283 133.351C242.234 133.321 242.211 133.252 242.211 133.146V126.325H242.106C241.963 126.539 241.834 126.74 241.721 126.924C241.608 127.108 241.496 127.293 241.383 127.477C241.27 127.661 241.153 127.85 241.035 128.039C240.916 128.23 240.784 128.433 240.642 128.647L237.859 132.86C237.728 133.063 237.601 133.204 237.475 133.28C237.35 133.358 237.187 133.395 236.984 133.395H236.575C236.361 133.395 236.188 133.34 236.057 133.224C235.926 133.112 235.861 132.936 235.861 132.697V124.286H235.863Z" fill="white" />
</svg>
