<svg width="378" height="220" viewBox="0 0 378 220" fill="none" xmlns="http://www.w3.org/2000/svg">
	<path d="M197.202 122.927C195.791 122.927 194.462 122.379 193.462 121.367C192.461 120.354 191.919 119.01 191.919 117.583V115.807H190.164C188.753 115.807 187.424 115.26 186.423 114.247C185.422 113.235 184.881 111.891 184.881 110.463C184.881 109.036 185.422 107.692 186.423 106.68C187.424 105.667 188.753 105.12 190.164 105.12H191.919V103.344C191.919 101.917 192.461 100.572 193.462 99.56C194.462 98.5477 195.791 98 197.202 98C198.613 98 199.942 98.5477 200.943 99.56C201.944 100.572 202.485 101.917 202.485 103.344V105.12H204.241C205.652 105.12 206.981 105.667 207.982 106.68C208.983 107.692 209.524 109.036 209.524 110.463C209.524 111.891 208.983 113.235 207.982 114.247C206.981 115.26 205.652 115.807 204.241 115.807H202.485V117.583C202.485 119.01 201.944 120.354 200.943 121.367C199.942 122.363 198.613 122.927 197.202 122.927ZM190.164 108.688C189.196 108.688 188.408 109.484 188.408 110.463C188.408 111.443 189.196 112.239 190.164 112.239H191.952C193.872 112.239 195.447 113.832 195.447 115.774V117.583C195.447 118.562 196.234 119.359 197.202 119.359C198.17 119.359 198.958 118.562 198.958 117.583V115.774C198.958 113.832 200.533 112.239 202.453 112.239H204.241C205.209 112.239 205.997 111.443 205.997 110.463C205.997 109.484 205.209 108.688 204.241 108.688H202.453C200.533 108.688 198.958 107.094 198.958 105.153V103.344C198.958 102.365 198.17 101.568 197.202 101.568C196.234 101.568 195.447 102.365 195.447 103.344V105.153C195.447 107.094 193.872 108.688 191.952 108.688H190.164Z" fill="white" />
	<path d="M75.1854 114.049C74.7096 113.286 74.3486 113.053 73.5775 113.053H72.7408V119.094H69V103.527H72.7408V109.402H73.5611C74.3322 109.402 74.6768 109.137 75.169 108.406L78.2535 103.544H82.4536L78.6965 109.518C77.8597 110.68 77.3839 110.962 77.0886 111.161C77.4003 111.344 77.8761 111.609 78.7129 112.937L82.6013 119.094H78.3683L75.1854 114.049Z" fill="white" />
	<path d="M88.5406 119.094H84.3896L90.6735 103.527H92.9212L99.123 119.094H94.9721L91.7563 110.448L88.5406 119.094Z" fill="white" />
	<path d="M110.624 119.094V110.531L104.242 119.094H101.994V103.527H105.735V112.091C109.079 114.583 112.117 103.527 112.117 103.527H114.365V119.094H110.624Z" fill="white" />
	<path d="M126.867 119.094V113.103H122.092V119.111H118.352V103.527H122.092V109.502H126.867V103.527H130.608V119.094H126.867Z" fill="white" />
	<path d="M143.225 119.094V110.531L136.842 119.094H134.595V103.527H138.336V112.091L144.718 103.527H146.966V119.094H143.225V119.094Z" fill="white" />
	<path d="M157.351 114.049C156.876 113.286 156.515 113.053 155.744 113.053H154.907V119.094H151.166V103.527H154.907V109.402H155.727C156.498 109.402 156.843 109.137 157.335 108.406L160.42 103.544H164.62L160.862 109.518C160.026 110.68 159.55 110.962 159.255 111.161C159.566 111.344 160.042 111.609 160.879 112.937L164.767 119.094H160.551L157.351 114.049Z" fill="white" />
	<path d="M176.284 119.094V110.531L169.902 119.094H167.654V103.527H171.395V112.091L177.777 103.527H180.025V119.094H176.284Z" fill="white" />
	<path d="M216.383 119.078H212.232L218.516 103.511H220.764L226.966 119.078H222.815L219.599 110.431L216.383 119.078Z" fill="white" />
	<path d="M237.466 119.078V115.559H236.547C235.12 115.609 234.923 115.974 233.774 117.733L232.937 119.061H228.737L229.951 117.152C230.903 115.659 231.526 114.812 232.134 114.348C230.181 113.435 229.115 111.676 229.115 109.518C229.115 106.315 231.297 103.494 235.792 103.494H241.207V119.078H237.466ZM235.448 107.062C233.84 107.062 232.659 107.925 232.659 109.535C232.659 111.228 233.84 111.975 235.448 111.975H237.466V107.062H235.448Z" fill="white" />
	<path d="M256.514 121.949V119.078H248.032V121.949H244.291V115.493H246.342L251.198 103.511H253.446L258.22 115.493H260.271V121.949H256.514ZM250.378 115.493H254.184L252.298 110.415L250.378 115.493Z" fill="white" />
	<path d="M277.433 111.294C277.433 115.692 273.922 119.227 269.591 119.227C265.259 119.227 261.765 115.692 261.765 111.294C261.765 106.913 265.259 103.361 269.591 103.361C273.922 103.361 277.433 106.913 277.433 111.294ZM265.505 111.294C265.505 113.983 267.31 115.659 269.591 115.659C271.904 115.659 273.709 113.999 273.709 111.294C273.709 108.622 271.904 106.913 269.591 106.913C267.31 106.913 265.505 108.622 265.505 111.294Z" fill="white" />
	<path d="M286.917 103.511C291.461 103.511 292.216 106.315 292.216 107.743C292.216 109.518 291.297 110.531 290.329 111.012C291.707 111.361 292.675 112.771 292.675 114.53C292.675 116.97 291.314 119.094 286.802 119.094H280.797V103.511H286.917ZM284.538 109.469H287.327C288.426 109.469 288.672 108.689 288.672 108.274C288.672 107.859 288.459 107.079 287.327 107.079H284.538V109.469ZM284.538 115.493H287.589C288.771 115.493 289.148 114.729 289.148 114.099C289.148 113.468 288.754 112.721 287.589 112.721H284.538V115.493Z" fill="white" />
	<path d="M298.434 119.078H294.283L300.567 103.511H302.815L309.017 119.078H304.866L304.078 116.92H299.238L298.434 119.078ZM300.518 113.335H302.766L301.65 110.315L300.518 113.335Z" fill="white" />
</svg>
