<svg width="378" height="220" viewBox="0 0 378 220" fill="none" xmlns="http://www.w3.org/2000/svg">
	<g clip-path="url(#clip0_153_7359)">
		<path d="M173.073 116.888C173.255 116.715 173.533 116.333 173.481 116.263C173.108 115.786 172.691 115.318 172.206 114.962C172.075 114.867 171.633 115.17 171.364 115.335C171.191 115.439 171.069 115.622 170.913 115.752C166.489 119.421 160.85 118.632 157.293 114.823C152.86 110.078 154.439 101.724 161.067 99.3035C164.684 97.9849 168.215 98.4187 171.138 101.29C171.381 101.533 171.815 101.984 171.876 101.941C172.37 101.585 172.865 101.195 173.194 100.7C173.307 100.527 173.047 99.9455 172.804 99.7199C169.247 96.3193 165.031 95.4691 160.494 97.0914C154.248 99.3209 151.437 105.203 152.999 111.605C154.109 116.142 158.646 120.48 164.84 120.271C167.885 120.393 170.661 119.092 173.073 116.888ZM143.326 108.707C142.224 108.707 141.131 108.707 140.038 108.707C138.398 108.716 138.45 108.742 137.826 110.2C137.453 111.084 137.904 110.859 138.442 110.85C140.498 110.807 142.554 110.85 144.61 110.789C145.529 110.763 145.816 111.128 145.772 111.995C145.729 112.95 145.729 113.913 145.772 114.875C145.807 115.63 145.547 116.116 144.896 116.567C142.354 118.337 139.561 118.614 136.672 117.886C132.673 116.888 129.498 112.611 129.636 108.161C129.784 103.337 134.113 98.8698 138.997 98.783C141.773 98.731 144.063 99.6852 146.102 101.464C146.353 101.681 146.787 102.071 146.874 102.01C147.36 101.672 147.846 101.264 148.158 100.77C148.262 100.596 147.941 100.024 147.672 99.7807C144.332 96.6576 140.281 95.8421 136.056 97.0133C129.532 98.8264 126.019 105.046 127.849 111.822C130.079 120.072 140.264 123.533 147.308 117.556C147.724 117.2 148.123 116.558 148.141 116.029C148.236 113.843 148.175 111.64 148.175 109.445C148.175 108.933 147.932 108.699 147.429 108.699C146.067 108.707 144.697 108.707 143.326 108.707ZM213.317 112.819C213.317 112.49 213.256 112.151 213.178 111.839C213.161 111.761 212.97 111.674 212.857 111.674C212.745 111.674 212.58 111.761 212.536 111.848C212.45 112.021 212.406 112.23 212.406 112.42C212.406 115.986 212.406 119.551 212.415 123.117C212.415 123.308 212.476 123.516 212.554 123.689C212.597 123.785 212.762 123.863 212.866 123.863C212.97 123.863 213.152 123.768 213.17 123.681C213.248 123.36 213.309 123.021 213.309 122.692C213.326 121.044 213.317 119.404 213.317 117.756C213.326 116.116 213.335 114.468 213.317 112.819ZM231.093 117.756C231.093 115.908 231.101 114.06 231.075 112.221C231.075 112.021 230.876 111.822 230.763 111.622C230.563 111.822 230.182 112.013 230.182 112.212C230.147 115.908 230.156 119.603 230.182 123.299C230.182 123.499 230.425 123.689 230.563 123.88C230.711 123.689 230.98 123.499 230.98 123.299C231.015 121.451 230.997 119.603 230.997 117.756C231.032 117.756 231.067 117.756 231.093 117.756ZM203.341 117.539C203.341 119.317 203.341 121.087 203.341 122.865C203.341 123.447 203.384 123.984 204.165 123.984C206.212 123.984 208.26 123.984 210.307 123.958C210.454 123.958 210.593 123.733 210.732 123.62C210.567 123.455 210.402 123.16 210.237 123.152C208.667 123.108 207.097 123.134 205.527 123.108C204.312 123.082 204.286 123.056 204.278 121.833C204.26 119.031 204.278 116.237 204.278 113.435C204.278 112.958 204.286 112.481 204.234 112.004C204.217 111.874 203.957 111.692 203.809 111.692C203.662 111.692 203.427 111.883 203.401 112.021C203.332 112.351 203.358 112.698 203.358 113.036C203.341 114.537 203.341 116.038 203.341 117.539ZM200.322 123.03C200.495 122.883 200.469 122.492 200.539 122.215C200.304 122.249 200.009 122.197 199.853 122.327C198.682 123.273 197.355 123.681 195.854 123.629C193.468 123.542 191.43 122.015 190.649 119.69C189.851 117.331 190.606 115.04 192.731 113.34C194.423 111.978 196.947 111.735 199.064 112.967C199.472 113.201 199.793 113.592 200.192 113.852C200.287 113.921 200.591 113.834 200.677 113.722C200.764 113.609 200.747 113.375 200.703 113.21C200.677 113.097 200.521 113.01 200.426 112.924C198.578 111.267 195.056 110.868 192.931 112.134C190.354 113.67 188.905 116.827 189.781 119.682C190.675 122.596 192.991 124.427 196.383 124.418C197.728 124.531 199.116 124.028 200.322 123.03ZM244.426 123.299C244.643 123.143 244.869 122.961 245.016 122.744C245.094 122.622 245.077 122.345 244.982 122.232C244.904 122.137 244.617 122.111 244.496 122.18C244.14 122.371 243.828 122.657 243.472 122.857C241.026 124.236 238.302 123.82 236.367 121.781C234.207 119.499 234.242 116.758 236.237 114.19C237.746 112.247 241.338 111.371 243.81 113.166C244.14 113.409 244.435 113.704 244.765 113.939C244.808 113.973 245.008 113.826 245.094 113.739C245.181 113.644 245.294 113.47 245.259 113.401C245.172 113.227 245.016 113.071 244.869 112.932C243.099 111.293 239.846 110.876 237.564 112.021C234.884 113.375 233.461 116.411 234.129 119.222C234.91 122.51 237.261 124.401 240.774 124.401C241.989 124.505 243.273 124.123 244.426 123.299ZM253.11 102.045C254.004 102.045 254.889 102.062 255.782 102.036C256.858 102.01 256.919 101.932 256.511 101.047C255.539 98.9392 254.55 96.8398 253.553 94.7404C253.483 94.5842 253.258 94.3934 253.128 94.4021C252.989 94.4107 252.841 94.645 252.763 94.8098C251.74 96.9699 250.725 99.13 249.71 101.29C249.441 101.854 249.744 102.028 250.247 102.036C251.193 102.045 252.156 102.045 253.11 102.045ZM253.032 92.6497C253.301 92.8492 253.483 92.936 253.596 93.0834C253.761 93.3003 253.891 93.5432 254.012 93.7861C255.669 97.2996 257.335 100.813 258.975 104.335C259.053 104.5 258.957 104.752 258.94 104.96C258.697 104.882 258.255 104.838 258.237 104.717C257.821 102.357 256.016 102.86 254.464 102.843C252.954 102.834 251.453 102.878 249.952 102.791C249.319 102.756 248.955 102.808 248.686 103.459C248.434 104.075 248.434 105.038 247.341 104.916C247.532 104.309 247.671 103.684 247.931 103.112C249.354 100.015 250.803 96.9265 252.269 93.8468C252.451 93.4391 252.746 93.0834 253.032 92.6497ZM208.312 102.045C209.266 102.054 210.22 102.071 211.174 102.045C211.999 102.019 212.068 101.88 211.704 101.056C210.984 99.4423 210.237 97.8461 209.491 96.2412C209.231 95.686 208.98 95.1308 208.667 94.6103C208.615 94.5235 208.103 94.5409 208.06 94.6363C207.01 96.8485 206.004 99.0693 204.98 101.29C204.755 101.785 204.859 102.054 205.457 102.045C206.403 102.036 207.357 102.045 208.312 102.045ZM214.358 104.743C214.263 104.821 214.185 104.942 214.081 104.968C213.959 104.994 213.742 104.986 213.699 104.916C213.413 104.465 213.092 104.023 212.901 103.528C212.667 102.912 212.337 102.765 211.66 102.8C209.743 102.886 207.826 102.904 205.917 102.826C204.755 102.782 203.905 103.008 203.549 104.24C203.48 104.491 203.315 104.743 203.115 104.908C203.002 105.003 202.733 104.942 202.551 104.899C202.499 104.89 202.456 104.691 202.473 104.578C202.491 104.448 202.551 104.318 202.612 104.196C204.243 100.744 205.874 97.2909 207.505 93.8382C207.618 93.5953 207.756 93.3524 207.895 93.1181C208.208 92.5976 208.589 92.7625 208.884 93.0921C209.101 93.335 209.205 93.682 209.353 93.9857C210.94 97.3863 212.519 100.787 214.107 104.188C214.202 104.37 214.28 104.552 214.358 104.743ZM200.565 101.307C200.565 100.553 200.617 99.7893 200.539 99.052C200.513 98.809 200.148 98.4187 199.931 98.4187C198.5 98.3753 197.06 98.41 195.62 98.436C195.524 98.436 195.342 98.6442 195.36 98.6963C195.42 98.8611 195.55 99.13 195.663 99.13C196.756 99.1821 197.858 99.2168 198.951 99.1908C199.749 99.1734 200.079 99.5031 200.018 100.293C199.992 100.631 200.018 100.978 200.018 101.325C200.018 103.459 199.341 104.274 197.259 104.587C196.791 104.656 196.305 104.647 195.819 104.639C193.434 104.578 191.846 103.294 190.848 101.255C189.755 99.0259 190.267 96.9092 191.811 95.1481C193.295 93.4565 195.255 92.641 197.528 93.4304C198.405 93.7341 199.168 94.3413 200.009 94.7664C200.183 94.8532 200.452 94.7577 200.677 94.7491C200.634 94.5235 200.669 94.2286 200.53 94.0984C198.673 92.3113 196.461 91.9643 194.067 92.6844C190.692 93.6994 189.157 96.9699 189.539 99.6592C190.076 103.433 193.043 106.105 197.554 105.324C198.578 105.151 199.636 104.552 200.409 103.849C200.799 103.494 200.556 102.453 200.599 101.724C200.608 101.585 200.599 101.446 200.599 101.316H200.565V101.307ZM216.995 117.964C216.995 119.742 216.987 121.521 217.013 123.299C217.013 123.499 217.264 123.689 217.395 123.889C217.525 123.689 217.742 123.499 217.768 123.282C217.828 122.813 217.794 122.327 217.794 121.85C217.794 119.387 217.794 116.923 217.802 114.459C217.802 114.26 217.872 114.06 217.915 113.86C218.123 113.991 218.349 114.103 218.531 114.26C218.626 114.338 218.661 114.494 218.739 114.607C220.882 117.53 223.016 120.454 225.176 123.351C225.384 123.629 225.809 123.733 226.139 123.915C226.243 123.611 226.434 123.316 226.434 123.013C226.46 119.595 226.451 116.168 226.451 112.75C226.451 112.611 226.495 112.446 226.434 112.342C226.313 112.143 226.13 111.978 225.966 111.796C225.853 111.943 225.662 112.091 225.645 112.247C225.593 112.724 225.601 113.201 225.601 113.678C225.601 116.211 225.601 118.745 225.593 121.278C225.593 121.547 225.514 121.816 225.471 122.076C225.272 121.92 225.029 121.79 224.873 121.59C224.534 121.165 224.248 120.697 223.927 120.254C222.036 117.66 220.162 115.058 218.245 112.481C218.028 112.186 217.646 112.004 217.334 111.77C217.204 112.117 216.978 112.472 216.978 112.819C216.943 114.528 216.961 116.237 216.961 117.955H216.995V117.964ZM232.628 98.8264C232.628 100.266 232.585 101.707 232.654 103.138C232.68 103.737 232.203 104.509 233.079 104.925C233.201 104.3 233.418 103.684 233.426 103.06C233.47 100.527 233.435 97.9849 233.444 95.4518C233.444 95.1828 233.522 94.9139 233.556 94.6536C233.782 94.8618 234.042 95.0527 234.224 95.2956C235.361 96.8311 236.463 98.4013 237.608 99.9368C238.614 101.281 238.831 101.264 239.863 99.9975C240.08 99.7286 240.262 99.4423 240.462 99.1647C241.468 97.7854 242.474 96.406 243.489 95.0267C243.611 94.8705 243.776 94.7491 243.923 94.6189C243.993 94.8445 244.123 95.07 244.123 95.2956C244.14 97.8982 244.131 100.501 244.131 103.103C244.131 103.58 244.123 104.066 244.175 104.543C244.192 104.682 244.4 104.812 244.557 104.899C244.6 104.925 244.817 104.769 244.825 104.682C244.886 104.352 244.912 104.014 244.912 103.676C244.921 100.457 244.912 97.2302 244.912 94.0117C244.912 93.8035 244.938 93.5953 244.895 93.3957C244.851 93.2049 244.747 92.8926 244.652 92.8839C244.409 92.8666 244.105 92.9273 243.915 93.0748C243.646 93.2743 243.437 93.5606 243.238 93.8382C242.11 95.3824 240.991 96.9352 239.872 98.4881C238.709 100.093 238.718 100.084 237.547 98.436C236.315 96.7097 235.083 94.992 233.817 93.2916C233.643 93.0574 233.261 92.9707 232.966 92.8232C232.854 93.1181 232.654 93.4044 232.645 93.6994C232.611 95.3997 232.628 97.1174 232.628 98.8264ZM216.562 98.7136C216.562 99.8761 216.562 101.047 216.562 102.21C216.562 102.964 216.562 103.719 216.596 104.474C216.605 104.63 216.787 104.786 216.891 104.942C217.056 104.778 217.334 104.63 217.368 104.439C217.438 103.971 217.403 103.485 217.403 103.008C217.403 100.405 217.403 97.8027 217.403 95.1915C217.403 95.0006 217.49 94.8011 217.533 94.6103C217.681 94.7404 217.863 94.8445 217.976 95.0006C219.234 96.7097 220.457 98.436 221.741 100.128C222.565 101.221 222.947 101.229 223.745 100.171C224.985 98.5314 226.165 96.8571 227.38 95.2002C227.536 94.9833 227.735 94.8098 227.918 94.6103C227.978 94.8532 228.082 95.0961 228.082 95.3477C228.1 97.9502 228.091 100.553 228.1 103.164C228.1 103.641 228.091 104.127 228.143 104.604C228.16 104.734 228.421 104.942 228.542 104.925C228.681 104.908 228.88 104.673 228.88 104.526C228.898 100.761 228.898 96.9873 228.872 93.2222C228.872 92.7625 228.473 92.6757 228.143 92.9186C227.822 93.1528 227.544 93.4738 227.31 93.8035C226.382 95.07 225.488 96.3713 224.56 97.6292C224.005 98.384 223.406 99.0953 222.825 99.824C222.175 99.0433 221.489 98.2972 220.882 97.4817C219.815 96.0677 218.8 94.5929 217.724 93.1875C217.559 92.9707 217.134 92.9446 216.831 92.8319C216.744 93.0834 216.596 93.3263 216.588 93.5779C216.562 95.2869 216.57 96.9959 216.562 98.7136ZM150.7 79.8711C141.782 79.8711 132.872 79.8625 123.954 79.8711C121.213 79.8711 121.534 79.6022 121.534 82.2828C121.525 99.6332 121.534 116.984 121.534 134.334C121.534 137.292 121.464 137.058 124.171 137.058C140.905 137.058 157.64 137.058 174.366 137.058C175.528 137.058 176.699 137.058 177.862 137.049C179.857 137.032 179.857 137.023 179.874 134.941C179.874 134.802 179.874 134.664 179.874 134.533V82.0746C179.874 81.7363 179.848 81.3893 179.874 81.051C179.952 80.1487 179.527 79.8191 178.669 79.8798C178.122 79.9145 177.575 79.8798 177.02 79.8798C168.258 79.8711 159.479 79.8711 150.7 79.8711ZM150.656 139.574C140.914 139.574 131.181 139.574 121.438 139.574C121.031 139.574 120.614 139.548 120.207 139.582C119.356 139.66 118.949 139.374 119.009 138.446C119.079 137.422 119.027 136.39 119.027 135.358C119.027 116.637 119.018 97.9068 119.027 79.1858C119.027 76.7481 118.662 77.017 121.213 77.017C140.827 77.0083 160.442 77.0083 180.057 77.017C182.702 77.017 182.364 76.67 182.364 79.2812C182.373 98.6182 182.373 117.964 182.355 137.301C182.355 139.851 182.781 139.565 180.065 139.574C170.271 139.574 160.459 139.574 150.656 139.574Z" fill="white" />
	</g>
	<defs>
		<clipPath id="clip0_153_7359">
			<rect width="140" height="62.5914" fill="white" transform="translate(119 77)" />
		</clipPath>
	</defs>
</svg>
