<svg width="378" height="220" viewBox="0 0 378 220" fill="none" xmlns="http://www.w3.org/2000/svg">
	<path d="M171.206 87.9569L160.475 102.363L172.047 118.139H177.785L166.117 102.378L176.945 87.9569H171.206ZM154.891 118.139H159.848V87.9569H154.891V118.139Z" fill="white" />
	<path d="M218.43 87.9568H213.481V92.4662H218.43V118.139H223.376V87.9568H218.43Z" fill="white" />
	<path d="M191.72 90.2136C193.969 88.5393 198.292 87.4826 200.689 87.4826C204.583 87.4826 210.425 89.2091 210.425 95.9731C210.425 98.8902 208.743 101.182 206.39 102.44C209.045 103.749 210.86 106.436 210.86 109.546C210.86 115.797 205.446 118.602 200.32 118.602C195.194 118.602 192.362 116.467 191.262 115.782L192.612 111.473C195.142 113.431 197.458 114.078 200.239 114.078C203.019 114.078 205.984 113.594 205.984 109.308C205.984 106.607 204.376 104.471 200.172 104.471H198.019V100.282H200.01C204.406 100.282 205.571 98.3992 205.571 95.951C205.571 93.5027 203.89 91.9623 200.268 91.9623C196.647 91.9623 194.22 93.8152 193.254 94.3882L191.72 90.2136Z" fill="white" />
	<path d="M185.727 100.249V96.0076H181.523V100.249H177.319V104.491H181.523V108.732H185.727V104.491H189.931V100.249H185.727Z" fill="white" />
	<path d="M154.625 130.029L155.222 129.278C155.606 129.724 156.203 130.052 156.712 130.052C157.31 130.052 157.863 129.769 157.863 129.114C157.863 128.623 157.494 128.288 156.757 128.288H156.115V127.254H156.72C157.192 127.254 157.627 126.949 157.627 126.428C157.627 125.877 157.236 125.617 156.712 125.617C156.196 125.617 155.79 125.84 155.444 126.309L154.809 125.564C155.222 124.984 155.982 124.59 156.838 124.59C157.937 124.59 158.718 125.2 158.718 126.316C158.718 126.8 158.46 127.365 157.87 127.708V127.723C158.623 127.923 158.954 128.504 158.954 129.226C158.954 130.386 157.9 131.094 156.771 131.094C155.665 131.094 154.957 130.528 154.625 130.029Z" fill="white" />
	<path d="M161.785 128.343H163.614L162.699 126.096L161.785 128.343ZM162.242 124.667H163.208L165.856 130.985H164.691L164.034 129.378H161.357L160.708 130.985H159.602L162.242 124.667Z" fill="white" />
	<path d="M170.68 125.72H167.892V130.989H166.801V124.678H171.779V130.989H170.68V125.72Z" fill="white" />
	<path d="M174.894 128.343H176.723L175.816 126.096L174.894 128.343ZM175.351 124.667H176.318L178.973 130.985H177.8L177.151 129.378H174.474L173.817 130.985H172.711L175.351 124.667Z" fill="white" />
	<path d="M181.463 129.956H184.074V125.722H182.348L182.245 126.816C182.134 128.453 181.684 129.674 181.463 129.956ZM179.59 129.956H180.261C180.519 129.629 181.116 128.297 181.227 125.946L181.286 124.68H185.158V129.956H186.007V132.115H184.989V130.991H180.615V132.115H179.59V129.956Z" fill="white" />
</svg>
