<svg width="378" height="220" viewBox="0 0 378 220" fill="none" xmlns="http://www.w3.org/2000/svg">
	<path d="M154 123.685H158.638V96.4346H154V123.685ZM164.509 109.458L174.657 96.4373H169.285L159.225 109.441L170.069 123.685H175.441L164.509 109.458Z" fill="white" />
	<path d="M213.524 96.4365H208.887V100.507H213.524V123.685H218.161V96.4365H213.524Z" fill="white" />
	<path d="M188.5 98.4749C190.605 96.963 194.653 96.0127 196.903 96.0127C200.551 96.0127 206.023 97.5694 206.023 103.679C206.023 106.306 204.445 108.372 202.245 109.511C204.731 110.696 206.429 113.114 206.429 115.926C206.429 121.572 201.362 124.105 196.559 124.105C191.751 124.105 189.098 122.177 188.07 121.549L189.338 117.669C191.704 119.436 193.88 120.017 196.484 120.017C199.09 120.017 201.865 119.576 201.865 115.716C201.865 113.276 200.359 111.347 196.415 111.347H194.406V107.561H196.268C200.381 107.561 201.48 105.861 201.48 103.656C201.48 101.448 199.905 100.055 196.508 100.055C193.114 100.055 190.843 101.727 189.935 102.24L188.5 98.4749Z" fill="white" />
	<path d="M182.882 107.536V103.706H178.944V107.536H175.012V111.364H178.944V115.192H182.881V111.364H186.822V107.537L182.882 107.536Z" fill="white" />
</svg>
