<svg width="378" height="220" viewBox="0 0 378 220" fill="none" xmlns="http://www.w3.org/2000/svg">
	<path d="M146.114 88H168.136L171.172 91.0382L174.125 94.0764H174.122L169.591 100.587C166.337 105.262 166.308 108.994 169.591 113.814L174.366 120.465H152.022L147.796 113.814C144.756 109.205 144.768 105.078 147.796 100.587L152.186 94.0764L146.114 88Z" fill="white" />
	<path d="M146.196 126.542H168.088L174.366 120.465H152.022L146.196 126.542Z" fill="white" />
	<path fill-rule="evenodd" clip-rule="evenodd" d="M148.736 123.504L145.717 126.542H157.029H168.34L171.359 123.504L174.377 120.466H163.066H152.023L148.736 123.504Z" fill="white" />
	<path fill-rule="evenodd" clip-rule="evenodd" d="M136.081 114.89C135.829 115.023 134.091 117.439 131.861 120.756L128 126.542C130.519 126.542 145.63 126.542 145.63 126.542C145.63 126.542 138.561 115.734 138.086 115.235C137.624 114.751 136.661 114.585 136.081 114.89Z" fill="white" />
	<path fill-rule="evenodd" clip-rule="evenodd" d="M136.081 99.6519C135.829 99.519 134.091 97.1038 131.861 93.7864L128 88C130.519 88 145.63 88 145.63 88C145.63 88 138.561 98.8086 138.086 99.3069C137.624 99.7911 136.661 99.9567 136.081 99.6519Z" fill="white" />
	<path d="M145.635 88L151.707 94.0764L147.317 100.587C144.289 105.078 144.277 109.205 147.317 113.814L152.023 120.465H174.374L169.843 113.814C166.56 108.994 166.589 105.262 169.843 100.587L174.374 94.0764H174.378L171.425 91.0382L168.389 88H145.635Z" fill="white" />
	<path d="M193.34 115.101C191.419 115.101 189.768 115.756 188.915 116.767V115.114H185.653V131.203H189.068V125.149C189.977 126.261 191.493 126.739 193.34 126.739C196.646 126.739 198.868 124.543 198.868 120.905C198.868 117.267 196.864 115.101 193.34 115.101ZM192.675 124.112C190.968 124.112 189.177 123.551 189.177 120.905C189.177 118.449 190.968 117.697 192.675 117.697C194.382 117.697 195.903 118.903 195.903 120.905C195.903 122.907 194.382 124.112 192.675 124.112Z" fill="white" />
	<path d="M202.949 117.174L202.954 115.114H199.936V126.702H203.107V121.227C203.107 119.01 204.675 117.999 206.557 117.999C206.82 117.999 207.914 118.13 208.302 118.367L208.715 115.267C204.821 114.454 203.781 116.054 202.949 117.174Z" fill="white" />
	<path d="M215.069 126.867C219.124 126.867 221.527 124.328 221.527 120.841C221.527 117.014 218.777 114.878 215.034 114.878C211.291 114.878 208.395 117.014 208.395 120.841C208.395 124.328 210.957 126.867 215.069 126.867ZM215.034 123.869C213.039 123.869 211.597 122.843 211.597 120.841C211.597 118.839 213.039 117.754 215.034 117.754C217.029 117.754 218.324 118.839 218.324 120.841C218.324 122.843 217.029 123.869 215.034 123.869Z" fill="white" />
	<path d="M201.618 100.899C199.266 100.899 197.8 101.474 196.864 102.667C196.036 101.387 194.802 100.899 192.899 100.899C190.618 100.899 189.769 101.609 188.898 102.607V101.072H185.653V112.537H188.901V106.683C188.901 104.601 189.977 103.626 191.94 103.626C193.501 103.626 194.802 104.493 194.802 106.379V112.537H197.879V106.683C197.879 104.261 199.266 103.626 200.791 103.626C202.163 103.626 203.653 104.261 203.653 106.379V112.537H206.73V105.859C206.73 102.303 204.711 100.899 201.618 100.899Z" fill="white" />
	<path d="M220.406 105.035C219.651 102.31 217.098 100.699 214.218 100.699C210.646 100.699 207.914 102.455 207.914 106.493C207.914 110.426 210.156 112.551 214.48 112.551C217.35 112.551 219.765 111.435 220.566 108.565H217.363C216.882 109.203 216.402 109.841 214.48 109.841C212.078 109.841 211.117 108.725 210.957 107.449H220.566C220.635 106.556 220.648 105.912 220.406 105.035ZM214.218 103.304C215.742 103.304 217.203 104.101 217.363 105.377H210.957C211.117 104.261 212.671 103.304 214.218 103.304Z" fill="white" />
	<path d="M231.295 97.5652V102.826C230.655 101.71 229.214 100.872 227.292 100.872C223.288 100.872 221.366 103.04 221.366 106.704C221.366 110.369 223.288 112.71 227.292 112.71C228.86 112.71 230.823 111.754 231.295 110.638V112.537H234.408V97.5652H231.295ZM227.772 109.935C226.074 109.935 224.409 108.721 224.409 106.704C224.409 104.688 226.074 103.474 227.772 103.474C229.449 103.474 231.076 104.688 231.076 106.704C231.076 108.721 229.449 109.935 227.772 109.935Z" fill="white" />
	<path d="M248.431 112.537L243.787 106.661L248.257 100.872H244.748L242.007 104.42L239.143 100.872H235.648L240.156 106.661L235.648 112.537H239.351L242.007 108.959L244.748 112.537H248.431Z" fill="white" />
	<path d="M184.497 124.826C184.497 125.829 183.68 126.642 182.673 126.642C181.666 126.642 180.849 125.829 180.849 124.826C180.849 123.823 181.666 123.01 182.673 123.01C183.68 123.01 184.497 123.823 184.497 124.826Z" fill="white" />
</svg>
