<svg width="194" height="22" viewBox="0 0 194 22" fill="none" xmlns="http://www.w3.org/2000/svg">
<g clip-path="url(#clip0_1241_28488)">
<path d="M39.8365 2.0918H34.9126V19.8216H39.8365V2.0918Z" fill="white"/>
<path d="M55.9614 9.16079V13.1061H63.4586V15.5324H55.2223C52.0525 15.5324 50.245 14.0136 50.245 10.9471C50.245 7.97626 52.0525 6.51469 55.2223 6.51469H67.8482V2.0918H54.9997C49.3991 2.0918 45.4902 4.61371 45.4902 10.9567C45.4902 17.2997 49.3902 19.8216 54.9997 19.8216H67.8482V9.16079H55.9614Z" fill="white"/>
<path d="M4.63899 6.49559H6.75815L11.9403 19.812H16.2944L21.4765 6.49559H23.5957V19.812H28.2346V2.0918H18.28L14.1218 13.9276L9.95469 2.0918H0V19.812H4.63899V6.49559Z" fill="white"/>
<path d="M78.2038 0H77.3936V21.9043H78.2038V0Z" fill="white"/>
<path d="M86.6719 17.9955V3.90527H92.8513C93.5814 3.90527 94.2581 3.99125 94.8636 4.17275C95.469 4.35425 95.9944 4.63128 96.4307 5.01339C96.867 5.39549 97.2053 5.89223 97.4457 6.50361C97.6862 7.11498 97.8019 7.85053 97.8019 8.71028C97.8019 9.78973 97.5971 10.6686 97.1875 11.3564C96.7779 12.0442 96.2081 12.5505 95.4869 12.8752L98.3272 17.9955H94.543L92.0855 13.3911H90.0732V17.9955H86.6719ZM90.0732 10.3724H92.3883C93.0828 10.3724 93.5814 10.2387 93.8752 9.97123C94.1691 9.70376 94.3204 9.28344 94.3204 8.71983C94.3204 8.12756 94.1691 7.69769 93.8752 7.42066C93.5814 7.15319 93.0828 7.01945 92.3883 7.01945H90.0732V10.3724Z" fill="white"/>
<path d="M100.678 17.9955V3.90527H110.357V7.0099H104.08V9.41718H110.072V12.4454H104.08V14.8909H110.303V17.9955H100.678Z" fill="white"/>
<path d="M112.52 14.0421L116.037 13.4402C116.126 13.9561 116.393 14.3573 116.838 14.6534C117.284 14.9496 117.862 15.1024 118.566 15.1024C119.278 15.1024 119.812 15.0069 120.177 14.8158C120.543 14.6248 120.73 14.3573 120.73 14.0039C120.73 13.7459 120.632 13.5167 120.436 13.3447C120.24 13.1632 119.839 13.0104 119.216 12.8671L116.901 12.3321C116.349 12.2079 115.823 12.0456 115.325 11.8449C114.826 11.6443 114.399 11.3769 114.034 11.0425C113.669 10.7082 113.375 10.2974 113.161 9.80067C112.947 9.30393 112.841 8.69256 112.841 7.97611C112.841 6.64828 113.33 5.60704 114.31 4.84282C115.289 4.07861 116.643 3.70605 118.37 3.70605C120.213 3.70605 121.602 4.07861 122.537 4.82372C123.472 5.56883 124.042 6.57186 124.247 7.83282L120.73 8.43464C120.667 8.04298 120.453 7.67997 120.088 7.33608C119.723 6.99218 119.145 6.82023 118.334 6.82023C117.675 6.82023 117.186 6.91576 116.856 7.10681C116.527 7.29787 116.367 7.56534 116.367 7.89013C116.367 8.21492 116.5 8.47285 116.776 8.63524C117.043 8.79764 117.488 8.95048 118.094 9.09377L120.899 9.7338C121.985 9.98217 122.813 10.4311 123.392 11.0903C123.971 11.7494 124.264 12.6569 124.264 13.8128C124.264 15.1979 123.775 16.2678 122.804 17.0416C121.834 17.8154 120.4 18.207 118.504 18.207C116.776 18.207 115.414 17.8727 114.408 17.204C113.393 16.5353 112.76 15.475 112.52 14.0421Z" fill="white"/>
<path d="M126.705 17.9955V3.90527H136.383V7.0099H130.106V9.41718H136.098V12.4454H130.106V14.8909H136.33V17.9955H126.705Z" fill="white"/>
<path d="M147.104 3.90527L151.814 17.9955H148.217L147.291 15.0342H142.287L141.361 17.9955H137.861L142.572 3.90527H147.104ZM143.311 11.8053H146.267L144.798 7.10542L143.311 11.8053Z" fill="white"/>
<path d="M153.684 17.9955V3.90527H159.863C160.593 3.90527 161.27 3.99125 161.875 4.17275C162.481 4.35425 163.006 4.63128 163.442 5.01339C163.879 5.39549 164.217 5.89223 164.457 6.50361C164.698 7.11498 164.814 7.85053 164.814 8.71028C164.814 9.78973 164.609 10.6686 164.199 11.3564C163.79 12.0442 163.22 12.5505 162.499 12.8752L165.339 17.9955H161.555L159.097 13.3911H157.085V17.9955H153.684ZM157.085 10.3724H159.4C160.094 10.3724 160.593 10.2387 160.887 9.97123C161.181 9.70376 161.332 9.28344 161.332 8.71983C161.332 8.12756 161.181 7.69769 160.887 7.42066C160.593 7.15319 160.094 7.01945 159.4 7.01945H157.085V10.3724Z" fill="white"/>
<path d="M173.486 14.9778C174.314 14.9778 174.937 14.7772 175.374 14.3664C175.801 13.9557 176.095 13.4207 176.255 12.7616L179.692 13.3634C179.407 14.9205 178.775 16.1241 177.787 16.9552C176.798 17.7959 175.374 18.2066 173.504 18.2066C172.542 18.2066 171.652 18.0538 170.859 17.7576C170.058 17.4615 169.381 17.0125 168.811 16.4107C168.241 15.8089 167.805 15.0542 167.485 14.1372C167.173 13.2297 167.013 12.1598 167.013 10.9466C167.013 9.68562 167.173 8.59661 167.502 7.67955C167.832 6.76249 168.286 6.00783 168.865 5.41556C169.443 4.83285 170.138 4.39342 170.939 4.10684C171.741 3.82026 172.613 3.68652 173.539 3.68652C175.382 3.68652 176.798 4.11639 177.778 4.96658C178.766 5.82633 179.398 7.00131 179.683 8.49153L176.246 9.09335C176.068 8.45332 175.765 7.93747 175.338 7.52671C174.911 7.11594 174.314 6.91533 173.539 6.91533C172.676 6.91533 171.954 7.24968 171.367 7.90881C170.779 8.56795 170.485 9.58054 170.485 10.937C170.485 12.2457 170.77 13.2488 171.331 13.927C171.91 14.6339 172.622 14.9778 173.486 14.9778Z" fill="white"/>
<path d="M182.14 17.9955V3.90527H185.541V9.20702H190.599V3.90527H194V17.9955H190.599V12.6078H185.541V17.9955H182.14Z" fill="white"/>
</g>
<defs>
<clipPath id="clip0_1241_28488">
<rect width="194" height="22" fill="white"/>
</clipPath>
</defs>
</svg>
