<svg width="378" height="220" viewBox="0 0 378 220" fill="none" xmlns="http://www.w3.org/2000/svg">
	<g clip-path="url(#clip0_153_218)">
		<path d="M189.02 100.772H188.184V122.772H189.02V100.772Z" fill="white" />
		<path d="M197.027 118.741V104.585H200.017V110.173H201.627L205.411 104.585H208.924L204.073 111.488L209.07 118.741H205.432L201.627 113.087H200.017V118.741H197.027Z" fill="white" />
		<path d="M211.559 114.38C211.58 113.986 211.58 113.547 211.58 113.022C211.58 112.518 211.601 111.992 211.601 111.444C211.601 110.918 211.601 110.392 211.601 109.866V108.53H219.629V118.741H216.765V111.159H214.172C214.172 111.466 214.172 111.794 214.172 112.145C214.172 112.496 214.151 112.846 214.151 113.197C214.151 113.547 214.13 113.876 214.13 114.205C214.13 114.534 214.11 114.818 214.11 115.038C214.089 116.374 213.859 117.316 213.42 117.886C212.981 118.456 212.165 118.741 210.932 118.741H209.656V116.155H210.242C210.723 116.155 211.057 116.045 211.245 115.804C211.433 115.563 211.538 115.081 211.559 114.38Z" fill="white" />
		<path d="M225.044 118.741H222.242V108.551H225.002V114.796L228.619 108.551H231.546V118.741H228.786V112.43L225.044 118.741Z" fill="white" />
		<path d="M234.141 118.741V108.551H236.984V112.233H240.476V108.551H243.298V118.741H240.476V114.818H236.984V118.741H234.141Z" fill="white" />
		<path d="M248.731 118.741H245.93V108.551H248.689V114.796L252.307 108.551H255.213V118.741H252.453V112.43L248.731 118.741Z" fill="white" />
		<path d="M257.828 118.741V108.551H260.672V112.342H261.801L264.038 108.551H267.153L264.205 113.306L267.32 118.741H264.142L261.801 114.621H260.672V118.741H257.828Z" fill="white" />
		<path d="M274.345 118.741V117.601C274.031 118.04 273.634 118.39 273.153 118.609C272.672 118.828 272.128 118.96 271.522 118.96C270.602 118.96 269.808 118.697 269.181 118.171C268.553 117.645 268.219 116.9 268.219 115.914C268.219 114.84 268.553 114.073 269.201 113.591C269.85 113.109 270.749 112.824 271.857 112.759C272.296 112.737 272.714 112.715 273.111 112.715C273.508 112.715 273.885 112.715 274.219 112.737V112.014C274.219 111.553 274.094 111.225 273.822 111.006C273.55 110.787 273.195 110.677 272.714 110.677C272.296 110.677 271.94 110.787 271.669 111.006C271.397 111.225 271.209 111.575 271.125 112.036L268.532 111.619C268.679 110.699 269.118 109.91 269.829 109.296C270.539 108.661 271.522 108.354 272.756 108.354C273.341 108.354 273.906 108.42 274.428 108.551C274.951 108.683 275.39 108.88 275.766 109.165C276.143 109.45 276.435 109.844 276.665 110.326C276.874 110.808 277 111.4 277 112.123V118.741H274.345ZM274.24 114.599C273.989 114.577 273.697 114.577 273.362 114.577C273.028 114.577 272.714 114.577 272.4 114.599C272.003 114.621 271.669 114.731 271.397 114.906C271.125 115.081 270.999 115.344 270.999 115.695C270.999 116.045 271.125 116.308 271.376 116.506C271.627 116.703 271.94 116.791 272.338 116.791C272.902 116.791 273.362 116.659 273.717 116.374C274.052 116.089 274.24 115.739 274.24 115.279V114.599Z" fill="white" />
		<path d="M165.5 120.647H170.267V107.302H179.153V102.898H165.5V120.647Z" fill="white" />
		<path d="M105.767 107.302H107.941L113.231 120.647H117.705L123.016 107.302H125.19V120.647H129.936V102.898H119.796L115.468 114.753L111.161 102.898H101V120.647H105.767V107.302Z" fill="white" />
		<path d="M144.069 120.647L151.659 109.318V120.647H156.217V102.898H151.387L143.777 114.227V102.898H139.219V120.647H144.069Z" fill="white" />
	</g>
	<defs>
		<clipPath id="clip0_153_218">
			<rect width="176" height="22" fill="white" transform="translate(101 100.772)" />
		</clipPath>
	</defs>
</svg>
