<svg width="378" height="220" viewBox="0 0 378 220" fill="none" xmlns="http://www.w3.org/2000/svg">
	<path d="M123.246 90H119.283C109.202 90 101 98.119 101 108.099V111.286C101 121.265 109.202 129.385 119.283 129.385H123.246C133.327 129.385 141.529 121.265 141.529 111.286V108.099C141.529 98.119 133.327 90 123.246 90ZM123.246 91.8067C132.321 91.8067 139.704 99.1152 139.704 108.099V111.286C139.704 120.269 132.321 127.578 123.246 127.578H119.283C110.208 127.578 102.825 120.269 102.825 111.286V108.099C102.825 99.1152 110.208 91.8067 119.283 91.8067H123.246Z" fill="white" />
	<path d="M125.289 113.245L115.918 99.7051L115.867 99.6328H111.162V117.75H114.782V104.138L124.153 117.678L124.204 117.75H128.938V99.6328H125.289V113.245Z" fill="white" />
	<path d="M136.424 106.776C137.189 106.112 138.221 105.761 139.409 105.761L139.469 105.762C142.305 105.79 143.999 107.598 143.999 110.6C143.999 113.602 142.305 115.411 139.468 115.438C138.276 115.455 137.219 115.104 136.431 114.422C135.457 113.577 134.943 112.255 134.943 110.6C134.943 108.939 135.455 107.617 136.424 106.776ZM139.47 103.043C134.58 103.043 131.293 106.08 131.293 110.6C131.293 115.12 134.58 118.157 139.47 118.157C144.362 118.157 147.648 115.12 147.648 110.6C147.648 106.08 144.362 103.043 139.47 103.043Z" fill="white" />
	<path d="M157.776 117.75L164.087 103.451H160.148L156.005 113.762L151.902 103.551L151.862 103.451H147.922L154.263 117.75H157.776Z" fill="white" />
	<path d="M174.137 110.189V111.084C174.137 115.036 171.153 115.464 169.87 115.464C167.751 115.464 166.996 114.371 166.996 113.349C166.996 112.132 167.973 111.514 169.899 111.514H170.364C172.207 111.514 173.529 111.047 174.137 110.189ZM177.673 117.75H179.643V115.006H178.138C177.895 115.006 177.671 114.941 177.671 114.469V108.31C177.671 104.815 175.456 103.043 171.089 103.043C166.732 103.043 164.189 104.847 163.927 108.121L163.914 108.282H167.442L167.459 108.148C167.651 106.654 169.008 105.762 171.089 105.762C172.86 105.762 174.05 106.438 174.05 107.444C174.05 108.373 173.174 108.77 171.118 108.77H169.841C165.634 108.77 163.318 110.396 163.318 113.349C163.318 115.698 164.902 118.208 169.348 118.208C171.693 118.208 173.517 117.314 174.399 115.745C174.73 117.006 175.934 117.75 177.673 117.75Z" fill="white" />
	<path d="M191.113 107.039H190.358C186.064 107.039 185.715 106.081 185.715 104.925C185.715 103.079 187.227 102.021 189.865 102.021C192.641 102.021 194.41 103.367 194.597 105.622L194.608 105.762H198.403L198.39 105.601C198.082 101.713 194.736 99.2 189.865 99.2C184.407 99.2 181.92 102.168 181.92 104.925C181.92 106.39 182.634 107.653 183.984 108.577C185.24 109.437 186.937 109.911 188.763 109.911H189.894C194.396 109.911 195.003 111.147 195.003 112.356C195.003 114.259 192.655 115.285 190.445 115.285C187.649 115.285 185.5 113.675 185.337 111.456L185.327 111.315H181.535L181.543 111.473C181.753 115.364 185.414 118.081 190.445 118.081C193.642 118.081 195.588 117.089 196.658 116.258C197.999 115.216 198.768 113.794 198.768 112.356C198.768 109.275 195.548 107.039 191.113 107.039Z" fill="white" />
	<path d="M212.379 112.538C212.18 113.714 210.957 115.464 208.4 115.464C205.735 115.464 203.873 113.464 203.873 110.6C203.873 107.722 205.692 105.788 208.4 105.788C210.968 105.788 212.248 107.392 212.378 108.982L212.389 109.122H216.044L216.026 108.957C215.632 105.38 212.639 103.069 208.4 103.069C203.433 103.069 200.224 106.025 200.224 110.6C200.224 115.135 203.51 118.183 208.4 118.183C210.515 118.183 212.364 117.596 213.745 116.485C214.985 115.488 215.795 114.102 216.025 112.58L216.051 112.409H212.401L212.379 112.538Z" fill="white" />
	<path d="M221.655 105.362V103.476H218.179V117.775H221.713V109.735C221.713 107.226 223.215 105.788 225.834 105.788H227.717V103.069H226.182C224.373 103.069 222.851 103.84 221.655 105.362Z" fill="white" />
	<path d="M231.641 108.974C232.118 107.035 233.779 105.788 235.9 105.788C238.008 105.788 239.615 107.035 240.021 108.974H231.641ZM235.9 103.069C231.02 103.069 227.867 106.035 227.867 110.626C227.867 115.146 231.095 118.183 235.9 118.183C239.717 118.183 242.757 116.243 243.464 113.355L243.509 113.173H239.695L239.654 113.274C239.121 114.604 237.647 115.464 235.9 115.464C233.653 115.464 232.013 114.05 231.601 111.769H243.613V109.353C243.613 105.771 240.297 103.069 235.9 103.069Z" fill="white" />
	<path d="M248.726 108.974C249.202 107.035 250.864 105.788 252.985 105.788C255.093 105.788 256.7 107.035 257.105 108.974H248.726ZM252.985 103.069C248.105 103.069 244.952 106.035 244.952 110.626C244.952 115.146 248.181 118.183 252.985 118.183C256.802 118.183 259.842 116.243 260.549 113.355L260.594 113.173H256.78L256.739 113.274C256.206 114.604 254.732 115.464 252.985 115.464C250.738 115.464 249.098 114.05 248.686 111.769H260.698V109.353C260.698 105.771 257.382 103.069 252.985 103.069Z" fill="white" />
	<path d="M271.201 103.069C269.215 103.069 267.625 103.791 266.47 105.216V103.476H262.995V117.775H266.528V109.735C266.528 107.383 268.032 105.864 270.36 105.864C271.777 105.864 273.467 106.412 273.467 109.022V117.775H277V108.793C277 105.263 274.778 103.069 271.201 103.069Z" fill="white" />
</svg>
