<svg width="378" height="220" viewBox="0 0 378 220" fill="none" xmlns="http://www.w3.org/2000/svg">
	<path d="M185.026 107.808C184.969 107.837 184.897 107.851 184.833 107.844H183.933C183.869 107.844 183.798 107.83 183.741 107.808C183.691 107.787 183.669 107.723 183.669 107.623V98.7678H178.228V107.623C178.228 107.723 178.213 107.787 178.178 107.808C178.12 107.837 178.049 107.851 177.985 107.844H177.056C176.992 107.844 176.928 107.83 176.871 107.808C176.828 107.787 176.806 107.723 176.806 107.623V98.4821C176.792 98.2322 176.878 97.9822 177.064 97.7966C177.242 97.6466 177.478 97.568 177.721 97.5823H184.169C184.419 97.5609 184.662 97.6395 184.847 97.7966C185.019 97.9894 185.112 98.2393 185.09 98.4964V107.637C185.09 107.737 185.076 107.801 185.033 107.823" fill="white" />
	<path d="M189.861 106.744C190.396 106.759 190.932 106.666 191.424 106.466C191.824 106.294 192.174 106.03 192.446 105.695C192.717 105.345 192.91 104.945 193.017 104.516C193.138 104.024 193.217 103.524 193.245 103.017H188.732C188.668 103.024 188.597 103.002 188.554 102.952C188.525 102.895 188.511 102.838 188.518 102.774V102.081C188.511 102.017 188.525 101.953 188.554 101.895C188.582 101.86 188.639 101.845 188.732 101.845H193.245C193.21 101.417 193.117 100.996 192.981 100.589C192.86 100.224 192.66 99.8816 192.403 99.5817C192.146 99.2961 191.824 99.0675 191.46 98.9176C191.032 98.7462 190.575 98.6605 190.11 98.6748C189.696 98.6748 189.282 98.7176 188.875 98.789C188.475 98.8605 188.09 98.9747 187.718 99.1247C187.64 99.1675 187.575 99.1747 187.532 99.1461C187.49 99.1175 187.454 99.0675 187.44 99.0176L187.133 98.3463C187.083 98.2392 187.061 98.1606 187.083 98.1178C187.104 98.0678 187.154 98.0249 187.204 98.0107C187.697 97.7679 188.225 97.5965 188.768 97.5179C189.239 97.4465 189.718 97.4108 190.196 97.4037C190.846 97.3965 191.482 97.5036 192.089 97.725C192.638 97.925 193.124 98.2535 193.51 98.6676C193.917 99.1247 194.224 99.6674 194.402 100.246C194.617 100.967 194.717 101.71 194.709 102.452C194.709 104.302 194.309 105.68 193.517 106.601C192.717 107.516 191.596 107.98 190.132 107.98C189.889 107.98 189.625 107.98 189.346 107.951C189.061 107.93 188.782 107.901 188.504 107.851C188.211 107.801 187.925 107.73 187.647 107.637C187.368 107.551 187.104 107.437 186.854 107.301C186.804 107.266 186.761 107.216 186.733 107.158C186.711 107.116 186.733 107.037 186.797 106.916L187.09 106.302C187.111 106.252 187.147 106.202 187.197 106.173C187.247 106.13 187.333 106.137 187.44 106.187C187.811 106.344 188.204 106.473 188.597 106.566C189.018 106.666 189.453 106.716 189.889 106.716" fill="white" />
	<path d="M199.008 98.7676H196.002C195.909 98.7676 195.852 98.7534 195.823 98.7177C195.795 98.6605 195.781 98.5963 195.788 98.532V97.8179C195.781 97.7607 195.795 97.6965 195.823 97.6465C195.852 97.6036 195.909 97.5894 196.002 97.5894H203.564C203.657 97.5894 203.714 97.6108 203.743 97.6465C203.771 97.6965 203.786 97.7607 203.779 97.8179V98.532C203.786 98.5963 203.771 98.6605 203.743 98.7177C203.714 98.7534 203.657 98.7676 203.564 98.7676H200.465V107.594C200.465 107.701 200.444 107.773 200.401 107.808C200.337 107.844 200.265 107.858 200.187 107.858H199.301C199.223 107.865 199.144 107.844 199.073 107.808C199.03 107.78 199.001 107.708 199.001 107.594L199.008 98.7676Z" fill="white" />
	<path d="M180.013 111.822H177.006C176.914 111.822 176.849 111.8 176.828 111.772C176.792 111.714 176.785 111.657 176.785 111.593V110.872C176.778 110.815 176.792 110.75 176.828 110.7C176.856 110.658 176.914 110.643 177.006 110.643H184.562C184.655 110.643 184.712 110.665 184.74 110.7C184.769 110.75 184.783 110.815 184.776 110.872V111.593C184.783 111.657 184.769 111.714 184.74 111.772C184.69 111.814 184.626 111.836 184.562 111.822H181.463V120.655C181.463 120.762 181.441 120.827 181.398 120.855C181.334 120.891 181.255 120.905 181.184 120.898H180.306C180.227 120.905 180.149 120.891 180.077 120.855C180.034 120.827 180.013 120.762 180.013 120.655V111.822Z" fill="white" />
	<path d="M191.353 116.399C191.353 116.106 191.324 115.814 191.26 115.528C191.203 115.264 191.089 115.014 190.932 114.792C190.76 114.578 190.539 114.407 190.282 114.292C189.953 114.157 189.603 114.1 189.246 114.107C188.932 114.1 188.625 114.171 188.347 114.3C188.089 114.421 187.861 114.592 187.682 114.807C187.497 115.021 187.354 115.271 187.254 115.535C187.147 115.814 187.09 116.099 187.068 116.392L191.353 116.399ZM189.246 113.036C189.761 113.028 190.282 113.107 190.767 113.271C191.167 113.414 191.524 113.643 191.817 113.943C192.096 114.242 192.303 114.592 192.424 114.971C192.56 115.399 192.631 115.842 192.624 116.285C192.631 116.478 192.603 116.67 192.531 116.856C192.481 116.992 192.388 117.106 192.281 117.199C192.174 117.285 192.046 117.342 191.91 117.377C191.767 117.413 191.617 117.427 191.467 117.427H187.025C187.018 117.827 187.083 118.227 187.225 118.599C187.34 118.891 187.525 119.163 187.761 119.384C187.982 119.577 188.247 119.727 188.532 119.813C188.839 119.905 189.168 119.948 189.489 119.948C189.825 119.948 190.168 119.905 190.496 119.827C190.782 119.755 191.053 119.663 191.317 119.541C191.403 119.477 191.517 119.491 191.589 119.57C191.603 119.584 191.61 119.598 191.617 119.613L191.939 120.227C192.003 120.362 191.981 120.462 191.846 120.52C191.482 120.734 191.074 120.877 190.653 120.948C190.239 121.019 189.818 121.055 189.396 121.062C188.868 121.069 188.347 120.991 187.847 120.827C187.404 120.684 187.004 120.434 186.683 120.112C186.347 119.755 186.097 119.334 185.947 118.877C185.761 118.299 185.676 117.692 185.69 117.092C185.683 116.506 185.769 115.928 185.961 115.378C186.119 114.914 186.376 114.478 186.711 114.107C187.025 113.771 187.411 113.5 187.84 113.321C188.275 113.128 188.761 113.028 189.246 113.036Z" fill="white" />
	<path d="M197.673 116.763L200.379 120.698C200.401 120.741 200.415 120.784 200.408 120.827C200.408 120.877 200.365 120.905 200.287 120.905H199.158C199.08 120.912 199.001 120.891 198.93 120.855C198.887 120.819 198.851 120.777 198.823 120.734L196.895 117.77L194.924 120.72C194.888 120.777 194.845 120.819 194.795 120.855C194.724 120.891 194.652 120.912 194.567 120.905H193.581C193.424 120.905 193.388 120.827 193.474 120.691L196.159 116.835L193.831 113.428C193.795 113.386 193.788 113.336 193.802 113.293C193.802 113.236 193.86 113.214 193.938 113.214H194.966C195.045 113.207 195.124 113.221 195.195 113.264C195.238 113.3 195.281 113.343 195.309 113.386L196.959 115.906L198.63 113.386C198.666 113.343 198.708 113.3 198.758 113.264C198.816 113.228 198.887 113.214 198.951 113.214H199.958C200.051 113.214 200.101 113.236 200.108 113.286C200.115 113.328 200.108 113.371 200.087 113.407L197.673 116.763Z" fill="white" />
	<path d="M202.815 120.848C202.75 120.891 202.672 120.905 202.586 120.898H201.843C201.765 120.905 201.686 120.884 201.615 120.848C201.565 120.812 201.536 120.741 201.536 120.634V113.457C201.536 113.35 201.558 113.279 201.615 113.243C201.686 113.214 201.765 113.2 201.843 113.2H202.586C202.665 113.193 202.743 113.207 202.815 113.243C202.857 113.271 202.879 113.343 202.879 113.457V116.228H206.871V113.457C206.871 113.35 206.892 113.279 206.942 113.243C207.014 113.207 207.092 113.193 207.171 113.2H207.935C208.013 113.193 208.092 113.207 208.163 113.243C208.199 113.271 208.22 113.343 208.22 113.457V120.648C208.235 120.727 208.213 120.798 208.163 120.862C208.099 120.905 208.013 120.92 207.935 120.912H207.171C207.092 120.92 207.014 120.898 206.942 120.862C206.885 120.805 206.856 120.727 206.871 120.648V117.32H202.879V120.648C202.893 120.727 202.865 120.805 202.815 120.862" fill="white" />
	<path d="M215.776 117.056C215.776 116.685 215.747 116.313 215.683 115.942C215.633 115.614 215.519 115.292 215.347 115.007C215.183 114.742 214.947 114.521 214.669 114.364C214.326 114.185 213.948 114.1 213.555 114.114C213.198 114.107 212.848 114.185 212.534 114.35C212.248 114.507 212.005 114.728 211.827 114.992C211.634 115.271 211.491 115.585 211.413 115.914C211.32 116.278 211.27 116.656 211.27 117.028C211.27 117.435 211.305 117.835 211.377 118.234C211.434 118.57 211.562 118.884 211.748 119.177C211.92 119.434 212.155 119.641 212.434 119.784C212.769 119.941 213.134 120.013 213.505 119.998C213.883 120.013 214.262 119.927 214.59 119.748C214.876 119.584 215.119 119.363 215.29 119.084C215.469 118.799 215.597 118.477 215.662 118.149C215.733 117.792 215.769 117.428 215.769 117.063L215.776 117.056ZM217.118 117.013C217.118 118.32 216.811 119.327 216.19 120.013C215.569 120.698 214.669 121.055 213.483 121.055C212.298 121.055 211.441 120.712 210.834 120.041C210.227 119.363 209.934 118.37 209.934 117.049C209.927 116.463 210.013 115.885 210.206 115.335C210.363 114.871 210.62 114.443 210.955 114.071C211.27 113.736 211.662 113.471 212.098 113.3C212.548 113.121 213.041 113.029 213.533 113.029C214.705 113.029 215.59 113.378 216.204 114.085C216.811 114.8 217.118 115.771 217.118 117.013Z" fill="white" />
	<path d="M219.91 113.928C219.896 113.721 219.982 113.514 220.139 113.371C220.296 113.25 220.496 113.193 220.696 113.2H224.674C224.895 113.171 225.116 113.243 225.274 113.386C225.388 113.543 225.445 113.736 225.431 113.928V120.677C225.431 120.777 225.409 120.834 225.366 120.863C225.295 120.891 225.216 120.905 225.138 120.898H224.374C224.302 120.905 224.231 120.891 224.167 120.863C224.124 120.841 224.102 120.777 224.102 120.677V114.307H221.132L221.039 115.407C220.953 116.385 220.867 117.199 220.775 117.863C220.71 118.42 220.575 118.97 220.368 119.499C220.225 119.884 219.989 120.227 219.668 120.505C219.325 120.763 218.939 120.955 218.518 121.077C218.454 121.091 218.382 121.105 218.311 121.12C218.239 121.134 218.175 121.091 218.147 120.984L217.947 120.398C217.897 120.263 217.947 120.148 218.132 120.077C218.389 119.97 218.618 119.827 218.818 119.649C219.025 119.434 219.175 119.184 219.268 118.913C219.411 118.492 219.511 118.063 219.568 117.628C219.639 117.092 219.718 116.385 219.796 115.514L219.91 113.928Z" fill="white" />
	<path d="M232.95 117.056C232.95 116.685 232.922 116.313 232.857 115.949C232.807 115.621 232.686 115.299 232.515 115.014C232.35 114.75 232.115 114.528 231.836 114.371C231.493 114.193 231.115 114.107 230.729 114.121C230.372 114.114 230.022 114.193 229.708 114.357C229.423 114.514 229.18 114.735 229.001 115C228.808 115.278 228.666 115.592 228.587 115.921C228.494 116.285 228.444 116.663 228.444 117.035C228.437 117.442 228.48 117.849 228.551 118.242C228.608 118.577 228.73 118.891 228.915 119.184C229.08 119.441 229.315 119.648 229.594 119.791C229.93 119.948 230.294 120.02 230.665 120.005C231.044 120.02 231.422 119.934 231.758 119.756C232.043 119.591 232.286 119.363 232.465 119.099C232.643 118.806 232.765 118.492 232.829 118.156C232.9 117.799 232.943 117.435 232.936 117.07L232.95 117.056ZM234.3 117.013C234.3 118.32 233.986 119.327 233.372 120.013C232.75 120.698 231.851 121.055 230.665 121.055C229.48 121.055 228.623 120.712 228.016 120.041C227.409 119.363 227.116 118.37 227.116 117.049C227.109 116.463 227.194 115.885 227.387 115.335C227.544 114.871 227.801 114.443 228.144 114.071C228.458 113.728 228.851 113.464 229.287 113.3C229.737 113.121 230.229 113.029 230.722 113.029C231.886 113.029 232.779 113.378 233.393 114.085C234 114.8 234.307 115.771 234.3 117.013Z" fill="white" />
	<path d="M241.627 114.314H238.627L238.256 116.742C238.178 117.271 238.106 117.706 238.049 118.049C237.992 118.392 237.935 118.677 237.878 118.906C237.835 119.099 237.771 119.277 237.685 119.456C237.613 119.599 237.535 119.734 237.442 119.863H241.634L241.627 114.314ZM235.985 119.863C236.242 119.584 236.435 119.263 236.557 118.906C236.699 118.442 236.806 117.97 236.878 117.499L237.449 113.907C237.456 113.7 237.556 113.5 237.728 113.364C237.928 113.243 238.163 113.193 238.406 113.207H242.219C242.562 113.207 242.762 113.271 242.848 113.4C242.934 113.557 242.976 113.729 242.969 113.907V119.877L243.419 119.906C243.648 119.927 243.769 119.991 243.812 120.106C243.855 120.198 243.876 120.306 243.869 120.405L243.698 122.998C243.698 123.126 243.641 123.191 243.526 123.191H242.676C242.584 123.191 242.534 123.126 242.527 122.998L242.427 120.898H236.599L236.442 123.041C236.449 123.091 236.428 123.141 236.392 123.176C236.357 123.198 236.314 123.212 236.278 123.212H235.428C235.393 123.212 235.357 123.205 235.328 123.183C235.293 123.141 235.278 123.091 235.271 123.041L235.107 120.413C235.093 120.298 235.121 120.184 235.185 120.084C235.278 119.97 235.428 119.898 235.585 119.906L235.985 119.863Z" fill="white" />
	<path d="M249.603 117.292H248.411C248.097 117.292 247.782 117.378 247.511 117.528C247.204 117.706 246.99 117.992 246.911 118.32L246.133 120.748C246.126 120.813 246.083 120.863 246.026 120.891C245.983 120.905 245.933 120.913 245.89 120.913H244.99C244.876 120.913 244.812 120.884 244.797 120.827C244.783 120.777 244.783 120.72 244.797 120.67L245.583 118.127C245.676 117.835 245.811 117.556 245.983 117.299C246.19 117.028 246.49 116.842 246.833 116.764L246.818 116.735C246.547 116.628 246.326 116.442 246.169 116.206C246.004 115.949 245.89 115.664 245.811 115.371L245.226 113.45C245.212 113.4 245.219 113.343 245.24 113.3C245.262 113.243 245.319 113.221 245.412 113.221H246.24C246.29 113.221 246.34 113.229 246.39 113.25C246.447 113.279 246.483 113.336 246.49 113.393L247.09 115.228C247.147 115.421 247.233 115.607 247.354 115.771C247.447 115.899 247.568 116.007 247.704 116.092C247.832 116.171 247.968 116.221 248.118 116.242C248.268 116.264 248.418 116.278 248.568 116.278H249.603V113.421C249.603 113.321 249.625 113.264 249.661 113.236C249.718 113.207 249.789 113.193 249.853 113.2H250.696C250.76 113.193 250.825 113.207 250.889 113.236C250.932 113.264 250.953 113.321 250.953 113.421V116.271H251.981C252.131 116.271 252.281 116.256 252.431 116.235C252.581 116.214 252.724 116.157 252.845 116.085C252.981 115.999 253.103 115.885 253.203 115.764C253.324 115.599 253.417 115.414 253.474 115.221L254.06 113.386C254.074 113.329 254.109 113.271 254.159 113.243C254.209 113.229 254.259 113.214 254.309 113.214H255.138C255.238 113.214 255.288 113.236 255.302 113.293C255.316 113.343 255.316 113.393 255.302 113.443L254.731 115.364C254.652 115.657 254.531 115.942 254.367 116.199C254.209 116.435 253.988 116.614 253.731 116.728L253.717 116.756C253.888 116.806 254.059 116.878 254.209 116.971C254.345 117.056 254.459 117.156 254.559 117.278C254.652 117.399 254.724 117.528 254.788 117.663C254.852 117.806 254.909 117.956 254.959 118.113L255.731 120.655C255.738 120.705 255.738 120.763 255.731 120.813C255.731 120.87 255.666 120.898 255.552 120.898H254.652C254.609 120.898 254.559 120.891 254.517 120.877C254.459 120.863 254.431 120.813 254.409 120.734L253.652 118.313C253.574 117.992 253.367 117.713 253.081 117.528C252.803 117.378 252.496 117.299 252.181 117.292H250.982V120.677C250.982 120.777 250.96 120.834 250.917 120.863C250.86 120.891 250.796 120.905 250.725 120.898H249.882C249.818 120.905 249.746 120.891 249.689 120.863C249.653 120.841 249.632 120.777 249.632 120.677L249.603 117.292Z" fill="white" />
	<path d="M257.159 113.421C257.152 113.35 257.173 113.278 257.223 113.228C257.28 113.2 257.344 113.186 257.409 113.186H258.251C258.323 113.178 258.387 113.193 258.451 113.228C258.494 113.286 258.516 113.35 258.508 113.421V119.084H258.566L259.244 118.063C259.444 117.756 259.672 117.42 259.922 117.07L262.25 113.657C262.322 113.521 262.422 113.4 262.543 113.307C262.679 113.228 262.836 113.193 262.993 113.207H263.393C263.55 113.2 263.707 113.25 263.836 113.35C263.957 113.464 264.021 113.621 264.014 113.778V120.691C264.021 120.755 264 120.812 263.957 120.855C263.9 120.884 263.829 120.898 263.764 120.891H262.915C262.85 120.891 262.786 120.884 262.729 120.855C262.686 120.834 262.665 120.777 262.665 120.691V115.099H262.572C262.443 115.278 262.343 115.435 262.236 115.592C262.129 115.742 262.043 115.892 261.943 116.049C261.843 116.199 261.743 116.356 261.643 116.513C261.543 116.671 261.415 116.842 261.301 117.013L258.894 120.47C258.808 120.605 258.701 120.727 258.566 120.812C258.437 120.877 258.287 120.912 258.137 120.905H257.78C257.616 120.912 257.459 120.862 257.33 120.762C257.209 120.648 257.152 120.491 257.166 120.334V113.421H257.159Z" fill="white" />
	<path d="M130.396 109.251C130.396 110.636 129.218 111.757 127.761 111.757C126.304 111.757 125.126 110.636 125.126 109.251C125.126 107.873 126.304 106.752 127.754 106.744C129.218 106.744 130.396 107.866 130.396 109.251Z" fill="white" />
	<path d="M124.14 104.795C123.862 105.802 122.776 106.395 121.72 106.13C120.663 105.866 120.034 104.831 120.32 103.831C120.598 102.824 121.684 102.231 122.741 102.495C123.791 102.767 124.419 103.795 124.14 104.795Z" fill="white" />
	<path d="M116.642 109.251C116.642 109.944 116.057 110.508 115.328 110.508C114.593 110.508 114 109.944 114 109.251C114 108.558 114.586 107.994 115.314 107.994C116.05 107.994 116.635 108.558 116.642 109.251Z" fill="white" />
	<path d="M124.14 113.7C124.426 114.7 123.812 115.735 122.755 116.014C121.698 116.292 120.613 115.699 120.327 114.7C120.041 113.7 120.656 112.664 121.712 112.386H121.72C122.769 112.115 123.855 112.707 124.14 113.7C124.14 113.707 124.14 113.707 124.14 113.714Z" fill="white" />
	<path d="M119.984 121.12C120.348 121.719 120.134 122.484 119.506 122.833C118.877 123.183 118.07 122.976 117.706 122.376C117.342 121.777 117.556 121.012 118.185 120.663C118.813 120.32 119.62 120.52 119.984 121.12Z" fill="white" />
	<path d="M128.818 121.412C129.589 122.148 129.589 123.333 128.818 124.069C128.047 124.804 126.797 124.804 126.026 124.069C125.254 123.333 125.254 122.148 126.026 121.419C126.79 120.684 128.032 120.684 128.804 121.412C128.811 121.405 128.811 121.412 128.818 121.412Z" fill="white" />
	<path d="M129.125 129.81C129.753 130.16 129.968 130.924 129.603 131.524C129.239 132.124 128.432 132.324 127.804 131.974C127.175 131.624 126.961 130.867 127.325 130.267C127.682 129.667 128.489 129.46 129.125 129.81C129.118 129.81 129.118 129.81 129.125 129.81Z" fill="white" />
	<path d="M136.923 125.861C137.98 126.133 138.601 127.161 138.323 128.161C138.044 129.16 136.959 129.76 135.902 129.489C134.845 129.218 134.224 128.189 134.502 127.189C134.788 126.19 135.873 125.597 136.923 125.861Z" fill="white" />
	<path d="M141.608 132.988C142.336 132.988 142.929 133.545 142.929 134.238C142.929 134.93 142.343 135.495 141.615 135.495C140.886 135.495 140.294 134.938 140.294 134.245C140.287 133.552 140.872 132.995 141.608 132.988Z" fill="white" />
	<path d="M146.292 125.861C147.342 125.59 148.428 126.183 148.713 127.182C148.999 128.182 148.378 129.218 147.321 129.489C146.271 129.76 145.185 129.168 144.9 128.168C144.9 128.168 144.9 128.168 144.9 128.161C144.614 127.161 145.243 126.133 146.292 125.861C146.299 125.861 146.299 125.861 146.307 125.861Z" fill="white" />
	<path d="M154.09 129.81C154.719 129.468 155.526 129.675 155.89 130.267C156.254 130.867 156.033 131.631 155.404 131.974C154.776 132.317 153.976 132.117 153.612 131.517C153.241 130.924 153.455 130.16 154.09 129.81Z" fill="white" />
	<path d="M154.39 121.412C155.162 120.677 156.411 120.677 157.183 121.412C157.954 122.148 157.954 123.333 157.183 124.069C156.411 124.804 155.162 124.804 154.39 124.069C153.626 123.333 153.626 122.148 154.39 121.412Z" fill="white" />
	<path d="M163.231 121.119C163.595 120.52 164.402 120.32 165.031 120.669C165.659 121.019 165.873 121.784 165.509 122.383C165.145 122.976 164.345 123.183 163.71 122.84C163.081 122.49 162.86 121.726 163.231 121.119C163.231 121.119 163.224 121.127 163.231 121.119Z" fill="white" />
	<path d="M159.075 113.7C159.353 112.693 160.439 112.1 161.496 112.364C162.553 112.629 163.181 113.664 162.896 114.664C162.617 115.671 161.532 116.263 160.475 115.999C159.425 115.735 158.796 114.707 159.075 113.7Z" fill="white" />
	<path d="M166.573 109.251C166.573 108.558 167.159 107.994 167.887 107.994C168.616 107.994 169.208 108.551 169.208 109.244C169.208 109.937 168.623 110.501 167.894 110.501C167.166 110.501 166.573 109.944 166.573 109.251Z" fill="white" />
	<path d="M159.075 104.795C158.789 103.788 159.418 102.76 160.475 102.488C161.532 102.217 162.617 102.817 162.896 103.816C163.181 104.823 162.553 105.852 161.496 106.123C160.446 106.394 159.361 105.802 159.075 104.795Z" fill="white" />
	<path d="M163.231 97.368C162.867 96.7681 163.088 96.004 163.717 95.6612C164.345 95.3184 165.152 95.5255 165.516 96.1254C165.881 96.7252 165.666 97.4894 165.038 97.8321C164.417 98.182 163.61 97.9821 163.245 97.3894C163.238 97.3822 163.231 97.3751 163.231 97.368Z" fill="white" />
	<path d="M154.39 97.0895C153.619 96.354 153.619 95.1614 154.39 94.433C155.162 93.6975 156.418 93.6975 157.19 94.433C157.961 95.1685 157.961 96.3611 157.19 97.0895C156.418 97.8179 155.169 97.8179 154.39 97.0895Z" fill="white" />
	<path d="M154.09 88.6843C153.462 88.3344 153.248 87.5703 153.612 86.9704C153.976 86.3705 154.783 86.1706 155.412 86.5134C156.04 86.8561 156.254 87.6202 155.897 88.2201C155.533 88.8271 154.726 89.0342 154.09 88.6843C154.09 88.6914 154.09 88.6914 154.09 88.6843Z" fill="white" />
	<path d="M146.292 92.6335C145.235 92.3692 144.607 91.3409 144.886 90.334C145.164 89.3271 146.249 88.7344 147.306 88.9986C148.363 89.2628 148.992 90.2912 148.713 91.2981C148.428 92.305 147.342 92.8977 146.292 92.6335Z" fill="white" />
	<path d="M141.608 85.5065C140.879 85.5065 140.294 84.9424 140.294 84.2497C140.294 83.557 140.886 83 141.615 83C142.343 83 142.929 83.5642 142.929 84.2568C142.922 84.9495 142.336 85.5065 141.608 85.5065Z" fill="white" />
	<path d="M136.923 92.6335C135.866 92.9049 134.781 92.305 134.502 91.3052C134.217 90.3055 134.845 89.27 135.902 88.9986C136.959 88.7273 138.037 89.3271 138.323 90.3269C138.608 91.3338 137.98 92.3621 136.923 92.6335Z" fill="white" />
	<path d="M129.125 88.6844C128.497 89.0272 127.69 88.8201 127.325 88.2203C126.961 87.6204 127.183 86.8563 127.811 86.5135C128.439 86.1707 129.239 86.3778 129.603 86.9706C129.968 87.5633 129.761 88.3345 129.132 88.6773C129.132 88.6844 129.125 88.6844 129.125 88.6844Z" fill="white" />
	<path d="M128.818 97.0895C128.047 97.8251 126.797 97.8251 126.026 97.0895C125.254 96.354 125.254 95.1686 126.026 94.433C126.797 93.7046 128.047 93.7046 128.818 94.433C129.589 95.1614 129.589 96.3468 128.818 97.0895C128.818 97.0895 128.818 97.0824 128.818 97.0895Z" fill="white" />
	<path d="M119.984 97.3681C119.62 97.9679 118.813 98.1679 118.185 97.818C117.556 97.4681 117.342 96.704 117.706 96.1041C118.07 95.5114 118.87 95.3043 119.506 95.6471C120.134 96.0041 120.348 96.7682 119.984 97.3681Z" fill="white" />
	<path d="M131.903 114.578C132.624 115.778 132.189 117.306 130.932 117.999C129.668 118.684 128.061 118.277 127.333 117.078C126.611 115.885 127.04 114.357 128.289 113.664C129.546 112.971 131.16 113.379 131.896 114.571C131.896 114.571 131.896 114.578 131.903 114.578Z" fill="white" />
	<path d="M136.002 118.477C137.259 119.17 137.687 120.705 136.952 121.905C136.216 123.098 134.609 123.505 133.353 122.812C132.103 122.119 131.674 120.591 132.396 119.399C133.124 118.199 134.738 117.785 135.995 118.477H136.002Z" fill="white" />
	<path d="M141.608 119.906C143.065 119.906 144.243 121.027 144.25 122.412C144.25 123.797 143.072 124.919 141.615 124.919C140.158 124.919 138.98 123.797 138.973 122.412V122.405C138.973 121.027 140.151 119.906 141.608 119.906Z" fill="white" />
	<path d="M147.206 118.477C148.463 117.784 150.077 118.192 150.806 119.384C151.534 120.577 151.113 122.112 149.856 122.812C148.599 123.505 146.985 123.098 146.257 121.905C146.257 121.905 146.257 121.905 146.257 121.898C145.535 120.698 145.964 119.17 147.221 118.477" fill="white" />
	<path d="M151.313 114.578C152.048 113.386 153.655 112.979 154.912 113.671C156.169 114.364 156.597 115.899 155.861 117.099C155.133 118.292 153.526 118.699 152.269 118.013C151.013 117.32 150.577 115.785 151.313 114.578C151.305 114.578 151.305 114.585 151.313 114.578Z" fill="white" />
	<path d="M152.812 109.251C152.812 107.866 153.99 106.744 155.447 106.751C156.904 106.751 158.082 107.873 158.082 109.258C158.082 110.643 156.904 111.757 155.447 111.757C153.99 111.757 152.812 110.636 152.812 109.251Z" fill="white" />
	<path d="M141.608 113.571C139.101 113.571 137.066 111.636 137.066 109.251C137.066 106.866 139.101 104.93 141.608 104.938C144.114 104.938 146.149 106.873 146.149 109.251C146.149 111.629 144.121 113.564 141.608 113.571ZM141.608 100.681C136.637 100.681 132.603 104.516 132.603 109.244C132.603 113.971 136.63 117.806 141.608 117.813C146.578 117.813 150.613 113.978 150.613 109.251V109.244C150.606 104.516 146.578 100.689 141.608 100.681Z" fill="white" />
	<path d="M151.313 103.916C150.591 102.717 151.027 101.189 152.284 100.496C153.548 99.8103 155.154 100.217 155.883 101.417C156.604 102.61 156.176 104.138 154.926 104.831C153.669 105.523 152.055 105.116 151.32 103.924C151.313 103.924 151.313 103.924 151.313 103.916Z" fill="white" />
	<path d="M147.214 100.017C145.957 99.3246 145.528 97.7892 146.257 96.5895C146.985 95.3898 148.599 94.9828 149.863 95.6826C151.12 96.3753 151.548 97.9035 150.827 99.1032C150.091 100.303 148.47 100.717 147.214 100.017Z" fill="white" />
	<path d="M141.608 98.5892C140.151 98.5892 138.973 97.4681 138.973 96.0827C138.973 94.6973 140.151 93.5761 141.608 93.5833C143.057 93.5833 144.236 94.7044 144.243 96.0827C144.243 97.4681 143.072 98.5892 141.615 98.5892C141.615 98.5892 141.608 98.5892 141.608 98.5892Z" fill="white" />
	<path d="M136.002 100.017C134.738 100.71 133.131 100.296 132.403 99.0962C131.674 97.8965 132.11 96.3611 133.374 95.6756C134.631 94.99 136.238 95.3971 136.966 96.5896C137.694 97.7822 137.273 99.3175 136.016 100.017C136.009 100.017 136.009 100.017 136.002 100.017Z" fill="white" />
	<path d="M131.903 103.916C131.167 105.109 129.561 105.516 128.304 104.823C127.047 104.131 126.618 102.595 127.354 101.396C128.082 100.203 129.689 99.7959 130.946 100.481C132.21 101.167 132.646 102.702 131.917 103.895C131.903 103.909 131.903 103.916 131.903 103.916Z" fill="white" />
</svg>
